<svg width="200" height="200" viewBox="0 0 200 200" fill="none" xmlns="http://www.w3.org/2000/svg">
<circle cx="100" cy="100" r="100" fill="#B55A2B"/>
<path d="M160.386 112.571C160.383 112.601 160.371 112.62 160.35 112.628C160.328 112.646 160.307 112.648 160.289 112.636C160.27 112.624 160.262 112.599 160.267 112.559C160.297 112.27 160.341 111.938 160.401 111.562C160.449 111.195 160.474 111.007 160.475 110.997L160.701 108.834C160.702 108.824 160.717 108.629 160.747 108.25C160.765 107.88 160.79 107.551 160.82 107.263C160.823 107.233 160.836 107.209 160.857 107.191C160.878 107.183 160.898 107.185 160.917 107.197C160.935 107.219 160.942 107.245 160.939 107.275C160.925 107.696 160.969 108.002 161.069 108.194C161.17 108.385 161.38 108.538 161.7 108.652C162.03 108.766 162.572 108.873 163.326 108.972L170.964 109.77L171.494 104.698L163.856 103.9C163.098 103.841 162.546 103.833 162.199 103.878C161.863 103.923 161.625 104.029 161.487 104.195C161.349 104.362 161.244 104.647 161.171 105.052C161.165 105.112 161.142 105.14 161.102 105.135C161.063 105.131 161.046 105.099 161.052 105.04C161.082 104.751 161.126 104.424 161.185 104.058C161.233 103.691 161.258 103.503 161.259 103.493L161.486 101.315C161.488 101.305 161.502 101.115 161.531 100.746C161.549 100.376 161.574 100.047 161.604 99.7584C161.61 99.6987 161.633 99.6709 161.673 99.6751C161.713 99.6793 161.729 99.7112 161.723 99.7708C161.71 100.182 161.754 100.483 161.855 100.674C161.956 100.866 162.166 101.019 162.486 101.132C162.816 101.247 163.357 101.354 164.111 101.453L169.333 101.999C170.091 102.058 170.638 102.065 170.975 102.019C171.321 101.975 171.563 101.87 171.701 101.703C171.839 101.537 171.945 101.251 172.017 100.846C172.023 100.787 172.046 100.759 172.086 100.763C172.126 100.767 172.143 100.799 172.136 100.859C172.106 101.147 172.062 101.474 172.004 101.84C171.955 102.207 171.931 102.396 171.93 102.406L170.918 112.088C170.917 112.098 170.902 112.287 170.874 112.656C170.854 113.036 170.829 113.371 170.799 113.659C170.791 113.739 170.763 113.761 170.717 113.726C170.688 113.713 170.676 113.686 170.68 113.647C170.693 113.236 170.649 112.935 170.548 112.743C170.447 112.552 170.232 112.398 169.902 112.283C169.582 112.17 169.046 112.063 168.292 111.964L163.07 111.419C162.312 111.36 161.76 111.352 161.414 111.397C161.077 111.442 160.84 111.548 160.702 111.714C160.564 111.881 160.458 112.167 160.386 112.571Z" fill="#FDF3ED"/>
<path d="M158.154 118.604C158.713 116.924 159.644 115.711 160.946 114.964C162.249 114.217 163.654 114.095 165.163 114.597C166.681 115.103 167.747 116.064 168.361 117.48C168.981 118.909 169.018 120.445 168.472 122.086C167.907 123.784 166.973 125.007 165.67 125.754C164.355 126.507 162.943 126.632 161.434 126.13C159.926 125.628 158.861 124.662 158.241 123.233C157.627 121.817 157.598 120.274 158.154 118.604ZM158.225 119.054C157.976 119.835 158.056 120.621 158.468 121.412C158.93 122.303 160.005 122.998 161.694 123.497C163.038 123.892 164.365 123.975 165.674 123.747C166.332 123.639 166.906 123.404 167.396 123.04C167.883 122.685 168.213 122.232 168.386 121.678C168.63 120.884 168.546 120.092 168.134 119.302C167.669 118.42 166.582 117.726 164.875 117.221C163.54 116.829 162.215 116.741 160.9 116.957C160.239 117.074 159.67 117.311 159.192 117.669C158.712 118.036 158.389 118.498 158.225 119.054Z" fill="#FDF3ED"/>
<path d="M150.248 135.776L150.175 135.872L150.019 135.782L151.179 133.768C151.378 133.363 151.707 133.062 152.167 132.865C152.24 132.838 152.467 132.824 152.848 132.824L153.201 132.872L153.513 132.931L154.471 133.102C155.49 133.296 156.329 133.312 156.988 133.149C157.66 133.005 158.205 132.569 158.624 131.841L158.669 131.763L156.186 130.333C155.518 129.971 155.016 129.74 154.682 129.64C154.356 129.544 154.096 129.545 153.902 129.641C153.708 129.737 153.496 129.955 153.266 130.295C153.236 130.347 153.203 130.363 153.169 130.344C153.134 130.324 153.132 130.288 153.162 130.236C153.306 129.984 153.48 129.703 153.682 129.393C153.875 129.077 153.974 128.915 153.979 128.906L155.072 127.008C155.077 127 155.168 126.833 155.344 126.507C155.511 126.176 155.667 125.885 155.812 125.634C155.842 125.582 155.874 125.566 155.909 125.586C155.943 125.606 155.946 125.642 155.916 125.694C155.737 126.064 155.655 126.357 155.669 126.573C155.683 126.789 155.813 127.014 156.059 127.248C156.314 127.487 156.766 127.805 157.414 128.202L161.964 130.822C162.632 131.184 163.129 131.412 163.455 131.508C163.79 131.608 164.054 131.61 164.248 131.514C164.442 131.418 164.654 131.2 164.885 130.86C164.914 130.808 164.947 130.792 164.981 130.811C165.016 130.831 165.018 130.867 164.988 130.919C164.844 131.171 164.67 131.452 164.468 131.762C164.275 132.078 164.176 132.24 164.171 132.249L163.078 134.147C163.073 134.155 162.982 134.322 162.806 134.648C162.639 134.979 162.483 135.27 162.338 135.521C162.308 135.573 162.276 135.589 162.241 135.569C162.207 135.549 162.204 135.513 162.234 135.461C162.413 135.091 162.495 134.798 162.481 134.582C162.467 134.366 162.333 134.138 162.078 133.899C161.832 133.665 161.384 133.35 160.736 132.953L158.838 131.86L158.537 132.414C158.048 133.263 157.861 133.958 157.977 134.498C158.097 135.051 158.404 135.609 158.9 136.172L159.738 137.121C160.121 137.538 160.348 137.935 160.42 138.311C160.487 138.695 160.401 139.096 160.161 139.512C159.922 139.928 159.62 140.221 159.256 140.392C158.892 140.564 158.554 140.559 158.242 140.38C157.982 140.23 157.833 140.017 157.796 139.742C157.767 139.471 157.832 139.197 157.992 138.92C158.381 138.244 159.038 137.925 159.964 137.961C160.011 137.919 159.994 137.829 159.912 137.689C159.835 137.564 159.691 137.383 159.481 137.147L158.75 136.311C158.406 135.927 158.14 135.538 157.953 135.141C157.733 134.68 157.701 134.125 157.856 133.476C157.301 134.218 156.695 134.74 156.037 135.042C155.378 135.343 154.615 135.446 153.747 135.35L152.538 135.225L151.87 135.152C151.728 135.139 151.549 135.14 151.333 135.154C150.895 135.213 150.533 135.421 150.248 135.776Z" fill="#FDF3ED"/>
<path d="M142.545 144.43C142.525 144.453 142.504 144.462 142.483 144.456C142.461 144.451 142.446 144.437 142.437 144.417C142.429 144.396 142.434 144.375 142.454 144.352C142.604 144.178 142.798 143.969 143.036 143.725C143.266 143.474 143.384 143.345 143.39 143.337L144.94 141.544C144.947 141.536 145.08 141.374 145.341 141.058C145.587 140.742 145.805 140.474 145.995 140.255C146.014 140.232 146.038 140.22 146.066 140.218C146.088 140.223 146.103 140.236 146.112 140.257C146.114 140.285 146.105 140.311 146.085 140.333C145.715 140.793 145.641 141.185 145.863 141.509C146.086 141.847 146.696 142.196 147.694 142.556L147.846 142.609L149.386 140.827L150.936 139.034C150.633 138.375 150.186 137.929 149.594 137.696C149.011 137.469 148.499 137.595 148.058 138.073C148.039 138.096 148.018 138.105 147.997 138.099C147.968 138.101 147.953 138.088 147.951 138.06C147.935 138.033 147.937 138.008 147.956 137.985C148.074 137.849 148.389 137.5 148.901 136.938C149.157 136.657 149.377 136.411 149.56 136.199C149.664 136.078 149.782 135.934 149.911 135.769C150.171 135.438 150.34 135.227 150.418 135.136C150.438 135.114 150.463 135.116 150.493 135.142C150.523 135.168 150.529 135.192 150.509 135.215C150.268 135.509 150.219 136.002 150.361 136.693C150.499 137.421 150.732 138.13 151.059 138.823L153.631 144.357C154.344 144.51 154.949 144.629 155.444 144.714C155.5 144.71 155.516 144.73 155.491 144.774C155.267 145.202 155.108 145.646 155.014 146.107C154.909 146.61 154.906 147.011 155.005 147.309C155.006 147.323 154.993 147.338 154.966 147.354L145.987 144.531C144.942 144.195 144.177 144.01 143.692 143.975C143.236 143.951 142.854 144.103 142.545 144.43ZM151.038 139.26L149.556 140.974L148.075 142.688C150.366 143.478 152.139 144.019 153.394 144.31L151.038 139.26Z" fill="#FDF3ED"/>
<path d="M136.991 152.726C136.424 152.015 136.299 151.111 136.615 150.015C136.945 148.921 137.619 147.969 138.636 147.159C138.941 146.916 139.337 146.651 139.825 146.365C140.244 146.121 140.497 145.964 140.583 145.896C140.927 145.622 141.008 145.25 140.826 144.781C140.816 144.687 140.843 144.666 140.908 144.716L144.287 147.97C144.312 148.001 144.308 148.029 144.277 148.054C144.262 148.066 144.237 148.06 144.205 148.035C143.099 147.369 142.055 146.973 141.073 146.848C140.097 146.73 139.325 146.885 138.757 147.312C138.264 147.704 138.016 148.26 138.013 148.978C138.01 149.696 138.283 150.4 138.831 151.088C139.255 151.62 139.778 151.939 140.399 152.045C141.012 152.157 141.546 152.032 142 151.671C142.305 151.428 142.529 151.204 142.673 151C142.681 150.994 142.695 150.963 142.716 150.909C142.735 150.868 142.76 150.796 142.793 150.693C142.826 150.59 142.863 150.491 142.902 150.396C143.028 150.04 143.165 149.803 143.313 149.685C143.517 149.523 143.674 149.512 143.787 149.653C143.986 149.903 143.737 150.37 143.041 151.052C142.499 151.944 142.201 152.693 142.146 153.299C142.084 153.911 142.302 154.53 142.801 155.156C143.162 155.61 143.564 155.858 144.008 155.901C144.45 155.958 144.89 155.812 145.328 155.463C145.554 155.283 145.757 155.032 145.936 154.71C145.574 153.694 145.366 152.927 145.311 152.409C145.262 151.898 145.37 151.536 145.636 151.325C146.074 150.976 146.464 151.016 146.807 151.447C147.206 151.947 147.218 152.66 146.843 153.585C146.466 154.525 145.941 155.262 145.268 155.798C144.345 156.533 143.511 156.962 142.764 157.084C142.017 157.206 141.438 157.008 141.027 156.492C140.79 156.195 140.651 155.82 140.61 155.367C140.588 155.115 140.696 154.697 140.933 154.112C141.007 153.964 141.129 153.732 141.3 153.417L141.719 152.738C141.819 152.607 141.99 152.356 142.231 151.985L142.731 151.241C142.097 151.938 141.577 152.448 141.17 152.772C140.396 153.389 139.629 153.687 138.87 153.665C138.11 153.657 137.484 153.344 136.991 152.726Z" fill="#FDF3ED"/>
<path d="M123.485 156.874C123.459 156.888 123.436 156.889 123.418 156.876C123.4 156.863 123.39 156.845 123.39 156.823C123.389 156.801 123.402 156.782 123.429 156.768C123.632 156.66 123.888 156.535 124.197 156.393C124.502 156.242 124.659 156.164 124.668 156.159L126.76 155.045C126.769 155.041 126.952 154.938 127.309 154.736C127.652 154.53 127.952 154.359 128.208 154.223C128.235 154.209 128.261 154.206 128.288 154.214C128.307 154.227 128.316 154.245 128.317 154.267C128.308 154.294 128.291 154.315 128.265 154.329C127.753 154.624 127.543 154.963 127.633 155.345C127.719 155.741 128.163 156.287 128.963 156.982L129.087 157.086L131.166 155.979L133.257 154.865C133.212 154.142 132.956 153.564 132.488 153.133C132.026 152.711 131.503 152.644 130.92 152.932C130.893 152.946 130.871 152.947 130.853 152.934C130.825 152.926 130.816 152.908 130.824 152.881C130.819 152.85 130.83 152.827 130.856 152.813C131.015 152.728 131.435 152.516 132.115 152.177C132.455 152.007 132.749 151.856 132.996 151.725C133.137 151.649 133.298 151.558 133.478 151.451C133.84 151.235 134.073 151.1 134.179 151.043C134.206 151.029 134.228 151.04 134.247 151.075C134.266 151.11 134.262 151.135 134.236 151.149C133.905 151.337 133.681 151.779 133.565 152.475C133.432 153.203 133.393 153.949 133.448 154.713L133.853 160.802C134.463 161.202 134.983 161.531 135.415 161.789C135.469 161.805 135.476 161.829 135.437 161.862C135.074 162.18 134.765 162.537 134.511 162.932C134.232 163.365 134.085 163.737 134.07 164.051C134.066 164.064 134.049 164.074 134.017 164.079L126.66 158.209C125.805 157.519 125.159 157.07 124.719 156.863C124.303 156.676 123.892 156.68 123.485 156.874ZM133.271 155.113L131.271 156.178L129.272 157.242C131.124 158.805 132.583 159.949 133.648 160.673L133.271 155.113Z" fill="#FDF3ED"/>
<path d="M116.97 158.785L118.936 158.188C118.946 158.185 119.217 158.097 119.75 157.925C120.271 157.746 120.727 157.597 121.119 157.477C121.167 157.463 121.203 157.462 121.228 157.476C121.253 157.489 121.259 157.508 121.246 157.533C121.235 157.568 121.206 157.592 121.158 157.607C120.724 157.759 120.404 157.893 120.199 158.008C119.986 158.135 119.828 158.319 119.724 158.56C119.622 158.81 119.594 159.096 119.639 159.416C119.677 159.75 119.777 160.216 119.938 160.815L122.118 167.991L122.592 167.847C123.166 167.673 123.697 167.099 124.185 166.125C124.651 165.147 124.906 163.972 124.949 162.6C124.954 162.515 124.979 162.492 125.022 162.531C125.034 162.538 125.045 162.556 125.054 162.584L125.662 167.839C125.652 167.874 125.623 167.883 125.576 167.865C125.367 167.657 125.066 167.561 124.673 167.575C124.271 167.593 123.663 167.726 122.85 167.973L119.147 169.098C118.295 169.356 117.712 169.586 117.396 169.786C117.071 169.989 116.88 170.236 116.821 170.525C116.795 170.575 116.766 170.584 116.735 170.551L114.318 165.846C114.306 165.807 114.313 165.779 114.339 165.761C114.358 165.755 114.379 165.77 114.4 165.805C115.208 166.918 116.088 167.749 117.038 168.296C117.985 168.834 118.75 169.014 119.334 168.837L119.765 168.706L117.585 161.53C117.358 160.784 117.127 160.247 116.892 159.922C116.657 159.596 116.386 159.407 116.077 159.354C115.771 159.311 115.341 159.374 114.786 159.543C114.738 159.557 114.702 159.558 114.677 159.544C114.652 159.531 114.646 159.512 114.659 159.487C114.67 159.452 114.699 159.428 114.747 159.413C115.139 159.294 115.606 159.163 116.148 159.019C116.686 158.866 116.961 158.788 116.97 158.785Z" fill="#FDF3ED"/>
<path d="M108.711 166.166L107.429 166.31C105.601 166.516 104.168 166.435 103.13 166.068C102.084 165.713 101.514 165.118 101.42 164.283C101.318 163.369 101.647 162.622 102.407 162.044C103.167 161.466 104.307 161.091 105.828 160.92L110.404 160.407C110.414 160.405 110.602 160.379 110.969 160.328C111.334 160.267 111.661 160.22 111.949 160.188C112.009 160.181 112.041 160.198 112.045 160.237C112.051 160.287 112.024 160.315 111.964 160.322C111.559 160.388 111.274 160.49 111.108 160.629C110.943 160.769 110.839 161.012 110.798 161.359C110.756 161.705 110.768 162.258 110.833 163.015L111.415 168.202C111.52 168.956 111.631 169.497 111.748 169.825C111.866 170.154 112.02 170.368 112.213 170.468C112.405 170.567 112.706 170.603 113.116 170.578C113.175 170.571 113.207 170.587 113.212 170.627C113.216 170.667 113.189 170.69 113.129 170.697C112.841 170.729 112.512 170.756 112.142 170.777C111.773 170.809 111.584 170.825 111.574 170.826L109.414 171.084C109.404 171.085 109.211 171.112 108.834 171.164C108.459 171.226 108.132 171.273 107.854 171.304C107.774 171.313 107.747 171.291 107.771 171.238C107.778 171.207 107.801 171.189 107.84 171.185C108.245 171.109 108.529 171.002 108.695 170.863C108.86 170.723 108.964 170.48 109.005 170.133C109.048 169.796 109.037 169.249 108.972 168.492L108.711 166.166ZM107.983 160.89L106.954 161.005C105.951 161.118 105.192 161.439 104.678 161.97C104.164 162.501 103.95 163.154 104.037 163.929C104.227 165.618 105.624 166.317 108.227 166.025L108.689 165.973L108.375 163.17C108.243 161.998 108.112 161.237 107.983 160.89Z" fill="#FDF3ED"/>
<path d="M91.9829 166.302L90.7053 166.124C88.883 165.87 87.5147 165.436 86.6006 164.824C85.6752 164.221 85.2705 163.503 85.3866 162.671C85.5138 161.76 86.0173 161.118 86.8972 160.746C87.777 160.374 88.9746 160.294 90.4899 160.505L95.0507 161.142C95.0606 161.143 95.2495 161.165 95.6173 161.206C95.9865 161.237 96.3148 161.273 96.602 161.313C96.6614 161.321 96.6884 161.345 96.6828 161.385C96.6759 161.434 96.6427 161.455 96.5833 161.447C96.1745 161.41 95.8726 161.438 95.6778 161.532C95.4829 161.626 95.3224 161.836 95.1961 162.162C95.0699 162.488 94.9444 163.025 94.8195 163.775L94.0979 168.945C94.0127 169.701 93.9862 170.252 94.0184 170.6C94.0506 170.948 94.1476 171.194 94.3093 171.337C94.471 171.481 94.7535 171.591 95.1568 171.668C95.2162 171.676 95.2431 171.7 95.2376 171.74C95.2321 171.779 95.1996 171.795 95.1402 171.787C94.8529 171.746 94.5275 171.691 94.1638 171.62C93.7988 171.559 93.6113 171.528 93.6014 171.526L90.7469 171.143L88.0431 170.766C86.9933 170.619 86.3277 170.758 86.0462 171.184C85.9983 171.238 85.9686 171.233 85.9571 171.171L85.5185 166.067C85.5226 166.037 85.5396 166.024 85.5693 166.028C85.599 166.032 85.6217 166.051 85.6373 166.083C85.9685 167.472 86.5406 168.582 87.3536 169.412C88.1581 170.231 89.0555 170.71 90.0459 170.848L90.1499 170.863L90.152 170.848L91.1919 170.993C91.3433 170.56 91.4915 169.823 91.6367 168.783L91.9829 166.302ZM92.5853 161.01L91.5603 160.867C90.56 160.727 89.7451 160.851 89.1156 161.237C88.4861 161.624 88.1174 162.204 88.0096 162.976C87.7746 164.66 88.9545 165.683 91.5494 166.045L92.0099 166.109L92.3997 163.316C92.5628 162.148 92.6247 161.379 92.5853 161.01Z" fill="#FDF3ED"/>
<path d="M79.8351 157.682C81.5037 158.273 82.6991 159.226 83.4212 160.543C84.1434 161.859 84.2392 163.267 83.7087 164.765C83.1748 166.274 82.194 167.322 80.7663 167.909C79.3257 168.502 77.79 168.51 76.1592 167.933C74.4717 167.336 73.267 166.379 72.5448 165.063C71.8166 163.733 71.7177 162.319 72.2482 160.82C72.7787 159.322 73.7642 158.275 75.2048 157.682C76.6325 157.095 78.176 157.095 79.8351 157.682ZM79.3833 157.745C78.6069 157.481 77.8198 157.547 77.0217 157.943C76.1216 158.388 75.4062 159.451 74.8755 161.13C74.4556 162.466 74.3473 163.791 74.5508 165.104C74.6462 165.764 74.8712 166.342 75.2257 166.839C75.5709 167.332 76.0185 167.671 76.5686 167.855C77.3577 168.113 78.1513 168.044 78.9493 167.648C79.84 167.199 80.554 166.126 81.0914 164.428C81.508 163.101 81.621 161.778 81.4302 160.458C81.3254 159.795 81.0988 159.222 80.7503 158.738C80.3924 158.251 79.9367 157.92 79.3833 157.745Z" fill="#FDF3ED"/>
<path d="M62.1736 148.82C62.1481 148.804 62.1364 148.785 62.1384 148.763C62.132 148.736 62.1425 148.719 62.1701 148.712C62.1891 148.7 62.2114 148.702 62.2369 148.718C62.4832 148.871 62.7626 149.056 63.0749 149.274C63.3839 149.478 63.5427 149.582 63.5512 149.587L65.399 150.735C65.4075 150.74 65.5758 150.838 65.9039 151.03C66.2373 151.214 66.5229 151.379 66.7608 151.527C66.8287 151.569 66.8368 151.604 66.7849 151.63C66.7606 151.651 66.7315 151.65 66.6975 151.629C66.3333 151.438 66.0431 151.346 65.8269 151.353C65.6107 151.36 65.3816 151.483 65.1395 151.721C64.8922 151.968 64.5596 152.409 64.1417 153.044L60.0906 159.568L63.9519 161.966L64.544 161.098C64.6316 160.975 64.7672 160.795 64.951 160.556C65.1262 160.311 65.283 160.097 65.4213 159.912C65.5459 159.73 65.6451 159.58 65.7189 159.461L66.3317 158.588C67.5235 156.915 68.7199 155.727 69.9209 155.025C70.8489 154.46 71.6442 154.383 72.3068 154.794C72.5787 154.963 72.7547 155.172 72.835 155.422C72.9014 155.675 72.8687 155.908 72.7369 156.12C72.5733 156.384 72.3438 156.536 72.0481 156.576C71.7472 156.624 71.4524 156.559 71.1635 156.38C70.7387 156.116 70.3729 155.7 70.0659 155.133C68.8839 155.823 67.7029 157.015 66.5228 158.707L65.8103 159.712C65.805 159.721 65.7147 159.847 65.5395 160.091C65.2166 160.574 64.9903 160.957 64.8608 161.241C64.7312 161.526 64.6827 161.784 64.7152 162.016C64.7424 162.257 64.8405 162.459 65.0096 162.623C65.1648 162.79 65.4198 162.995 65.7746 163.239C65.8171 163.265 65.8415 163.292 65.848 163.32C65.8544 163.347 65.8438 163.364 65.8163 163.371C65.7888 163.377 65.7538 163.367 65.7113 163.341C65.3799 163.135 65.0029 162.889 64.5802 162.603C64.1437 162.32 63.9212 162.176 63.9127 162.171L58.0125 158.508C58.004 158.502 57.84 158.406 57.5204 158.22C57.187 158.036 56.8971 157.868 56.6507 157.715C56.6252 157.699 56.6135 157.68 56.6156 157.658C56.6091 157.63 56.6197 157.613 56.6472 157.607C56.6663 157.595 56.6885 157.597 56.714 157.613C56.9964 157.765 57.2257 157.86 57.4017 157.899C57.5641 157.941 57.7463 157.913 57.9485 157.815C58.1421 157.711 58.3377 157.538 58.5352 157.296C58.719 157.057 58.9681 156.694 59.2825 156.206L62.0518 151.746C62.3493 151.248 62.567 150.86 62.7051 150.58C62.8293 150.304 62.8948 150.057 62.9016 149.837C62.8999 149.613 62.8469 149.432 62.7426 149.297C62.6246 149.165 62.4349 149.006 62.1736 148.82Z" fill="#FDF3ED"/>
<path d="M55.0298 149.604L54.0883 148.722C52.7454 147.464 51.8767 146.321 51.4823 145.294C51.0738 144.268 51.1566 143.448 51.7308 142.835C52.3598 142.163 53.1409 141.929 54.0744 142.132C55.0078 142.335 56.0329 142.959 57.1496 144.005L60.5105 147.153C60.5178 147.16 60.6599 147.286 60.9368 147.532C61.2205 147.77 61.4682 147.989 61.6798 148.187C61.7236 148.228 61.7318 148.263 61.7045 148.292C61.6703 148.329 61.6313 148.326 61.5875 148.285C61.2746 148.02 61.0115 147.869 60.7981 147.834C60.5847 147.798 60.3326 147.877 60.0417 148.071C59.7509 148.264 59.3384 148.631 58.8043 149.172L55.2359 152.982C54.7309 153.55 54.3914 153.986 54.2174 154.289C54.0433 154.592 53.981 154.848 54.0303 155.059C54.0797 155.27 54.2471 155.522 54.5327 155.817C54.5765 155.858 54.5847 155.893 54.5574 155.923C54.53 155.952 54.4945 155.946 54.4507 155.905C54.239 155.707 54.005 155.474 53.7486 155.206C53.4854 154.946 53.3502 154.812 53.3429 154.806L51.7452 153.33C51.7379 153.323 51.5922 153.193 51.308 152.941C51.017 152.696 50.7693 152.477 50.5649 152.286C50.5065 152.231 50.5054 152.196 50.5614 152.18C50.5893 152.165 50.6178 152.171 50.6469 152.198C50.9667 152.457 51.2333 152.604 51.4467 152.639C51.6601 152.675 51.9122 152.596 52.203 152.402C52.487 152.216 52.896 151.852 53.4302 151.311L55.0298 149.604ZM58.5715 145.625L57.8161 144.917C57.079 144.227 56.3418 143.858 55.6044 143.812C54.8671 143.765 54.2319 144.026 53.6987 144.596C52.5365 145.836 52.9116 147.352 54.8238 149.143L55.1631 149.461L57.0909 147.403C57.8976 146.542 58.3911 145.949 58.5715 145.625Z" fill="#FDF3ED"/>
<path d="M43.8218 126.579C43.789 126.529 43.7894 126.493 43.8229 126.471C43.8564 126.449 43.8896 126.463 43.9223 126.513C44.0807 126.756 44.2525 127.038 44.4378 127.359C44.6315 127.675 44.731 127.836 44.7365 127.845L52.2886 139.431C52.2941 139.439 52.402 139.596 52.6125 139.9C52.8313 140.199 53.0199 140.47 53.1782 140.713C53.211 140.763 53.2106 140.799 53.1771 140.821C53.1436 140.843 53.1104 140.829 53.0777 140.779C52.8287 140.451 52.6047 140.245 52.4059 140.16C52.2071 140.075 51.9476 140.089 51.6275 140.202C51.299 140.321 50.8109 140.579 50.1633 140.977L45.7652 143.844C45.1394 144.276 44.7101 144.615 44.4774 144.863C44.2362 145.115 44.1145 145.35 44.1123 145.566C44.1101 145.782 44.2083 146.071 44.4071 146.43C44.4398 146.481 44.4395 146.517 44.406 146.539C44.3724 146.56 44.3393 146.546 44.3065 146.496C44.1482 146.253 43.9764 145.971 43.7911 145.65C43.5974 145.335 43.4978 145.173 43.4924 145.164L42.2965 143.33C42.291 143.321 42.1831 143.165 41.9727 142.86C41.7539 142.561 41.5653 142.29 41.4069 142.048C41.3742 141.997 41.3745 141.961 41.408 141.939C41.4415 141.918 41.4747 141.932 41.5074 141.982C41.7565 142.309 41.9804 142.515 42.1792 142.601C42.378 142.686 42.6417 142.669 42.9702 142.55C43.2904 142.437 43.7742 142.182 44.4218 141.783L50.8682 137.581L49.0253 134.754L42.5788 138.956C41.9476 139.379 41.5129 139.71 41.2747 139.949C41.0226 140.185 40.8873 140.399 40.8686 140.59C40.8446 140.773 40.9128 141.015 41.0733 141.316C41.0897 141.341 41.0922 141.363 41.081 141.383C41.0697 141.402 41.0529 141.413 41.0307 141.415C41.0085 141.418 40.9892 141.407 40.9728 141.382C40.8472 141.189 40.7067 140.964 40.5512 140.707L40.3224 140.301L39.102 138.429C39.0965 138.421 39.0077 138.294 38.8355 138.048C38.6495 137.799 38.4964 137.582 38.3762 137.398C38.3598 137.373 38.3573 137.351 38.3686 137.331C38.3744 137.304 38.3912 137.293 38.4189 137.299C38.4411 137.296 38.4604 137.307 38.4768 137.333C38.6599 137.595 38.8468 137.754 39.0377 137.808C39.2201 137.869 39.4812 137.83 39.821 137.692C40.1525 137.559 40.624 137.294 41.2355 136.895L47.6819 132.693L45.8553 129.891L39.4089 134.093C38.7832 134.525 38.3539 134.864 38.1211 135.111C37.88 135.364 37.7583 135.599 37.756 135.815C37.7538 136.031 37.8521 136.319 38.0508 136.679C38.0836 136.729 38.0832 136.765 38.0497 136.787C38.0162 136.809 37.9831 136.795 37.9503 136.745C37.7919 136.502 37.6201 136.22 37.4348 135.899C37.2412 135.583 37.1416 135.422 37.1361 135.413L35.9402 133.579C35.9348 133.57 35.8268 133.414 35.6164 133.109C35.3976 132.81 35.209 132.539 35.0507 132.296C35.0179 132.246 35.0183 132.21 35.0518 132.188C35.0853 132.166 35.1184 132.18 35.1512 132.231C35.4002 132.558 35.6241 132.764 35.823 132.849C36.0218 132.934 36.2855 132.918 36.614 132.799C36.9341 132.686 37.418 132.43 38.0656 132.032L42.4637 129.165C43.0895 128.733 43.5229 128.391 43.7641 128.138C43.9968 127.891 44.1143 127.659 44.1166 127.443C44.1188 127.227 44.0206 126.939 43.8218 126.579Z" fill="#FDF3ED"/>
<path d="M35.9762 116.569C35.9346 116.541 35.9212 116.503 35.9361 116.455L41.0011 115.84C41.0422 115.836 41.0522 115.865 41.0311 115.925C40.721 116.427 40.6993 117.056 40.9663 117.81L43.1084 123.862C43.1117 123.871 43.1798 124.049 43.3127 124.394C43.455 124.736 43.5745 125.044 43.6713 125.317C43.6913 125.374 43.6825 125.409 43.6448 125.422C43.607 125.436 43.5782 125.414 43.5582 125.357C43.3931 124.981 43.2239 124.728 43.0508 124.598C42.8776 124.469 42.6221 124.421 42.2843 124.456C41.9371 124.494 41.4019 124.63 40.6788 124.865L35.7297 126.617C35.0199 126.889 34.5228 127.118 34.2384 127.304C33.9446 127.492 33.7712 127.692 33.7181 127.901C33.665 128.111 33.6928 128.414 33.8013 128.811C33.8213 128.867 33.8125 128.902 33.7747 128.916C33.737 128.929 33.7082 128.907 33.6882 128.851C33.5914 128.577 33.4907 128.263 33.3861 127.908C33.2721 127.555 33.2134 127.375 33.2101 127.365L31.3733 122.176C31.0196 121.176 30.5892 120.65 30.0822 120.596C30.0278 120.562 30.0178 120.534 30.0522 120.511L34.3755 117.756C34.4038 117.746 34.423 117.755 34.433 117.783C34.443 117.811 34.4372 117.84 34.4156 117.869C33.3353 118.803 32.614 119.822 32.2516 120.926C31.8954 122.017 31.8858 123.039 32.2228 123.991L32.6181 125.108L37.2279 123.477L36.7975 122.261C36.5839 121.657 36.2774 121.241 35.8778 121.011C35.4688 120.784 35.038 120.751 34.5855 120.911C34.5478 120.925 34.5192 120.919 34.4998 120.894C34.4992 120.862 34.5161 120.835 34.5505 120.812L37.8452 119.646C37.8829 119.633 37.9068 119.64 37.9168 119.669C37.9174 119.7 37.9052 119.726 37.8802 119.745C37.39 119.919 37.065 120.214 36.905 120.631C36.7451 121.049 36.7752 121.568 36.9955 122.191L37.4259 123.407L42.1488 121.735L41.7083 120.491C41.398 119.614 40.8118 118.782 39.9497 117.995C39.4767 117.557 38.8931 117.212 38.1989 116.959C37.5014 116.697 36.7605 116.567 35.9762 116.569Z" fill="#FDF3ED"/>
<path d="M34.5897 106.101L35.3486 111.538L35.1555 111.565L34.3966 106.128L34.5897 106.101Z" fill="#FDF3ED"/>
<path d="M38.9171 88.5117C38.9194 88.4818 38.9309 88.4626 38.9516 88.4542C38.9731 88.4358 38.9934 88.4323 39.0126 88.4438C39.0318 88.4553 39.0398 88.481 39.0367 88.5209C39.0144 88.8101 38.9786 89.1433 38.9294 89.5206C38.8909 89.8888 38.8713 90.0778 38.8705 90.0878L38.7029 92.2563C38.7021 92.2663 38.692 92.4611 38.6727 92.8407C38.6641 93.2112 38.6487 93.5409 38.6263 93.8301C38.624 93.86 38.6121 93.8842 38.5906 93.9025C38.5699 93.911 38.55 93.9094 38.5308 93.8979C38.5124 93.8764 38.5044 93.8507 38.5067 93.8208C38.5092 93.3998 38.4575 93.0949 38.3517 92.9062C38.246 92.7175 38.0316 92.5705 37.7088 92.4653C37.376 92.3593 36.8315 92.2671 36.0753 92.1886L28.4181 91.5967L28.025 96.6815L35.6822 97.2734C36.4415 97.3121 36.9937 97.3046 37.3389 97.251C37.674 97.1967 37.9084 97.0844 38.0419 96.9142C38.1754 96.744 38.2729 96.4557 38.3344 96.0492C38.3391 95.9894 38.3613 95.961 38.4012 95.9641C38.4411 95.9672 38.4587 95.9986 38.4541 96.0584C38.4317 96.3476 38.3963 96.6758 38.3479 97.0432C38.3094 97.4113 38.2898 97.6004 38.289 97.6103L38.1202 99.7938C38.1194 99.8038 38.1098 99.9936 38.0912 100.363C38.0827 100.734 38.0672 101.064 38.0448 101.353C38.0402 101.412 38.018 101.441 37.9781 101.438C37.9382 101.435 37.9206 101.403 37.9252 101.343C37.9269 100.932 37.8748 100.632 37.7691 100.444C37.6633 100.255 37.449 100.108 37.1261 100.003C36.7933 99.8969 36.2488 99.8046 35.4926 99.7261L30.2582 99.3215C29.4989 99.2829 28.9517 99.2907 28.6165 99.345C28.2714 99.3986 28.032 99.5105 27.8985 99.6807C27.765 99.8509 27.6675 100.139 27.606 100.546C27.6014 100.606 27.5791 100.634 27.5392 100.631C27.4993 100.628 27.4817 100.596 27.4863 100.536C27.5087 100.247 27.5441 99.9191 27.5926 99.5517C27.631 99.1836 27.6507 98.9946 27.6514 98.9846L28.4017 89.2785C28.4025 89.2686 28.4121 89.0787 28.4307 88.7091C28.44 88.3287 28.4559 87.9939 28.4782 87.7048C28.4844 87.625 28.5112 87.602 28.5588 87.6358C28.5879 87.648 28.601 87.6741 28.5979 87.714C28.5962 88.1251 28.6482 88.425 28.754 88.6137C28.8598 88.8024 29.0791 88.9498 29.4119 89.0557C29.7347 89.1609 30.2743 89.2528 31.0305 89.3313L36.2648 89.7359C37.0241 89.7745 37.5763 89.7671 37.9215 89.7135C38.2567 89.6592 38.491 89.5469 38.6246 89.3767C38.7581 89.2065 38.8556 88.9181 38.9171 88.5117Z" fill="#FDF3ED"/>
<path d="M40.9847 82.3915C40.4702 84.085 39.5718 85.3223 38.2894 86.1033C37.007 86.8842 35.6052 87.0436 34.0838 86.5815C32.5529 86.1164 31.4618 85.184 30.8106 83.7842C30.1527 82.372 30.0752 80.8383 30.578 79.1829C31.0983 77.4702 31.9997 76.2234 33.2821 75.4424C34.5769 74.6548 35.985 74.4921 37.5064 74.9543C39.0277 75.4164 40.1173 76.3536 40.7753 77.7659C41.4265 79.1656 41.4963 80.7075 40.9847 82.3915ZM40.9015 81.9429C41.1303 81.1554 41.0286 80.372 40.5965 79.5928C40.1111 78.7137 39.0176 78.0471 37.3162 77.5929C35.9621 77.2338 34.6337 77.1856 33.3311 77.4483C32.6765 77.5734 32.1091 77.8243 31.6288 78.201C31.1515 78.5681 30.8333 79.0306 30.6743 79.5884C30.4522 80.3884 30.5572 81.178 30.9894 81.9573C31.4777 82.8268 32.5822 83.4915 34.3027 83.9515C35.6473 84.3077 36.9742 84.3607 38.2834 84.1105C38.941 83.9758 39.5036 83.7235 39.9714 83.3534C40.442 82.9739 40.7521 82.5037 40.9015 81.9429Z" fill="#FDF3ED"/>
<path d="M48.4345 64.9999L48.5049 64.9015L48.6631 64.9873L47.5552 67.0313C47.3671 67.4412 47.0459 67.7505 46.5915 67.9593C46.519 67.9882 46.2924 68.0075 45.9117 68.0173L45.5573 67.9787L45.2435 67.9281L44.2818 67.7822C43.2582 67.6141 42.419 67.6199 41.7643 67.7996C41.0967 67.961 40.5628 68.4109 40.1625 69.1494L40.1196 69.2285L42.6384 70.5938C43.316 70.9384 43.8234 71.1565 44.1604 71.2482C44.4887 71.3351 44.7484 71.3281 44.9397 71.227C45.131 71.1259 45.3375 70.9023 45.5593 70.5562C45.5879 70.5034 45.6197 70.4866 45.6549 70.5056C45.6901 70.5247 45.6934 70.5606 45.6648 70.6133C45.5266 70.8683 45.3605 71.1537 45.1666 71.4694C44.9815 71.7899 44.8866 71.9546 44.8818 71.9634L43.8382 73.8887C43.8334 73.8975 43.7473 74.067 43.5798 74.397C43.421 74.7318 43.2726 75.0267 43.1344 75.2817C43.1058 75.3344 43.0739 75.3513 43.0387 75.3322C43.0036 75.3131 43.0003 75.2772 43.0289 75.2245C43.1979 74.8497 43.2725 74.5546 43.2528 74.3392C43.2331 74.1238 43.0972 73.9023 42.8452 73.6747C42.5844 73.4423 42.1247 73.1363 41.4661 72.7565L36.8505 70.2547C36.1728 69.9101 35.6699 69.6944 35.3416 69.6075C35.0046 69.5158 34.7404 69.5204 34.5492 69.6215C34.3579 69.7226 34.1514 69.9462 33.9296 70.2923C33.901 70.3451 33.8691 70.3619 33.834 70.3429C33.7988 70.3238 33.7955 70.2879 33.8241 70.2352C33.9623 69.9802 34.1284 69.6948 34.3223 69.3791C34.5074 69.0586 34.6023 68.8939 34.6071 68.8851L35.6507 66.9598C35.6554 66.951 35.7416 66.7816 35.9091 66.4515C36.0678 66.1167 36.2163 65.8218 36.3545 65.5668C36.3831 65.5141 36.415 65.4973 36.4501 65.5163C36.4853 65.5354 36.4886 65.5713 36.46 65.624C36.291 65.9988 36.2164 66.2939 36.2361 66.5093C36.2558 66.7247 36.3961 66.9486 36.6569 67.181C36.9089 67.4086 37.3642 67.7122 38.0228 68.092L39.9481 69.1356L40.2352 68.5746C40.7022 67.713 40.8707 67.0138 40.7408 66.4771C40.6069 65.9267 40.285 65.3769 39.7752 64.8276L38.9132 63.8997C38.5194 63.4929 38.2818 63.1024 38.2002 62.7284C38.1234 62.3455 38.1993 61.943 38.428 61.521C38.6568 61.0991 38.9509 60.7978 39.3103 60.6173C39.6698 60.4368 40.0078 60.4323 40.3243 60.6038C40.588 60.7468 40.7422 60.9555 40.7868 61.2299C40.8227 61.4996 40.7643 61.7751 40.6118 62.0564C40.2401 62.7421 39.5914 63.0786 38.6656 63.0659C38.6194 63.1091 38.6388 63.1993 38.7237 63.3363C38.8047 63.4598 38.9532 63.637 39.1693 63.8679L39.9208 64.6847C40.2754 65.0589 40.5513 65.4416 40.7487 65.833C40.9797 66.2881 41.0263 66.8422 40.8884 67.4954C41.4235 66.739 42.0162 66.2016 42.6666 65.883C43.317 65.5644 44.0773 65.4419 44.9474 65.5154L46.1592 65.6092L46.8285 65.6649C46.9714 65.6741 47.1505 65.6689 47.366 65.6491C47.8023 65.5785 48.1585 65.3621 48.4345 64.9999Z" fill="#FDF3ED"/>
<path d="M55.8133 56.2528C55.8323 56.2296 55.8528 56.2205 55.8746 56.2255C55.8964 56.2304 55.9118 56.2431 55.9209 56.2635C55.9301 56.284 55.9251 56.3058 55.9061 56.3289C55.7602 56.5067 55.5716 56.7207 55.3405 56.9708C55.117 57.2273 55.0022 57.3594 54.9958 57.3671L53.4923 59.1992C53.4859 59.2069 53.3566 59.3724 53.1042 59.6957C52.8659 60.0176 52.6548 60.2906 52.4708 60.5148C52.4518 60.538 52.4282 60.5509 52.4 60.5537C52.3782 60.5488 52.3628 60.5361 52.3536 60.5156C52.3509 60.4875 52.359 60.4618 52.378 60.4386C52.7369 59.9699 52.8011 59.5763 52.5708 59.2579C52.3391 58.9255 51.7201 58.5921 50.7138 58.2578L50.5598 58.209L49.0658 60.0294L47.5622 61.8615C47.8821 62.5121 48.3405 62.9465 48.9376 63.1648C49.5269 63.3768 50.0354 63.2379 50.4632 62.7481C50.4823 62.7249 50.5027 62.7158 50.5245 62.7208C50.5526 62.718 50.5681 62.7307 50.5709 62.7589C50.5877 62.7856 50.5866 62.8106 50.5676 62.8338C50.4534 62.9729 50.1475 63.3299 49.6499 63.9047C49.4011 64.1921 49.1879 64.444 49.0102 64.6604C48.9087 64.7841 48.7952 64.9303 48.6697 65.099C48.4188 65.4363 48.2552 65.6514 48.1791 65.7441C48.16 65.7673 48.1351 65.7662 48.1041 65.7409C48.0732 65.7155 48.0673 65.6912 48.0863 65.668C48.3197 65.3679 48.3563 64.8741 48.1962 64.1864C48.0397 63.4629 47.7892 62.7592 47.4448 62.0755L44.7322 56.6087C44.0154 56.4733 43.4083 56.3696 42.911 56.2978C42.8547 56.3034 42.8386 56.2836 42.8625 56.2386C43.0757 55.8055 43.2234 55.3576 43.3057 54.8947C43.398 54.3883 43.3905 53.9876 43.2833 53.6926C43.2819 53.6785 43.2946 53.6631 43.3213 53.6462L52.3696 56.2403C53.4231 56.5486 54.1926 56.7144 54.678 56.7377C55.1339 56.7496 55.5124 56.588 55.8133 56.2528ZM47.4549 61.6376L48.8918 59.8867L50.3287 58.1358C48.0185 57.4042 46.2325 56.9086 44.9706 56.6492L47.4549 61.6376Z" fill="#FDF3ED"/>
<path d="M61.2381 47.695C61.823 48.392 61.9714 49.2923 61.6833 50.3957C61.381 51.4978 60.732 52.4667 59.7362 53.3024C59.4374 53.5531 59.0478 53.8278 58.5674 54.1264C58.1547 54.3814 57.9063 54.5442 57.822 54.6149C57.4849 54.8977 57.4132 55.2712 57.6069 55.7353C57.62 55.8287 57.5932 55.8512 57.5264 55.8028L54.0663 52.6361C54.0406 52.6054 54.043 52.5773 54.0737 52.5516C54.089 52.5387 54.1134 52.5444 54.1467 52.5686C55.2692 53.2062 56.323 53.5752 57.3079 53.6756C58.2864 53.7683 59.0541 53.5941 59.6108 53.153C60.0934 52.748 60.3271 52.1864 60.3118 51.4682C60.2966 50.75 60.0061 50.0538 59.4404 49.3797C59.0033 48.8588 58.4729 48.5533 57.849 48.4632C57.2328 48.3667 56.7026 48.5049 56.2583 48.8777C55.9595 49.1284 55.7407 49.3577 55.6019 49.5656C55.5942 49.5721 55.5809 49.6028 55.5618 49.658C55.5441 49.699 55.52 49.7714 55.4896 49.8752C55.4592 49.979 55.4256 50.079 55.3888 50.1752C55.2723 50.5341 55.1412 50.7746 54.9957 50.8967C54.7965 51.0639 54.6391 51.0785 54.5234 50.9406C54.3177 50.6955 54.5542 50.2228 55.233 49.5227C55.7523 48.617 56.0314 47.8606 56.0703 47.2536C56.1168 46.6401 55.883 46.027 55.3687 45.4142C54.9959 44.9699 54.5873 44.7318 54.1429 44.7001C53.6997 44.6542 53.2637 44.8112 52.8347 45.1712C52.6125 45.3576 52.4162 45.6137 52.2458 45.9395C52.6333 46.9459 52.8613 47.7076 52.9296 48.2246C52.9915 48.734 52.8923 49.0979 52.6318 49.3165C52.2028 49.6765 51.8116 49.6458 51.458 49.2245C51.0466 48.7342 51.0167 48.0218 51.3682 47.0872C51.7209 46.1385 52.2266 45.3878 52.8854 44.8349C53.7893 44.0764 54.613 43.6268 55.3564 43.486C56.0998 43.3451 56.6837 43.5275 57.1079 44.0331C57.3522 44.3242 57.5007 44.6956 57.5534 45.1474C57.5812 45.3983 57.484 45.8192 57.262 46.4102C57.1921 46.5603 57.0757 46.795 56.9129 47.1144L56.512 47.8033C56.4151 47.9368 56.2508 48.1921 56.0191 48.5693L55.5377 49.3258C56.1537 48.6131 56.6608 48.0896 57.0592 47.7553C57.8175 47.1189 58.5763 46.802 59.3356 46.8046C60.0961 46.793 60.7303 47.0898 61.2381 47.695Z" fill="#FDF3ED"/>
<path d="M74.4977 43.2638C74.5238 43.249 74.5462 43.2479 74.5647 43.2604C74.5833 43.2728 74.5931 43.2903 74.5943 43.3126C74.5954 43.3349 74.583 43.3535 74.5569 43.3683C74.3567 43.4816 74.1038 43.6133 73.798 43.7634C73.4972 43.9222 73.3425 44.0041 73.3338 44.009L71.2714 45.1766C71.2627 45.1816 71.0824 45.2894 70.7305 45.5001C70.3923 45.7145 70.097 45.8932 69.8447 46.0361C69.8186 46.0509 69.7919 46.0545 69.7646 46.0469C69.7461 46.0345 69.7362 46.0171 69.7351 45.9947C69.7426 45.9675 69.7594 45.9465 69.7855 45.9317C70.2891 45.6236 70.4908 45.2796 70.3906 44.8996C70.2942 44.506 69.8368 43.9721 69.0183 43.2978L68.8922 43.1969L66.8429 44.3571L64.7805 45.5248C64.8446 46.2469 65.1158 46.8173 65.5941 47.236C66.0676 47.6459 66.592 47.6995 67.1675 47.3967C67.1936 47.3819 67.2159 47.3807 67.2345 47.3932C67.2618 47.4007 67.2716 47.4182 67.2641 47.4454C67.2701 47.4764 67.2601 47.4994 67.234 47.5141C67.0774 47.6028 66.6635 47.8257 65.9922 48.1827C65.6566 48.3612 65.367 48.5194 65.1233 48.6574C64.9841 48.7362 64.8256 48.8317 64.6478 48.9439C64.2921 49.1682 64.0621 49.3099 63.9577 49.3691C63.9316 49.3838 63.9087 49.3738 63.889 49.339C63.8692 49.3042 63.8724 49.2794 63.8986 49.2646C64.2243 49.0687 64.4363 48.6212 64.5346 47.922C64.6492 47.1906 64.6689 46.444 64.5938 45.6822L64.0319 39.6053C63.412 39.2208 62.883 38.9055 62.4449 38.6594C62.3904 38.6443 62.3824 38.6201 62.421 38.5867C62.7758 38.2594 63.075 37.8947 63.3184 37.4926C63.5869 37.0533 63.7242 36.6768 63.7304 36.363C63.7342 36.3494 63.7516 36.3395 63.7826 36.3335L71.2896 42.0119C72.1614 42.679 72.8195 43.1108 73.264 43.3073C73.685 43.4826 74.0963 43.4681 74.4977 43.2638ZM64.761 45.2772L66.732 44.1613L68.703 43.0454C66.8113 41.5308 65.3236 40.4253 64.2398 39.7289L64.761 45.2772Z" fill="#FDF3ED"/>
<path d="M80.9849 41.1342L79.0351 41.7833C79.0256 41.7865 78.7568 41.8812 78.2286 42.0676C77.7131 42.2603 77.2608 42.4214 76.8718 42.5509C76.8244 42.5667 76.788 42.5683 76.7627 42.5556C76.7374 42.543 76.7311 42.524 76.7437 42.4987C76.7532 42.4639 76.7817 42.4386 76.8292 42.4228C77.2593 42.2586 77.5756 42.1164 77.778 41.9963C77.9868 41.8636 78.1402 41.6755 78.2383 41.432C78.3333 41.1791 78.354 40.8929 78.3003 40.5735C78.253 40.2414 78.141 39.7781 77.9641 39.1835L75.5952 32.0675L75.1255 32.2238C74.5562 32.4133 74.0406 33.0013 73.5785 33.9878C73.1385 34.9774 72.9151 36.1584 72.9083 37.5308C72.9051 37.6162 72.8814 37.6399 72.8371 37.6019C72.8244 37.5956 72.8134 37.5782 72.8039 37.5498L72.0565 32.3127C72.066 32.2779 72.0945 32.2685 72.1419 32.2843C72.3569 32.4868 72.6604 32.5754 73.0525 32.5503C73.4542 32.522 74.0582 32.3736 74.8647 32.1051L78.5366 30.8828C79.381 30.6016 79.9582 30.3568 80.2682 30.1482C80.5877 29.9365 80.7728 29.6851 80.8235 29.3942C80.8488 29.3436 80.8773 29.3342 80.9089 29.3658L83.4495 34.0059C83.4622 34.0438 83.4558 34.0723 83.4305 34.0912C83.4115 34.0975 83.391 34.0833 83.3689 34.0485C82.5313 32.9572 81.6304 32.1505 80.6661 31.6283C79.7049 31.1156 78.935 30.9556 78.3562 31.1483L77.9293 31.2905L80.2982 38.4065C80.5445 39.1466 80.7894 39.6764 81.0328 39.9958C81.2761 40.3153 81.5528 40.4973 81.8627 40.5417C82.1694 40.5766 82.5979 40.5024 83.1482 40.3192C83.1957 40.3034 83.232 40.3019 83.2573 40.3145C83.2826 40.3272 83.2889 40.3462 83.2763 40.3715C83.2668 40.4062 83.2383 40.4315 83.1909 40.4473C82.8018 40.5768 82.3385 40.7205 81.8009 40.8784C81.2664 41.0458 80.9944 41.1311 80.9849 41.1342Z" fill="#FDF3ED"/>
<path d="M89.1497 33.4935L90.428 33.3201C92.2513 33.0727 93.6857 33.1203 94.7313 33.4629C95.7854 33.7942 96.3689 34.376 96.4818 35.2084C96.6055 36.1201 96.294 36.8738 95.5473 37.4696C94.8006 38.0654 93.6692 38.4661 92.1531 38.6718L87.5899 39.2908C87.58 39.2922 87.3924 39.3227 87.0271 39.3823C86.6632 39.4519 86.3375 39.5061 86.0501 39.5451C85.9907 39.5532 85.9583 39.5374 85.9529 39.4978C85.9462 39.4482 85.9725 39.4194 86.032 39.4113C86.4356 39.3364 86.7185 39.2274 86.8807 39.0843C87.0429 38.9412 87.1408 38.6958 87.1744 38.3481C87.208 38.0004 87.1836 37.4487 87.1012 36.6929L86.3995 31.5203C86.2775 30.7699 86.1541 30.2316 86.0291 29.9054C85.9041 29.5793 85.7444 29.3689 85.5499 29.2741C85.3554 29.1794 85.0536 29.1497 84.6447 29.185C84.5852 29.1931 84.5528 29.1773 84.5474 29.1377C84.542 29.098 84.5691 29.0742 84.6285 29.0661C84.9159 29.0271 85.2442 28.9927 85.6136 28.9627C85.9816 28.9229 86.1705 28.9023 86.1804 28.901L88.3337 28.5937C88.3436 28.5924 88.5361 28.5612 88.9113 28.5002C89.2852 28.4293 89.6109 28.3751 89.8883 28.3374C89.9676 28.3267 89.9957 28.3481 89.9727 28.4017C89.9668 28.4327 89.9441 28.451 89.9044 28.4563C89.5022 28.5412 89.22 28.6551 89.0577 28.7983C88.8955 28.9414 88.7976 29.1868 88.764 29.5344C88.7291 29.8722 88.7528 30.419 88.8352 31.1747L89.1497 33.4935ZM89.9994 38.752L91.025 38.6129C92.0258 38.4771 92.777 38.138 93.2787 37.5957C93.7803 37.0533 93.9787 36.3957 93.8739 35.6228C93.6453 33.9382 92.233 33.272 89.6367 33.6242L89.176 33.6867L89.555 36.4811C89.7137 37.6504 89.8618 38.4074 89.9994 38.752Z" fill="#FDF3ED"/>
<path d="M105.734 32.9058L107.016 33.0497C108.845 33.2549 110.224 33.6513 111.154 34.2387C112.096 34.8174 112.52 35.524 112.426 36.3588C112.323 37.2731 111.837 37.9279 110.968 38.3234C110.098 38.7189 108.903 38.8313 107.383 38.6606L102.806 38.1469C102.796 38.1458 102.607 38.1295 102.238 38.0982C101.868 38.0768 101.539 38.0499 101.251 38.0176C101.191 38.0109 101.164 37.9877 101.168 37.9479C101.174 37.8982 101.207 37.8767 101.266 37.8834C101.676 37.9093 101.977 37.8726 102.169 37.7735C102.361 37.6743 102.516 37.4602 102.634 37.1313C102.751 36.8023 102.862 36.2613 102.967 35.5083L103.549 30.3209C103.614 29.5634 103.626 29.0112 103.584 28.6644C103.542 28.3176 103.439 28.0746 103.273 27.9352C103.108 27.7959 102.823 27.6934 102.417 27.6278C102.358 27.6211 102.33 27.5979 102.335 27.5582C102.339 27.5184 102.371 27.5019 102.431 27.5086C102.719 27.5409 103.046 27.5877 103.411 27.6488C103.778 27.7 103.966 27.7262 103.976 27.7273L106.84 28.0337L109.553 28.3382C110.606 28.4565 111.268 28.2993 111.538 27.8667C111.584 27.8116 111.614 27.8149 111.627 27.8768L112.203 32.9678C112.199 32.9976 112.183 33.0108 112.153 33.0075C112.123 33.0041 112.1 32.9864 112.084 32.9544C111.715 31.5747 111.113 30.4807 110.278 29.6725C109.452 28.8754 108.542 28.421 107.548 28.3095L107.444 28.2977L107.442 28.3127L106.399 28.1955C106.259 28.6327 106.131 29.373 106.014 30.4164L105.734 32.9058ZM105.274 38.2126L106.303 38.3281C107.307 38.4407 108.118 38.2953 108.737 37.8919C109.356 37.4884 109.709 36.8991 109.796 36.1239C109.985 34.4345 108.778 33.4437 106.175 33.1514L105.713 33.0996L105.398 35.902C105.266 37.0746 105.225 37.8448 105.274 38.2126Z" fill="#FDF3ED"/>
<path d="M118.242 41.2123C116.558 40.6659 115.338 39.7443 114.582 38.4474C113.825 37.1505 113.692 35.7458 114.183 34.2335C114.677 32.7116 115.63 31.6384 117.042 31.0137C118.466 30.3825 120.001 30.334 121.646 30.868C123.349 31.4206 124.579 32.3453 125.335 33.6422C126.098 34.9517 126.234 36.3626 125.744 37.875C125.253 39.3873 124.295 40.459 122.871 41.0902C121.459 41.7149 119.916 41.7556 118.242 41.2123ZM118.692 41.1376C119.475 41.3812 120.26 41.2943 121.048 40.8769C121.936 40.4082 122.623 39.3275 123.109 37.635C123.494 36.2879 123.567 34.9607 123.329 33.6534C123.216 32.9965 122.976 32.4244 122.608 31.9372C122.25 31.453 121.794 31.1262 121.239 30.9566C120.444 30.7194 119.652 30.8095 118.865 31.2269C117.986 31.6987 117.301 32.7904 116.808 34.502C116.427 35.8396 116.349 37.1652 116.574 38.479C116.697 39.139 116.938 39.7063 117.299 40.1809C117.67 40.6587 118.134 40.9775 118.692 41.1376Z" fill="#FDF3ED"/>
<path d="M136.1 49.5848C136.126 49.6 136.138 49.6187 136.137 49.641C136.144 49.6684 136.134 49.6856 136.106 49.6928C136.088 49.705 136.065 49.7035 136.039 49.6883C135.789 49.5418 135.505 49.3638 135.187 49.1545C134.873 48.9588 134.712 48.8585 134.703 48.8534L132.826 47.7541C132.818 47.749 132.647 47.6548 132.314 47.4713C131.976 47.2965 131.686 47.1383 131.445 46.9968C131.376 46.9564 131.367 46.9222 131.418 46.8942C131.442 46.8734 131.471 46.8731 131.505 46.8933C131.874 47.0746 132.167 47.159 132.383 47.1465C132.599 47.1339 132.825 47.0055 133.06 46.7611C133.301 46.5082 133.622 46.0589 134.024 45.4133L137.906 38.7865L133.984 36.4893L133.414 37.3725C133.33 37.4969 133.199 37.6809 133.021 37.9246C132.853 38.1734 132.701 38.3919 132.568 38.5802C132.448 38.765 132.353 38.9178 132.282 39.0386L131.692 39.9272C130.544 41.6304 129.378 42.8483 128.196 43.5811C127.282 44.1704 126.489 44.2679 125.816 43.8737C125.54 43.7119 125.359 43.5072 125.272 43.2594C125.199 43.008 125.226 42.7745 125.352 42.5588C125.509 42.2913 125.735 42.1337 126.029 42.086C126.329 42.0297 126.625 42.0875 126.919 42.2593C127.35 42.5121 127.726 42.918 128.048 43.4772C129.212 42.7566 130.362 41.5354 131.498 39.8135L132.184 38.7901C132.189 38.7815 132.276 38.6528 132.445 38.404C132.756 37.9137 132.972 37.5247 133.094 37.237C133.216 36.9492 133.258 36.6898 133.22 36.4587C133.186 36.2189 133.083 36.0194 132.91 35.86C132.75 35.697 132.49 35.4982 132.129 35.2636C132.086 35.2383 132.061 35.212 132.054 35.1847C132.047 35.1573 132.057 35.14 132.084 35.1329C132.111 35.1257 132.147 35.1348 132.19 35.1601C132.526 35.3572 132.91 35.5933 133.339 35.8683C133.783 36.1398 134.009 36.278 134.018 36.2831L140.01 39.7934C140.019 39.7985 140.185 39.8902 140.51 40.0686C140.848 40.2434 141.142 40.4041 141.392 40.5507C141.418 40.5658 141.43 40.5846 141.429 40.6069C141.436 40.6343 141.426 40.6515 141.398 40.6587C141.38 40.6709 141.357 40.6694 141.331 40.6542C141.045 40.5097 140.814 40.4204 140.637 40.3863C140.473 40.3485 140.292 40.3813 140.092 40.4846C139.901 40.5929 139.71 40.7708 139.519 41.018C139.342 41.2617 139.102 41.6313 138.8 42.1267L136.146 46.6567C135.862 47.1622 135.654 47.5563 135.523 47.8389C135.406 48.118 135.347 48.3673 135.346 48.5868C135.354 48.8114 135.411 48.99 135.519 49.1227C135.64 49.2518 135.834 49.4058 136.1 49.5848Z" fill="#FDF3ED"/>
<path d="M143.096 48.482L144.059 49.3396C145.434 50.5629 146.331 51.6829 146.752 52.6996C147.186 53.7155 147.124 54.5372 146.566 55.1647C145.954 55.852 145.179 56.106 144.241 55.9269C143.303 55.7478 142.262 55.1496 141.119 54.1325L137.679 51.071C137.672 51.0643 137.526 50.9417 137.243 50.7032C136.954 50.4722 136.701 50.2603 136.484 50.0675C136.439 50.0276 136.43 49.9927 136.457 49.9628C136.49 49.9255 136.529 49.9267 136.574 49.9666C136.893 50.2243 137.16 50.3681 137.374 50.3981C137.589 50.4281 137.839 50.3428 138.124 50.142C138.41 49.9412 138.813 49.5636 139.333 49.0091L142.804 45.1098C143.294 44.5288 143.622 44.0847 143.789 43.7775C143.955 43.4703 144.011 43.2121 143.956 43.0028C143.901 42.7935 143.728 42.5451 143.435 42.2575C143.39 42.2177 143.381 42.1828 143.407 42.1529C143.434 42.123 143.47 42.128 143.514 42.1679C143.731 42.3607 143.971 42.5876 144.234 42.8485C144.504 43.1019 144.642 43.232 144.65 43.2386L146.285 44.6734C146.292 44.6801 146.441 44.806 146.732 45.0511C147.029 45.2888 147.282 45.5007 147.491 45.6869C147.551 45.7401 147.553 45.7754 147.497 45.7928C147.47 45.8085 147.441 45.8031 147.411 45.7765C147.085 45.5264 146.815 45.3863 146.601 45.3562C146.386 45.3262 146.136 45.4116 145.85 45.6124C145.571 45.8057 145.172 46.1796 144.651 46.734L143.096 48.482ZM139.656 52.5496L140.43 53.2376C141.184 53.9091 141.93 54.2588 142.669 54.2866C143.407 54.3145 144.035 54.0371 144.554 53.4544C145.684 52.1845 145.271 50.6786 143.313 48.9368L142.966 48.6277L141.091 50.7342C140.307 51.6157 139.829 52.2208 139.656 52.5496Z" fill="#FDF3ED"/>
<path d="M154.919 71.0917C154.953 71.141 154.954 71.177 154.921 71.1998C154.888 71.2227 154.855 71.2094 154.82 71.1601C154.655 70.9219 154.475 70.6452 154.28 70.3299C154.078 70.0202 153.973 69.8613 153.968 69.8531L146.079 58.4934C146.074 58.4851 145.961 58.3319 145.742 58.0337C145.514 57.7412 145.318 57.4759 145.153 57.2377C145.118 57.1884 145.118 57.1523 145.15 57.1295C145.183 57.1067 145.217 57.1199 145.251 57.1692C145.51 57.4889 145.739 57.6884 145.941 57.7678C146.142 57.8472 146.401 57.8257 146.718 57.7031C147.042 57.5749 147.523 57.3023 148.158 56.8852L152.471 53.8908C153.084 53.4409 153.503 53.0889 153.728 52.835C153.962 52.5754 154.076 52.3374 154.072 52.1211C154.068 51.9048 153.962 51.6197 153.752 51.2658C153.718 51.2166 153.718 51.1805 153.75 51.1577C153.783 51.1349 153.817 51.1481 153.851 51.1974C154.016 51.4356 154.196 51.7124 154.391 52.0277C154.594 52.3373 154.698 52.4962 154.704 52.5044L155.953 54.3033C155.959 54.3115 156.071 54.4647 156.29 54.7629C156.518 55.0554 156.714 55.3207 156.88 55.5589C156.914 55.6082 156.915 55.6443 156.882 55.6671C156.849 55.6899 156.815 55.6767 156.781 55.6274C156.523 55.3077 156.293 55.1082 156.092 55.0288C155.89 54.9494 155.627 54.9738 155.302 55.102C154.986 55.2245 154.509 55.4943 153.874 55.9114L147.553 60.3004L149.478 63.0726L155.799 58.6835C156.417 58.2419 156.842 57.8981 157.073 57.6524C157.318 57.4092 157.447 57.1918 157.46 57.0001C157.479 56.8167 157.404 56.5768 157.235 56.2804C157.217 56.2558 157.214 56.2336 157.225 56.214C157.236 56.1944 157.252 56.183 157.274 56.1798C157.296 56.1766 157.316 56.1873 157.333 56.2119C157.464 56.4009 157.611 56.6214 157.774 56.8735L158.015 57.2726L159.29 59.1084C159.295 59.1166 159.388 59.241 159.567 59.4817C159.76 59.725 159.92 59.9369 160.045 60.1176C160.062 60.1423 160.066 60.1644 160.055 60.184C160.05 60.2119 160.033 60.2233 160.006 60.2183C159.983 60.2214 159.964 60.2107 159.947 60.1861C159.756 59.9289 159.564 59.7758 159.372 59.7268C159.188 59.672 158.928 59.7186 158.592 59.8664C158.265 60.0085 157.802 60.2878 157.202 60.7042L150.881 65.0932L152.789 67.8407L159.11 63.4517C159.723 63.0018 160.142 62.6499 160.367 62.3959C160.601 62.1363 160.716 61.8983 160.712 61.682C160.707 61.4657 160.601 61.1806 160.392 60.8268C160.357 60.7775 160.357 60.7414 160.39 60.7186C160.422 60.6958 160.456 60.709 160.49 60.7583C160.656 60.9965 160.836 61.2733 161.03 61.5886C161.233 61.8982 161.337 62.0571 161.343 62.0653L162.592 63.8642C162.598 63.8724 162.71 64.0256 162.93 64.3238C163.157 64.6163 163.353 64.8817 163.519 65.1199C163.553 65.1692 163.554 65.2052 163.521 65.228C163.488 65.2508 163.454 65.2376 163.42 65.1883C163.162 64.8687 162.932 64.6691 162.731 64.5897C162.529 64.5103 162.266 64.5347 161.941 64.6629C161.625 64.7855 161.149 65.0552 160.513 65.4723L156.201 68.4668C155.588 68.9167 155.165 69.2714 154.931 69.5311C154.706 69.785 154.595 70.0201 154.599 70.2364C154.603 70.4527 154.71 70.7378 154.919 71.0917Z" fill="#FDF3ED"/>
<path d="M163.162 81.0959C163.204 81.1225 163.218 81.1599 163.205 81.208L158.158 81.9561C158.117 81.9611 158.106 81.9331 158.125 81.8721C158.422 81.3618 158.427 80.7333 158.141 79.9864L155.84 73.9927C155.837 73.9833 155.764 73.8077 155.622 73.4659C155.471 73.1276 155.343 72.8231 155.239 72.5524C155.218 72.4964 155.226 72.4612 155.263 72.4469C155.3 72.4325 155.33 72.4534 155.351 72.5094C155.526 72.8814 155.702 73.1299 155.879 73.255C156.055 73.38 156.312 73.4208 156.648 73.3772C156.995 73.3301 157.526 73.1797 158.243 72.926L163.144 71.0449C163.846 70.7539 164.337 70.5119 164.617 70.319C164.905 70.1224 165.074 69.9187 165.121 69.7076C165.169 69.4966 165.133 69.1943 165.014 68.8008C164.993 68.7447 165.001 68.7096 165.038 68.6952C165.075 68.6809 165.105 68.7017 165.126 68.7578C165.23 69.0285 165.339 69.3402 165.453 69.6928C165.576 70.0418 165.639 70.221 165.643 70.2303L167.616 75.3698C167.995 76.3594 168.44 76.8745 168.948 76.915C169.003 76.9474 169.014 76.9754 168.98 76.9991L164.731 79.8672C164.703 79.8779 164.683 79.8693 164.672 79.8413C164.662 79.8133 164.667 79.7846 164.688 79.7551C165.743 78.7931 166.437 77.7554 166.77 76.6421C167.098 75.5417 167.081 74.52 166.719 73.5771L166.294 72.4708L161.729 74.223L162.191 75.4273C162.42 76.0248 162.738 76.4332 163.143 76.6525C163.558 76.8682 163.99 76.89 164.438 76.718C164.475 76.7037 164.504 76.7087 164.524 76.7331C164.525 76.7647 164.509 76.7924 164.475 76.816L161.212 78.0684C161.175 78.0827 161.151 78.0759 161.14 78.0478C161.139 78.0163 161.15 77.9904 161.175 77.9703C161.66 77.784 161.977 77.4802 162.126 77.0588C162.275 76.6375 162.231 76.1187 161.995 75.5026L161.533 74.2982L156.855 76.0934L157.328 77.3258C157.662 78.194 158.27 79.0104 159.152 79.7749C159.636 80.1996 160.229 80.5292 160.929 80.7637C161.634 81.0076 162.378 81.1184 163.162 81.0959Z" fill="#FDF3ED"/>
<path d="M164.84 91.5213L163.935 86.1064L164.128 86.0742L165.032 91.4892L164.84 91.5213Z" fill="#FDF3ED"/>
<circle opacity="0.4" cx="100" cy="100" r="4" fill="#FDF1EC"/>
</svg>
