<svg width="102" height="102" viewBox="0 0 102 102" fill="none" xmlns="http://www.w3.org/2000/svg">
<path d="M0 102V0L102 29.6437V102H0Z" fill="#D6A68D"/>
<path d="M25.9221 56.908V61.1997H8.72302V57.7859L17.5014 49.4952C18.4334 48.6065 19.062 47.8479 19.3871 47.2193C19.7122 46.5691 19.8748 45.9296 19.8748 45.3011C19.8748 44.3907 19.5605 43.6971 18.9319 43.2203C18.325 42.7217 17.4255 42.4725 16.2334 42.4725C15.2364 42.4725 14.3368 42.6676 13.5349 43.0577C12.7329 43.4262 12.061 43.9897 11.5191 44.7484L7.68262 42.2774C8.57129 40.9552 9.79593 39.9257 11.3565 39.1887C12.9171 38.4301 14.7053 38.0508 16.7211 38.0508C18.4117 38.0508 19.8856 38.3326 21.1428 38.8961C22.4216 39.438 23.4078 40.2183 24.1014 41.237C24.8167 42.2341 25.1743 43.4153 25.1743 44.7809C25.1743 46.0163 24.9142 47.176 24.394 48.2597C23.8738 49.3435 22.866 50.5789 21.3704 51.9661L16.1359 56.908H25.9221Z" fill="#FAF9F7"/>
<path d="M37.7856 61.5898C35.8999 61.5898 34.2201 61.1238 32.7462 60.1918C31.2723 59.2598 30.1127 57.9159 29.2674 56.1602C28.4437 54.3829 28.0319 52.2696 28.0319 49.8203C28.0319 47.371 28.4437 45.2686 29.2674 43.5129C30.1127 41.7355 31.2723 40.3808 32.7462 39.4488C34.2201 38.5168 35.8999 38.0508 37.7856 38.0508C39.6714 38.0508 41.3512 38.5168 42.8251 39.4488C44.299 40.3808 45.4477 41.7355 46.2714 43.5129C47.1167 45.2686 47.5394 47.371 47.5394 49.8203C47.5394 52.2696 47.1167 54.3829 46.2714 56.1602C45.4477 57.9159 44.299 59.2598 42.8251 60.1918C41.3512 61.1238 39.6714 61.5898 37.7856 61.5898ZM37.7856 57.1356C39.1728 57.1356 40.2566 56.5396 41.0369 55.3474C41.8389 54.1553 42.2398 52.3129 42.2398 49.8203C42.2398 47.3277 41.8389 45.4853 41.0369 44.2932C40.2566 43.1011 39.1728 42.505 37.7856 42.505C36.4201 42.505 35.3364 43.1011 34.5344 44.2932C33.7541 45.4853 33.3639 47.3277 33.3639 49.8203C33.3639 52.3129 33.7541 54.1553 34.5344 55.3474C35.3364 56.5396 36.4201 57.1356 37.7856 57.1356Z" fill="#FAF9F7"/>
<path d="M66.912 56.908V61.1997H49.7129V57.7859L58.4913 49.4952C59.4233 48.6065 60.0519 47.8479 60.377 47.2193C60.7021 46.5691 60.8647 45.9296 60.8647 45.3011C60.8647 44.3907 60.5504 43.6971 59.9218 43.2203C59.3149 42.7217 58.4154 42.4725 57.2233 42.4725C56.2262 42.4725 55.3267 42.6676 54.5247 43.0577C53.7228 43.4262 53.0508 43.9897 52.509 44.7484L48.6725 42.2774C49.5612 40.9552 50.7858 39.9257 52.3464 39.1887C53.907 38.4301 55.6952 38.0508 57.711 38.0508C59.4016 38.0508 60.8755 38.3326 62.1327 38.8961C63.4115 39.438 64.3977 40.2183 65.0913 41.237C65.8066 42.2341 66.1642 43.4153 66.1642 44.7809C66.1642 46.0163 65.9041 47.176 65.3839 48.2597C64.8637 49.3435 63.8558 50.5789 62.3603 51.9661L57.1257 56.908H66.912Z" fill="#FAF9F7"/>
<path d="M86.0893 56.908V61.1997H68.8902V57.7859L77.6686 49.4952C78.6006 48.6065 79.2292 47.8479 79.5543 47.2193C79.8794 46.5691 80.042 45.9296 80.042 45.3011C80.042 44.3907 79.7277 43.6971 79.0991 43.2203C78.4922 42.7217 77.5927 42.4725 76.4006 42.4725C75.4035 42.4725 74.504 42.6676 73.702 43.0577C72.9001 43.4262 72.2281 43.9897 71.6863 44.7484L67.8498 42.2774C68.7385 40.9552 69.9631 39.9257 71.5237 39.1887C73.0843 38.4301 74.8725 38.0508 76.8883 38.0508C78.5789 38.0508 80.0528 38.3326 81.31 38.8961C82.5888 39.438 83.575 40.2183 84.2686 41.237C84.9839 42.2341 85.3415 43.4153 85.3415 44.7809C85.3415 46.0163 85.0814 47.176 84.5612 48.2597C84.041 49.3435 83.0331 50.5789 81.5376 51.9661L76.303 56.908H86.0893Z" fill="#FAF9F7"/>
<path d="M15.1724 72.4947C15.6654 72.6562 16.0564 72.9282 16.3454 73.3107C16.6344 73.6847 16.7789 74.1522 16.7789 74.7132C16.7789 75.4867 16.4814 76.0859 15.8864 76.5109C15.2914 76.9274 14.4244 77.1357 13.2854 77.1357H8.84844V68.2107H13.0304C14.0844 68.2107 14.8962 68.4189 15.4657 68.8354C16.0352 69.2434 16.3199 69.8087 16.3199 70.5312C16.3199 70.9732 16.2179 71.3642 16.0139 71.7042C15.8099 72.0442 15.5294 72.3077 15.1724 72.4947ZM10.5059 69.5112V71.9719H12.8519C13.4299 71.9719 13.8719 71.8699 14.1779 71.6659C14.4924 71.4534 14.6497 71.1474 14.6497 70.7479C14.6497 70.3399 14.4924 70.0339 14.1779 69.8299C13.8719 69.6174 13.4299 69.5112 12.8519 69.5112H10.5059ZM13.1834 75.8352C14.4669 75.8352 15.1087 75.4059 15.1087 74.5474C15.1087 73.6889 14.4669 73.2597 13.1834 73.2597H10.5059V75.8352H13.1834Z" fill="#FAF9F7"/>
<path d="M24.5404 73.7697C24.5404 73.8802 24.5319 74.0374 24.5149 74.2414H19.1727C19.2662 74.7429 19.5084 75.1424 19.8994 75.4399C20.2989 75.7289 20.7919 75.8734 21.3784 75.8734C22.1264 75.8734 22.7427 75.6269 23.2272 75.1339L24.0814 76.1157C23.7754 76.4812 23.3887 76.7574 22.9212 76.9444C22.4537 77.1314 21.9267 77.2249 21.3402 77.2249C20.5922 77.2249 19.9334 77.0762 19.3639 76.7787C18.7944 76.4812 18.3524 76.0689 18.0379 75.5419C17.7319 75.0064 17.5789 74.4029 17.5789 73.7314C17.5789 73.0684 17.7277 72.4734 18.0252 71.9464C18.3312 71.4109 18.7519 70.9944 19.2874 70.6969C19.8229 70.3994 20.4264 70.2507 21.0979 70.2507C21.7609 70.2507 22.3517 70.3994 22.8702 70.6969C23.3972 70.9859 23.8052 71.3982 24.0942 71.9337C24.3917 72.4607 24.5404 73.0727 24.5404 73.7697ZM21.0979 71.5257C20.5879 71.5257 20.1544 71.6787 19.7974 71.9847C19.4489 72.2822 19.2364 72.6817 19.1599 73.1832H23.0232C22.9552 72.6902 22.7469 72.2907 22.3984 71.9847C22.0499 71.6787 21.6164 71.5257 21.0979 71.5257Z" fill="#FAF9F7"/>
<path d="M27.9201 77.2249C27.3675 77.2249 26.8278 77.1527 26.3008 77.0082C25.7738 76.8637 25.3531 76.6809 25.0386 76.4599L25.6506 75.2487C25.9566 75.4527 26.3221 75.6184 26.7471 75.7459C27.1806 75.8649 27.6056 75.9244 28.0221 75.9244C28.9741 75.9244 29.4501 75.6737 29.4501 75.1722C29.4501 74.9342 29.3268 74.7684 29.0803 74.6749C28.8423 74.5814 28.4556 74.4922 27.9201 74.4072C27.3591 74.3222 26.9001 74.2244 26.5431 74.1139C26.1946 74.0034 25.8885 73.8122 25.6251 73.5402C25.3701 73.2597 25.2426 72.8729 25.2426 72.3799C25.2426 71.7339 25.5103 71.2197 26.0458 70.8372C26.5898 70.4462 27.3208 70.2507 28.2388 70.2507C28.7063 70.2507 29.1738 70.3059 29.6413 70.4164C30.1088 70.5184 30.4913 70.6587 30.7888 70.8372L30.1768 72.0484C29.5988 71.7084 28.9486 71.5384 28.2261 71.5384C27.7586 71.5384 27.4016 71.6107 27.1551 71.7552C26.9171 71.8912 26.798 72.0739 26.798 72.3034C26.798 72.5584 26.9256 72.7412 27.1806 72.8517C27.4441 72.9537 27.8478 73.0514 28.3918 73.1449C28.9358 73.2299 29.3821 73.3277 29.7306 73.4382C30.0791 73.5487 30.3766 73.7357 30.6231 73.9992C30.878 74.2627 31.0056 74.6367 31.0056 75.1212C31.0056 75.7587 30.7293 76.2687 30.1768 76.6512C29.6243 77.0337 28.8721 77.2249 27.9201 77.2249Z" fill="#FAF9F7"/>
<path d="M36.2158 76.7659C36.0288 76.9189 35.7993 77.0337 35.5273 77.1102C35.2638 77.1867 34.9833 77.2249 34.6858 77.2249C33.9378 77.2249 33.3598 77.0294 32.9518 76.6384C32.5438 76.2474 32.3398 75.6779 32.3398 74.9299V71.6532H31.2178V70.3782H32.3398V68.8227H33.9336V70.3782H35.7568V71.6532H33.9336V74.8917C33.9336 75.2232 34.0143 75.4782 34.1758 75.6567C34.3373 75.8267 34.5711 75.9117 34.8771 75.9117C35.2341 75.9117 35.5316 75.8182 35.7696 75.6312L36.2158 76.7659Z" fill="#FAF9F7"/>
<path d="M43.6006 77.2249C42.9121 77.2249 42.2916 77.0762 41.7391 76.7787C41.1866 76.4812 40.7531 76.0689 40.4386 75.5419C40.1326 75.0064 39.9796 74.4029 39.9796 73.7314C39.9796 73.0599 40.1326 72.4607 40.4386 71.9337C40.7531 71.4067 41.1866 70.9944 41.7391 70.6969C42.2916 70.3994 42.9121 70.2507 43.6006 70.2507C44.2976 70.2507 44.9223 70.3994 45.4748 70.6969C46.0273 70.9944 46.4566 71.4067 46.7626 71.9337C47.0771 72.4607 47.2343 73.0599 47.2343 73.7314C47.2343 74.4029 47.0771 75.0064 46.7626 75.5419C46.4566 76.0689 46.0273 76.4812 45.4748 76.7787C44.9223 77.0762 44.2976 77.2249 43.6006 77.2249ZM43.6006 75.8607C44.1871 75.8607 44.6716 75.6652 45.0541 75.2742C45.4366 74.8832 45.6278 74.3689 45.6278 73.7314C45.6278 73.0939 45.4366 72.5797 45.0541 72.1887C44.6716 71.7977 44.1871 71.6022 43.6006 71.6022C43.0141 71.6022 42.5296 71.7977 42.1471 72.1887C41.7731 72.5797 41.5861 73.0939 41.5861 73.7314C41.5861 74.3689 41.7731 74.8832 42.1471 75.2742C42.5296 75.6652 43.0141 75.8607 43.6006 75.8607Z" fill="#FAF9F7"/>
<path d="M51.2701 68.8737C50.5986 68.8737 50.2628 69.2392 50.2628 69.9702V70.3782H52.1371V71.6532H50.3138V77.1357H48.7201V71.6532H47.5981V70.3782H48.7201V69.9447C48.7201 69.2137 48.9326 68.6399 49.3576 68.2234C49.7826 67.7984 50.3818 67.5859 51.1553 67.5859C51.7673 67.5859 52.2476 67.7092 52.5961 67.9557L52.1498 69.1542C51.8778 68.9672 51.5846 68.8737 51.2701 68.8737Z" fill="#FAF9F7"/>
<path d="M64.3071 68.2107V77.1357H62.6496V73.3107H58.0341V77.1357H56.3766V68.2107H58.0341V71.8954H62.6496V68.2107H64.3071Z" fill="#FAF9F7"/>
<path d="M69.3506 77.2249C68.6621 77.2249 68.0416 77.0762 67.4891 76.7787C66.9366 76.4812 66.5031 76.0689 66.1886 75.5419C65.8826 75.0064 65.7296 74.4029 65.7296 73.7314C65.7296 73.0599 65.8826 72.4607 66.1886 71.9337C66.5031 71.4067 66.9366 70.9944 67.4891 70.6969C68.0416 70.3994 68.6621 70.2507 69.3506 70.2507C70.0476 70.2507 70.6723 70.3994 71.2248 70.6969C71.7773 70.9944 72.2066 71.4067 72.5126 71.9337C72.8271 72.4607 72.9843 73.0599 72.9843 73.7314C72.9843 74.4029 72.8271 75.0064 72.5126 75.5419C72.2066 76.0689 71.7773 76.4812 71.2248 76.7787C70.6723 77.0762 70.0476 77.2249 69.3506 77.2249ZM69.3506 75.8607C69.9371 75.8607 70.4216 75.6652 70.8041 75.2742C71.1866 74.8832 71.3778 74.3689 71.3778 73.7314C71.3778 73.0939 71.1866 72.5797 70.8041 72.1887C70.4216 71.7977 69.9371 71.6022 69.3506 71.6022C68.7641 71.6022 68.2796 71.7977 67.8971 72.1887C67.5231 72.5797 67.3361 73.0939 67.3361 73.7314C67.3361 74.3689 67.5231 74.8832 67.8971 75.2742C68.2796 75.6652 68.7641 75.8607 69.3506 75.8607Z" fill="#FAF9F7"/>
<path d="M80.8451 70.3272V77.1357H79.3279V76.2687C79.0729 76.5747 78.7541 76.8127 78.3716 76.9827C77.9891 77.1442 77.5769 77.2249 77.1348 77.2249C76.2253 77.2249 75.5071 76.9742 74.9801 76.4727C74.4616 75.9627 74.2024 75.2104 74.2024 74.2159V70.3272H75.7961V73.9992C75.7961 74.6112 75.9321 75.0702 76.2041 75.3762C76.4846 75.6737 76.8799 75.8224 77.3899 75.8224C77.9594 75.8224 78.4099 75.6482 78.7414 75.2997C79.0814 74.9427 79.2514 74.4327 79.2514 73.7697V70.3272H80.8451Z" fill="#FAF9F7"/>
<path d="M87.9936 75.8607V77.1357H82.1158V76.1284L85.8516 71.6022H82.1923V70.3272H87.8916V71.3344L84.1431 75.8607H87.9936Z" fill="#FAF9F7"/>
<path d="M94.5245 75.8607V77.1357H88.6467V76.1284L92.3825 71.6022H88.7232V70.3272H94.4224V71.3344L90.674 75.8607H94.5245Z" fill="#FAF9F7"/>
<path d="M11.6152 92.5632C10.9267 92.5632 10.2594 92.4654 9.61344 92.2699C8.97594 92.0744 8.47019 91.8152 8.09619 91.4922L8.66994 90.2044C9.03544 90.4934 9.48169 90.7314 10.0087 90.9184C10.5442 91.0969 11.0797 91.1862 11.6152 91.1862C12.2782 91.1862 12.7712 91.0799 13.0942 90.8674C13.4257 90.6549 13.5914 90.3744 13.5914 90.0259C13.5914 89.7709 13.4979 89.5627 13.3109 89.4012C13.1324 89.2312 12.9029 89.0994 12.6224 89.0059C12.3419 88.9124 11.9594 88.8062 11.4749 88.6872C10.7949 88.5257 10.2424 88.3642 9.81744 88.2027C9.40094 88.0412 9.03969 87.7904 8.73369 87.4504C8.43619 87.1019 8.28744 86.6344 8.28744 86.0479C8.28744 85.5549 8.41919 85.1087 8.68269 84.7092C8.95469 84.3012 9.35844 83.9782 9.89394 83.7402C10.4379 83.5022 11.1009 83.3832 11.8829 83.3832C12.4269 83.3832 12.9624 83.4512 13.4894 83.5872C14.0164 83.7232 14.4712 83.9187 14.8537 84.1737L14.3309 85.4614C13.9399 85.2319 13.5319 85.0577 13.1069 84.9387C12.6819 84.8197 12.2697 84.7602 11.8702 84.7602C11.2157 84.7602 10.7269 84.8707 10.4039 85.0917C10.0894 85.3127 9.93219 85.6059 9.93219 85.9714C9.93219 86.2264 10.0214 86.4347 10.1999 86.5962C10.3869 86.7577 10.6207 86.8852 10.9012 86.9787C11.1817 87.0722 11.5642 87.1784 12.0487 87.2974C12.7117 87.4504 13.2557 87.6119 13.6807 87.7819C14.1057 87.9434 14.4669 88.1942 14.7644 88.5342C15.0704 88.8742 15.2234 89.3332 15.2234 89.9112C15.2234 90.4042 15.0874 90.8504 14.8154 91.2499C14.5519 91.6494 14.1482 91.9682 13.6042 92.2062C13.0602 92.4442 12.3972 92.5632 11.6152 92.5632Z" fill="#FAF9F7"/>
<path d="M22.8595 89.0697C22.8595 89.1802 22.851 89.3374 22.834 89.5414H17.4917C17.5852 90.0429 17.8275 90.4424 18.2185 90.7399C18.618 91.0289 19.111 91.1734 19.6975 91.1734C20.4455 91.1734 21.0617 90.9269 21.5462 90.4339L22.4005 91.4157C22.0945 91.7812 21.7077 92.0574 21.2402 92.2444C20.7727 92.4314 20.2457 92.5249 19.6592 92.5249C18.9112 92.5249 18.2525 92.3762 17.683 92.0787C17.1135 91.7812 16.6715 91.3689 16.357 90.8419C16.051 90.3064 15.898 89.7029 15.898 89.0314C15.898 88.3684 16.0467 87.7734 16.3442 87.2464C16.6502 86.7109 17.071 86.2944 17.6065 85.9969C18.142 85.6994 18.7455 85.5507 19.417 85.5507C20.08 85.5507 20.6707 85.6994 21.1892 85.9969C21.7162 86.2859 22.1242 86.6982 22.4132 87.2337C22.7107 87.7607 22.8595 88.3727 22.8595 89.0697ZM19.417 86.8257C18.907 86.8257 18.4735 86.9787 18.1165 87.2847C17.768 87.5822 17.5555 87.9817 17.479 88.4832H21.3422C21.2742 87.9902 21.066 87.5907 20.7175 87.2847C20.369 86.9787 19.9355 86.8257 19.417 86.8257Z" fill="#FAF9F7"/>
<path d="M25.6526 86.6217C26.1116 85.9077 26.9191 85.5507 28.0751 85.5507V87.0679C27.9391 87.0424 27.8159 87.0297 27.7054 87.0297C27.0849 87.0297 26.6004 87.2124 26.2519 87.5779C25.9034 87.9349 25.7291 88.4534 25.7291 89.1334V92.4357H24.1354V85.6272H25.6526V86.6217Z" fill="#FAF9F7"/>
<path d="M35.7962 85.6272L32.8764 92.4357H31.2317L28.3119 85.6272H29.9694L32.0859 90.6762L34.2662 85.6272H35.7962Z" fill="#FAF9F7"/>
<path d="M36.5373 85.6272H38.131V92.4357H36.5373V85.6272ZM37.3405 84.5052C37.0515 84.5052 36.8093 84.4159 36.6138 84.2374C36.4183 84.0504 36.3205 83.8209 36.3205 83.5489C36.3205 83.2769 36.4183 83.0517 36.6138 82.8732C36.8093 82.6862 37.0515 82.5927 37.3405 82.5927C37.6295 82.5927 37.8718 82.6819 38.0673 82.8604C38.2628 83.0304 38.3605 83.2472 38.3605 83.5107C38.3605 83.7912 38.2628 84.0292 38.0673 84.2247C37.8803 84.4117 37.638 84.5052 37.3405 84.5052Z" fill="#FAF9F7"/>
<path d="M43.0916 92.5249C42.3861 92.5249 41.7528 92.3762 41.1918 92.0787C40.6308 91.7812 40.1931 91.3689 39.8786 90.8419C39.5641 90.3064 39.4068 89.7029 39.4068 89.0314C39.4068 88.3599 39.5641 87.7607 39.8786 87.2337C40.1931 86.7067 40.6266 86.2944 41.1791 85.9969C41.7401 85.6994 42.3776 85.5507 43.0916 85.5507C43.7631 85.5507 44.3496 85.6867 44.8511 85.9587C45.3611 86.2307 45.7436 86.6217 45.9986 87.1317L44.7746 87.8457C44.5791 87.5312 44.3326 87.2974 44.0351 87.1444C43.7461 86.9829 43.4273 86.9022 43.0788 86.9022C42.4838 86.9022 41.9908 87.0977 41.5998 87.4887C41.2088 87.8712 41.0133 88.3854 41.0133 89.0314C41.0133 89.6774 41.2046 90.1959 41.5871 90.5869C41.9781 90.9694 42.4753 91.1607 43.0788 91.1607C43.4273 91.1607 43.7461 91.0842 44.0351 90.9312C44.3326 90.7697 44.5791 90.5317 44.7746 90.2172L45.9986 90.9312C45.7351 91.4412 45.3483 91.8364 44.8383 92.1169C44.3368 92.3889 43.7546 92.5249 43.0916 92.5249Z" fill="#FAF9F7"/>
<path d="M53.4221 89.0697C53.4221 89.1802 53.4136 89.3374 53.3966 89.5414H48.0544C48.1479 90.0429 48.3901 90.4424 48.7811 90.7399C49.1806 91.0289 49.6736 91.1734 50.2601 91.1734C51.0081 91.1734 51.6244 90.9269 52.1089 90.4339L52.9631 91.4157C52.6571 91.7812 52.2704 92.0574 51.8029 92.2444C51.3354 92.4314 50.8084 92.5249 50.2219 92.5249C49.4739 92.5249 48.8151 92.3762 48.2456 92.0787C47.6761 91.7812 47.2341 91.3689 46.9196 90.8419C46.6136 90.3064 46.4606 89.7029 46.4606 89.0314C46.4606 88.3684 46.6094 87.7734 46.9069 87.2464C47.2129 86.7109 47.6336 86.2944 48.1691 85.9969C48.7046 85.6994 49.3081 85.5507 49.9796 85.5507C50.6426 85.5507 51.2334 85.6994 51.7519 85.9969C52.2789 86.2859 52.6869 86.6982 52.9759 87.2337C53.2734 87.7607 53.4221 88.3727 53.4221 89.0697ZM49.9796 86.8257C49.4696 86.8257 49.0361 86.9787 48.6791 87.2847C48.3306 87.5822 48.1181 87.9817 48.0416 88.4832H51.9049C51.8369 87.9902 51.6286 87.5907 51.2801 87.2847C50.9316 86.9787 50.4981 86.8257 49.9796 86.8257Z" fill="#FAF9F7"/>
<path d="M7.0127 24.8625V9.5625H10.2002V12.75L20.4002 15.9375V24.8625H15.3002V19.7625H11.7939V24.8625H7.0127Z" fill="#FAF9F7"/>
</svg>
