<svg width="1686" height="265" viewBox="0 0 1686 265" fill="none" xmlns="http://www.w3.org/2000/svg">
<path d="M44.8661 84.0644H26.1011V100.534C26.1011 106.114 26.3261 110.254 26.7761 112.954C27.3161 115.654 28.3061 117.769 29.7461 119.299C31.2761 120.829 33.0311 121.819 35.0111 122.269C37.0811 122.629 40.4561 122.809 45.1361 122.809C45.4961 122.809 45.7661 122.899 45.9461 123.079C46.1261 123.259 46.1261 123.439 45.9461 123.619C45.8561 123.799 45.5861 123.889 45.1361 123.889C41.1761 123.889 36.7661 123.844 31.9061 123.754L24.4811 123.484H15.5711C15.4811 123.484 13.7711 123.529 10.4411 123.619C7.11113 123.799 4.05113 123.889 1.26113 123.889C0.991133 123.889 0.766133 123.754 0.586133 123.484C0.676133 123.214 0.901133 123.034 1.26113 122.944C3.24113 122.854 4.68113 122.764 5.58113 122.674C6.57113 122.494 7.60613 122.269 8.68613 121.999C9.85613 121.729 10.6661 121.279 11.1161 120.649C11.5661 119.929 12.0161 119.209 12.4661 118.489C13.0061 117.679 13.3661 116.464 13.5461 114.844C13.7261 113.134 13.8611 111.424 13.9511 109.714C14.1311 108.004 14.2661 105.619 14.3561 102.559V49.9094C14.2661 46.8494 14.1311 44.4644 13.9511 42.7544C13.8611 41.0444 13.7261 39.3794 13.5461 37.7594C13.3661 36.0494 13.0061 34.8344 12.4661 34.1144C12.0161 33.3044 11.5661 32.5844 11.1161 31.9544C10.6661 31.2344 9.85613 30.7394 8.68613 30.4694C7.60613 30.1994 6.57113 30.0194 5.58113 29.9294C4.68113 29.7494 3.24113 29.6144 1.26113 29.5244C0.991133 29.5244 0.766133 29.3894 0.586133 29.1194C0.676133 28.8494 0.901133 28.6694 1.26113 28.5794C4.05113 28.5794 7.11113 28.6694 10.4411 28.8494C13.7711 28.9394 15.4811 28.9844 15.5711 28.9844H42.7061C56.3861 28.9844 67.0961 31.4594 74.8361 36.4094C82.5761 41.2694 86.4461 48.0194 86.4461 56.6594C86.4461 65.2094 82.7561 71.9144 75.3761 76.7744C68.0861 81.6344 57.9161 84.0644 44.8661 84.0644ZM40.4111 30.4694H27.3161C26.5061 33.7094 26.1011 38.8844 26.1011 45.9944V82.5794H40.1411C50.4011 82.5794 58.4111 80.2844 64.1711 75.6944C70.0211 71.0144 72.9461 64.6244 72.9461 56.5244C72.9461 48.6044 70.0211 42.3044 64.1711 37.6244C58.3211 32.8544 50.4011 30.4694 40.4111 30.4694ZM181.028 122.944C181.478 122.944 181.658 123.124 181.568 123.484C181.478 123.754 181.298 123.889 181.028 123.889C179.048 123.889 176.753 123.844 174.143 123.754L170.228 123.484H159.833L154.568 123.754C151.058 123.844 147.953 123.889 145.253 123.889C144.893 123.889 144.713 123.754 144.713 123.484C144.803 123.214 144.983 123.034 145.253 122.944C150.653 122.854 153.758 121.369 154.568 118.489C155.468 115.609 154.343 110.524 151.193 103.234L148.358 96.2144H125.813H101.513L98.9484 101.614C96.1584 107.374 95.4834 112.369 96.9234 116.599C98.3634 120.739 102.008 122.809 107.858 122.809C108.128 122.809 108.308 122.899 108.398 123.079C108.488 123.259 108.488 123.439 108.398 123.619C108.308 123.799 108.128 123.889 107.858 123.889C105.788 123.889 102.053 123.799 96.6534 123.619C93.9534 123.529 91.5234 123.484 89.3634 123.484C88.1034 123.484 86.6634 123.529 85.0434 123.619C81.9834 123.799 79.8234 123.889 78.5634 123.889C78.2934 123.889 78.1584 123.754 78.1584 123.484C78.1584 123.124 78.2934 122.944 78.5634 122.944C84.3234 122.854 90.4884 115.924 97.0584 102.154L125.138 42.8894L119.603 32.2244C119.513 31.9544 119.558 31.7744 119.738 31.6844C125.498 29.8844 129.008 27.7694 130.268 25.3394C130.358 25.2494 130.493 25.2494 130.673 25.3394L163.613 103.099C166.943 111.019 169.688 116.239 171.848 118.759C174.098 121.459 177.158 122.854 181.028 122.944ZM102.323 94.5944H125.813H147.683C139.043 72.9944 131.798 56.2994 125.948 44.5094L102.323 94.5944ZM261.673 96.2144C261.673 103.594 258.208 110.254 251.278 116.194C244.348 122.044 235.528 124.969 224.818 124.969C220.678 124.789 216.448 124.339 212.128 123.619C207.628 122.809 205.018 122.404 204.298 122.404C201.418 122.404 199.303 124.474 197.953 128.614C197.863 128.884 197.728 128.974 197.548 128.884C197.368 128.884 197.233 128.794 197.143 128.614L190.663 89.1944C190.663 88.9244 190.843 88.7894 191.203 88.7894C191.563 88.7894 191.743 88.9244 191.743 89.1944C199.663 111.244 210.463 122.629 224.143 123.349C231.523 123.349 237.463 120.649 241.963 115.249C246.373 109.759 248.578 103.414 248.578 96.2144C248.578 90.0044 246.553 84.6044 242.503 80.0144C238.633 75.3344 233.818 72.9944 228.058 72.9944C225.448 72.9944 222.703 73.3994 219.823 74.2094C218.923 74.4794 217.078 75.3344 214.288 76.7744C211.498 78.2144 209.653 78.9344 208.753 78.9344C206.863 78.9344 205.918 78.1694 205.918 76.6394C205.918 75.3794 206.773 74.3444 208.483 73.5344C209.653 72.9944 210.958 72.6344 212.398 72.4544L216.718 71.6444C225.718 69.4844 232.243 66.5594 236.293 62.8694C240.343 59.0894 242.368 53.8694 242.368 47.2094C242.368 41.3594 240.613 36.9044 237.103 33.8444C233.593 30.6944 228.688 29.1194 222.388 29.1194C217.978 29.1194 213.568 30.3794 209.158 32.8994C208.888 33.7994 208.303 35.6894 207.403 38.5694C206.593 41.4494 206.008 43.4294 205.648 44.5094C203.578 51.4394 200.923 54.6794 197.683 54.2294C193.993 54.2294 192.148 52.2494 192.148 48.2894C192.148 43.3394 195.523 38.6594 202.273 34.2494C209.113 29.7494 216.223 27.4994 223.603 27.4994C233.053 27.4994 240.568 29.1644 246.148 32.4944C251.818 35.8244 254.653 40.5494 254.653 46.6694C254.653 54.4094 250.108 60.5294 241.018 65.0294C237.958 66.5594 231.028 69.0344 220.228 72.4544C226.438 71.4644 230.848 70.9694 233.458 70.9694C241.648 70.9694 248.353 73.2644 253.573 77.8544C258.973 82.2644 261.673 88.3844 261.673 96.2144ZM316.58 84.0644H297.815V100.534C297.815 106.114 298.04 110.254 298.49 112.954C299.03 115.654 300.02 117.769 301.46 119.299C302.99 120.829 304.745 121.819 306.725 122.269C308.795 122.629 312.17 122.809 316.85 122.809C317.21 122.809 317.48 122.899 317.66 123.079C317.84 123.259 317.84 123.439 317.66 123.619C317.57 123.799 317.3 123.889 316.85 123.889C312.89 123.889 308.48 123.844 303.62 123.754L296.195 123.484H287.285C287.195 123.484 285.485 123.529 282.155 123.619C278.825 123.799 275.765 123.889 272.975 123.889C272.705 123.889 272.48 123.754 272.3 123.484C272.39 123.214 272.615 123.034 272.975 122.944C274.955 122.854 276.395 122.764 277.295 122.674C278.285 122.494 279.32 122.269 280.4 121.999C281.57 121.729 282.38 121.279 282.83 120.649C283.28 119.929 283.73 119.209 284.18 118.489C284.72 117.679 285.08 116.464 285.26 114.844C285.44 113.134 285.575 111.424 285.665 109.714C285.845 108.004 285.98 105.619 286.07 102.559V49.9094C285.98 46.8494 285.845 44.4644 285.665 42.7544C285.575 41.0444 285.44 39.3794 285.26 37.7594C285.08 36.0494 284.72 34.8344 284.18 34.1144C283.73 33.3044 283.28 32.5844 282.83 31.9544C282.38 31.2344 281.57 30.7394 280.4 30.4694C279.32 30.1994 278.285 30.0194 277.295 29.9294C276.395 29.7494 274.955 29.6144 272.975 29.5244C272.705 29.5244 272.48 29.3894 272.3 29.1194C272.39 28.8494 272.615 28.6694 272.975 28.5794C275.765 28.5794 278.825 28.6694 282.155 28.8494C285.485 28.9394 287.195 28.9844 287.285 28.9844H314.42C328.1 28.9844 338.81 31.4594 346.55 36.4094C354.29 41.2694 358.16 48.0194 358.16 56.6594C358.16 65.2094 354.47 71.9144 347.09 76.7744C339.8 81.6344 329.63 84.0644 316.58 84.0644ZM312.125 30.4694H299.03C298.22 33.7094 297.815 38.8844 297.815 45.9944V82.5794H311.855C322.115 82.5794 330.125 80.2844 335.885 75.6944C341.735 71.0144 344.66 64.6244 344.66 56.5244C344.66 48.6044 341.735 42.3044 335.885 37.6244C330.035 32.8544 322.115 30.4694 312.125 30.4694ZM452.742 122.944C453.192 122.944 453.372 123.124 453.282 123.484C453.192 123.754 453.012 123.889 452.742 123.889C450.762 123.889 448.467 123.844 445.857 123.754L441.942 123.484H431.547L426.282 123.754C422.772 123.844 419.667 123.889 416.967 123.889C416.607 123.889 416.427 123.754 416.427 123.484C416.517 123.214 416.697 123.034 416.967 122.944C422.367 122.854 425.472 121.369 426.282 118.489C427.182 115.609 426.057 110.524 422.907 103.234L420.072 96.2144H397.527H373.227L370.662 101.614C367.872 107.374 367.197 112.369 368.637 116.599C370.077 120.739 373.722 122.809 379.572 122.809C379.842 122.809 380.022 122.899 380.112 123.079C380.202 123.259 380.202 123.439 380.112 123.619C380.022 123.799 379.842 123.889 379.572 123.889C377.502 123.889 373.767 123.799 368.367 123.619C365.667 123.529 363.237 123.484 361.077 123.484C359.817 123.484 358.377 123.529 356.757 123.619C353.697 123.799 351.537 123.889 350.277 123.889C350.007 123.889 349.872 123.754 349.872 123.484C349.872 123.124 350.007 122.944 350.277 122.944C356.037 122.854 362.202 115.924 368.772 102.154L396.852 42.8894L391.317 32.2244C391.227 31.9544 391.272 31.7744 391.452 31.6844C397.212 29.8844 400.722 27.7694 401.982 25.3394C402.072 25.2494 402.207 25.2494 402.387 25.3394L435.327 103.099C438.657 111.019 441.402 116.239 443.562 118.759C445.812 121.459 448.872 122.854 452.742 122.944ZM374.037 94.5944H397.527H419.397C410.757 72.9944 403.512 56.2994 397.662 44.5094L374.037 94.5944ZM483.572 72.9944H499.097C514.937 72.9944 527.087 75.1544 535.547 79.4744C544.097 83.7944 548.372 89.9144 548.372 97.8344C548.372 105.664 544.727 111.964 537.437 116.734C530.237 121.414 520.607 123.664 508.547 123.484L473.042 123.349C472.952 123.349 471.242 123.394 467.912 123.484C464.582 123.664 461.522 123.754 458.732 123.754C458.462 123.754 458.237 123.664 458.057 123.484C457.967 123.304 457.967 123.124 458.057 122.944C458.237 122.764 458.462 122.674 458.732 122.674C460.982 122.584 462.647 122.494 463.727 122.404C464.807 122.314 465.932 121.999 467.102 121.459C468.272 120.919 469.037 120.334 469.397 119.704C469.847 118.984 470.252 117.769 470.612 116.059C471.062 114.349 471.332 112.549 471.422 110.659C471.602 108.679 471.737 105.934 471.827 102.424V49.9094C471.827 43.6994 471.422 39.1544 470.612 36.2744C469.892 33.5744 468.722 31.8194 467.102 31.0094C465.572 30.1094 462.782 29.6594 458.732 29.6594C458.462 29.6594 458.237 29.5694 458.057 29.3894C457.967 29.2094 457.967 29.0294 458.057 28.8494C458.237 28.6694 458.462 28.5794 458.732 28.5794C461.522 28.5794 464.582 28.6694 467.912 28.8494C471.242 28.9394 472.952 28.9844 473.042 28.9844H517.322C522.182 28.9844 525.692 28.5794 527.852 27.7694C530.102 26.9594 531.812 25.6544 532.982 23.8544C533.432 23.3144 533.702 23.3144 533.792 23.8544L542.567 63.2744C542.567 63.4544 542.477 63.5894 542.297 63.6794C542.207 63.7694 542.072 63.7694 541.892 63.6794C541.712 63.5894 541.577 63.4544 541.487 63.2744C537.347 51.0344 532.352 42.5294 526.502 37.7594C520.832 32.8994 513.632 30.4694 504.902 30.4694H484.787C483.977 34.1594 483.572 40.8194 483.572 50.4494V72.9944ZM484.787 121.864H503.282C512.552 121.864 520.112 119.614 525.962 115.114C531.902 110.704 534.872 104.989 534.872 97.9694C535.232 88.5194 529.922 81.8594 518.942 77.9894C515.882 76.8194 512.597 76.0544 509.087 75.6944C503.417 74.8844 496.982 74.4794 489.782 74.4794H483.572V99.0494C483.572 110.299 483.977 117.904 484.787 121.864ZM607.961 27.4994C622.991 27.4994 635.051 31.9094 644.141 40.7294C653.321 49.4594 657.911 61.0244 657.911 75.4244C657.911 89.5544 653.006 101.344 643.196 110.794C633.476 120.244 621.371 124.969 606.881 124.969C592.301 124.969 580.511 120.604 571.511 111.874C562.511 103.144 558.011 91.6694 558.011 77.4494C558.011 63.4094 562.826 51.5744 572.456 41.9444C582.086 32.3144 593.921 27.4994 607.961 27.4994ZM609.851 123.214C619.751 123.214 628.031 119.344 634.691 111.604C641.441 103.954 644.726 93.0644 644.546 78.9344C644.726 65.6144 641.036 53.9594 633.476 43.9694C626.006 33.9794 616.826 29.0744 605.936 29.2544C596.036 29.2544 587.711 33.2144 580.961 41.1344C574.301 49.0544 571.106 59.9894 571.376 73.9394C571.556 87.4394 575.201 99.0494 582.311 108.769C589.511 118.489 598.691 123.304 609.851 123.214ZM715.35 123.484H706.845L699.555 123.754C694.785 123.844 690.465 123.889 686.595 123.889C685.875 123.889 685.515 123.709 685.515 123.349C685.605 122.989 685.965 122.809 686.595 122.809C692.175 122.809 696.135 122.404 698.475 121.594C700.905 120.784 702.615 118.939 703.605 116.059C704.685 113.179 705.225 108.544 705.225 102.154V30.4694H698.34C690.69 30.4694 684.3 33.1694 679.17 38.5694C674.13 43.8794 669.585 53.0144 665.535 65.9744C665.355 66.2444 665.13 66.3794 664.86 66.3794C664.68 66.2894 664.635 66.0644 664.725 65.7044L673.23 23.8544C673.32 23.4944 673.545 23.4944 673.905 23.8544C675.255 25.9244 677.235 27.3194 679.845 28.0394C682.545 28.6694 686.955 28.9844 693.075 28.9844H728.985C735.105 28.9844 739.515 28.6694 742.215 28.0394C744.915 27.3194 746.895 25.9244 748.155 23.8544C748.515 23.4944 748.785 23.4944 748.965 23.8544L757.47 65.7044C757.56 66.0644 757.47 66.2894 757.2 66.3794C757.02 66.3794 756.84 66.2444 756.66 65.9744C752.61 52.9244 748.02 43.7894 742.89 38.5694C737.76 33.1694 731.37 30.4694 723.72 30.4694H716.97V102.154C716.97 108.634 717.51 113.314 718.59 116.194C719.67 118.984 721.38 120.784 723.72 121.594C725.97 122.404 729.93 122.809 735.6 122.809C735.96 122.809 736.23 122.899 736.41 123.079C736.59 123.259 736.59 123.439 736.41 123.619C736.32 123.799 736.05 123.889 735.6 123.889C731.73 123.889 727.365 123.844 722.505 123.754L715.35 123.484ZM853.299 121.459L854.784 121.729V123.484H841.554C837.144 123.484 833.904 121.909 831.834 118.759C831.564 118.399 831.294 118.039 831.024 117.679C830.844 117.319 830.664 116.959 830.484 116.599C830.304 116.239 830.169 115.969 830.079 115.789C828.729 112.819 827.694 110.344 826.974 108.364L823.059 99.7244C821.079 94.9544 819.279 91.2644 817.659 88.6544C816.039 86.0444 814.014 83.5694 811.584 81.2294C807.084 76.6394 800.109 74.3444 790.659 74.3444H788.904V102.559C788.994 105.619 789.084 108.004 789.174 109.714C789.354 111.424 789.534 113.134 789.714 114.844C789.894 116.464 790.209 117.679 790.659 118.489C791.199 119.209 791.694 119.929 792.144 120.649C792.594 121.279 793.359 121.729 794.439 121.999C795.609 122.269 796.644 122.494 797.544 122.674C798.534 122.764 800.019 122.854 801.999 122.944C802.359 122.944 802.584 123.079 802.674 123.349C802.584 123.619 802.359 123.799 801.999 123.889C799.299 123.889 796.284 123.799 792.954 123.619C789.624 123.529 787.914 123.484 787.824 123.484H778.374C778.284 123.484 776.574 123.529 773.244 123.619C769.914 123.799 766.854 123.889 764.064 123.889C763.794 123.889 763.569 123.754 763.389 123.484C763.479 123.214 763.704 123.034 764.064 122.944C766.044 122.854 767.484 122.764 768.384 122.674C769.374 122.494 770.409 122.269 771.489 121.999C772.659 121.729 773.469 121.279 773.919 120.649C774.369 119.929 774.819 119.209 775.269 118.489C775.809 117.679 776.169 116.464 776.349 114.844C776.529 113.134 776.664 111.424 776.754 109.714C776.934 108.004 777.069 105.619 777.159 102.559V49.9094C777.069 46.8494 776.934 44.4644 776.754 42.7544C776.664 41.0444 776.529 39.3794 776.349 37.7594C776.169 36.0494 775.809 34.8344 775.269 34.1144C774.819 33.3044 774.369 32.5844 773.919 31.9544C773.469 31.2344 772.659 30.7394 771.489 30.4694C770.409 30.1994 769.374 30.0194 768.384 29.9294C767.484 29.7494 766.044 29.6144 764.064 29.5244C763.794 29.5244 763.569 29.3894 763.389 29.1194C763.479 28.8494 763.704 28.6694 764.064 28.5794C766.854 28.5794 769.914 28.6694 773.244 28.8494C776.574 28.9394 778.284 28.9844 778.374 28.9844H787.824C787.914 28.9844 789.624 28.9394 792.954 28.8494C796.284 28.6694 799.299 28.5794 801.999 28.5794C802.359 28.5794 802.629 28.7144 802.809 28.9844C802.719 29.1644 802.449 29.3444 801.999 29.5244C800.019 29.6144 798.534 29.7494 797.544 29.9294C796.644 30.0194 795.609 30.1994 794.439 30.4694C793.359 30.7394 792.594 31.2344 792.144 31.9544C791.694 32.5844 791.199 33.3044 790.659 34.1144C790.209 34.8344 789.894 36.0494 789.714 37.7594C789.534 39.3794 789.354 41.0444 789.174 42.7544C789.084 44.4644 788.994 46.8494 788.904 49.9094V72.8594H793.089H795.384C803.304 72.8594 809.244 71.1494 813.204 67.7294C817.254 64.2194 820.404 59.2694 822.654 52.8794L826.569 42.2144C828.549 36.8144 830.574 33.0344 832.644 30.8744C834.804 28.7144 837.864 27.6344 841.824 27.6344C845.064 27.6344 847.809 28.4444 850.059 30.0644C852.309 31.5944 853.434 33.5744 853.434 36.0044C853.434 37.8944 852.759 39.4244 851.409 40.5944C850.059 41.6744 848.349 42.2144 846.279 42.2144C840.699 42.2144 836.424 39.3344 833.454 33.5744C832.194 33.3944 830.439 36.4094 828.189 42.6194L824.274 53.6894C822.294 59.1794 819.729 63.5444 816.579 66.7844C813.429 70.0244 809.289 72.2744 804.159 73.5344C811.269 74.4344 817.074 76.6394 821.574 80.1494C826.074 83.5694 829.944 88.6994 833.184 95.5394L839.664 108.904C841.824 113.584 843.579 116.554 844.929 117.814C846.819 119.524 849.609 120.739 853.299 121.459ZM956.619 122.944C957.069 122.944 957.249 123.124 957.159 123.484C957.069 123.754 956.889 123.889 956.619 123.889C954.639 123.889 952.344 123.844 949.734 123.754L945.819 123.484H935.424L930.159 123.754C926.649 123.844 923.544 123.889 920.844 123.889C920.484 123.889 920.304 123.754 920.304 123.484C920.394 123.214 920.574 123.034 920.844 122.944C926.244 122.854 929.349 121.369 930.159 118.489C931.059 115.609 929.934 110.524 926.784 103.234L923.949 96.2144H901.404H877.104L874.539 101.614C871.749 107.374 871.074 112.369 872.514 116.599C873.954 120.739 877.599 122.809 883.449 122.809C883.719 122.809 883.899 122.899 883.989 123.079C884.079 123.259 884.079 123.439 883.989 123.619C883.899 123.799 883.719 123.889 883.449 123.889C881.379 123.889 877.644 123.799 872.244 123.619C869.544 123.529 867.114 123.484 864.954 123.484C863.694 123.484 862.254 123.529 860.634 123.619C857.574 123.799 855.414 123.889 854.154 123.889C853.884 123.889 853.749 123.754 853.749 123.484C853.749 123.124 853.884 122.944 854.154 122.944C859.914 122.854 866.079 115.924 872.649 102.154L900.729 42.8894L895.194 32.2244C895.104 31.9544 895.149 31.7744 895.329 31.6844C901.089 29.8844 904.599 27.7694 905.859 25.3394C905.949 25.2494 906.084 25.2494 906.264 25.3394L939.204 103.099C942.534 111.019 945.279 116.239 947.439 118.759C949.689 121.459 952.749 122.854 956.619 122.944ZM877.914 94.5944H901.404H923.274C914.634 72.9944 907.389 56.2994 901.539 44.5094L877.914 94.5944ZM1090.06 28.5794C1090.51 28.5794 1090.78 28.7144 1090.87 28.9844C1090.78 29.1644 1090.51 29.3444 1090.06 29.5244C1088.08 29.6144 1086.6 29.7494 1085.61 29.9294C1084.71 30.0194 1083.67 30.1994 1082.5 30.4694C1081.42 30.7394 1080.66 31.2344 1080.21 31.9544C1079.76 32.5844 1079.26 33.3044 1078.72 34.1144C1078.27 34.8344 1077.96 36.0494 1077.78 37.7594C1077.6 39.3794 1077.42 41.0444 1077.24 42.7544C1077.15 44.4644 1077.06 46.8494 1076.97 49.9094V121.999H1089.12V121.594L1089.39 129.964C1089.48 135.544 1089.52 140.584 1089.52 145.084C1089.52 145.624 1089.43 145.939 1089.25 146.029C1089.07 146.209 1088.89 146.209 1088.71 146.029C1088.53 145.849 1088.44 145.534 1088.44 145.084C1088.44 139.864 1088.26 136.174 1087.9 134.014C1087.63 131.764 1086.73 129.649 1085.2 127.669C1083.85 125.959 1081.96 124.834 1079.53 124.294C1077.1 123.754 1073.32 123.484 1068.19 123.484H1016.49C1011.36 123.484 1007.58 123.754 1005.15 124.294C1002.72 124.834 1000.78 125.959 999.341 127.669C997.991 129.469 997.091 131.539 996.641 133.879C996.281 136.219 996.101 139.954 996.101 145.084C996.101 145.624 995.966 145.984 995.696 146.164C995.516 145.984 995.336 145.624 995.156 145.084C995.156 140.584 995.246 135.544 995.426 129.964L995.561 121.594V121.999H1003.53C1008.12 121.729 1011.54 119.254 1013.79 114.574C1016.04 109.894 1017.52 102.379 1018.24 92.0294L1020.81 59.0894L1021.62 49.9094C1021.98 43.8794 1021.66 39.3344 1020.67 36.2744C1019.86 33.5744 1018.38 31.8194 1016.22 31.0094C1014.06 30.1094 1010.28 29.6144 1004.88 29.5244C1004.52 29.5244 1004.25 29.3894 1004.07 29.1194C1004.16 28.9394 1004.43 28.7594 1004.88 28.5794C1007.58 28.5794 1010.37 28.6244 1013.25 28.7144C1016.13 28.7144 1018.51 28.7594 1020.4 28.8494C1022.29 28.9394 1023.42 28.9844 1023.78 28.9844H1075.89L1080.88 28.7144C1084.21 28.6244 1087.27 28.5794 1090.06 28.5794ZM1009.06 121.999H1065.22V30.4694H1024.45C1024.36 35.6894 1023.69 44.9144 1022.43 58.1444L1019.86 91.6244C1019.23 100.444 1018.06 107.284 1016.35 112.144C1014.73 116.914 1012.3 120.199 1009.06 121.999ZM1207.16 122.944C1207.52 122.944 1207.74 123.079 1207.83 123.349C1207.74 123.619 1207.52 123.799 1207.16 123.889C1204.46 123.889 1201.4 123.844 1197.98 123.754L1192.85 123.484H1183.4L1178.27 123.754C1174.85 123.844 1171.79 123.889 1169.09 123.889C1168.73 123.889 1168.5 123.754 1168.41 123.484C1168.5 123.214 1168.73 123.034 1169.09 122.944C1171.07 122.854 1172.51 122.764 1173.41 122.674C1174.4 122.494 1175.43 122.269 1176.51 121.999C1177.68 121.729 1178.49 121.279 1178.94 120.649C1179.39 119.929 1179.84 119.209 1180.29 118.489C1180.83 117.679 1181.19 116.464 1181.37 114.844C1181.55 113.134 1181.69 111.424 1181.78 109.714C1181.96 108.004 1182.09 105.619 1182.18 102.559V49.9094V49.5044L1125.48 105.529C1125.66 109.849 1125.89 113.044 1126.16 115.114C1126.52 117.184 1127.24 118.849 1128.32 120.109C1129.49 121.369 1130.7 122.134 1131.96 122.404C1133.31 122.584 1135.52 122.764 1138.58 122.944C1138.94 122.944 1139.16 123.079 1139.25 123.349C1139.16 123.619 1138.94 123.799 1138.58 123.889C1135.88 123.889 1132.86 123.799 1129.53 123.619C1126.2 123.529 1124.49 123.484 1124.4 123.484H1114.95C1114.86 123.484 1113.15 123.529 1109.82 123.619C1106.49 123.799 1103.43 123.889 1100.64 123.889C1100.37 123.889 1100.15 123.754 1099.97 123.484C1100.06 123.214 1100.28 123.034 1100.64 122.944C1102.62 122.854 1104.06 122.764 1104.96 122.674C1105.95 122.494 1106.99 122.269 1108.07 121.999C1109.24 121.729 1110.05 121.279 1110.5 120.649C1110.95 119.929 1111.4 119.209 1111.85 118.489C1112.39 117.679 1112.75 116.464 1112.93 114.844C1113.11 113.134 1113.24 111.424 1113.33 109.714C1113.51 108.004 1113.65 105.619 1113.74 102.559V49.9094C1113.65 46.8494 1113.51 44.4644 1113.33 42.7544C1113.24 41.0444 1113.11 39.3794 1112.93 37.7594C1112.75 36.0494 1112.39 34.8344 1111.85 34.1144C1111.4 33.3044 1110.95 32.5844 1110.5 31.9544C1110.05 31.2344 1109.24 30.7394 1108.07 30.4694C1106.99 30.1994 1105.95 30.0194 1104.96 29.9294C1104.06 29.7494 1102.62 29.6144 1100.64 29.5244C1100.37 29.5244 1100.15 29.3894 1099.97 29.1194C1100.06 28.8494 1100.28 28.6694 1100.64 28.5794C1103.43 28.5794 1106.49 28.6694 1109.82 28.8494C1113.15 28.9394 1114.86 28.9844 1114.95 28.9844H1124.4C1124.49 28.9844 1126.2 28.9394 1129.53 28.8494C1132.86 28.6694 1135.88 28.5794 1138.58 28.5794C1138.94 28.5794 1139.21 28.7144 1139.39 28.9844C1139.3 29.1644 1139.03 29.3444 1138.58 29.5244C1136.6 29.6144 1135.11 29.7494 1134.12 29.9294C1133.22 30.0194 1132.19 30.1994 1131.02 30.4694C1129.94 30.7394 1129.17 31.2344 1128.72 31.9544C1128.27 32.5844 1127.78 33.3044 1127.24 34.1144C1126.79 34.8344 1126.47 36.0494 1126.29 37.7594C1126.11 39.3794 1125.93 41.0444 1125.75 42.7544C1125.66 44.4644 1125.57 46.8494 1125.48 49.9094V102.559V103.369L1182.18 47.2094C1182 39.4694 1181.15 34.6094 1179.62 32.6294C1178.09 30.7394 1174.58 29.7044 1169.09 29.5244C1168.73 29.5244 1168.5 29.3894 1168.41 29.1194C1168.5 28.8494 1168.73 28.6694 1169.09 28.5794C1171.79 28.5794 1174.85 28.6244 1178.27 28.7144L1183.4 28.9844H1192.85L1197.98 28.7144C1201.4 28.6244 1204.46 28.5794 1207.16 28.5794C1207.52 28.5794 1207.74 28.7144 1207.83 28.9844C1207.74 29.2544 1207.52 29.4344 1207.16 29.5244C1204.01 29.5244 1201.71 29.7494 1200.27 30.1994C1198.83 30.5594 1197.57 31.4144 1196.49 32.7644C1194.78 35.0144 1193.93 40.7294 1193.93 49.9094V102.559C1193.93 111.739 1194.78 117.454 1196.49 119.704C1197.57 121.054 1198.83 121.954 1200.27 122.404C1201.71 122.764 1204.01 122.944 1207.16 122.944ZM1291.31 96.2144C1291.31 103.594 1287.85 110.254 1280.92 116.194C1273.99 122.044 1265.17 124.969 1254.46 124.969C1250.32 124.789 1246.09 124.339 1241.77 123.619C1237.27 122.809 1234.66 122.404 1233.94 122.404C1231.06 122.404 1228.94 124.474 1227.59 128.614C1227.5 128.884 1227.37 128.974 1227.19 128.884C1227.01 128.884 1226.87 128.794 1226.78 128.614L1220.3 89.1944C1220.3 88.9244 1220.48 88.7894 1220.84 88.7894C1221.2 88.7894 1221.38 88.9244 1221.38 89.1944C1229.3 111.244 1240.1 122.629 1253.78 123.349C1261.16 123.349 1267.1 120.649 1271.6 115.249C1276.01 109.759 1278.22 103.414 1278.22 96.2144C1278.22 90.0044 1276.19 84.6044 1272.14 80.0144C1268.27 75.3344 1263.46 72.9944 1257.7 72.9944C1255.09 72.9944 1252.34 73.3994 1249.46 74.2094C1248.56 74.4794 1246.72 75.3344 1243.93 76.7744C1241.14 78.2144 1239.29 78.9344 1238.39 78.9344C1236.5 78.9344 1235.56 78.1694 1235.56 76.6394C1235.56 75.3794 1236.41 74.3444 1238.12 73.5344C1239.29 72.9944 1240.6 72.6344 1242.04 72.4544L1246.36 71.6444C1255.36 69.4844 1261.88 66.5594 1265.93 62.8694C1269.98 59.0894 1272.01 53.8694 1272.01 47.2094C1272.01 41.3594 1270.25 36.9044 1266.74 33.8444C1263.23 30.6944 1258.33 29.1194 1252.03 29.1194C1247.62 29.1194 1243.21 30.3794 1238.8 32.8994C1238.53 33.7994 1237.94 35.6894 1237.04 38.5694C1236.23 41.4494 1235.65 43.4294 1235.29 44.5094C1233.22 51.4394 1230.56 54.6794 1227.32 54.2294C1223.63 54.2294 1221.79 52.2494 1221.79 48.2894C1221.79 43.3394 1225.16 38.6594 1231.91 34.2494C1238.75 29.7494 1245.86 27.4994 1253.24 27.4994C1262.69 27.4994 1270.21 29.1644 1275.79 32.4944C1281.46 35.8244 1284.29 40.5494 1284.29 46.6694C1284.29 54.4094 1279.75 60.5294 1270.66 65.0294C1267.6 66.5594 1260.67 69.0344 1249.87 72.4544C1256.08 71.4644 1260.49 70.9694 1263.1 70.9694C1271.29 70.9694 1277.99 73.2644 1283.21 77.8544C1288.61 82.2644 1291.31 88.3844 1291.31 96.2144ZM1401.43 122.944C1401.88 122.944 1402.06 123.124 1401.97 123.484C1401.88 123.754 1401.7 123.889 1401.43 123.889C1399.45 123.889 1397.16 123.844 1394.55 123.754L1390.63 123.484H1380.24L1374.97 123.754C1371.46 123.844 1368.36 123.889 1365.66 123.889C1365.3 123.889 1365.12 123.754 1365.12 123.484C1365.21 123.214 1365.39 123.034 1365.66 122.944C1371.06 122.854 1374.16 121.369 1374.97 118.489C1375.87 115.609 1374.75 110.524 1371.6 103.234L1368.76 96.2144H1346.22H1321.92L1319.35 101.614C1316.56 107.374 1315.89 112.369 1317.33 116.599C1318.77 120.739 1322.41 122.809 1328.26 122.809C1328.53 122.809 1328.71 122.899 1328.8 123.079C1328.89 123.259 1328.89 123.439 1328.8 123.619C1328.71 123.799 1328.53 123.889 1328.26 123.889C1326.19 123.889 1322.46 123.799 1317.06 123.619C1314.36 123.529 1311.93 123.484 1309.77 123.484C1308.51 123.484 1307.07 123.529 1305.45 123.619C1302.39 123.799 1300.23 123.889 1298.97 123.889C1298.7 123.889 1298.56 123.754 1298.56 123.484C1298.56 123.124 1298.7 122.944 1298.97 122.944C1304.73 122.854 1310.89 115.924 1317.46 102.154L1345.54 42.8894L1340.01 32.2244C1339.92 31.9544 1339.96 31.7744 1340.14 31.6844C1345.9 29.8844 1349.41 27.7694 1350.67 25.3394C1350.76 25.2494 1350.9 25.2494 1351.08 25.3394L1384.02 103.099C1387.35 111.019 1390.09 116.239 1392.25 118.759C1394.5 121.459 1397.56 122.854 1401.43 122.944ZM1322.73 94.5944H1346.22H1368.09C1359.45 72.9944 1352.2 56.2994 1346.35 44.5094L1322.73 94.5944ZM1443.2 0.499365L1443.74 0.364367C1446.35 7.83437 1452.02 11.5694 1460.75 11.5694C1469.57 11.5694 1475.19 7.83437 1477.62 0.364367L1478.16 0.499365C1478.07 5.80937 1476.41 9.90437 1473.17 12.7844C1469.93 15.6644 1465.79 17.1044 1460.75 17.1044C1455.71 17.1044 1451.52 15.6644 1448.19 12.7844C1444.95 9.81437 1443.29 5.71937 1443.2 0.499365ZM1513.94 122.944C1514.3 122.944 1514.52 123.079 1514.61 123.349C1514.52 123.619 1514.3 123.799 1513.94 123.889C1511.24 123.889 1508.18 123.844 1504.76 123.754L1499.63 123.484H1490.18L1485.05 123.754C1481.63 123.844 1478.57 123.889 1475.87 123.889C1475.51 123.889 1475.28 123.754 1475.19 123.484C1475.28 123.214 1475.51 123.034 1475.87 122.944C1477.85 122.854 1479.29 122.764 1480.19 122.674C1481.18 122.494 1482.21 122.269 1483.29 121.999C1484.46 121.729 1485.27 121.279 1485.72 120.649C1486.17 119.929 1486.62 119.209 1487.07 118.489C1487.61 117.679 1487.97 116.464 1488.15 114.844C1488.33 113.134 1488.47 111.424 1488.56 109.714C1488.74 108.004 1488.87 105.619 1488.96 102.559V49.9094V49.5044L1432.26 105.529C1432.44 109.849 1432.67 113.044 1432.94 115.114C1433.3 117.184 1434.02 118.849 1435.1 120.109C1436.27 121.369 1437.48 122.134 1438.74 122.404C1440.09 122.584 1442.3 122.764 1445.36 122.944C1445.72 122.944 1445.94 123.079 1446.03 123.349C1445.94 123.619 1445.72 123.799 1445.36 123.889C1442.66 123.889 1439.64 123.799 1436.31 123.619C1432.98 123.529 1431.27 123.484 1431.18 123.484H1421.73C1421.64 123.484 1419.93 123.529 1416.6 123.619C1413.27 123.799 1410.21 123.889 1407.42 123.889C1407.15 123.889 1406.93 123.754 1406.75 123.484C1406.84 123.214 1407.06 123.034 1407.42 122.944C1409.4 122.854 1410.84 122.764 1411.74 122.674C1412.73 122.494 1413.77 122.269 1414.85 121.999C1416.02 121.729 1416.83 121.279 1417.28 120.649C1417.73 119.929 1418.18 119.209 1418.63 118.489C1419.17 117.679 1419.53 116.464 1419.71 114.844C1419.89 113.134 1420.02 111.424 1420.11 109.714C1420.29 108.004 1420.43 105.619 1420.52 102.559V49.9094C1420.43 46.8494 1420.29 44.4644 1420.11 42.7544C1420.02 41.0444 1419.89 39.3794 1419.71 37.7594C1419.53 36.0494 1419.17 34.8344 1418.63 34.1144C1418.18 33.3044 1417.73 32.5844 1417.28 31.9544C1416.83 31.2344 1416.02 30.7394 1414.85 30.4694C1413.77 30.1994 1412.73 30.0194 1411.74 29.9294C1410.84 29.7494 1409.4 29.6144 1407.42 29.5244C1407.15 29.5244 1406.93 29.3894 1406.75 29.1194C1406.84 28.8494 1407.06 28.6694 1407.42 28.5794C1410.21 28.5794 1413.27 28.6694 1416.6 28.8494C1419.93 28.9394 1421.64 28.9844 1421.73 28.9844H1431.18C1431.27 28.9844 1432.98 28.9394 1436.31 28.8494C1439.64 28.6694 1442.66 28.5794 1445.36 28.5794C1445.72 28.5794 1445.99 28.7144 1446.17 28.9844C1446.08 29.1644 1445.81 29.3444 1445.36 29.5244C1443.38 29.6144 1441.89 29.7494 1440.9 29.9294C1440 30.0194 1438.97 30.1994 1437.8 30.4694C1436.72 30.7394 1435.95 31.2344 1435.5 31.9544C1435.05 32.5844 1434.56 33.3044 1434.02 34.1144C1433.57 34.8344 1433.25 36.0494 1433.07 37.7594C1432.89 39.3794 1432.71 41.0444 1432.53 42.7544C1432.44 44.4644 1432.35 46.8494 1432.26 49.9094V102.559V103.369L1488.96 47.2094C1488.78 39.4694 1487.93 34.6094 1486.4 32.6294C1484.87 30.7394 1481.36 29.7044 1475.87 29.5244C1475.51 29.5244 1475.28 29.3894 1475.19 29.1194C1475.28 28.8494 1475.51 28.6694 1475.87 28.5794C1478.57 28.5794 1481.63 28.6244 1485.05 28.7144L1490.18 28.9844H1499.63L1504.76 28.7144C1508.18 28.6244 1511.24 28.5794 1513.94 28.5794C1514.3 28.5794 1514.52 28.7144 1514.61 28.9844C1514.52 29.2544 1514.3 29.4344 1513.94 29.5244C1510.79 29.5244 1508.49 29.7494 1507.05 30.1994C1505.61 30.5594 1504.35 31.4144 1503.27 32.7644C1501.56 35.0144 1500.71 40.7294 1500.71 49.9094V102.559C1500.71 111.739 1501.56 117.454 1503.27 119.704C1504.35 121.054 1505.61 121.954 1507.05 122.404C1508.49 122.764 1510.79 122.944 1513.94 122.944ZM1629.95 122.944C1630.31 122.944 1630.54 123.079 1630.63 123.349C1630.54 123.619 1630.31 123.799 1629.95 123.889C1627.25 123.889 1624.19 123.844 1620.77 123.754L1615.64 123.484H1606.19L1601.06 123.754C1597.64 123.844 1594.58 123.889 1591.88 123.889C1591.52 123.889 1591.3 123.754 1591.21 123.484C1591.3 123.214 1591.52 123.034 1591.88 122.944C1593.86 122.854 1595.3 122.764 1596.2 122.674C1597.19 122.494 1598.23 122.269 1599.31 121.999C1600.48 121.729 1601.29 121.279 1601.74 120.649C1602.19 119.929 1602.64 119.209 1603.09 118.489C1603.63 117.679 1603.99 116.464 1604.17 114.844C1604.35 113.134 1604.48 111.424 1604.57 109.714C1604.75 108.004 1604.89 105.619 1604.98 102.559V74.8844C1600.21 74.8844 1595.84 74.9294 1591.88 75.0194H1577.3H1561.64C1557.05 74.9294 1552.6 74.8844 1548.28 74.8844V102.559C1548.37 105.619 1548.46 108.004 1548.55 109.714C1548.73 111.424 1548.91 113.134 1549.09 114.844C1549.27 116.464 1549.58 117.679 1550.03 118.489C1550.57 119.209 1551.07 119.929 1551.52 120.649C1551.97 121.279 1552.73 121.729 1553.81 121.999C1554.98 122.269 1556.02 122.494 1556.92 122.674C1557.91 122.764 1559.39 122.854 1561.37 122.944C1561.73 122.944 1561.96 123.079 1562.05 123.349C1561.96 123.619 1561.73 123.799 1561.37 123.889C1558.67 123.889 1555.66 123.799 1552.33 123.619C1549 123.529 1547.29 123.484 1547.2 123.484H1537.75C1537.66 123.484 1535.95 123.529 1532.62 123.619C1529.29 123.799 1526.23 123.889 1523.44 123.889C1523.17 123.889 1522.94 123.754 1522.76 123.484C1522.85 123.214 1523.08 123.034 1523.44 122.944C1525.42 122.854 1526.86 122.764 1527.76 122.674C1528.75 122.494 1529.78 122.269 1530.86 121.999C1532.03 121.729 1532.84 121.279 1533.29 120.649C1533.74 119.929 1534.19 119.209 1534.64 118.489C1535.18 117.679 1535.54 116.464 1535.72 114.844C1535.9 113.134 1536.04 111.424 1536.13 109.714C1536.31 108.004 1536.44 105.619 1536.53 102.559V49.9094C1536.44 46.8494 1536.31 44.4644 1536.13 42.7544C1536.04 41.0444 1535.9 39.3794 1535.72 37.7594C1535.54 36.0494 1535.18 34.8344 1534.64 34.1144C1534.19 33.3044 1533.74 32.5844 1533.29 31.9544C1532.84 31.2344 1532.03 30.7394 1530.86 30.4694C1529.78 30.1994 1528.75 30.0194 1527.76 29.9294C1526.86 29.7494 1525.42 29.6144 1523.44 29.5244C1523.17 29.5244 1522.94 29.3894 1522.76 29.1194C1522.85 28.8494 1523.08 28.6694 1523.44 28.5794C1526.23 28.5794 1529.29 28.6694 1532.62 28.8494C1535.95 28.9394 1537.66 28.9844 1537.75 28.9844H1547.2C1547.29 28.9844 1549 28.9394 1552.33 28.8494C1555.66 28.6694 1558.67 28.5794 1561.37 28.5794C1561.73 28.5794 1562 28.7144 1562.18 28.9844C1562.09 29.1644 1561.82 29.3444 1561.37 29.5244C1559.39 29.6144 1557.91 29.7494 1556.92 29.9294C1556.02 30.0194 1554.98 30.1994 1553.81 30.4694C1552.73 30.7394 1551.97 31.2344 1551.52 31.9544C1551.07 32.5844 1550.57 33.3044 1550.03 34.1144C1549.58 34.8344 1549.27 36.0494 1549.09 37.7594C1548.91 39.3794 1548.73 41.0444 1548.55 42.7544C1548.46 44.4644 1548.37 46.8494 1548.28 49.9094V73.6694H1562.86C1567.27 73.5794 1572.04 73.5344 1577.17 73.5344C1583.02 73.5344 1587.92 73.5794 1591.88 73.6694H1604.98V49.9094C1604.89 46.8494 1604.75 44.4644 1604.57 42.7544C1604.48 41.0444 1604.35 39.3794 1604.17 37.7594C1603.99 36.0494 1603.63 34.8344 1603.09 34.1144C1602.64 33.3044 1602.19 32.5844 1601.74 31.9544C1601.29 31.2344 1600.48 30.7394 1599.31 30.4694C1598.23 30.1994 1597.19 30.0194 1596.2 29.9294C1595.3 29.7494 1593.86 29.6144 1591.88 29.5244C1591.52 29.5244 1591.3 29.3894 1591.21 29.1194C1591.3 28.8494 1591.52 28.6694 1591.88 28.5794C1594.58 28.5794 1597.64 28.6244 1601.06 28.7144L1606.19 28.9844H1615.64L1620.77 28.7144C1624.19 28.6244 1627.25 28.5794 1629.95 28.5794C1630.31 28.5794 1630.54 28.7144 1630.63 28.9844C1630.54 29.2544 1630.31 29.4344 1629.95 29.5244C1626.8 29.5244 1624.51 29.7494 1623.07 30.1994C1621.63 30.5594 1620.37 31.4144 1619.29 32.7644C1617.58 35.0144 1616.72 40.7294 1616.72 49.9094V102.559C1616.72 111.739 1617.58 117.454 1619.29 119.704C1620.37 121.054 1621.63 121.954 1623.07 122.404C1624.51 122.764 1626.8 122.944 1629.95 122.944ZM1685.76 87.4394H1636.35V85.9544H1685.76V87.4394ZM132.891 257.944C133.251 257.944 133.476 258.079 133.566 258.349C133.476 258.619 133.251 258.799 132.891 258.889C130.191 258.889 127.131 258.844 123.711 258.754L118.581 258.484H109.131L104.001 258.754C100.581 258.844 97.5209 258.889 94.8209 258.889C94.4609 258.889 94.2359 258.754 94.1459 258.484C94.2359 258.214 94.4609 258.034 94.8209 257.944C96.8009 257.854 98.2409 257.764 99.1409 257.674C100.131 257.494 101.166 257.269 102.246 256.999C103.416 256.729 104.226 256.279 104.676 255.649C105.126 254.929 105.576 254.209 106.026 253.489C106.566 252.679 106.926 251.464 107.106 249.844C107.286 248.134 107.421 246.424 107.511 244.714C107.691 243.004 107.826 240.619 107.916 237.559V165.469H51.2159V237.559C51.3059 240.619 51.3959 243.004 51.4859 244.714C51.6659 246.424 51.8459 248.134 52.0259 249.844C52.2059 251.464 52.5209 252.679 52.9709 253.489C53.5109 254.209 54.0059 254.929 54.4559 255.649C54.9059 256.279 55.6709 256.729 56.7509 256.999C57.9209 257.269 58.9559 257.494 59.8559 257.674C60.8459 257.764 62.3309 257.854 64.3109 257.944C64.6709 257.944 64.8959 258.079 64.9859 258.349C64.8959 258.619 64.6709 258.799 64.3109 258.889C61.6109 258.889 58.5959 258.799 55.2659 258.619C51.9359 258.529 50.2259 258.484 50.1359 258.484H40.6859C40.5959 258.484 38.8859 258.529 35.5559 258.619C32.2259 258.799 29.1659 258.889 26.3759 258.889C26.1059 258.889 25.8809 258.754 25.7009 258.484C25.7909 258.214 26.0159 258.034 26.3759 257.944C28.3559 257.854 29.7959 257.764 30.6959 257.674C31.6859 257.494 32.7209 257.269 33.8009 256.999C34.9709 256.729 35.7809 256.279 36.2309 255.649C36.6809 254.929 37.1309 254.209 37.5809 253.489C38.1209 252.679 38.4809 251.464 38.6609 249.844C38.8409 248.134 38.9759 246.424 39.0659 244.714C39.2459 243.004 39.3809 240.619 39.4709 237.559V184.909C39.3809 181.849 39.2459 179.464 39.0659 177.754C38.9759 176.044 38.8409 174.379 38.6609 172.759C38.4809 171.049 38.1209 169.834 37.5809 169.114C37.1309 168.304 36.6809 167.584 36.2309 166.954C35.7809 166.234 34.9709 165.739 33.8009 165.469C32.7209 165.199 31.6859 165.019 30.6959 164.929C29.7959 164.749 28.3559 164.614 26.3759 164.524C26.1059 164.524 25.8809 164.389 25.7009 164.119C25.7909 163.849 26.0159 163.669 26.3759 163.579C29.1659 163.579 32.2259 163.669 35.5559 163.849C38.8859 163.939 40.5959 163.984 40.6859 163.984H118.581L123.711 163.714C127.131 163.624 130.191 163.579 132.891 163.579C133.251 163.579 133.476 163.714 133.566 163.984C133.476 164.254 133.251 164.434 132.891 164.524C129.741 164.524 127.446 164.749 126.006 165.199C124.566 165.559 123.306 166.414 122.226 167.764C120.516 170.014 119.661 175.729 119.661 184.909V237.559C119.661 246.739 120.516 252.454 122.226 254.704C123.306 256.054 124.566 256.954 126.006 257.404C127.446 257.764 129.741 257.944 132.891 257.944ZM185.997 219.064H167.232V235.534C167.232 241.114 167.457 245.254 167.907 247.954C168.447 250.654 169.437 252.769 170.877 254.299C172.407 255.829 174.162 256.819 176.142 257.269C178.212 257.629 181.587 257.809 186.267 257.809C186.627 257.809 186.897 257.899 187.077 258.079C187.257 258.259 187.257 258.439 187.077 258.619C186.987 258.799 186.717 258.889 186.267 258.889C182.307 258.889 177.897 258.844 173.037 258.754L165.612 258.484H156.702C156.612 258.484 154.902 258.529 151.572 258.619C148.242 258.799 145.182 258.889 142.392 258.889C142.122 258.889 141.897 258.754 141.717 258.484C141.807 258.214 142.032 258.034 142.392 257.944C144.372 257.854 145.812 257.764 146.712 257.674C147.702 257.494 148.737 257.269 149.817 256.999C150.987 256.729 151.797 256.279 152.247 255.649C152.697 254.929 153.147 254.209 153.597 253.489C154.137 252.679 154.497 251.464 154.677 249.844C154.857 248.134 154.992 246.424 155.082 244.714C155.262 243.004 155.397 240.619 155.487 237.559V184.909C155.397 181.849 155.262 179.464 155.082 177.754C154.992 176.044 154.857 174.379 154.677 172.759C154.497 171.049 154.137 169.834 153.597 169.114C153.147 168.304 152.697 167.584 152.247 166.954C151.797 166.234 150.987 165.739 149.817 165.469C148.737 165.199 147.702 165.019 146.712 164.929C145.812 164.749 144.372 164.614 142.392 164.524C142.122 164.524 141.897 164.389 141.717 164.119C141.807 163.849 142.032 163.669 142.392 163.579C145.182 163.579 148.242 163.669 151.572 163.849C154.902 163.939 156.612 163.984 156.702 163.984H183.837C197.517 163.984 208.227 166.459 215.967 171.409C223.707 176.269 227.577 183.019 227.577 191.659C227.577 200.209 223.887 206.914 216.507 211.774C209.217 216.634 199.047 219.064 185.997 219.064ZM181.542 165.469H168.447C167.637 168.709 167.232 173.884 167.232 180.994V217.579H181.272C191.532 217.579 199.542 215.284 205.302 210.694C211.152 206.014 214.077 199.624 214.077 191.524C214.077 183.604 211.152 177.304 205.302 172.624C199.452 167.854 191.532 165.469 181.542 165.469ZM286.215 162.499C301.245 162.499 313.305 166.909 322.395 175.729C331.575 184.459 336.165 196.024 336.165 210.424C336.165 224.554 331.26 236.344 321.45 245.794C311.73 255.244 299.625 259.969 285.135 259.969C270.555 259.969 258.765 255.604 249.765 246.874C240.765 238.144 236.265 226.669 236.265 212.449C236.265 198.409 241.08 186.574 250.71 176.944C260.34 167.314 272.175 162.499 286.215 162.499ZM288.105 258.214C298.005 258.214 306.285 254.344 312.945 246.604C319.695 238.954 322.98 228.064 322.8 213.934C322.98 200.614 319.29 188.959 311.73 178.969C304.26 168.979 295.08 164.074 284.19 164.254C274.29 164.254 265.965 168.214 259.215 176.134C252.555 184.054 249.36 194.989 249.63 208.939C249.81 222.439 253.455 234.049 260.565 243.769C267.765 253.489 276.945 258.304 288.105 258.214ZM435.049 222.034C435.229 221.584 435.589 221.584 436.129 222.034L426.814 263.614C426.724 263.974 426.454 263.974 426.004 263.614C425.554 262.984 424.834 262.174 423.844 261.184C421.414 259.384 416.959 258.484 410.479 258.484H360.124C360.034 258.484 358.324 258.529 354.994 258.619C351.664 258.799 348.604 258.889 345.814 258.889C345.544 258.889 345.319 258.754 345.139 258.484C345.229 258.214 345.454 258.034 345.814 257.944C347.794 257.854 349.234 257.764 350.134 257.674C351.124 257.494 352.159 257.269 353.239 256.999C354.409 256.729 355.219 256.279 355.669 255.649C356.119 254.929 356.569 254.209 357.019 253.489C357.559 252.679 357.919 251.464 358.099 249.844C358.279 248.134 358.414 246.424 358.504 244.714C358.684 243.004 358.819 240.619 358.909 237.559V184.909C358.819 181.849 358.684 179.464 358.504 177.754C358.414 176.044 358.279 174.379 358.099 172.759C357.919 171.049 357.559 169.834 357.019 169.114C356.569 168.304 356.119 167.584 355.669 166.954C355.219 166.234 354.409 165.739 353.239 165.469C352.159 165.199 351.124 165.019 350.134 164.929C349.234 164.749 347.794 164.614 345.814 164.524C345.544 164.524 345.319 164.389 345.139 164.119C345.229 163.849 345.454 163.669 345.814 163.579C348.604 163.579 351.664 163.669 354.994 163.849C358.324 163.939 360.034 163.984 360.124 163.984H404.134C408.994 163.984 412.504 163.579 414.664 162.769C416.914 161.959 418.624 160.654 419.794 158.854C420.064 158.584 420.289 158.584 420.469 158.854L429.379 198.274C429.379 198.454 429.289 198.589 429.109 198.679C429.019 198.769 428.884 198.769 428.704 198.679C428.524 198.589 428.389 198.454 428.299 198.274C424.159 186.034 419.164 177.529 413.314 172.759C407.644 167.899 400.444 165.469 391.714 165.469H370.654V209.209H390.094C399.364 209.209 403.999 204.664 403.999 195.574C403.999 195.214 404.134 195.034 404.404 195.034C404.674 195.124 404.854 195.304 404.944 195.574V224.599C404.944 224.959 404.809 225.139 404.539 225.139C404.269 225.049 404.089 224.869 403.999 224.599C403.999 219.559 402.919 216.004 400.759 213.934C398.599 211.864 395.044 210.829 390.094 210.829H370.654V256.999H394.414C399.634 256.999 404.044 256.549 407.644 255.649C411.244 254.659 414.709 252.994 418.039 250.654C424.609 245.884 430.279 236.344 435.049 222.034ZM533.663 256.459L535.148 256.729V258.484H521.918C517.508 258.484 514.268 256.909 512.198 253.759C511.928 253.399 511.658 253.039 511.388 252.679C511.208 252.319 511.028 251.959 510.848 251.599C510.668 251.239 510.533 250.969 510.443 250.789C509.093 247.819 508.058 245.344 507.338 243.364L503.423 234.724C501.443 229.954 499.643 226.264 498.023 223.654C496.403 221.044 494.378 218.569 491.948 216.229C487.448 211.639 480.473 209.344 471.023 209.344H469.268V237.559C469.358 240.619 469.448 243.004 469.538 244.714C469.718 246.424 469.898 248.134 470.078 249.844C470.258 251.464 470.573 252.679 471.023 253.489C471.563 254.209 472.058 254.929 472.508 255.649C472.958 256.279 473.723 256.729 474.803 256.999C475.973 257.269 477.008 257.494 477.908 257.674C478.898 257.764 480.383 257.854 482.363 257.944C482.723 257.944 482.948 258.079 483.038 258.349C482.948 258.619 482.723 258.799 482.363 258.889C479.663 258.889 476.648 258.799 473.318 258.619C469.988 258.529 468.278 258.484 468.188 258.484H458.738C458.648 258.484 456.938 258.529 453.608 258.619C450.278 258.799 447.218 258.889 444.428 258.889C444.158 258.889 443.933 258.754 443.753 258.484C443.843 258.214 444.068 258.034 444.428 257.944C446.408 257.854 447.848 257.764 448.748 257.674C449.738 257.494 450.773 257.269 451.853 256.999C453.023 256.729 453.833 256.279 454.283 255.649C454.733 254.929 455.183 254.209 455.633 253.489C456.173 252.679 456.533 251.464 456.713 249.844C456.893 248.134 457.028 246.424 457.118 244.714C457.298 243.004 457.433 240.619 457.523 237.559V184.909C457.433 181.849 457.298 179.464 457.118 177.754C457.028 176.044 456.893 174.379 456.713 172.759C456.533 171.049 456.173 169.834 455.633 169.114C455.183 168.304 454.733 167.584 454.283 166.954C453.833 166.234 453.023 165.739 451.853 165.469C450.773 165.199 449.738 165.019 448.748 164.929C447.848 164.749 446.408 164.614 444.428 164.524C444.158 164.524 443.933 164.389 443.753 164.119C443.843 163.849 444.068 163.669 444.428 163.579C447.218 163.579 450.278 163.669 453.608 163.849C456.938 163.939 458.648 163.984 458.738 163.984H468.188C468.278 163.984 469.988 163.939 473.318 163.849C476.648 163.669 479.663 163.579 482.363 163.579C482.723 163.579 482.993 163.714 483.173 163.984C483.083 164.164 482.813 164.344 482.363 164.524C480.383 164.614 478.898 164.749 477.908 164.929C477.008 165.019 475.973 165.199 474.803 165.469C473.723 165.739 472.958 166.234 472.508 166.954C472.058 167.584 471.563 168.304 471.023 169.114C470.573 169.834 470.258 171.049 470.078 172.759C469.898 174.379 469.718 176.044 469.538 177.754C469.448 179.464 469.358 181.849 469.268 184.909V207.859H473.453H475.748C483.668 207.859 489.608 206.149 493.568 202.729C497.618 199.219 500.768 194.269 503.018 187.879L506.933 177.214C508.913 171.814 510.938 168.034 513.008 165.874C515.168 163.714 518.228 162.634 522.188 162.634C525.428 162.634 528.173 163.444 530.423 165.064C532.673 166.594 533.798 168.574 533.798 171.004C533.798 172.894 533.123 174.424 531.773 175.594C530.423 176.674 528.713 177.214 526.643 177.214C521.063 177.214 516.788 174.334 513.818 168.574C512.558 168.394 510.803 171.409 508.553 177.619L504.638 188.689C502.658 194.179 500.093 198.544 496.943 201.784C493.793 205.024 489.653 207.274 484.523 208.534C491.633 209.434 497.438 211.639 501.938 215.149C506.438 218.569 510.308 223.699 513.548 230.539L520.028 243.904C522.188 248.584 523.943 251.554 525.293 252.814C527.183 254.524 529.973 255.739 533.663 256.459ZM585.953 258.484H577.448L570.158 258.754C565.388 258.844 561.068 258.889 557.198 258.889C556.478 258.889 556.118 258.709 556.118 258.349C556.208 257.989 556.568 257.809 557.198 257.809C562.778 257.809 566.738 257.404 569.078 256.594C571.508 255.784 573.218 253.939 574.208 251.059C575.288 248.179 575.828 243.544 575.828 237.154V165.469H568.943C561.293 165.469 554.903 168.169 549.773 173.569C544.733 178.879 540.188 188.014 536.138 200.974C535.958 201.244 535.733 201.379 535.463 201.379C535.283 201.289 535.238 201.064 535.328 200.704L543.833 158.854C543.923 158.494 544.148 158.494 544.508 158.854C545.858 160.924 547.838 162.319 550.448 163.039C553.148 163.669 557.558 163.984 563.678 163.984H599.588C605.708 163.984 610.118 163.669 612.818 163.039C615.518 162.319 617.498 160.924 618.758 158.854C619.118 158.494 619.388 158.494 619.568 158.854L628.073 200.704C628.163 201.064 628.073 201.289 627.803 201.379C627.623 201.379 627.443 201.244 627.263 200.974C623.213 187.924 618.623 178.789 613.493 173.569C608.363 168.169 601.973 165.469 594.323 165.469H587.573V237.154C587.573 243.634 588.113 248.314 589.193 251.194C590.273 253.984 591.983 255.784 594.323 256.594C596.573 257.404 600.533 257.809 606.203 257.809C606.563 257.809 606.833 257.899 607.013 258.079C607.193 258.259 607.193 258.439 607.013 258.619C606.923 258.799 606.653 258.889 606.203 258.889C602.333 258.889 597.968 258.844 593.108 258.754L585.953 258.484ZM724.918 257.944C725.368 257.944 725.548 258.124 725.458 258.484C725.368 258.754 725.188 258.889 724.918 258.889C722.938 258.889 720.643 258.844 718.033 258.754L714.118 258.484H703.723L698.458 258.754C694.948 258.844 691.843 258.889 689.143 258.889C688.783 258.889 688.603 258.754 688.603 258.484C688.693 258.214 688.873 258.034 689.143 257.944C694.543 257.854 697.648 256.369 698.458 253.489C699.358 250.609 698.233 245.524 695.083 238.234L692.248 231.214H669.703H645.403L642.838 236.614C640.048 242.374 639.373 247.369 640.813 251.599C642.253 255.739 645.898 257.809 651.748 257.809C652.018 257.809 652.198 257.899 652.288 258.079C652.378 258.259 652.378 258.439 652.288 258.619C652.198 258.799 652.018 258.889 651.748 258.889C649.678 258.889 645.943 258.799 640.543 258.619C637.843 258.529 635.413 258.484 633.253 258.484C631.993 258.484 630.553 258.529 628.933 258.619C625.873 258.799 623.713 258.889 622.453 258.889C622.183 258.889 622.048 258.754 622.048 258.484C622.048 258.124 622.183 257.944 622.453 257.944C628.213 257.854 634.378 250.924 640.948 237.154L669.028 177.889L663.493 167.224C663.403 166.954 663.448 166.774 663.628 166.684C669.388 164.884 672.898 162.769 674.158 160.339C674.248 160.249 674.383 160.249 674.563 160.339L707.503 238.099C710.833 246.019 713.578 251.239 715.738 253.759C717.988 256.459 721.048 257.854 724.918 257.944ZM646.213 229.594H669.703H691.573C682.933 207.994 675.688 191.299 669.838 179.509L646.213 229.594ZM870.645 257.944C871.005 257.944 871.23 258.079 871.32 258.349C871.23 258.619 871.005 258.799 870.645 258.889C867.945 258.889 864.885 258.844 861.465 258.754L856.335 258.484H846.885L841.755 258.754C838.335 258.844 835.275 258.889 832.575 258.889C832.215 258.889 831.99 258.754 831.9 258.484C831.99 258.214 832.215 258.034 832.575 257.944C834.555 257.854 835.995 257.764 836.895 257.674C837.885 257.494 838.92 257.269 840 256.999C841.17 256.729 841.98 256.279 842.43 255.649C842.88 254.929 843.33 254.209 843.78 253.489C844.32 252.679 844.68 251.464 844.86 249.844C845.04 248.134 845.175 246.424 845.265 244.714C845.445 243.004 845.58 240.619 845.67 237.559V184.909V184.504L788.97 240.529C789.15 244.849 789.375 248.044 789.645 250.114C790.005 252.184 790.725 253.849 791.805 255.109C792.975 256.369 794.19 257.134 795.45 257.404C796.8 257.584 799.005 257.764 802.065 257.944C802.425 257.944 802.65 258.079 802.74 258.349C802.65 258.619 802.425 258.799 802.065 258.889C799.365 258.889 796.35 258.799 793.02 258.619C789.69 258.529 787.98 258.484 787.89 258.484H778.44C778.35 258.484 776.64 258.529 773.31 258.619C769.98 258.799 766.92 258.889 764.13 258.889C763.86 258.889 763.635 258.754 763.455 258.484C763.545 258.214 763.77 258.034 764.13 257.944C766.11 257.854 767.55 257.764 768.45 257.674C769.44 257.494 770.475 257.269 771.555 256.999C772.725 256.729 773.535 256.279 773.985 255.649C774.435 254.929 774.885 254.209 775.335 253.489C775.875 252.679 776.235 251.464 776.415 249.844C776.595 248.134 776.73 246.424 776.82 244.714C777 243.004 777.135 240.619 777.225 237.559V184.909C777.135 181.849 777 179.464 776.82 177.754C776.73 176.044 776.595 174.379 776.415 172.759C776.235 171.049 775.875 169.834 775.335 169.114C774.885 168.304 774.435 167.584 773.985 166.954C773.535 166.234 772.725 165.739 771.555 165.469C770.475 165.199 769.44 165.019 768.45 164.929C767.55 164.749 766.11 164.614 764.13 164.524C763.86 164.524 763.635 164.389 763.455 164.119C763.545 163.849 763.77 163.669 764.13 163.579C766.92 163.579 769.98 163.669 773.31 163.849C776.64 163.939 778.35 163.984 778.44 163.984H787.89C787.98 163.984 789.69 163.939 793.02 163.849C796.35 163.669 799.365 163.579 802.065 163.579C802.425 163.579 802.695 163.714 802.875 163.984C802.785 164.164 802.515 164.344 802.065 164.524C800.085 164.614 798.6 164.749 797.61 164.929C796.71 165.019 795.675 165.199 794.505 165.469C793.425 165.739 792.66 166.234 792.21 166.954C791.76 167.584 791.265 168.304 790.725 169.114C790.275 169.834 789.96 171.049 789.78 172.759C789.6 174.379 789.42 176.044 789.24 177.754C789.15 179.464 789.06 181.849 788.97 184.909V237.559V238.369L845.67 182.209C845.49 174.469 844.635 169.609 843.105 167.629C841.575 165.739 838.065 164.704 832.575 164.524C832.215 164.524 831.99 164.389 831.9 164.119C831.99 163.849 832.215 163.669 832.575 163.579C835.275 163.579 838.335 163.624 841.755 163.714L846.885 163.984H856.335L861.465 163.714C864.885 163.624 867.945 163.579 870.645 163.579C871.005 163.579 871.23 163.714 871.32 163.984C871.23 164.254 871.005 164.434 870.645 164.524C867.495 164.524 865.2 164.749 863.76 165.199C862.32 165.559 861.06 166.414 859.98 167.764C858.27 170.014 857.415 175.729 857.415 184.909V237.559C857.415 246.739 858.27 252.454 859.98 254.704C861.06 256.054 862.32 256.954 863.76 257.404C865.2 257.764 867.495 257.944 870.645 257.944ZM986.66 257.944C987.02 257.944 987.245 258.079 987.335 258.349C987.245 258.619 987.02 258.799 986.66 258.889C983.96 258.889 980.9 258.844 977.48 258.754L972.35 258.484H962.9L957.77 258.754C954.35 258.844 951.29 258.889 948.59 258.889C948.23 258.889 948.005 258.754 947.915 258.484C948.005 258.214 948.23 258.034 948.59 257.944C950.57 257.854 952.01 257.764 952.91 257.674C953.9 257.494 954.935 257.269 956.015 256.999C957.185 256.729 957.995 256.279 958.445 255.649C958.895 254.929 959.345 254.209 959.795 253.489C960.335 252.679 960.695 251.464 960.875 249.844C961.055 248.134 961.19 246.424 961.28 244.714C961.46 243.004 961.595 240.619 961.685 237.559V209.884C956.915 209.884 952.55 209.929 948.59 210.019H934.01H918.35C913.76 209.929 909.305 209.884 904.985 209.884V237.559C905.075 240.619 905.165 243.004 905.255 244.714C905.435 246.424 905.615 248.134 905.795 249.844C905.975 251.464 906.29 252.679 906.74 253.489C907.28 254.209 907.775 254.929 908.225 255.649C908.675 256.279 909.44 256.729 910.52 256.999C911.69 257.269 912.725 257.494 913.625 257.674C914.615 257.764 916.1 257.854 918.08 257.944C918.44 257.944 918.665 258.079 918.755 258.349C918.665 258.619 918.44 258.799 918.08 258.889C915.38 258.889 912.365 258.799 909.035 258.619C905.705 258.529 903.995 258.484 903.905 258.484H894.455C894.365 258.484 892.655 258.529 889.325 258.619C885.995 258.799 882.935 258.889 880.145 258.889C879.875 258.889 879.65 258.754 879.47 258.484C879.56 258.214 879.785 258.034 880.145 257.944C882.125 257.854 883.565 257.764 884.465 257.674C885.455 257.494 886.49 257.269 887.57 256.999C888.74 256.729 889.55 256.279 890 255.649C890.45 254.929 890.9 254.209 891.35 253.489C891.89 252.679 892.25 251.464 892.43 249.844C892.61 248.134 892.745 246.424 892.835 244.714C893.015 243.004 893.15 240.619 893.24 237.559V184.909C893.15 181.849 893.015 179.464 892.835 177.754C892.745 176.044 892.61 174.379 892.43 172.759C892.25 171.049 891.89 169.834 891.35 169.114C890.9 168.304 890.45 167.584 890 166.954C889.55 166.234 888.74 165.739 887.57 165.469C886.49 165.199 885.455 165.019 884.465 164.929C883.565 164.749 882.125 164.614 880.145 164.524C879.875 164.524 879.65 164.389 879.47 164.119C879.56 163.849 879.785 163.669 880.145 163.579C882.935 163.579 885.995 163.669 889.325 163.849C892.655 163.939 894.365 163.984 894.455 163.984H903.905C903.995 163.984 905.705 163.939 909.035 163.849C912.365 163.669 915.38 163.579 918.08 163.579C918.44 163.579 918.71 163.714 918.89 163.984C918.8 164.164 918.53 164.344 918.08 164.524C916.1 164.614 914.615 164.749 913.625 164.929C912.725 165.019 911.69 165.199 910.52 165.469C909.44 165.739 908.675 166.234 908.225 166.954C907.775 167.584 907.28 168.304 906.74 169.114C906.29 169.834 905.975 171.049 905.795 172.759C905.615 174.379 905.435 176.044 905.255 177.754C905.165 179.464 905.075 181.849 904.985 184.909V208.669H919.565C923.975 208.579 928.745 208.534 933.875 208.534C939.725 208.534 944.63 208.579 948.59 208.669H961.685V184.909C961.595 181.849 961.46 179.464 961.28 177.754C961.19 176.044 961.055 174.379 960.875 172.759C960.695 171.049 960.335 169.834 959.795 169.114C959.345 168.304 958.895 167.584 958.445 166.954C957.995 166.234 957.185 165.739 956.015 165.469C954.935 165.199 953.9 165.019 952.91 164.929C952.01 164.749 950.57 164.614 948.59 164.524C948.23 164.524 948.005 164.389 947.915 164.119C948.005 163.849 948.23 163.669 948.59 163.579C951.29 163.579 954.35 163.624 957.77 163.714L962.9 163.984H972.35L977.48 163.714C980.9 163.624 983.96 163.579 986.66 163.579C987.02 163.579 987.245 163.714 987.335 163.984C987.245 164.254 987.02 164.434 986.66 164.524C983.51 164.524 981.215 164.749 979.775 165.199C978.335 165.559 977.075 166.414 975.995 167.764C974.285 170.014 973.43 175.729 973.43 184.909V237.559C973.43 246.739 974.285 252.454 975.995 254.704C977.075 256.054 978.335 256.954 979.775 257.404C981.215 257.764 983.51 257.944 986.66 257.944ZM1043.95 258.484H1035.45L1028.16 258.754C1023.39 258.844 1019.07 258.889 1015.2 258.889C1014.48 258.889 1014.12 258.709 1014.12 258.349C1014.21 257.989 1014.57 257.809 1015.2 257.809C1020.78 257.809 1024.74 257.404 1027.08 256.594C1029.51 255.784 1031.22 253.939 1032.21 251.059C1033.29 248.179 1033.83 243.544 1033.83 237.154V165.469H1026.94C1019.29 165.469 1012.9 168.169 1007.77 173.569C1002.73 178.879 998.186 188.014 994.136 200.974C993.956 201.244 993.731 201.379 993.461 201.379C993.281 201.289 993.236 201.064 993.326 200.704L1001.83 158.854C1001.92 158.494 1002.15 158.494 1002.51 158.854C1003.86 160.924 1005.84 162.319 1008.45 163.039C1011.15 163.669 1015.56 163.984 1021.68 163.984H1057.59C1063.71 163.984 1068.12 163.669 1070.82 163.039C1073.52 162.319 1075.5 160.924 1076.76 158.854C1077.12 158.494 1077.39 158.494 1077.57 158.854L1086.07 200.704C1086.16 201.064 1086.07 201.289 1085.8 201.379C1085.62 201.379 1085.44 201.244 1085.26 200.974C1081.21 187.924 1076.62 178.789 1071.49 173.569C1066.36 168.169 1059.97 165.469 1052.32 165.469H1045.57V237.154C1045.57 243.634 1046.11 248.314 1047.19 251.194C1048.27 253.984 1049.98 255.784 1052.32 256.594C1054.57 257.404 1058.53 257.809 1064.2 257.809C1064.56 257.809 1064.83 257.899 1065.01 258.079C1065.19 258.259 1065.19 258.439 1065.01 258.619C1064.92 258.799 1064.65 258.889 1064.2 258.889C1060.33 258.889 1055.97 258.844 1051.11 258.754L1043.95 258.484ZM1181.9 222.034C1182.08 221.584 1182.44 221.584 1182.98 222.034L1173.66 263.614C1173.57 263.974 1173.3 263.974 1172.85 263.614C1172.4 262.984 1171.68 262.174 1170.69 261.184C1168.26 259.384 1163.81 258.484 1157.33 258.484H1106.97C1106.88 258.484 1105.17 258.529 1101.84 258.619C1098.51 258.799 1095.45 258.889 1092.66 258.889C1092.39 258.889 1092.17 258.754 1091.99 258.484C1092.08 258.214 1092.3 258.034 1092.66 257.944C1094.64 257.854 1096.08 257.764 1096.98 257.674C1097.97 257.494 1099.01 257.269 1100.09 256.999C1101.26 256.729 1102.07 256.279 1102.52 255.649C1102.97 254.929 1103.42 254.209 1103.87 253.489C1104.41 252.679 1104.77 251.464 1104.95 249.844C1105.13 248.134 1105.26 246.424 1105.35 244.714C1105.53 243.004 1105.67 240.619 1105.76 237.559V184.909C1105.67 181.849 1105.53 179.464 1105.35 177.754C1105.26 176.044 1105.13 174.379 1104.95 172.759C1104.77 171.049 1104.41 169.834 1103.87 169.114C1103.42 168.304 1102.97 167.584 1102.52 166.954C1102.07 166.234 1101.26 165.739 1100.09 165.469C1099.01 165.199 1097.97 165.019 1096.98 164.929C1096.08 164.749 1094.64 164.614 1092.66 164.524C1092.39 164.524 1092.17 164.389 1091.99 164.119C1092.08 163.849 1092.3 163.669 1092.66 163.579C1095.45 163.579 1098.51 163.669 1101.84 163.849C1105.17 163.939 1106.88 163.984 1106.97 163.984H1150.98C1155.84 163.984 1159.35 163.579 1161.51 162.769C1163.76 161.959 1165.47 160.654 1166.64 158.854C1166.91 158.584 1167.14 158.584 1167.32 158.854L1176.23 198.274C1176.23 198.454 1176.14 198.589 1175.96 198.679C1175.87 198.769 1175.73 198.769 1175.55 198.679C1175.37 198.589 1175.24 198.454 1175.15 198.274C1171.01 186.034 1166.01 177.529 1160.16 172.759C1154.49 167.899 1147.29 165.469 1138.56 165.469H1117.5V209.209H1136.94C1146.21 209.209 1150.85 204.664 1150.85 195.574C1150.85 195.214 1150.98 195.034 1151.25 195.034C1151.52 195.124 1151.7 195.304 1151.79 195.574V224.599C1151.79 224.959 1151.66 225.139 1151.39 225.139C1151.12 225.049 1150.94 224.869 1150.85 224.599C1150.85 219.559 1149.77 216.004 1147.61 213.934C1145.45 211.864 1141.89 210.829 1136.94 210.829H1117.5V256.999H1141.26C1146.48 256.999 1150.89 256.549 1154.49 255.649C1158.09 254.659 1161.56 252.994 1164.89 250.654C1171.46 245.884 1177.13 236.344 1181.9 222.034ZM1234.88 219.064H1216.12V235.534C1216.12 241.114 1216.34 245.254 1216.79 247.954C1217.33 250.654 1218.32 252.769 1219.76 254.299C1221.29 255.829 1223.05 256.819 1225.03 257.269C1227.1 257.629 1230.47 257.809 1235.15 257.809C1235.51 257.809 1235.78 257.899 1235.96 258.079C1236.14 258.259 1236.14 258.439 1235.96 258.619C1235.87 258.799 1235.6 258.889 1235.15 258.889C1231.19 258.889 1226.78 258.844 1221.92 258.754L1214.5 258.484H1205.59C1205.5 258.484 1203.79 258.529 1200.46 258.619C1197.13 258.799 1194.07 258.889 1191.28 258.889C1191.01 258.889 1190.78 258.754 1190.6 258.484C1190.69 258.214 1190.92 258.034 1191.28 257.944C1193.26 257.854 1194.7 257.764 1195.6 257.674C1196.59 257.494 1197.62 257.269 1198.7 256.999C1199.87 256.729 1200.68 256.279 1201.13 255.649C1201.58 254.929 1202.03 254.209 1202.48 253.489C1203.02 252.679 1203.38 251.464 1203.56 249.844C1203.74 248.134 1203.88 246.424 1203.97 244.714C1204.15 243.004 1204.28 240.619 1204.37 237.559V184.909C1204.28 181.849 1204.15 179.464 1203.97 177.754C1203.88 176.044 1203.74 174.379 1203.56 172.759C1203.38 171.049 1203.02 169.834 1202.48 169.114C1202.03 168.304 1201.58 167.584 1201.13 166.954C1200.68 166.234 1199.87 165.739 1198.7 165.469C1197.62 165.199 1196.59 165.019 1195.6 164.929C1194.7 164.749 1193.26 164.614 1191.28 164.524C1191.01 164.524 1190.78 164.389 1190.6 164.119C1190.69 163.849 1190.92 163.669 1191.28 163.579C1194.07 163.579 1197.13 163.669 1200.46 163.849C1203.79 163.939 1205.5 163.984 1205.59 163.984H1232.72C1246.4 163.984 1257.11 166.459 1264.85 171.409C1272.59 176.269 1276.46 183.019 1276.46 191.659C1276.46 200.209 1272.77 206.914 1265.39 211.774C1258.1 216.634 1247.93 219.064 1234.88 219.064ZM1230.43 165.469H1217.33C1216.52 168.709 1216.12 173.884 1216.12 180.994V217.579H1230.16C1240.42 217.579 1248.43 215.284 1254.19 210.694C1260.04 206.014 1262.96 199.624 1262.96 191.524C1262.96 183.604 1260.04 177.304 1254.19 172.624C1248.34 167.854 1240.42 165.469 1230.43 165.469ZM1334.7 258.484L1299.19 258.349C1299.1 258.349 1297.39 258.394 1294.06 258.484C1290.73 258.664 1287.67 258.754 1284.88 258.754C1284.61 258.754 1284.39 258.664 1284.21 258.484C1284.12 258.304 1284.12 258.124 1284.21 257.944C1284.39 257.764 1284.61 257.674 1284.88 257.674C1287.13 257.584 1288.8 257.494 1289.88 257.404C1290.96 257.314 1292.08 256.999 1293.25 256.459C1294.42 255.919 1295.19 255.334 1295.55 254.704C1296 253.984 1296.4 252.769 1296.76 251.059C1297.21 249.349 1297.48 247.549 1297.57 245.659C1297.75 243.679 1297.89 240.934 1297.98 237.424V184.909C1297.98 178.699 1297.57 174.154 1296.76 171.274C1296.04 168.574 1294.87 166.819 1293.25 166.009C1291.72 165.109 1288.93 164.659 1284.88 164.659C1284.61 164.659 1284.39 164.569 1284.21 164.389C1284.12 164.209 1284.12 164.029 1284.21 163.849C1284.39 163.669 1284.61 163.579 1284.88 163.579C1287.67 163.579 1290.73 163.669 1294.06 163.849C1297.39 163.939 1299.1 163.984 1299.19 163.984H1308.64C1308.91 163.984 1309.72 163.939 1311.07 163.849C1312.51 163.759 1314.31 163.714 1316.47 163.714C1318.72 163.624 1320.84 163.579 1322.82 163.579C1323.18 163.579 1323.4 163.714 1323.49 163.984C1323.4 164.254 1323.18 164.434 1322.82 164.524C1320.84 164.614 1319.35 164.749 1318.36 164.929C1317.46 165.019 1316.43 165.199 1315.26 165.469C1314.18 165.739 1313.41 166.234 1312.96 166.954C1312.51 167.584 1312.02 168.304 1311.48 169.114C1311.03 169.834 1310.71 171.049 1310.53 172.759C1310.35 174.379 1310.17 176.044 1309.99 177.754C1309.9 179.464 1309.81 181.849 1309.72 184.909V207.994H1325.25C1341.09 207.994 1353.24 210.154 1361.7 214.474C1370.25 218.794 1374.52 224.914 1374.52 232.834C1374.52 240.664 1370.88 246.964 1363.59 251.734C1356.39 256.414 1346.76 258.664 1334.7 258.484ZM1310.94 256.864H1329.43C1338.7 256.864 1346.26 254.614 1352.11 250.114C1358.05 245.704 1361.02 239.989 1361.02 232.969C1361.38 223.519 1356.07 216.859 1345.09 212.989C1342.03 211.819 1338.75 211.054 1335.24 210.694C1329.57 209.884 1323.13 209.479 1315.93 209.479H1309.72V234.049C1309.72 245.299 1310.13 252.904 1310.94 256.864ZM1471.94 222.034C1472.12 221.584 1472.48 221.584 1473.02 222.034L1463.7 263.614C1463.61 263.974 1463.34 263.974 1462.89 263.614C1462.44 262.984 1461.72 262.174 1460.73 261.184C1458.3 259.384 1453.85 258.484 1447.37 258.484H1397.01C1396.92 258.484 1395.21 258.529 1391.88 258.619C1388.55 258.799 1385.49 258.889 1382.7 258.889C1382.43 258.889 1382.21 258.754 1382.03 258.484C1382.12 258.214 1382.34 258.034 1382.7 257.944C1384.68 257.854 1386.12 257.764 1387.02 257.674C1388.01 257.494 1389.05 257.269 1390.13 256.999C1391.3 256.729 1392.11 256.279 1392.56 255.649C1393.01 254.929 1393.46 254.209 1393.91 253.489C1394.45 252.679 1394.81 251.464 1394.99 249.844C1395.17 248.134 1395.3 246.424 1395.39 244.714C1395.57 243.004 1395.71 240.619 1395.8 237.559V184.909C1395.71 181.849 1395.57 179.464 1395.39 177.754C1395.3 176.044 1395.17 174.379 1394.99 172.759C1394.81 171.049 1394.45 169.834 1393.91 169.114C1393.46 168.304 1393.01 167.584 1392.56 166.954C1392.11 166.234 1391.3 165.739 1390.13 165.469C1389.05 165.199 1388.01 165.019 1387.02 164.929C1386.12 164.749 1384.68 164.614 1382.7 164.524C1382.43 164.524 1382.21 164.389 1382.03 164.119C1382.12 163.849 1382.34 163.669 1382.7 163.579C1385.49 163.579 1388.55 163.669 1391.88 163.849C1395.21 163.939 1396.92 163.984 1397.01 163.984H1441.02C1445.88 163.984 1449.39 163.579 1451.55 162.769C1453.8 161.959 1455.51 160.654 1456.68 158.854C1456.95 158.584 1457.18 158.584 1457.36 158.854L1466.27 198.274C1466.27 198.454 1466.18 198.589 1466 198.679C1465.91 198.769 1465.77 198.769 1465.59 198.679C1465.41 198.589 1465.28 198.454 1465.19 198.274C1461.05 186.034 1456.05 177.529 1450.2 172.759C1444.53 167.899 1437.33 165.469 1428.6 165.469H1407.54V209.209H1426.98C1436.25 209.209 1440.89 204.664 1440.89 195.574C1440.89 195.214 1441.02 195.034 1441.29 195.034C1441.56 195.124 1441.74 195.304 1441.83 195.574V224.599C1441.83 224.959 1441.7 225.139 1441.43 225.139C1441.16 225.049 1440.98 224.869 1440.89 224.599C1440.89 219.559 1439.81 216.004 1437.65 213.934C1435.49 211.864 1431.93 210.829 1426.98 210.829H1407.54V256.999H1431.3C1436.52 256.999 1440.93 256.549 1444.53 255.649C1448.13 254.659 1451.6 252.994 1454.93 250.654C1461.5 245.884 1467.17 236.344 1471.94 222.034ZM1524.92 219.064H1506.16V235.534C1506.16 241.114 1506.38 245.254 1506.83 247.954C1507.37 250.654 1508.36 252.769 1509.8 254.299C1511.33 255.829 1513.09 256.819 1515.07 257.269C1517.14 257.629 1520.51 257.809 1525.19 257.809C1525.55 257.809 1525.82 257.899 1526 258.079C1526.18 258.259 1526.18 258.439 1526 258.619C1525.91 258.799 1525.64 258.889 1525.19 258.889C1521.23 258.889 1516.82 258.844 1511.96 258.754L1504.54 258.484H1495.63C1495.54 258.484 1493.83 258.529 1490.5 258.619C1487.17 258.799 1484.11 258.889 1481.32 258.889C1481.05 258.889 1480.82 258.754 1480.64 258.484C1480.73 258.214 1480.96 258.034 1481.32 257.944C1483.3 257.854 1484.74 257.764 1485.64 257.674C1486.63 257.494 1487.66 257.269 1488.74 256.999C1489.91 256.729 1490.72 256.279 1491.17 255.649C1491.62 254.929 1492.07 254.209 1492.52 253.489C1493.06 252.679 1493.42 251.464 1493.6 249.844C1493.78 248.134 1493.92 246.424 1494.01 244.714C1494.19 243.004 1494.32 240.619 1494.41 237.559V184.909C1494.32 181.849 1494.19 179.464 1494.01 177.754C1493.92 176.044 1493.78 174.379 1493.6 172.759C1493.42 171.049 1493.06 169.834 1492.52 169.114C1492.07 168.304 1491.62 167.584 1491.17 166.954C1490.72 166.234 1489.91 165.739 1488.74 165.469C1487.66 165.199 1486.63 165.019 1485.64 164.929C1484.74 164.749 1483.3 164.614 1481.32 164.524C1481.05 164.524 1480.82 164.389 1480.64 164.119C1480.73 163.849 1480.96 163.669 1481.32 163.579C1484.11 163.579 1487.17 163.669 1490.5 163.849C1493.83 163.939 1495.54 163.984 1495.63 163.984H1522.76C1536.44 163.984 1547.15 166.459 1554.89 171.409C1562.63 176.269 1566.5 183.019 1566.5 191.659C1566.5 200.209 1562.81 206.914 1555.43 211.774C1548.14 216.634 1537.97 219.064 1524.92 219.064ZM1520.47 165.469H1507.37C1506.56 168.709 1506.16 173.884 1506.16 180.994V217.579H1520.2C1530.46 217.579 1538.47 215.284 1544.23 210.694C1550.08 206.014 1553 199.624 1553 191.524C1553 183.604 1550.08 177.304 1544.23 172.624C1538.38 167.854 1530.46 165.469 1520.47 165.469ZM1661.08 257.944C1661.53 257.944 1661.71 258.124 1661.62 258.484C1661.53 258.754 1661.35 258.889 1661.08 258.889C1659.1 258.889 1656.81 258.844 1654.2 258.754L1650.28 258.484H1639.89L1634.62 258.754C1631.11 258.844 1628.01 258.889 1625.31 258.889C1624.95 258.889 1624.77 258.754 1624.77 258.484C1624.86 258.214 1625.04 258.034 1625.31 257.944C1630.71 257.854 1633.81 256.369 1634.62 253.489C1635.52 250.609 1634.4 245.524 1631.25 238.234L1628.41 231.214H1605.87H1581.57L1579 236.614C1576.21 242.374 1575.54 247.369 1576.98 251.599C1578.42 255.739 1582.06 257.809 1587.91 257.809C1588.18 257.809 1588.36 257.899 1588.45 258.079C1588.54 258.259 1588.54 258.439 1588.45 258.619C1588.36 258.799 1588.18 258.889 1587.91 258.889C1585.84 258.889 1582.11 258.799 1576.71 258.619C1574.01 258.529 1571.58 258.484 1569.42 258.484C1568.16 258.484 1566.72 258.529 1565.1 258.619C1562.04 258.799 1559.88 258.889 1558.62 258.889C1558.35 258.889 1558.21 258.754 1558.21 258.484C1558.21 258.124 1558.35 257.944 1558.62 257.944C1564.38 257.854 1570.54 250.924 1577.11 237.154L1605.19 177.889L1599.66 167.224C1599.57 166.954 1599.61 166.774 1599.79 166.684C1605.55 164.884 1609.06 162.769 1610.32 160.339C1610.41 160.249 1610.55 160.249 1610.73 160.339L1643.67 238.099C1647 246.019 1649.74 251.239 1651.9 253.759C1654.15 256.459 1657.21 257.854 1661.08 257.944ZM1582.38 229.594H1605.87H1627.74C1619.1 207.994 1611.85 191.299 1606 179.509L1582.38 229.594Z" fill="#B55A2B"/>
</svg>
