<svg width="200" height="201" viewBox="0 0 200 201" fill="none" xmlns="http://www.w3.org/2000/svg">
<circle cx="100" cy="100.992" r="99.5" stroke="#B55A2B"/>
<path d="M160.782 106.169C160.922 104.596 161.518 103.318 162.569 102.338C163.62 101.357 164.947 100.938 166.551 101.08C168.135 101.221 169.406 101.882 170.365 103.061C171.325 104.241 171.731 105.652 171.585 107.296C171.55 107.694 171.467 108.169 171.338 108.72C171.209 109.27 171.142 109.571 171.137 109.62C171.098 110.059 171.316 110.374 171.791 110.567C171.859 110.593 171.856 110.628 171.782 110.672L166.742 111.293C166.722 111.291 166.708 111.279 166.7 111.259C166.691 111.248 166.692 111.233 166.704 111.214C166.715 111.195 166.732 111.181 166.753 111.173C168.039 110.816 169.111 110.223 169.968 109.396C170.854 108.571 171.328 107.82 171.388 107.143C171.463 106.296 171.138 105.554 170.411 104.918C169.694 104.291 168.693 103.921 167.408 103.807C165.884 103.672 164.609 103.95 163.584 104.642C162.567 105.354 161.997 106.393 161.876 107.758C161.803 108.574 162.012 109.336 162.501 110.042C162.99 110.758 163.683 111.372 164.581 111.883C164.617 111.927 164.619 111.962 164.587 111.989C164.564 112.017 164.534 112.02 164.496 111.996C163.444 111.401 162.568 110.705 161.865 109.91C161.01 108.92 160.649 107.674 160.782 106.169Z" fill="#B55A2B"/>
<path d="M158.489 118.777L159.936 113.668C159.939 113.659 159.986 113.474 160.077 113.116C160.159 112.754 160.239 112.434 160.318 112.155C160.334 112.097 160.362 112.074 160.4 112.085C160.439 112.096 160.45 112.13 160.433 112.188C160.351 112.59 160.342 112.895 160.409 113.1C160.475 113.306 160.656 113.493 160.952 113.66C161.257 113.829 161.773 114.027 162.499 114.254L167.55 115.684C168.287 115.872 168.825 115.973 169.164 115.986C169.513 116.001 169.769 115.939 169.934 115.798C170.099 115.658 170.251 115.395 170.392 115.008C170.408 114.95 170.435 114.927 170.474 114.938C170.512 114.949 170.523 114.983 170.507 115.041C170.428 115.32 170.329 115.635 170.208 115.985C170.098 116.339 170.041 116.52 170.039 116.53L168.857 120.701C168.451 122.134 167.967 123.146 167.405 123.735C166.844 124.324 166.168 124.507 165.379 124.283C164.86 124.136 164.471 123.766 164.213 123.173C163.753 122.118 163.739 120.68 164.172 118.859L164.114 118.843C163.741 120.161 163.26 121.272 162.671 122.176C162.328 122.691 161.936 123.064 161.497 123.293C161.056 123.532 160.599 123.584 160.127 123.451C159.233 123.197 158.644 122.672 158.36 121.874C158.086 121.08 158.129 120.047 158.489 118.777ZM167.038 118.096L164.628 117.414L164.522 117.789C163.903 119.973 164.402 121.294 166.018 121.752C166.721 121.951 167.323 121.861 167.825 121.484C168.327 121.106 168.677 120.566 168.876 119.864L169.166 118.839C168.758 118.63 168.048 118.382 167.038 118.096ZM164.314 117.808L164.44 117.36L161.727 116.592C160.592 116.27 159.839 116.104 159.468 116.092L159.128 117.29C158.875 118.185 158.901 118.956 159.206 119.604C159.511 120.251 160.039 120.682 160.789 120.894C162.425 121.357 163.6 120.329 164.314 117.808Z" fill="#B55A2B"/>
<path d="M152.041 133.598C152.014 133.651 151.983 133.669 151.947 133.651C151.911 133.633 151.907 133.597 151.934 133.544C152.064 133.285 152.222 132.995 152.406 132.673C152.582 132.347 152.672 132.18 152.676 132.171L153.629 130.283C153.633 130.274 153.762 130.008 154.014 129.486C154.253 128.968 154.471 128.512 154.669 128.119C154.696 128.066 154.723 128.035 154.75 128.026C154.777 128.017 154.795 128.026 154.804 128.053C154.817 128.093 154.812 128.136 154.79 128.18C154.587 128.627 154.458 128.971 154.404 129.212C154.345 129.462 154.366 129.708 154.468 129.95C154.575 130.205 154.764 130.43 155.036 130.623C155.313 130.83 155.737 131.088 156.308 131.399L157.969 132.236L158.064 132.049C158.473 131.236 158.65 130.497 158.594 129.83C158.534 129.173 158.226 128.519 157.669 127.868L157.081 127.202C156.831 126.919 156.649 126.693 156.533 126.523C156.386 126.303 156.284 126.05 156.227 125.764C156.179 125.482 156.209 125.211 156.317 124.952L156.871 123.854L157.094 123.345C157.252 123.01 157.389 122.727 157.506 122.494C157.52 122.468 157.538 122.454 157.56 122.454C157.582 122.454 157.6 122.463 157.614 122.481C157.627 122.499 157.627 122.522 157.613 122.548C157.411 122.995 157.405 123.429 157.596 123.85C157.809 124.316 158.267 124.961 158.971 125.786L159.365 126.237C160.055 127.089 160.024 128.328 159.272 129.953C160.009 128.847 160.752 128.073 161.5 127.633C162.244 127.202 162.951 127.155 163.62 127.493C164.442 127.907 164.875 128.602 164.921 129.577C164.971 130.566 164.639 131.77 163.923 133.189L162.052 136.899C162.047 136.908 161.966 137.08 161.808 137.415C161.66 137.754 161.52 138.054 161.389 138.312C161.362 138.366 161.331 138.384 161.295 138.366C161.259 138.348 161.255 138.312 161.282 138.258C161.44 137.879 161.506 137.582 161.48 137.367C161.454 137.152 161.307 136.932 161.039 136.708C160.781 136.488 160.317 136.198 159.647 135.838L154.959 133.474C154.272 133.149 153.758 132.946 153.419 132.865C153.088 132.787 152.829 132.802 152.64 132.909C152.452 133.016 152.252 133.245 152.041 133.598ZM162.445 129.857C161.704 129.483 160.95 129.501 160.184 129.91C159.431 130.314 158.803 131.016 158.298 132.016L158.143 132.324L161.384 133.959C161.92 134.229 162.422 134.432 162.891 134.568L163.236 133.885C164.209 131.956 163.945 130.614 162.445 129.857Z" fill="#B55A2B"/>
<path d="M148.657 142.989C147.935 142.435 147.595 141.589 147.638 140.449C147.694 139.307 148.118 138.221 148.909 137.19C149.147 136.88 149.468 136.528 149.872 136.132C150.22 135.794 150.427 135.581 150.494 135.494C150.762 135.145 150.751 134.765 150.461 134.353C150.428 134.265 150.45 134.237 150.525 134.27L154.589 136.613C154.621 136.637 154.624 136.665 154.6 136.697C154.588 136.713 154.563 136.712 154.525 136.696C153.291 136.316 152.183 136.184 151.199 136.3C150.224 136.421 149.512 136.757 149.064 137.308C148.681 137.808 148.574 138.407 148.744 139.105C148.915 139.803 149.349 140.42 150.047 140.955C150.587 141.369 151.171 141.553 151.799 141.505C152.422 141.466 152.91 141.217 153.263 140.756C153.5 140.447 153.664 140.176 153.754 139.943C153.761 139.935 153.767 139.902 153.774 139.844C153.782 139.8 153.79 139.724 153.797 139.616C153.804 139.508 153.815 139.403 153.831 139.302C153.867 138.926 153.943 138.663 154.058 138.512C154.216 138.306 154.367 138.257 154.51 138.367C154.764 138.562 154.635 139.074 154.124 139.905C153.813 140.901 153.704 141.7 153.798 142.301C153.885 142.91 154.246 143.458 154.881 143.945C155.341 144.298 155.791 144.442 156.232 144.377C156.675 144.326 157.066 144.078 157.407 143.634C157.584 143.404 157.72 143.111 157.816 142.756C157.22 141.858 156.832 141.164 156.654 140.674C156.483 140.19 156.501 139.813 156.708 139.543C157.049 139.099 157.438 139.044 157.874 139.379C158.382 139.768 158.565 140.457 158.424 141.446C158.285 142.448 157.954 143.291 157.431 143.973C156.712 144.909 156.006 145.527 155.31 145.825C154.615 146.124 154.005 146.072 153.482 145.67C153.18 145.439 152.955 145.108 152.806 144.679C152.724 144.44 152.728 144.008 152.817 143.383C152.853 143.221 152.915 142.967 153.005 142.62L153.247 141.86C153.313 141.709 153.418 141.424 153.563 141.006L153.869 140.163C153.422 140.992 153.04 141.613 152.724 142.026C152.121 142.811 151.449 143.285 150.707 143.447C149.967 143.623 149.284 143.47 148.657 142.989Z" fill="#B55A2B"/>
<path d="M136.582 150.274C136.559 150.294 136.538 150.3 136.517 150.292C136.496 150.283 136.483 150.269 136.477 150.247C136.471 150.226 136.479 150.205 136.501 150.185C136.672 150.03 136.89 149.847 137.156 149.634C137.415 149.413 137.548 149.3 137.555 149.293L139.314 147.705C139.322 147.698 139.474 147.553 139.772 147.271C140.055 146.988 140.305 146.75 140.52 146.555C140.542 146.535 140.567 146.526 140.596 146.527C140.616 146.535 140.63 146.55 140.636 146.572C140.634 146.6 140.623 146.624 140.6 146.644C140.176 147.055 140.054 147.434 140.234 147.783C140.414 148.147 140.977 148.568 141.922 149.048L142.067 149.119L143.815 147.541L145.574 145.952C145.354 145.262 144.965 144.764 144.407 144.459C143.856 144.162 143.333 144.224 142.837 144.645C142.815 144.665 142.793 144.671 142.772 144.663C142.744 144.661 142.73 144.646 142.732 144.618C142.719 144.589 142.724 144.565 142.746 144.545C142.88 144.424 143.235 144.116 143.813 143.622C144.102 143.375 144.35 143.157 144.558 142.969C144.676 142.862 144.81 142.735 144.959 142.586C145.258 142.29 145.451 142.102 145.54 142.021C145.563 142.001 145.587 142.006 145.614 142.036C145.641 142.065 145.643 142.09 145.621 142.11C145.346 142.372 145.236 142.855 145.292 143.559C145.34 144.298 145.483 145.031 145.722 145.758L147.593 151.567C148.281 151.808 148.866 152 149.347 152.145C149.404 152.148 149.417 152.17 149.387 152.211C149.112 152.607 148.899 153.028 148.749 153.474C148.582 153.961 148.53 154.358 148.592 154.666C148.592 154.68 148.577 154.694 148.548 154.706L139.985 150.797C138.989 150.336 138.253 150.058 137.776 149.963C137.327 149.883 136.929 149.987 136.582 150.274ZM145.647 146.19L143.966 147.708L142.285 149.226C144.461 150.293 146.154 151.048 147.363 151.492L145.647 146.19Z" fill="#B55A2B"/>
<path d="M130.74 153.726L132.498 152.661C132.506 152.656 132.748 152.504 133.221 152.205C133.682 151.903 134.087 151.646 134.438 151.434C134.48 151.408 134.515 151.398 134.543 151.405C134.57 151.412 134.581 151.429 134.574 151.456C134.572 151.492 134.55 151.523 134.508 151.549C134.124 151.805 133.848 152.013 133.677 152.175C133.502 152.351 133.394 152.568 133.353 152.827C133.316 153.095 133.359 153.379 133.482 153.678C133.602 153.992 133.814 154.419 134.118 154.959L138.004 161.374L138.427 161.118C138.94 160.807 139.313 160.119 139.545 159.055C139.755 157.993 139.711 156.791 139.414 155.452C139.398 155.368 139.416 155.339 139.468 155.366C139.482 155.37 139.496 155.384 139.512 155.41L141.4 160.352C141.399 160.388 141.373 160.403 141.323 160.398C141.069 160.248 140.753 160.229 140.376 160.34C139.991 160.457 139.435 160.735 138.708 161.176L135.398 163.181C134.636 163.642 134.128 164.008 133.872 164.281C133.607 164.558 133.482 164.844 133.497 165.139C133.484 165.194 133.458 165.209 133.42 165.185L129.915 161.223C129.894 161.189 129.894 161.16 129.915 161.136C129.932 161.125 129.955 161.135 129.984 161.164C131.043 162.042 132.1 162.63 133.156 162.925C134.207 163.212 134.993 163.198 135.515 162.882L135.9 162.649L132.014 156.234C131.61 155.567 131.254 155.104 130.946 154.847C130.638 154.589 130.328 154.473 130.015 154.498C129.709 154.532 129.307 154.699 128.811 155C128.768 155.026 128.733 155.035 128.706 155.028C128.678 155.022 128.668 155.005 128.675 154.977C128.676 154.941 128.698 154.91 128.741 154.884C129.092 154.672 129.512 154.429 130.001 154.156C130.485 153.874 130.732 153.731 130.74 153.726Z" fill="#B55A2B"/>
<path d="M124.532 162.915L123.324 163.368C121.601 164.015 120.192 164.287 119.097 164.186C117.995 164.097 117.297 163.659 117.002 162.873C116.679 162.011 116.815 161.207 117.41 160.461C118.006 159.714 119.02 159.071 120.453 158.534L124.764 156.916C124.773 156.913 124.949 156.841 125.292 156.702C125.632 156.553 125.937 156.428 126.209 156.326C126.265 156.305 126.3 156.313 126.314 156.351C126.332 156.397 126.312 156.431 126.256 156.452C125.879 156.615 125.628 156.784 125.501 156.96C125.375 157.136 125.334 157.397 125.379 157.743C125.423 158.089 125.57 158.622 125.818 159.341L127.652 164.228C127.937 164.932 128.177 165.43 128.372 165.72C128.566 166.01 128.769 166.18 128.979 166.229C129.19 166.278 129.491 166.24 129.882 166.115C129.938 166.094 129.973 166.102 129.987 166.139C130.001 166.177 129.98 166.206 129.924 166.227C129.652 166.329 129.34 166.435 128.986 166.547C128.636 166.667 128.457 166.729 128.447 166.733L126.416 167.511C126.407 167.515 126.226 167.588 125.874 167.731C125.525 167.883 125.22 168.008 124.958 168.106C124.883 168.135 124.85 168.12 124.861 168.063C124.86 168.031 124.878 168.008 124.915 167.994C125.289 167.822 125.539 167.648 125.665 167.473C125.791 167.297 125.832 167.036 125.788 166.69C125.747 166.352 125.602 165.825 125.354 165.106L124.532 162.915ZM122.535 157.977L121.566 158.341C120.62 158.695 119.963 159.193 119.594 159.833C119.226 160.474 119.178 161.159 119.452 161.889C120.05 163.481 121.575 163.816 124.028 162.896L124.463 162.733L123.472 160.092C123.058 158.988 122.745 158.282 122.535 157.977Z" fill="#B55A2B"/>
<path d="M110.1 161.074C111.656 160.802 113.044 161.046 114.264 161.808C115.483 162.569 116.231 163.743 116.509 165.328C116.783 166.895 116.474 168.294 115.583 169.526C114.692 170.758 113.434 171.516 111.809 171.8C111.415 171.869 110.935 171.912 110.37 171.93C109.804 171.948 109.497 171.961 109.448 171.97C109.014 172.045 108.766 172.338 108.702 172.846C108.695 172.918 108.66 172.924 108.599 172.864L106.694 168.157C106.691 168.137 106.698 168.121 106.716 168.107C106.724 168.096 106.739 168.093 106.761 168.1C106.782 168.106 106.799 168.118 106.813 168.136C107.491 169.287 108.341 170.168 109.362 170.782C110.388 171.424 111.236 171.687 111.905 171.57C112.743 171.424 113.375 170.917 113.802 170.051C114.221 169.196 114.319 168.133 114.097 166.862C113.833 165.355 113.235 164.196 112.301 163.384C111.349 162.587 110.199 162.306 108.849 162.542C108.041 162.683 107.36 163.081 106.804 163.737C106.239 164.394 105.826 165.223 105.564 166.223C105.532 166.269 105.498 166.28 105.463 166.256C105.43 166.241 105.42 166.212 105.433 166.17C105.736 165 106.181 163.973 106.767 163.089C107.502 162.006 108.612 161.334 110.1 161.074Z" fill="#B55A2B"/>
<path d="M92.2913 162.037C92.2313 162.036 92.2018 162.015 92.2027 161.975C92.2037 161.935 92.2341 161.916 92.2941 161.917C92.584 161.924 92.9137 161.941 93.2831 161.97C93.6528 161.989 93.8426 161.998 93.8526 161.998L95.9671 162.047C95.9771 162.047 96.2721 162.049 96.8522 162.053C97.4225 162.046 97.9276 162.048 98.3675 162.058C98.4275 162.059 98.4672 162.07 98.4867 162.09C98.5063 162.111 98.5058 162.131 98.4854 162.15C98.4547 162.18 98.4143 162.194 98.3643 162.193C97.874 162.201 97.5082 162.233 97.2669 162.287C97.0155 162.341 96.8026 162.467 96.628 162.663C96.4432 162.868 96.322 163.136 96.2643 163.464C96.1965 163.803 96.145 164.297 96.11 164.946L96.0669 166.806L96.2768 166.811C97.1866 166.832 97.9305 166.674 98.5084 166.337C99.0764 166 99.5344 165.441 99.8826 164.658L100.232 163.841C100.38 163.495 100.506 163.233 100.61 163.055C100.745 162.828 100.93 162.627 101.164 162.453C101.398 162.288 101.655 162.199 101.935 162.185L103.165 162.214L103.721 162.197C104.091 162.195 104.406 162.198 104.666 162.204C104.696 162.204 104.716 162.215 104.725 162.235C104.735 162.255 104.734 162.275 104.724 162.295C104.713 162.315 104.693 162.324 104.663 162.324C104.173 162.332 103.778 162.513 103.48 162.866C103.151 163.259 102.765 163.95 102.322 164.94L102.084 165.49C101.611 166.479 100.479 166.983 98.6881 167.001C100.004 167.192 101.021 167.531 101.74 168.017C102.449 168.504 102.795 169.122 102.778 169.872C102.756 170.792 102.315 171.482 101.454 171.942C100.583 172.412 99.3529 172.628 97.7634 172.592L93.6095 172.495C93.5995 172.495 93.4094 172.496 93.0393 172.497C92.6689 172.509 92.3388 172.511 92.0489 172.504C91.9889 172.503 91.9594 172.482 91.9603 172.442C91.9612 172.402 91.9917 172.383 92.0516 172.384C92.4622 172.364 92.7589 172.296 92.9416 172.18C93.1243 172.064 93.2596 171.837 93.3475 171.499C93.4351 171.171 93.4977 170.627 93.5353 169.868L93.6569 164.619C93.6545 163.859 93.6172 163.308 93.5451 162.966C93.4728 162.635 93.348 162.407 93.1709 162.282C92.9937 162.158 92.7005 162.076 92.2913 162.037ZM100.138 169.826C100.157 168.996 99.8178 168.323 99.1195 167.807C98.4311 167.301 97.527 167.035 96.4073 167.009L96.0624 167.001L95.9783 170.63C95.9644 171.23 95.9969 171.77 96.0758 172.252L96.8406 172.27C99 172.32 100.099 171.505 100.138 169.826Z" fill="#B55A2B"/>
<path d="M82.7636 159.586C84.2837 160.017 85.4278 160.84 86.1957 162.055C86.9636 163.27 87.1281 164.652 86.6894 166.201C86.2561 167.731 85.3706 168.858 84.033 169.58C82.6954 170.303 81.2328 170.44 79.6452 169.99C79.2604 169.881 78.8094 169.712 78.2924 169.482C77.7754 169.253 77.4929 169.131 77.4448 169.118C77.0214 168.998 76.6708 169.153 76.393 169.584C76.3547 169.645 76.321 169.636 76.2919 169.555L76.6203 164.488C76.6258 164.468 76.6395 164.457 76.6614 164.452C76.6738 164.446 76.6882 164.45 76.7047 164.465C76.7213 164.48 76.7316 164.498 76.7358 164.52C76.8473 165.851 77.2298 167.014 77.8832 168.01C78.5284 169.035 79.1781 169.64 79.8324 169.825C80.6502 170.057 81.4396 169.875 82.2006 169.28C82.9492 168.691 83.4993 167.777 83.8509 166.536C84.2678 165.064 84.2319 163.759 83.743 162.623C83.2322 161.491 82.3177 160.738 80.9996 160.365C80.2106 160.142 79.4237 160.204 78.6388 160.554C77.8442 160.9 77.112 161.467 76.4421 162.255C76.3927 162.282 76.3577 162.277 76.337 162.24C76.3136 162.213 76.317 162.183 76.3471 162.15C77.128 161.228 77.9745 160.496 78.8867 159.954C80.0184 159.297 81.3107 159.175 82.7636 159.586Z" fill="#B55A2B"/>
<path d="M62.5151 150.125C62.4894 150.109 62.4774 150.09 62.4791 150.068C62.4723 150.04 62.4783 150.021 62.4971 150.009C62.516 149.997 62.5426 150.001 62.5769 150.022C62.8255 150.171 63.1075 150.352 63.4229 150.565C63.735 150.764 63.8953 150.866 63.9038 150.871L65.7683 151.991C65.7769 151.996 65.9466 152.093 66.2775 152.28C66.605 152.453 66.893 152.614 67.1416 152.764C67.1673 152.779 67.1836 152.801 67.1904 152.828C67.1887 152.85 67.1784 152.868 67.1595 152.88C67.1321 152.886 67.1055 152.882 67.0798 152.867C66.7043 152.676 66.4085 152.586 66.1924 152.596C65.9763 152.606 65.749 152.732 65.5105 152.974C65.2669 153.224 64.9408 153.67 64.5323 154.311L63.1342 156.638C63.5285 156.875 63.8869 157.085 64.2092 157.267C64.5229 157.443 64.8898 157.658 65.3099 157.91C65.7042 158.147 66.0659 158.37 66.3951 158.58C66.7243 158.789 67.0946 159.017 67.5061 159.265L68.9041 156.937C69.2783 156.275 69.5187 155.778 69.6252 155.446C69.7266 155.122 69.731 154.862 69.6385 154.666C69.546 154.471 69.3317 154.254 68.9957 154.018C68.9443 153.987 68.9288 153.954 68.9494 153.92C68.97 153.885 69.0061 153.884 69.0575 153.915C69.3061 154.064 69.5838 154.243 69.8907 154.45C70.2027 154.649 70.363 154.751 70.3716 154.757L72.2489 155.884C72.2575 155.889 72.4229 155.983 72.7452 156.165C73.0727 156.338 73.3607 156.5 73.6093 156.649C73.6608 156.68 73.6762 156.713 73.6556 156.747C73.635 156.781 73.599 156.783 73.5476 156.752C73.1806 156.566 72.8891 156.479 72.673 156.489C72.457 156.499 72.2297 156.625 71.9911 156.867C71.7475 157.117 71.4214 157.563 71.0129 158.204L68.3094 162.704C67.9352 163.366 67.6974 163.859 67.5961 164.183C67.4896 164.516 67.4826 164.78 67.5751 164.976C67.6676 165.171 67.8819 165.387 68.2179 165.624C68.2693 165.655 68.2847 165.688 68.2641 165.722C68.2435 165.756 68.2075 165.758 68.1561 165.727C67.9075 165.578 67.6297 165.399 67.3229 165.192C67.0109 164.992 66.8506 164.89 66.842 164.885L64.9647 163.757C64.9561 163.752 64.7906 163.659 64.4683 163.477C64.1408 163.303 63.8528 163.142 63.6042 162.993C63.5528 162.962 63.5374 162.929 63.558 162.895C63.5786 162.861 63.6146 162.859 63.666 162.89C64.0329 163.075 64.3244 163.163 64.5405 163.153C64.7566 163.142 64.9865 163.012 65.2301 162.762C65.4687 162.52 65.7922 162.079 66.2007 161.438L67.4211 159.406L66.3024 158.734C65.9629 158.542 65.596 158.327 65.2017 158.09C64.7817 157.838 64.4199 157.615 64.1165 157.421L63.0492 156.78L61.8288 158.811C61.4546 159.473 61.2168 159.966 61.1155 160.29C61.009 160.623 61.002 160.887 61.0945 161.083C61.187 161.278 61.4055 161.497 61.7501 161.739C61.7758 161.754 61.7921 161.776 61.799 161.803C61.7972 161.826 61.7869 161.843 61.7681 161.855C61.7406 161.862 61.714 161.857 61.6883 161.842C61.4397 161.692 61.162 161.514 60.8551 161.306C60.5345 161.102 60.3699 160.997 60.3614 160.992L58.4969 159.872C58.4883 159.867 58.3229 159.773 58.0006 159.591C57.6645 159.413 57.3722 159.249 57.1236 159.1C57.055 159.058 57.0465 159.024 57.0979 158.997C57.122 158.976 57.1511 158.976 57.1854 158.997C57.5523 159.182 57.8438 159.27 58.0599 159.26C58.276 159.249 58.5059 159.119 58.7495 158.869C58.9881 158.627 59.3116 158.186 59.7201 157.545L62.4235 153.044C62.7977 152.382 63.0381 151.885 63.1446 151.553C63.2459 151.229 63.2504 150.969 63.1579 150.773C63.0654 150.578 62.8511 150.361 62.5151 150.125Z" fill="#B55A2B"/>
<path d="M53.5731 141.841C53.5511 141.821 53.5432 141.8 53.5494 141.778C53.5556 141.757 53.5692 141.742 53.5901 141.734C53.611 141.726 53.6325 141.733 53.6545 141.753C53.8235 141.909 54.0262 142.11 54.2624 142.355C54.5055 142.593 54.6307 142.715 54.638 142.722L56.3795 144.329C56.3869 144.336 56.5446 144.475 56.8526 144.746C57.1601 145.002 57.4204 145.229 57.6335 145.426C57.6555 145.446 57.6671 145.47 57.6682 145.499C57.662 145.52 57.6484 145.535 57.6275 145.543C57.5993 145.544 57.5741 145.534 57.5521 145.514C57.105 145.128 56.7158 145.041 56.3846 145.253C56.0392 145.465 55.6704 146.063 55.2781 147.049L55.2205 147.199L56.9509 148.797L58.6924 150.404C59.3605 150.123 59.8209 149.69 60.0735 149.107C60.3194 148.531 60.2103 148.015 59.7463 147.56C59.7242 147.539 59.7163 147.519 59.7226 147.497C59.7214 147.469 59.735 147.454 59.7632 147.453C59.7909 147.438 59.8158 147.44 59.8379 147.461C59.9701 147.583 60.3087 147.909 60.8536 148.439C61.126 148.704 61.3651 148.932 61.5709 149.122C61.6884 149.23 61.8277 149.352 61.9888 149.487C62.311 149.757 62.5162 149.933 62.6044 150.014C62.6264 150.035 62.6239 150.06 62.5967 150.089C62.5696 150.118 62.545 150.123 62.523 150.103C62.237 149.852 61.7461 149.787 61.0503 149.907C60.3189 150.021 59.6019 150.23 58.8993 150.534L53.2839 152.924C53.107 153.632 52.9682 154.232 52.8676 154.724C52.8699 154.781 52.8493 154.796 52.8057 154.769C52.3858 154.531 51.9471 154.358 51.4899 154.248C50.9896 154.127 50.5892 154.111 50.2885 154.201C50.2743 154.202 50.2596 154.188 50.2444 154.16L53.3603 145.278C53.7294 144.244 53.9397 143.486 53.9911 143.003C54.0296 142.548 53.8902 142.161 53.5731 141.841ZM58.4626 150.498L56.7983 148.962L55.134 147.426C54.2692 149.69 53.6706 151.444 53.3382 152.688L58.4626 150.498Z" fill="#B55A2B"/>
<path d="M44.8492 129.579C44.8322 129.554 44.8291 129.532 44.8399 129.512C44.845 129.484 44.8586 129.469 44.8808 129.466C44.9029 129.463 44.9253 129.478 44.948 129.511C45.1069 129.741 45.2859 130.019 45.485 130.343C45.6924 130.661 45.7989 130.825 45.8046 130.833L47.0509 132.616C47.0793 132.657 47.2026 132.827 47.4207 133.126C47.6471 133.419 47.8354 133.666 47.9854 133.866C48.0195 133.916 48.02 133.952 47.9871 133.974C47.9459 134.003 47.9083 133.992 47.8743 133.943C47.6252 133.616 47.4002 133.413 47.1992 133.333C46.9983 133.253 46.7351 133.276 46.4098 133.403C46.0844 133.53 45.6031 133.801 44.9659 134.216L39.1975 138.191L44.6788 138.294L45.0842 137.322C46.0898 137.601 46.796 137.709 47.2028 137.648C47.2636 137.63 47.2749 137.647 47.2369 137.697L44.5259 145.157L49.3926 141.804C50.0431 141.356 50.5166 140.756 50.813 140.006C51.0955 139.253 51.0423 138.585 50.6533 138.003C50.6363 137.978 50.6332 137.956 50.644 137.936C50.6491 137.908 50.6656 137.897 50.6934 137.902C50.7238 137.893 50.7475 137.901 50.7645 137.926C50.878 138.091 51.1478 138.5 51.5738 139.154C51.7869 139.48 51.9813 139.772 52.1572 140.027C52.282 140.208 52.4337 140.419 52.6121 140.661C52.9577 141.127 53.1701 141.418 53.2496 141.533C53.2666 141.558 53.2697 141.58 53.2589 141.599C53.2481 141.619 53.2317 141.63 53.2095 141.633C53.1874 141.636 53.1678 141.626 53.1508 141.601C52.8475 141.178 52.3717 140.99 51.7233 141.036C51.0749 141.082 50.4749 141.295 49.9232 141.675C47.8645 143.094 46.5621 143.997 46.0161 144.386C45.3193 144.89 44.8428 145.291 44.5866 145.589C44.3247 145.879 44.197 146.143 44.2034 146.381C44.2016 146.625 44.3217 146.95 44.5636 147.354C44.5977 147.403 44.5982 147.439 44.5653 147.462C44.5241 147.49 44.4865 147.48 44.4525 147.43C44.2709 147.167 44.0664 146.852 43.8389 146.487C43.6032 146.127 43.4825 145.943 43.4768 145.935L42.3789 144.341L44.6319 138.49L38.2769 138.388L37.1705 136.782C37.1648 136.774 37.0501 136.616 36.8263 136.309C36.5942 136.007 36.3987 135.741 36.2399 135.51C36.1945 135.445 36.2009 135.41 36.2591 135.406C36.2951 135.406 36.3217 135.418 36.3387 135.442C36.6017 135.771 36.8336 135.976 37.0346 136.056C37.2355 136.136 37.4987 136.113 37.824 135.986C38.1355 135.856 38.6098 135.584 39.247 135.169L43.5579 132.199C44.1723 131.751 44.5997 131.402 44.84 131.152C45.0663 130.898 45.1779 130.664 45.1745 130.447C45.1712 130.231 45.0628 129.942 44.8492 129.579Z" fill="#B55A2B"/>
<path d="M39.9401 116.886C39.9293 116.858 39.9314 116.836 39.9464 116.819C39.9578 116.793 39.9746 116.781 39.9969 116.784C40.0192 116.786 40.0375 116.805 40.052 116.843C40.1569 117.113 40.2688 117.429 40.3877 117.79C40.5122 118.139 40.5763 118.318 40.5799 118.327L41.3669 120.355C41.3705 120.364 41.4457 120.544 41.5925 120.895C41.745 121.232 41.8738 121.536 41.9787 121.807C41.9895 121.835 41.9893 121.862 41.9779 121.888C41.9628 121.904 41.9442 121.911 41.9219 121.909C41.896 121.898 41.8777 121.878 41.8668 121.85C41.6869 121.47 41.5084 121.217 41.3314 121.093C41.1544 120.968 40.8976 120.928 40.561 120.973C40.2151 121.022 39.6843 121.174 38.9686 121.43L34.1861 123.287L40.8418 126.174C41.5338 125.884 42.0191 125.642 42.2978 125.448C42.5765 125.254 42.7392 125.051 42.7859 124.84C42.8327 124.629 42.7959 124.327 42.6755 123.934C42.6538 123.878 42.6616 123.843 42.6989 123.828C42.7361 123.814 42.7656 123.834 42.7874 123.89C42.8923 124.161 43.0024 124.472 43.1176 124.824C43.2421 125.173 43.3062 125.352 43.3098 125.361L44.1022 127.403C44.1058 127.412 44.1792 127.587 44.3224 127.929C44.475 128.266 44.6037 128.57 44.7086 128.841C44.7303 128.897 44.7225 128.932 44.6852 128.946C44.6479 128.961 44.6184 128.94 44.5967 128.884C44.4204 128.513 44.2438 128.265 44.0668 128.14C43.8898 128.016 43.633 127.976 43.2964 128.021C42.9505 128.07 42.4197 128.222 41.7039 128.478L36.8096 130.378C36.1083 130.671 35.6183 130.915 35.3396 131.109C35.0516 131.307 34.8842 131.511 34.8375 131.722C34.7908 131.934 34.8276 132.236 34.948 132.629C34.9697 132.685 34.9619 132.72 34.9246 132.734C34.8873 132.749 34.8578 132.728 34.8361 132.672C34.7312 132.402 34.6211 132.091 34.5059 131.739C34.3813 131.39 34.3172 131.211 34.3136 131.202L33.5212 129.16C33.5176 129.151 33.4442 128.975 33.301 128.634C33.1485 128.296 33.0198 127.992 32.9148 127.722C32.8931 127.666 32.9009 127.631 32.9382 127.616C32.9755 127.602 33.005 127.623 33.0267 127.679C33.203 128.05 33.3797 128.298 33.5567 128.422C33.7337 128.547 33.9951 128.585 34.341 128.536C34.6776 128.491 35.2038 128.341 35.9195 128.084L40.5761 126.277L33.9344 123.384C33.2855 123.647 32.8234 123.88 32.5484 124.083C32.2733 124.286 32.1189 124.497 32.085 124.713C32.0383 124.925 32.0826 125.219 32.218 125.595C32.2289 125.623 32.2286 125.65 32.2172 125.676C32.2022 125.692 32.1835 125.7 32.1613 125.698C32.1354 125.686 32.117 125.666 32.1062 125.638C32.0012 125.368 31.8912 125.057 31.7759 124.705C31.6478 124.347 31.5819 124.163 31.5783 124.154L30.7913 122.126C30.7877 122.117 30.7143 121.942 30.5711 121.6C30.415 121.253 30.2844 120.945 30.1795 120.674C30.1505 120.6 30.1648 120.567 30.2223 120.577C30.2539 120.576 30.2769 120.594 30.2914 120.631C30.4677 121.002 30.6443 121.25 30.8213 121.374C30.9983 121.499 31.2598 121.537 31.6057 121.488C31.9423 121.444 32.4684 121.293 33.1842 121.037L38.0785 119.137C38.7798 118.843 39.2744 118.598 39.5624 118.4C39.8411 118.206 40.0038 118.004 40.0506 117.792C40.0973 117.581 40.0605 117.279 39.9401 116.886Z" fill="#B55A2B"/>
<path d="M34.5738 108.013L35.416 113.438L35.2233 113.468L34.3811 108.043L34.5738 108.013Z" fill="#B55A2B"/>
<path d="M38.429 97.7074C38.3558 99.2857 37.815 100.587 36.8065 101.611C35.798 102.636 34.4896 103.111 32.8813 103.036C31.293 102.963 29.9947 102.357 28.9863 101.219C27.9779 100.081 27.5119 98.6881 27.5882 97.0398C27.6067 96.6403 27.6689 96.1626 27.7748 95.6069C27.8806 95.0512 27.9347 94.7484 27.937 94.6985C27.9574 94.2589 27.7263 93.9529 27.2437 93.7804C27.1747 93.7572 27.1764 93.7222 27.2486 93.6755L32.2576 92.8415C32.2776 92.8424 32.2921 92.8531 32.3011 92.8735C32.3107 92.884 32.31 92.899 32.2991 92.9185C32.2882 92.938 32.2725 92.9523 32.252 92.9614C30.9816 93.373 29.936 94.0103 29.1152 94.8732C28.2644 95.7347 27.8232 96.5051 27.7918 97.1844C27.7524 98.0335 28.1091 98.7608 28.8619 99.3663C29.6052 99.9613 30.6211 100.289 31.9097 100.348C33.4381 100.419 34.6998 100.087 35.6949 99.3526C36.6809 98.5974 37.2056 97.5356 37.269 96.167C37.307 95.3479 37.0665 94.596 36.5477 93.9112C36.0293 93.2165 35.3105 92.6326 34.3914 92.1595C34.3533 92.1177 34.35 92.0825 34.3813 92.0539C34.4027 92.0249 34.4329 92.0213 34.4719 92.0431C35.5476 92.5935 36.4531 93.2511 37.1885 94.016C38.0854 94.9685 38.4989 96.199 38.429 97.7074Z" fill="#B55A2B"/>
<path d="M40.129 85.1944L38.9162 90.3641C38.9139 90.3738 38.8754 90.5599 38.8006 90.9224C38.7356 91.2872 38.67 91.6108 38.6037 91.8931C38.59 91.9515 38.5637 91.9762 38.5248 91.967C38.4858 91.9579 38.4732 91.9241 38.4869 91.8657C38.5513 91.4597 38.5457 91.1554 38.47 90.9527C38.3943 90.7501 38.2049 90.5721 37.9019 90.4188C37.5892 90.2633 37.0651 90.089 36.3298 89.896L31.2185 88.6968C30.4741 88.5427 29.9321 88.4669 29.5925 88.4694C29.2432 88.4697 28.9896 88.5437 28.8317 88.6915C28.6737 88.8394 28.5333 89.1094 28.4105 89.5017C28.3968 89.5602 28.3705 89.5848 28.3315 89.5757C28.2926 89.5665 28.2799 89.5328 28.2937 89.4743C28.3599 89.192 28.445 88.873 28.549 88.5174C28.6432 88.1594 28.6915 87.9756 28.6938 87.9659L29.6839 83.7454C30.0242 82.2948 30.4616 81.2624 30.996 80.6483C31.5304 80.0341 32.1967 79.8206 32.9951 80.0079C33.5208 80.1313 33.9261 80.4831 34.2111 81.0636C34.7185 82.0968 34.7976 83.5328 34.4484 85.3717L34.5068 85.3854C34.8197 84.0516 35.2496 82.9198 35.7964 81.9901C36.1161 81.4591 36.49 81.0692 36.9182 80.8205C37.3486 80.5619 37.8024 80.4886 38.2794 80.6005C39.1848 80.813 39.7973 81.311 40.1167 82.0947C40.4264 82.8761 40.4305 83.9093 40.129 85.1944ZM31.6198 86.2642L34.0586 86.8363L34.1476 86.4566C34.6661 84.2466 34.1076 82.9498 32.472 82.5661C31.7613 82.3993 31.1638 82.516 30.6797 82.916C30.1955 83.3159 29.8701 83.8713 29.7033 84.582L29.4601 85.6188C29.8776 85.8092 30.5975 86.0244 31.6198 86.2642ZM34.3546 86.4282L34.2484 86.8809L36.9939 87.525C38.1427 87.7945 38.9026 87.9265 39.2736 87.9211L39.558 86.709C39.7704 85.8036 39.7095 85.0344 39.3753 84.4013C39.041 83.7682 38.4942 83.3626 37.7348 83.1845C36.0798 82.7962 34.953 83.8774 34.3546 86.4282Z" fill="#B55A2B"/>
<path d="M45.998 69.9066C46.0228 69.852 46.0534 69.8329 46.0899 69.8495C46.1263 69.866 46.1321 69.9016 46.1073 69.9562C45.9874 70.2203 45.8418 70.5166 45.6706 70.8452C45.5086 71.178 45.4254 71.3489 45.4213 71.358L44.5468 73.2838C44.5427 73.2929 44.4253 73.5636 44.1946 74.0958C43.9771 74.6231 43.7774 75.087 43.5955 75.4877C43.5707 75.5423 43.5451 75.5746 43.5186 75.5845C43.4921 75.5945 43.4739 75.5862 43.464 75.5597C43.4491 75.52 43.4519 75.4774 43.4726 75.4318C43.657 74.9774 43.7715 74.6285 43.8161 74.3852C43.8648 74.1328 43.8333 73.8878 43.7214 73.6503C43.6047 73.3996 43.4064 73.1833 43.1266 73.0013C42.8418 72.8061 42.4076 72.565 41.8241 72.278L40.1305 71.509L40.0437 71.7002C39.6674 72.5288 39.5208 73.2749 39.6038 73.9387C39.691 74.5933 40.026 75.2341 40.6088 75.8612L41.2236 76.5028C41.4844 76.775 41.6761 76.9938 41.7986 77.1593C41.9543 77.3727 42.0665 77.6214 42.1353 77.9052C42.195 78.1849 42.1761 78.4564 42.0785 78.7196L41.57 79.8396L41.3678 80.3573C41.2239 80.6983 41.0982 80.9872 40.9907 81.224C40.9783 81.2513 40.961 81.2654 40.9386 81.2662C40.9163 81.267 40.8981 81.2588 40.884 81.2414C40.8699 81.224 40.8691 81.2017 40.8815 81.1743C41.0659 80.7199 41.0541 80.2863 40.8462 79.8734C40.6143 79.4166 40.1299 78.7903 39.3931 77.9944L38.9808 77.5601C38.2563 76.7369 38.2368 75.498 38.9222 73.8433C38.2308 74.9791 37.5202 75.7821 36.7904 76.2525C36.0648 76.7137 35.3605 76.7893 34.6776 76.4792C33.8399 76.0988 33.3783 75.4224 33.2927 74.45C33.2021 73.4644 33.4855 72.2477 34.1429 70.8L35.8608 67.0167C35.8649 67.0076 35.9389 66.8326 36.0828 66.4915C36.2176 66.1464 36.3449 65.8418 36.4648 65.5777C36.4896 65.5231 36.5202 65.504 36.5567 65.5206C36.5931 65.5371 36.5989 65.5727 36.5741 65.6273C36.4319 66.0131 36.3782 66.3127 36.413 66.5262C36.4479 66.7397 36.6036 66.9531 36.8801 67.1666C37.1475 67.3758 37.623 67.6467 38.3067 67.9791L43.087 70.1498C43.7873 70.4458 44.3087 70.6277 44.6514 70.6954C44.9849 70.759 45.2435 70.7337 45.4272 70.6194C45.6109 70.5051 45.8012 70.2675 45.998 69.9066ZM35.7555 74.0692C36.5112 74.4124 37.2635 74.3641 38.0123 73.9244C38.7479 73.4896 39.3472 72.7623 39.8103 71.7425L39.9529 71.4284L36.6477 69.9275C36.1014 69.6795 35.5911 69.4972 35.1169 69.3807L34.8006 70.0772C33.9075 72.044 34.2258 73.3746 35.7555 74.0692Z" fill="#B55A2B"/>
<path d="M48.87 60.5035C49.6155 61.0253 49.9921 61.8564 49.9995 62.9967C49.9931 64.1396 49.6172 65.2435 48.8718 66.3086C48.6482 66.6281 48.3431 66.9943 47.9564 67.4073C47.6239 67.7604 47.4261 67.982 47.363 68.0722C47.1107 68.4326 47.1382 68.8119 47.4454 69.2101C47.4823 69.2969 47.4622 69.3256 47.3852 69.2961L43.2229 67.1338C43.1901 67.1108 43.1852 67.083 43.2081 67.0502C43.2196 67.0338 43.2446 67.033 43.2831 67.0477C44.5325 67.3728 45.6458 67.4563 46.6231 67.2981C47.5923 67.1341 48.2886 66.767 48.7121 66.1968C49.0733 65.6806 49.1535 65.0777 48.9527 64.3879C48.7519 63.6981 48.2911 63.101 47.5701 62.5964C47.013 62.2065 46.4215 62.0488 45.7956 62.1235C45.1754 62.1899 44.6991 62.4607 44.3665 62.9359C44.1429 63.2554 43.9909 63.5336 43.9107 63.7703C43.905 63.7785 43.9 63.8117 43.896 63.8699C43.8894 63.9141 43.8849 63.9903 43.8825 64.0984C43.88 64.2066 43.8735 64.3118 43.8628 64.4142C43.8432 64.7911 43.7789 65.0574 43.67 65.213C43.5209 65.426 43.3726 65.4809 43.2252 65.3777C42.963 65.1942 43.069 64.6765 43.5433 63.8244C43.8102 62.8151 43.8839 62.0123 43.7642 61.4159C43.6503 60.8113 43.2656 60.2796 42.6101 59.8209C42.135 59.4884 41.6786 59.3643 41.2412 59.4488C40.8013 59.5193 40.4207 59.7839 40.0997 60.2427C39.9334 60.4803 39.8101 60.7785 39.7299 61.1373C40.3649 62.0089 40.7823 62.6856 40.9823 63.1673C41.174 63.6432 41.1724 64.0205 40.9775 64.299C40.6564 64.7578 40.2705 64.8296 39.8199 64.5142C39.2956 64.1473 39.0821 63.4669 39.1795 62.4732C39.2744 61.4655 39.5684 60.6094 40.0615 59.9048C40.7381 58.938 41.4172 58.2903 42.0987 57.9618C42.7803 57.6332 43.3915 57.6581 43.9322 58.0365C44.2435 58.2544 44.4832 58.5747 44.6512 58.9974C44.743 59.2325 44.7582 59.6642 44.6968 60.2926C44.6681 60.4556 44.6165 60.7125 44.542 61.0631L44.3332 61.8324C44.2742 61.9864 44.1817 62.2756 44.0556 62.7L43.7866 63.5553C44.1969 62.7073 44.5511 62.0703 44.8493 61.6443C45.4169 60.8332 46.0678 60.3305 46.8018 60.1363C47.5333 59.9281 48.2227 60.0505 48.87 60.5035Z" fill="#B55A2B"/>
<path d="M60.7763 52.5503C60.7978 52.5293 60.8191 52.5225 60.8402 52.5298C60.8613 52.5371 60.8753 52.5514 60.8822 52.5727C60.889 52.594 60.8817 52.6151 60.8603 52.6361C60.6959 52.7969 60.4852 52.9891 60.2282 53.2126C59.9781 53.4432 59.8496 53.562 59.8424 53.569L58.1484 55.2265C58.1413 55.2335 57.9946 55.384 57.7086 55.6778C57.4367 55.9719 57.1971 56.2203 56.9898 56.4231C56.9683 56.4441 56.9435 56.4544 56.9152 56.4541C56.8941 56.4468 56.8801 56.4325 56.8732 56.4112C56.8735 56.383 56.8844 56.3583 56.9059 56.3373C57.3136 55.9104 57.4203 55.5262 57.226 55.1846C57.0319 54.829 56.4529 54.4302 55.4889 53.9883L55.3411 53.923L53.6578 55.57L51.9638 57.2275C52.2109 57.9091 52.6194 58.3908 53.1891 58.6728C53.7518 58.9477 54.2725 58.865 54.751 58.4247C54.7725 58.4037 54.7938 58.3969 54.8149 58.4042C54.8432 58.4045 54.8572 58.4188 54.8569 58.4471C54.8707 58.4755 54.8669 58.5002 54.8455 58.5212C54.7168 58.6471 54.3739 58.9686 53.8167 59.4858C53.538 59.7444 53.2987 59.9717 53.0985 60.1675C52.9842 60.2794 52.8554 60.4123 52.7123 60.5663C52.4261 60.8744 52.2401 61.0703 52.1543 61.1543C52.1329 61.1752 52.1082 61.1714 52.0802 61.1429C52.0522 61.1143 52.049 61.0895 52.0704 61.0685C52.335 60.7956 52.4252 60.3086 52.3409 59.6076C52.2641 58.8714 52.0917 58.1447 51.8237 57.4275L49.7223 51.6979C49.0245 51.4852 48.4324 51.3162 47.9458 51.1906C47.8892 51.19 47.8753 51.1686 47.9041 51.1265C48.1631 50.7192 48.3587 50.29 48.4909 49.8388C48.6377 49.3454 48.6739 48.9463 48.5994 48.6414C48.5996 48.6273 48.6139 48.6133 48.6423 48.5995L57.3544 52.163C58.3681 52.5842 59.115 52.8327 59.595 52.9087C60.0469 52.9702 60.4407 52.8507 60.7763 52.5503ZM51.8815 56.9933L53.5004 55.4092L55.1194 53.8252C52.9026 52.8464 51.1811 52.1593 49.9549 51.7641L51.8815 56.9933Z" fill="#B55A2B"/>
<path d="M66.2739 48.9773L64.5606 50.1121C64.5523 50.1176 64.3175 50.2792 63.8561 50.5967C63.4086 50.9171 63.0139 51.1905 62.6721 51.4169C62.6304 51.4445 62.5957 51.4555 62.568 51.4499C62.5403 51.4443 62.5292 51.4276 62.5349 51.3999C62.535 51.3638 62.5559 51.332 62.5976 51.3044C62.97 51.0337 63.2383 50.814 63.4025 50.6453C63.5694 50.4627 63.6686 50.2412 63.6999 49.9805C63.7256 49.7116 63.671 49.4299 63.536 49.1355C63.4038 48.8273 63.1748 48.4092 62.8492 47.8812L58.7077 41.6284L58.295 41.9017C57.7948 42.233 57.4501 42.9351 57.2611 44.0078C57.0942 45.0779 57.1863 46.2763 57.5373 47.6031C57.5565 47.6864 57.5398 47.7155 57.4871 47.6904C57.4733 47.6875 57.4581 47.6736 57.4415 47.6486L55.3552 42.7873C55.3553 42.7513 55.3803 42.7347 55.4302 42.7376C55.6905 42.8771 56.0067 42.8836 56.3787 42.7571C56.7591 42.6251 57.3036 42.3244 58.0122 41.8551L61.2387 39.7181C61.9807 39.2266 62.4742 38.8398 62.7191 38.5577C62.9724 38.27 63.0856 37.9791 63.0587 37.685C63.07 37.6296 63.095 37.613 63.1337 37.6353L66.7958 41.453C66.8179 41.4863 66.8192 41.5155 66.7997 41.5404C66.783 41.5514 66.7595 41.543 66.729 41.5152C65.636 40.6798 64.556 40.1358 63.4889 39.8829C62.4274 39.6385 61.6424 39.6846 61.1338 40.0215L60.7586 40.27L64.9001 46.5228C65.3308 47.1731 65.7053 47.6208 66.0235 47.8658C66.3417 48.1108 66.6562 48.2144 66.9669 48.1765C67.2722 48.1303 67.6665 47.947 68.1501 47.6267C68.1918 47.5991 68.2265 47.5881 68.2542 47.5938C68.2819 47.5994 68.293 47.6161 68.2873 47.6438C68.2872 47.6798 68.2663 47.7117 68.2246 47.7393C67.8828 47.9657 67.473 48.2252 66.995 48.5177C66.5226 48.8186 66.2823 48.9718 66.2739 48.9773Z" fill="#B55A2B"/>
<path d="M72.0234 39.5178L73.2115 39.0153C74.9061 38.2985 76.3029 37.9684 77.4016 38.0248C78.5057 38.0681 79.2214 38.4766 79.5486 39.2502C79.907 40.0976 79.804 40.9066 79.2397 41.6773C78.6753 42.448 77.6886 43.1314 76.2795 43.7274L72.0382 45.5213C72.029 45.5252 71.856 45.6038 71.5191 45.7572C71.1861 45.9197 70.8861 46.0575 70.619 46.1705C70.5637 46.1938 70.5283 46.1871 70.5127 46.1503C70.4933 46.1042 70.5111 46.0695 70.5664 46.0461C70.9362 45.868 71.1807 45.6886 71.2997 45.508C71.4187 45.3273 71.4489 45.0648 71.3901 44.7205C71.3313 44.3762 71.1631 43.8502 70.8855 43.1425L68.852 38.3348C68.5375 37.6426 68.2772 37.1556 68.0711 36.8736C67.865 36.5916 67.6556 36.4304 67.4431 36.39C67.2306 36.3496 66.9316 36.4001 66.5462 36.5414C66.491 36.5647 66.4555 36.558 66.44 36.5212C66.4244 36.4843 66.4442 36.4542 66.4995 36.4308C66.7666 36.3179 67.0744 36.1985 67.423 36.0728C67.7676 35.9379 67.9446 35.8685 67.9538 35.8646L69.9511 35.0035C69.9603 34.9996 70.138 34.919 70.4841 34.7618C70.8263 34.5953 71.1263 34.4576 71.3842 34.3485C71.4578 34.3173 71.4906 34.3306 71.4825 34.3884C71.4849 34.4199 71.4678 34.4434 71.4309 34.459C71.065 34.6464 70.8225 34.8304 70.7035 35.011C70.5844 35.1916 70.5543 35.4541 70.6131 35.7984C70.6679 36.1335 70.8342 36.6549 71.1118 37.3627L72.0234 39.5178ZM74.2221 44.3696L75.1753 43.9664C76.1055 43.573 76.7416 43.0488 77.0835 42.3939C77.4254 41.739 77.4444 41.0523 77.1405 40.3339C76.4783 38.7682 74.9407 38.4957 72.5276 39.5163L72.0994 39.6974L73.1979 42.2947C73.6576 43.3815 73.999 44.0731 74.2221 44.3696Z" fill="#B55A2B"/>
<path d="M86.3571 40.7352C84.8135 41.0726 83.4166 40.8866 82.1663 40.1772C80.916 39.4679 80.1189 38.3268 79.7751 36.7539C79.4356 35.2006 79.6851 33.7897 80.5236 32.5214C81.3621 31.2531 82.5873 30.4428 84.1993 30.0905C84.59 30.005 85.0675 29.9416 85.6317 29.9002C86.1958 29.8588 86.5023 29.8327 86.5512 29.822C86.981 29.7281 87.2169 29.4257 87.2588 28.915C87.2634 28.8424 87.2976 28.8349 87.3614 28.8926L89.4621 33.5157C89.4663 33.5352 89.4598 33.552 89.4424 33.566C89.4347 33.5779 89.4201 33.5811 89.3984 33.5756C89.3767 33.5701 89.3589 33.5587 89.3448 33.5413C88.6187 32.4205 87.7328 31.5752 86.687 31.0053C85.6348 30.4062 84.7765 30.1792 84.1122 30.3244C83.2818 30.506 82.6715 31.0386 82.2812 31.9223C81.8985 32.7941 81.8449 33.8602 82.1204 35.1204C82.4471 36.6151 83.094 37.7481 84.061 38.5194C85.0454 39.2767 86.2068 39.509 87.5452 39.2165C88.3463 39.0414 89.0105 38.6147 89.5378 37.9364C90.0749 37.2561 90.4532 36.4108 90.6725 35.4007C90.703 35.353 90.7362 35.3407 90.7719 35.3636C90.8055 35.3767 90.8168 35.405 90.8058 35.4483C90.5522 36.6297 90.151 37.6745 89.6023 38.5826C88.914 39.6952 87.8323 40.4128 86.3571 40.7352Z" fill="#B55A2B"/>
<path d="M103.885 38.9284C103.945 38.927 103.975 38.9463 103.976 38.9863C103.977 39.0263 103.948 39.0469 103.888 39.0483C103.598 39.055 103.268 39.0527 102.897 39.0413C102.527 39.0398 102.337 39.0392 102.327 39.0395L100.213 39.0884C100.203 39.0887 99.9078 39.1005 99.3282 39.1239C98.7588 39.1571 98.2541 39.1788 97.8143 39.189C97.7543 39.1904 97.7141 39.1813 97.6936 39.1618C97.6731 39.1423 97.6727 39.1223 97.6922 39.1018C97.7215 39.0711 97.7611 39.0552 97.8111 39.054C98.3005 39.0227 98.6645 38.9743 98.9031 38.9087C99.1516 38.8429 99.3585 38.7081 99.5239 38.5042C99.699 38.2901 99.8077 38.0175 99.85 37.6865C99.9021 37.3452 99.9307 36.8494 99.9356 36.1991L99.8925 34.3396L99.6826 34.3444C98.7728 34.3655 98.0371 34.5576 97.4753 34.9207C96.9236 35.2836 96.4919 35.8637 96.1803 36.6612L95.8695 37.4936C95.7376 37.8467 95.6238 38.1144 95.528 38.2967C95.4033 38.5297 95.2281 38.7388 95.0024 38.9241C94.7764 39.0993 94.5236 39.2002 94.2442 39.2267L93.0145 39.2552L92.4603 39.298C92.0907 39.3166 91.7759 39.3289 91.516 39.3349C91.486 39.3356 91.4657 39.3261 91.4553 39.3063C91.4448 39.2865 91.4443 39.2665 91.4539 39.2463C91.4634 39.2261 91.4832 39.2156 91.5132 39.2149C92.0026 39.1836 92.3881 38.9846 92.6697 38.618C92.9803 38.2107 93.334 37.5023 93.7307 36.4928L93.9428 35.9328C94.3695 34.9226 95.477 34.3668 97.2651 34.2654C95.9417 34.136 94.9097 33.8448 94.169 33.3919C93.4383 32.9387 93.0643 32.3372 93.047 31.5874C93.0256 30.6676 93.4343 29.958 94.273 29.4584C95.1214 28.9486 96.3404 28.6753 97.93 28.6385L102.084 28.5423C102.094 28.5421 102.284 28.5327 102.653 28.5141C103.023 28.4855 103.352 28.4679 103.642 28.4612C103.702 28.4598 103.733 28.4791 103.734 28.5191C103.735 28.5591 103.705 28.5797 103.645 28.5811C103.236 28.6206 102.943 28.7024 102.766 28.8266C102.588 28.9507 102.464 29.1837 102.392 29.5254C102.319 29.8572 102.282 30.4032 102.28 31.1635L102.401 36.412C102.439 37.1714 102.502 37.7201 102.589 38.0581C102.677 38.3862 102.812 38.6081 102.995 38.7239C103.178 38.8397 103.474 38.9079 103.885 38.9284ZM95.6859 31.5112C95.7051 32.341 96.0754 32.9976 96.7968 33.481C97.508 33.9547 98.4234 34.1786 99.5431 34.1526L99.888 34.1446L99.8039 30.5156C99.7901 29.9158 99.7326 29.377 99.6315 28.8992L98.8667 28.9169C96.7073 28.9669 95.647 29.8317 95.6859 31.5112Z" fill="#B55A2B"/>
<path d="M113.884 40.9307C112.347 40.564 111.17 39.7895 110.352 38.6074C109.534 37.4253 109.312 36.0512 109.686 34.4851C110.055 32.9386 110.892 31.7762 112.199 30.9982C113.505 30.2201 114.96 30.0226 116.565 30.4056C116.954 30.4984 117.412 30.6487 117.938 30.8565C118.464 31.0643 118.752 31.174 118.8 31.1856C119.228 31.2878 119.572 31.1179 119.832 30.6761C119.867 30.6127 119.902 30.6208 119.934 30.7005L119.817 35.7771C119.813 35.7965 119.8 35.8088 119.778 35.8139C119.766 35.8213 119.751 35.8178 119.734 35.8034C119.717 35.7891 119.706 35.771 119.701 35.7492C119.534 34.4243 119.103 33.278 118.409 32.3104C117.721 31.3136 117.047 30.7363 116.385 30.5785C115.559 30.3812 114.777 30.5958 114.042 31.2222C113.318 31.8412 112.807 32.778 112.508 34.0328C112.153 35.521 112.243 36.8225 112.779 37.9374C113.336 39.0471 114.282 39.761 115.614 40.079C116.412 40.2693 117.195 40.1736 117.965 39.7918C118.744 39.4123 119.452 38.8153 120.089 38.0008C120.137 37.9712 120.172 37.9744 120.194 38.0106C120.219 38.037 120.217 38.0673 120.188 38.1016C119.446 39.0555 118.631 39.8222 117.742 40.4017C116.639 41.1049 115.353 41.2812 113.884 40.9307Z" fill="#B55A2B"/>
<path d="M134.486 49.4207C134.512 49.435 134.525 49.4533 134.524 49.4756C134.532 49.5027 134.527 49.5227 134.509 49.5355C134.49 49.5483 134.464 49.5452 134.429 49.5262C134.174 49.388 133.884 49.2195 133.559 49.0209C133.239 48.8358 133.074 48.7408 133.065 48.7361L131.153 47.6996C131.144 47.6948 130.971 47.6063 130.632 47.434C130.297 47.2753 130.002 47.1268 129.747 46.9886C129.721 46.9743 129.703 46.9536 129.695 46.9265C129.696 46.9041 129.706 46.8866 129.724 46.8737C129.751 46.8657 129.778 46.8688 129.804 46.8831C130.188 47.0569 130.487 47.1339 130.703 47.1142C130.918 47.0945 131.14 46.9586 131.367 46.7066C131.6 46.4458 131.906 45.9861 132.285 45.3275L133.579 42.9406C133.175 42.7214 132.808 42.528 132.477 42.3605C132.156 42.1977 131.78 41.9996 131.349 41.7661C130.945 41.5469 130.574 41.3399 130.236 41.1453C129.898 40.9507 129.517 40.739 129.096 40.5102L127.802 42.8971C127.457 43.5748 127.239 44.0822 127.147 44.4192C127.06 44.7475 127.067 45.0072 127.169 45.1985C127.27 45.3898 127.493 45.5963 127.839 45.8181C127.892 45.8466 127.909 45.8785 127.89 45.9137C127.871 45.9489 127.835 45.9521 127.782 45.9236C127.527 45.7854 127.242 45.6193 126.926 45.4254C126.606 45.2403 126.441 45.1454 126.432 45.1406L124.507 44.097C124.498 44.0922 124.329 44.0061 123.999 43.8385C123.664 43.6798 123.369 43.5314 123.114 43.3932C123.061 43.3646 123.044 43.3327 123.063 43.2975C123.082 43.2624 123.118 43.2591 123.171 43.2877C123.546 43.4567 123.841 43.5313 124.056 43.5116C124.272 43.4919 124.493 43.356 124.721 43.104C124.953 42.8432 125.259 42.3835 125.639 41.7249L128.141 37.1093C128.485 36.4316 128.701 35.9286 128.788 35.6004C128.88 35.2634 128.875 34.9992 128.774 34.8079C128.673 34.6167 128.449 34.4101 128.103 34.1884C128.05 34.1598 128.034 34.1279 128.053 34.0928C128.072 34.0576 128.108 34.0543 128.16 34.0829C128.415 34.2211 128.701 34.3871 129.016 34.581C129.337 34.7662 129.502 34.8611 129.51 34.8659L131.436 35.9095C131.445 35.9142 131.614 36.0004 131.944 36.1679C132.279 36.3266 132.574 36.4751 132.829 36.6133C132.881 36.6419 132.898 36.6738 132.879 36.7089C132.86 36.7441 132.824 36.7474 132.771 36.7188C132.397 36.5498 132.102 36.4752 131.886 36.4949C131.671 36.5146 131.447 36.6549 131.215 36.9156C130.987 37.1676 130.683 37.623 130.304 38.2816L129.174 40.3652L130.321 40.9871C130.669 41.1641 131.045 41.3622 131.45 41.5815C131.88 41.815 132.252 42.0219 132.563 42.2022L133.658 42.7955L134.787 40.7119C135.132 40.0342 135.348 39.5313 135.434 39.203C135.526 38.866 135.521 38.6018 135.42 38.4105C135.319 38.2193 135.091 38.0104 134.736 37.7839C134.71 37.7696 134.693 37.7489 134.685 37.7217C134.685 37.6994 134.695 37.6818 134.713 37.669C134.74 37.6609 134.767 37.6641 134.794 37.6784C135.049 37.8165 135.334 37.9826 135.65 38.1765C135.979 38.3664 136.148 38.4637 136.157 38.4685L138.069 39.5049C138.078 39.5097 138.247 39.5958 138.577 39.7634C138.921 39.9269 139.22 40.0777 139.475 40.2159C139.545 40.254 139.555 40.2879 139.505 40.3176C139.482 40.3392 139.453 40.3405 139.418 40.3214C139.043 40.1524 138.748 40.0778 138.533 40.0975C138.317 40.1172 138.093 40.2575 137.861 40.5182C137.633 40.7702 137.33 41.2256 136.95 41.8842L134.448 46.4998C134.104 47.1774 133.885 47.6848 133.794 48.0218C133.707 48.3501 133.714 48.6098 133.815 48.8011C133.916 48.9924 134.14 49.1989 134.486 49.4207Z" fill="#B55A2B"/>
<path d="M143.957 57.4319C143.98 57.4513 143.989 57.4719 143.983 57.4936C143.978 57.5153 143.965 57.5306 143.944 57.5393C143.924 57.548 143.902 57.5427 143.879 57.5232C143.704 57.3741 143.494 57.1817 143.248 56.946C142.995 56.718 142.865 56.6007 142.858 56.5942L141.053 55.0576C141.046 55.0511 140.883 54.9188 140.564 54.6606C140.247 54.4165 139.977 54.2004 139.757 54.0124C139.734 53.9929 139.721 53.9691 139.719 53.9409C139.724 53.9192 139.737 53.904 139.758 53.8952C139.786 53.8929 139.812 53.9015 139.834 53.921C140.297 54.2883 140.689 54.3597 141.011 54.1352C141.348 53.9097 141.693 53.2968 142.045 52.2967L142.097 52.1436L140.304 50.6167L138.499 49.0801C137.843 49.3881 137.4 49.8385 137.171 50.4315C136.949 51.0168 137.078 51.5278 137.56 51.9645C137.583 51.9839 137.592 52.0045 137.586 52.0262C137.589 52.0544 137.576 52.0697 137.547 52.0719C137.52 52.0883 137.495 52.0867 137.473 52.0673C137.336 51.9506 136.984 51.6382 136.419 51.1302C136.136 50.8763 135.888 50.6585 135.675 50.4769C135.553 50.3732 135.409 50.2571 135.242 50.1285C134.91 49.8714 134.698 49.704 134.606 49.6262C134.583 49.6067 134.585 49.5818 134.611 49.5513C134.637 49.5209 134.661 49.5154 134.684 49.5348C134.98 49.7736 135.473 49.8192 136.163 49.6717C136.89 49.5283 137.598 49.2907 138.288 48.9587L143.803 46.3461C143.951 45.6319 144.066 45.0268 144.147 44.5309C144.142 44.4745 144.162 44.4587 144.207 44.4835C144.636 44.7045 145.081 44.8603 145.543 44.9511C146.047 45.0525 146.448 45.0523 146.745 44.9505C146.759 44.9494 146.774 44.9623 146.791 44.9894L144.032 53.9889C143.705 55.0367 143.525 55.803 143.493 56.288C143.473 56.7436 143.627 57.1249 143.957 57.4319ZM138.725 48.9769L140.45 50.4454L142.174 51.914C142.948 49.6174 143.476 47.8407 143.758 46.5838L138.725 48.9769Z" fill="#B55A2B"/>
<path d="M153.232 69.3421C153.25 69.3661 153.254 69.3881 153.244 69.4081C153.24 69.4361 153.227 69.4521 153.205 69.4561C153.183 69.4601 153.16 69.4461 153.136 69.4141C152.968 69.1901 152.778 68.9201 152.566 68.6041C152.346 68.2941 152.233 68.1351 152.227 68.1271L150.91 66.3961C150.88 66.3561 150.75 66.1911 150.52 65.9011C150.282 65.6171 150.084 65.3781 149.926 65.1841C149.89 65.1361 149.888 65.1001 149.92 65.0761C149.96 65.0461 149.998 65.0551 150.034 65.1031C150.296 65.4191 150.529 65.6131 150.733 65.6851C150.937 65.7571 151.199 65.7231 151.519 65.5831C151.839 65.4431 152.309 65.1531 152.929 64.7131L158.533 60.5101L153.052 60.6271L152.686 61.6141C151.67 61.3761 150.96 61.2961 150.556 61.3741C150.496 61.3941 150.484 61.3781 150.52 61.3261L152.929 53.7631L148.201 57.3091C147.569 57.7831 147.12 58.4011 146.854 59.1631C146.602 59.9271 146.682 60.5921 147.094 61.1581C147.112 61.1821 147.116 61.2041 147.106 61.2241C147.102 61.2521 147.086 61.2641 147.058 61.2601C147.028 61.2701 147.004 61.2631 146.986 61.2391C146.866 61.0791 146.58 60.6811 146.128 60.0451C145.902 59.7271 145.696 59.4441 145.51 59.1961C145.378 59.0201 145.218 58.8151 145.03 58.581C144.666 58.129 144.442 57.847 144.358 57.735C144.34 57.711 144.336 57.689 144.346 57.669C144.356 57.649 144.372 57.637 144.394 57.633C144.416 57.629 144.436 57.639 144.454 57.663C144.774 58.073 145.257 58.2421 145.903 58.1701C146.549 58.0981 147.14 57.8611 147.676 57.4591C149.676 55.9591 150.941 55.0041 151.471 54.5941C152.147 54.0621 152.607 53.6421 152.851 53.3341C153.101 53.0341 153.218 52.7651 153.202 52.5271C153.194 52.2831 153.061 51.9641 152.803 51.5701C152.767 51.5221 152.765 51.4861 152.797 51.4621C152.837 51.4321 152.875 51.4411 152.911 51.4891C153.103 51.7451 153.32 52.0511 153.562 52.4071C153.812 52.7571 153.94 52.9361 153.946 52.9441L155.107 54.4921L153.091 60.4291L159.445 60.2761L160.615 61.8361C160.621 61.8441 160.742 61.9971 160.978 62.2951C161.222 62.5871 161.428 62.8451 161.596 63.0691C161.644 63.1331 161.639 63.1681 161.581 63.1741C161.545 63.1761 161.518 63.1651 161.5 63.1411C161.224 62.8231 160.984 62.6281 160.78 62.5561C160.576 62.4841 160.314 62.5181 159.994 62.6581C159.688 62.8001 159.225 63.0911 158.605 63.5311L154.417 66.6721C153.821 67.1441 153.408 67.5101 153.178 67.7701C152.962 68.0321 152.86 68.2711 152.872 68.4871C152.884 68.7031 153.004 68.9881 153.232 69.3421Z" fill="#B55A2B"/>
<path d="M158.723 81.8914C158.735 81.9189 158.734 81.9412 158.72 81.9584C158.71 81.9847 158.693 81.9973 158.671 81.9961C158.649 81.995 158.629 81.976 158.613 81.9394C158.497 81.6736 158.373 81.3625 158.239 81.0062C158.1 80.6631 158.029 80.4869 158.025 80.4778L157.155 78.4842C157.151 78.475 157.069 78.2983 156.908 77.954C156.741 77.6228 156.6 77.3244 156.484 77.0586C156.472 77.0311 156.471 77.0041 156.482 76.9778C156.496 76.9607 156.514 76.9527 156.537 76.9538C156.563 76.9642 156.582 76.9831 156.594 77.0106C156.79 77.3835 156.978 77.6285 157.16 77.7455C157.342 77.8625 157.601 77.8917 157.935 77.8331C158.279 77.7705 158.803 77.5964 159.507 77.3109L164.209 75.2597L157.441 72.6483C156.761 72.9665 156.286 73.2282 156.016 73.4335C155.745 73.6388 155.591 73.8479 155.553 74.0609C155.515 74.2738 155.564 74.5742 155.701 74.962C155.725 75.017 155.718 75.0525 155.682 75.0685C155.645 75.0845 155.615 75.065 155.591 75.01C155.475 74.7442 155.352 74.4377 155.222 74.0906C155.084 73.7474 155.012 73.5713 155.008 73.5621L154.132 71.5548C154.128 71.5456 154.048 71.3735 153.891 71.0383C153.725 70.7072 153.583 70.4087 153.467 70.1429C153.443 70.0879 153.45 70.0524 153.486 70.0364C153.523 70.0204 153.553 70.0399 153.577 70.0949C153.769 70.4587 153.956 70.6992 154.138 70.8162C154.32 70.9332 154.578 70.9624 154.912 70.9037C155.256 70.8411 155.78 70.667 156.485 70.3815L161.297 68.2823C161.985 67.9601 162.465 67.6964 162.735 67.4911C163.015 67.2818 163.174 67.0707 163.212 66.8577C163.25 66.6448 163.201 66.3444 163.064 65.9566C163.04 65.9016 163.046 65.8661 163.083 65.8501C163.12 65.8341 163.15 65.8536 163.174 65.9086C163.29 66.1744 163.413 66.4809 163.542 66.828C163.681 67.1712 163.753 67.3473 163.757 67.3565L164.632 69.3638C164.636 69.373 164.717 69.5451 164.874 69.8803C165.04 70.2114 165.181 70.5099 165.297 70.7757C165.321 70.8307 165.315 70.8662 165.278 70.8822C165.242 70.8982 165.211 70.8787 165.187 70.8237C164.996 70.4599 164.809 70.2195 164.627 70.1025C164.445 69.9855 164.182 69.9583 163.839 70.0209C163.504 70.0795 162.985 70.2516 162.28 70.5371L157.702 72.5343L164.457 75.1517C165.094 74.8627 165.547 74.6109 165.813 74.3965C166.08 74.1821 166.225 73.9658 166.25 73.7476C166.288 73.5347 166.232 73.2429 166.081 72.8722C166.069 72.8447 166.068 72.8178 166.078 72.7915C166.093 72.7743 166.111 72.7663 166.133 72.7675C166.16 72.7778 166.179 72.7968 166.191 72.8243C166.307 73.0901 166.43 73.3965 166.559 73.7437C166.702 74.096 166.775 74.2767 166.779 74.2859L167.649 76.2795C167.653 76.2886 167.734 76.4608 167.891 76.7959C168.061 77.1362 168.204 77.4393 168.32 77.7051C168.352 77.7784 168.339 77.8113 168.281 77.8038C168.25 77.8066 168.226 77.7897 168.21 77.7531C168.019 77.3893 167.832 77.1489 167.65 77.0318C167.468 76.9148 167.205 76.8876 166.862 76.9503C166.527 77.0089 166.008 77.181 165.303 77.4665L160.491 79.5657C159.802 79.8879 159.318 80.1536 159.039 80.3629C158.768 80.5682 158.614 80.7773 158.576 80.9903C158.538 81.2032 158.587 81.5036 158.723 81.8914Z" fill="#B55A2B"/>
<path d="M164.445 90.4565L163.375 85.0718L163.566 85.0338L164.636 90.4185L164.445 90.4565Z" fill="#B55A2B"/>
<circle opacity="0.4" cx="100" cy="100.992" r="4" fill="#B55A2B"/>
</svg>
