<svg width="1895" height="202" viewBox="0 0 1895 202" fill="none" xmlns="http://www.w3.org/2000/svg">
<path d="M204.852 190.017C205.712 190.017 206.142 190.361 206.142 191.049C206.142 191.565 205.712 191.823 204.852 191.823C197.284 191.823 190.576 191.651 184.728 191.307C183.008 191.135 180.6 191.049 177.504 191.049H159.444C156.348 191.049 153.94 191.135 152.22 191.307C146.372 191.651 139.664 191.823 132.096 191.823C131.236 191.823 130.806 191.565 130.806 191.049C130.806 190.361 131.236 190.017 132.096 190.017C139.664 189.845 145.082 188.985 148.35 187.437C151.618 185.889 153.854 182.449 155.058 177.117C156.434 171.785 157.122 163.099 157.122 151.059V49.665L48.762 156.735C48.934 166.883 49.708 174.279 51.084 178.923C52.632 183.395 55.04 186.319 58.308 187.695C61.576 189.071 66.736 189.845 73.788 190.017C74.648 190.017 75.078 190.361 75.078 191.049C75.25 191.565 74.82 191.823 73.788 191.823C66.048 191.823 59.426 191.651 53.922 191.307C52.202 191.135 49.794 191.049 46.698 191.049H28.638C25.542 191.049 23.134 191.135 21.414 191.307C15.566 191.651 8.858 191.823 1.29 191.823C0.43 191.823 0 191.565 0 191.049C0 190.361 0.43 190.017 1.29 190.017C8.858 189.845 14.276 188.985 17.544 187.437C20.812 185.889 23.048 182.449 24.252 177.117C25.628 171.785 26.316 163.099 26.316 151.059V50.439C26.316 38.399 25.628 29.713 24.252 24.381C23.048 19.049 20.812 15.609 17.544 14.061C14.276 12.513 8.858 11.653 1.29 11.481C0.43 11.481 0 11.223 0 10.707C0 10.019 0.43 9.67501 1.29 9.67501C8.858 9.67501 15.566 9.847 21.414 10.191C23.134 10.363 25.542 10.449 28.638 10.449H46.698C49.794 10.449 52.202 10.363 53.922 10.191C59.426 9.847 66.048 9.67501 73.788 9.67501C74.82 9.67501 75.25 10.019 75.078 10.707C75.078 11.223 74.648 11.481 73.788 11.481C66.22 11.653 60.802 12.513 57.534 14.061C54.266 15.609 51.944 19.049 50.568 24.381C49.364 29.713 48.762 38.399 48.762 50.439V152.607L157.122 45.279C156.95 34.959 156.09 27.477 154.542 22.833C153.166 18.189 150.844 15.179 147.576 13.803C144.48 12.427 139.32 11.653 132.096 11.481C131.236 11.481 130.806 11.223 130.806 10.707C130.806 10.019 131.236 9.67501 132.096 9.67501C139.664 9.67501 146.372 9.847 152.22 10.191C153.94 10.363 156.348 10.449 159.444 10.449H177.504C180.6 10.449 183.008 10.363 184.728 10.191C190.576 9.847 197.284 9.67501 204.852 9.67501C205.712 9.67501 206.142 10.019 206.142 10.707C206.142 11.223 205.712 11.481 204.852 11.481C197.284 11.653 191.866 12.513 188.598 14.061C185.33 15.609 183.008 19.049 181.632 24.381C180.256 29.713 179.568 38.399 179.568 50.439V151.059C179.568 163.099 180.256 171.785 181.632 177.117C183.008 182.449 185.33 185.889 188.598 187.437C191.866 188.985 197.284 189.845 204.852 190.017Z" fill="#B55A2B"/>
<path d="M426.571 190.017C427.431 190.017 427.861 190.361 427.861 191.049C427.861 191.565 427.431 191.823 426.571 191.823C419.003 191.823 412.295 191.651 406.447 191.307C404.727 191.135 402.319 191.049 399.223 191.049H381.163C378.067 191.049 375.659 191.135 373.939 191.307C368.091 191.651 361.383 191.823 353.815 191.823C352.955 191.823 352.525 191.565 352.525 191.049C352.525 190.361 352.955 190.017 353.815 190.017C361.383 189.845 366.801 188.985 370.069 187.437C373.337 185.889 375.573 182.449 376.777 177.117C378.153 171.785 378.841 163.099 378.841 151.059V98.169L325.951 98.427L270.481 98.169V151.059C270.481 163.099 271.083 171.785 272.287 177.117C273.663 182.449 275.985 185.889 279.253 187.437C282.521 188.985 287.939 189.845 295.507 190.017C296.367 190.017 296.797 190.361 296.797 191.049C296.969 191.565 296.539 191.823 295.507 191.823C287.767 191.823 281.145 191.651 275.641 191.307C273.921 191.135 271.513 191.049 268.417 191.049H250.357C247.261 191.049 244.853 191.135 243.133 191.307C237.285 191.651 230.577 191.823 223.009 191.823C222.149 191.823 221.719 191.565 221.719 191.049C221.719 190.361 222.149 190.017 223.009 190.017C230.577 189.845 235.995 188.985 239.263 187.437C242.531 185.889 244.767 182.449 245.971 177.117C247.347 171.785 248.035 163.099 248.035 151.059V50.439C248.035 38.399 247.347 29.713 245.971 24.381C244.767 19.049 242.531 15.609 239.263 14.061C235.995 12.513 230.577 11.653 223.009 11.481C222.149 11.481 221.719 11.223 221.719 10.707C221.719 10.019 222.149 9.67501 223.009 9.67501C230.577 9.67501 237.285 9.847 243.133 10.191C244.853 10.363 247.261 10.449 250.357 10.449H268.417C271.513 10.449 273.921 10.363 275.641 10.191C281.145 9.847 287.767 9.67501 295.507 9.67501C296.539 9.67501 296.969 10.019 296.797 10.707C296.797 11.223 296.367 11.481 295.507 11.481C287.939 11.653 282.521 12.513 279.253 14.061C275.985 15.609 273.663 19.049 272.287 24.381C271.083 29.713 270.481 38.399 270.481 50.439V95.847L325.693 95.589L378.841 95.847V50.439C378.841 38.399 378.153 29.713 376.777 24.381C375.573 19.049 373.337 15.609 370.069 14.061C366.801 12.513 361.383 11.653 353.815 11.481C352.955 11.481 352.525 11.223 352.525 10.707C352.525 10.019 352.955 9.67501 353.815 9.67501C361.383 9.67501 368.091 9.847 373.939 10.191C375.659 10.363 378.067 10.449 381.163 10.449H399.223C402.319 10.449 404.727 10.363 406.447 10.191C412.295 9.847 419.003 9.67501 426.571 9.67501C427.431 9.67501 427.861 10.019 427.861 10.707C427.861 11.223 427.431 11.481 426.571 11.481C419.003 11.653 413.585 12.513 410.317 14.061C407.049 15.609 404.727 19.049 403.351 24.381C401.975 29.713 401.287 38.399 401.287 50.439V151.059C401.287 163.099 401.975 171.785 403.351 177.117C404.727 182.449 407.049 185.889 410.317 187.437C413.585 188.985 419.003 189.845 426.571 190.017Z" fill="#B55A2B"/>
<path d="M537.349 193.629C521.354 193.629 506.303 189.931 492.199 182.535C478.095 175.139 466.743 164.647 458.143 151.059C449.543 137.299 445.243 121.475 445.243 103.587C445.243 84.839 449.285 68.241 457.37 53.793C465.626 39.173 476.806 27.821 490.91 19.737C505.014 11.653 520.579 7.611 537.607 7.611C546.035 7.611 555.495 8.729 565.987 10.965C572.18 11.997 576.049 12.513 577.597 12.513C582.93 12.513 586.885 8.557 589.466 0.644999C589.638 0.128996 589.896 -0.043002 590.24 0.129006C590.755 0.129006 591.013 0.301004 591.013 0.644999L611.138 77.787C611.138 78.303 610.794 78.647 610.106 78.819C609.59 78.819 609.245 78.475 609.073 77.787C603.397 61.963 596.259 49.063 587.659 39.087C579.06 28.939 570.202 21.715 561.086 17.415C551.969 12.943 543.37 10.707 535.286 10.707C523.762 10.707 513.098 14.061 503.294 20.769C493.49 27.305 485.663 36.765 479.815 49.149C473.967 61.533 471.043 75.895 471.043 92.235C471.043 109.779 474.569 125.345 481.621 138.933C488.673 152.521 498.392 163.099 510.776 170.667C523.159 178.063 537.091 181.761 552.571 181.761C568.051 181.761 581.812 177.117 593.852 167.829C605.891 158.369 615.953 144.265 624.037 125.517C624.381 125.173 624.812 125.001 625.328 125.001C625.844 125.001 626.188 125.259 626.359 125.775C626.703 126.119 626.789 126.549 626.617 127.065C617.157 147.877 605.203 164.217 590.755 176.085C576.479 187.781 558.677 193.629 537.349 193.629Z" fill="#B55A2B"/>
<path d="M710.03 191.049C705.558 191.049 702.118 191.135 699.71 191.307C691.798 191.651 682.338 191.823 671.33 191.823C669.954 191.823 669.266 191.479 669.266 190.791C669.266 190.103 669.954 189.759 671.33 189.759C681.994 189.759 689.648 188.985 694.292 187.437C699.108 185.717 702.376 182.191 704.096 176.859C705.988 171.527 706.934 162.669 706.934 150.285V13.287H693.776C683.972 13.287 675.372 15.437 667.976 19.737C660.58 24.037 653.872 31.175 647.852 41.151C641.832 50.955 636.242 64.285 631.082 81.141C630.738 81.657 630.308 81.915 629.792 81.915C629.448 81.743 629.362 81.313 629.534 80.625L645.788 0.644999C645.96 -0.043002 646.39 -0.043002 647.078 0.644999C649.658 4.773 653.528 7.439 658.688 8.643C664.02 9.847 672.362 10.449 683.714 10.449H752.342C763.522 10.449 771.778 9.847 777.11 8.643C782.614 7.439 786.57 4.773 788.978 0.644999C789.838 -0.215 790.354 -0.215 790.526 0.644999L806.78 80.625C806.952 81.313 806.78 81.743 806.264 81.915C805.92 81.915 805.576 81.657 805.232 81.141C800.072 64.285 794.396 50.955 788.204 41.151C782.184 31.175 775.476 24.037 768.08 19.737C760.684 15.437 752.084 13.287 742.28 13.287H729.38V150.285C729.38 162.669 730.24 171.527 731.96 176.859C733.852 182.191 737.12 185.717 741.764 187.437C746.58 188.985 754.32 189.759 764.984 189.759C766.188 189.759 766.79 190.103 766.79 190.791C766.79 191.479 766.188 191.823 764.984 191.823C753.976 191.823 744.516 191.651 736.604 191.307C734.196 191.135 730.756 191.049 726.284 191.049H710.03Z" fill="#B55A2B"/>
<path d="M1022.94 190.017C1023.8 190.017 1024.23 190.361 1024.23 191.049C1024.23 191.565 1023.8 191.823 1022.94 191.823C1015.38 191.823 1008.67 191.651 1002.82 191.307C1001.1 191.135 998.692 191.049 995.596 191.049H977.536C974.44 191.049 972.032 191.135 970.312 191.307C964.464 191.651 957.756 191.823 950.188 191.823C949.328 191.823 948.898 191.565 948.898 191.049C948.898 190.361 949.328 190.017 950.188 190.017C957.756 189.845 963.174 188.985 966.442 187.437C969.71 185.889 971.946 182.449 973.15 177.117C974.526 171.785 975.214 163.099 975.214 151.059V49.665L866.854 156.735C867.026 166.883 867.8 174.279 869.176 178.923C870.724 183.395 873.132 186.319 876.4 187.695C879.668 189.071 884.828 189.845 891.88 190.017C892.74 190.017 893.17 190.361 893.17 191.049C893.342 191.565 892.912 191.823 891.88 191.823C884.14 191.823 877.518 191.651 872.014 191.307C870.294 191.135 867.886 191.049 864.79 191.049H846.73C843.634 191.049 841.226 191.135 839.506 191.307C833.658 191.651 826.95 191.823 819.382 191.823C818.522 191.823 818.092 191.565 818.092 191.049C818.092 190.361 818.522 190.017 819.382 190.017C826.95 189.845 832.368 188.985 835.636 187.437C838.904 185.889 841.14 182.449 842.344 177.117C843.72 171.785 844.408 163.099 844.408 151.059V50.439C844.408 38.399 843.72 29.713 842.344 24.381C841.14 19.049 838.904 15.609 835.636 14.061C832.368 12.513 826.95 11.653 819.382 11.481C818.522 11.481 818.092 11.223 818.092 10.707C818.092 10.019 818.522 9.67501 819.382 9.67501C826.95 9.67501 833.658 9.847 839.506 10.191C841.226 10.363 843.634 10.449 846.73 10.449H864.79C867.886 10.449 870.294 10.363 872.014 10.191C877.518 9.847 884.14 9.67501 891.88 9.67501C892.912 9.67501 893.342 10.019 893.17 10.707C893.17 11.223 892.74 11.481 891.88 11.481C884.312 11.653 878.894 12.513 875.626 14.061C872.358 15.609 870.036 19.049 868.66 24.381C867.456 29.713 866.854 38.399 866.854 50.439V152.607L975.214 45.279C975.042 34.959 974.182 27.477 972.634 22.833C971.258 18.189 968.936 15.179 965.668 13.803C962.572 12.427 957.412 11.653 950.188 11.481C949.328 11.481 948.898 11.223 948.898 10.707C948.898 10.019 949.328 9.67501 950.188 9.67501C957.756 9.67501 964.464 9.847 970.312 10.191C972.032 10.363 974.44 10.449 977.536 10.449H995.596C998.692 10.449 1001.1 10.363 1002.82 10.191C1008.67 9.847 1015.38 9.67501 1022.94 9.67501C1023.8 9.67501 1024.23 10.019 1024.23 10.707C1024.23 11.223 1023.8 11.481 1022.94 11.481C1015.38 11.653 1009.96 12.513 1006.69 14.061C1003.42 15.609 1001.1 19.049 999.724 24.381C998.348 29.713 997.66 38.399 997.66 50.439V151.059C997.66 163.099 998.348 171.785 999.724 177.117C1001.1 182.449 1003.42 185.889 1006.69 187.437C1009.96 188.985 1015.38 189.845 1022.94 190.017Z" fill="#B55A2B"/>
<path d="M1236.41 190.017C1237.27 190.017 1237.7 190.361 1237.7 191.049C1237.7 191.565 1237.27 191.823 1236.41 191.823C1228.84 191.823 1222.13 191.651 1216.28 191.307C1214.56 191.135 1212.15 191.049 1209.06 191.049H1191C1188.07 191.049 1185.75 191.135 1184.03 191.307C1178.53 191.651 1171.82 191.823 1163.91 191.823C1163.05 191.823 1162.62 191.565 1162.62 191.049C1162.62 190.361 1163.05 190.017 1163.91 190.017C1171.48 189.845 1176.89 188.985 1180.16 187.437C1183.43 185.889 1185.67 182.449 1186.87 177.117C1188.25 171.785 1188.93 163.099 1188.93 151.059V13.287H1106.12C1105.94 22.059 1105.17 35.303 1103.79 53.019L1102.76 66.177L1101.21 88.881C1099.84 109.349 1097.34 126.377 1093.73 139.965C1090.29 153.381 1085.65 165.421 1079.8 176.085C1073.44 187.953 1064.15 193.887 1051.94 193.887C1047.81 193.887 1044.54 192.855 1042.13 190.791C1039.72 188.727 1038.52 186.147 1038.52 183.051C1038.52 179.095 1040.15 175.827 1043.42 173.247C1046.86 170.667 1050.82 169.377 1055.29 169.377C1062.51 169.377 1069.91 171.355 1077.48 175.311C1083.15 164.991 1087.63 153.037 1090.89 139.449C1094.33 125.861 1096.74 109.177 1098.12 89.397L1099.67 65.661C1099.84 62.393 1100.27 57.319 1100.96 50.439C1101.13 47.859 1101.21 44.247 1101.21 39.603C1101.21 31.175 1100.27 24.983 1098.38 21.027C1096.48 17.071 1093.39 14.577 1089.09 13.545C1084.79 12.341 1078.17 11.653 1069.22 11.481C1068.02 11.481 1067.42 11.223 1067.42 10.707C1067.42 10.019 1068.02 9.67501 1069.22 9.67501C1079.54 9.67501 1088.31 9.847 1095.54 10.191C1097.77 10.363 1100.96 10.449 1105.08 10.449H1209.06C1212.15 10.449 1214.56 10.363 1216.28 10.191C1222.13 9.847 1228.84 9.67501 1236.41 9.67501C1237.27 9.67501 1237.7 10.019 1237.7 10.707C1237.7 11.223 1237.27 11.481 1236.41 11.481C1228.84 11.653 1223.42 12.513 1220.15 14.061C1216.88 15.609 1214.56 19.049 1213.19 24.381C1211.98 29.713 1211.38 38.399 1211.38 50.439V151.059C1211.38 163.099 1211.98 171.785 1213.19 177.117C1214.56 182.449 1216.88 185.889 1220.15 187.437C1223.42 188.985 1228.84 189.845 1236.41 190.017Z" fill="#B55A2B"/>
<path d="M1281.85 190.791C1278.76 190.791 1276.35 190.877 1274.63 191.049C1268.78 191.393 1262.07 191.565 1254.5 191.565C1253.64 191.565 1253.21 191.221 1253.21 190.533C1253.21 189.845 1253.64 189.501 1254.5 189.501C1262.07 189.501 1267.49 188.727 1270.76 187.179C1274.03 185.631 1276.26 182.191 1277.47 176.859C1278.84 171.527 1279.53 162.841 1279.53 150.801V50.439C1279.53 38.399 1278.84 29.713 1277.47 24.381C1276.26 19.049 1274.03 15.609 1270.76 14.061C1267.49 12.513 1262.07 11.739 1254.5 11.739C1253.64 11.739 1253.21 11.395 1253.21 10.707C1253.21 10.019 1253.64 9.67501 1254.5 9.67501C1262.07 9.67501 1268.78 9.847 1274.63 10.191C1276.35 10.363 1278.76 10.449 1281.85 10.449H1299.91C1302.84 10.449 1305.16 10.363 1306.88 10.191C1312.38 9.847 1319.09 9.67501 1327 9.67501C1327.86 9.67501 1328.29 10.019 1328.29 10.707C1328.29 11.223 1327.86 11.481 1327 11.481C1319.43 11.653 1314.02 12.513 1310.75 14.061C1307.48 15.609 1305.16 19.049 1303.78 24.381C1302.58 29.713 1301.98 38.399 1301.98 50.439V94.557H1331.65C1362.26 94.557 1385.57 98.771 1401.56 107.199C1417.73 115.455 1425.82 127.065 1425.82 142.029C1425.82 152.005 1422.63 160.691 1416.27 168.087C1410.08 175.483 1401.22 181.159 1389.7 185.115C1378.17 189.071 1364.84 191.049 1349.71 191.049L1281.85 190.791ZM1339.64 187.953C1351.34 187.953 1361.75 186.061 1370.86 182.277C1380.15 178.321 1387.29 172.903 1392.28 166.023C1397.44 158.971 1400.02 151.059 1400.02 142.287C1400.02 129.215 1395.46 119.411 1386.34 112.875C1377.4 106.339 1366.82 102.125 1354.61 100.233C1342.4 98.341 1328.81 97.395 1313.84 97.395H1301.98V144.351C1301.98 158.455 1302.06 168.001 1302.23 172.989C1302.58 177.977 1303.27 182.965 1304.3 187.953H1339.64Z" fill="#B55A2B"/>
<path d="M1611.99 121.389C1612.16 120.873 1612.51 120.701 1613.02 120.873C1613.71 120.873 1614.06 121.045 1614.06 121.389L1596.25 200.853C1596.08 201.713 1595.57 201.713 1594.71 200.853C1592.47 197.929 1589.37 195.521 1585.42 193.629C1581.46 191.909 1574.67 191.049 1565.04 191.049H1468.8C1465.71 191.049 1463.3 191.135 1461.58 191.307C1455.73 191.651 1449.02 191.823 1441.45 191.823C1440.59 191.823 1440.16 191.565 1440.16 191.049C1440.16 190.361 1440.59 190.017 1441.45 190.017C1449.02 189.845 1454.44 188.985 1457.71 187.437C1460.98 185.889 1463.21 182.449 1464.42 177.117C1465.79 171.785 1466.48 163.099 1466.48 151.059V50.439C1466.48 38.399 1465.79 29.713 1464.42 24.381C1463.21 19.049 1460.98 15.609 1457.71 14.061C1454.44 12.513 1449.02 11.653 1441.45 11.481C1440.59 11.481 1440.16 11.223 1440.16 10.707C1440.16 10.019 1440.59 9.67501 1441.45 9.67501C1449.02 9.67501 1455.73 9.847 1461.58 10.191C1463.3 10.363 1465.71 10.449 1468.8 10.449H1552.91C1562.71 10.449 1569.59 9.589 1573.55 7.869C1577.68 6.149 1580.77 3.741 1582.84 0.644999C1583.18 0.301004 1583.44 0.129006 1583.61 0.129006C1583.96 0.129006 1584.13 0.301004 1584.13 0.644999L1601.16 75.981C1601.16 76.497 1600.81 76.841 1600.12 77.013C1599.61 77.013 1599.26 76.669 1599.09 75.981C1593.59 59.985 1587.48 47.429 1580.77 38.313C1574.07 29.197 1566.58 22.747 1558.33 18.963C1550.07 15.179 1540.35 13.287 1529.17 13.287H1488.93V96.879H1526.08C1535.02 96.879 1541.64 94.729 1545.94 90.429C1550.42 86.129 1552.65 79.593 1552.65 70.821C1552.65 69.961 1552.91 69.531 1553.43 69.531C1554.11 69.531 1554.46 69.961 1554.46 70.821V126.291C1554.46 126.979 1554.11 127.323 1553.43 127.323C1552.91 127.323 1552.65 126.979 1552.65 126.291C1552.65 116.659 1550.5 109.865 1546.2 105.909C1542.07 101.953 1535.37 99.975 1526.08 99.975H1488.93V188.211H1534.33C1547.58 188.211 1558.67 186.491 1567.62 183.051C1576.56 179.611 1584.64 173.075 1591.87 163.443C1599.09 153.811 1605.8 139.793 1611.99 121.389Z" fill="#B55A2B"/>
<path d="M1677.39 115.713V147.189C1677.39 160.433 1678.33 169.979 1680.22 175.827C1682.12 181.503 1685.47 185.287 1690.29 187.179C1695.1 188.899 1702.93 189.759 1713.77 189.759C1714.97 189.759 1715.57 190.103 1715.57 190.791C1715.57 191.479 1714.97 191.823 1713.77 191.823C1702.24 191.823 1692.52 191.651 1684.61 191.307C1682.2 191.135 1678.76 191.049 1674.29 191.049H1657.26C1654.17 191.049 1651.76 191.135 1650.04 191.307C1644.19 191.651 1637.48 191.823 1629.92 191.823C1629.06 191.823 1628.62 191.565 1628.62 191.049C1628.62 190.361 1629.06 190.017 1629.92 190.017C1637.48 189.845 1642.9 188.985 1646.17 187.437C1649.44 185.889 1651.67 182.449 1652.88 177.117C1654.25 171.785 1654.94 163.099 1654.94 151.059V50.439C1654.94 38.399 1654.25 29.713 1652.88 24.381C1651.67 19.049 1649.44 15.609 1646.17 14.061C1642.9 12.513 1637.48 11.653 1629.92 11.481C1629.06 11.481 1628.62 11.223 1628.62 10.707C1628.62 10.019 1629.06 9.67501 1629.92 9.67501C1637.48 9.67501 1644.19 9.847 1650.04 10.191C1651.76 10.363 1654.17 10.449 1657.26 10.449H1709.12C1726.49 10.449 1741.46 12.599 1754.01 16.899C1766.57 21.199 1776.11 27.305 1782.65 35.217C1789.36 43.129 1792.71 52.503 1792.71 63.339C1792.71 79.679 1785.66 92.493 1771.56 101.781C1757.62 111.069 1738.19 115.713 1713.25 115.713H1677.39ZM1679.71 13.287C1679.02 16.039 1678.42 19.307 1677.9 23.091C1677.56 26.875 1677.39 33.497 1677.39 42.957V112.875H1704.22C1724 112.875 1739.39 108.403 1750.4 99.459C1761.41 90.515 1766.91 78.389 1766.91 63.081C1766.91 53.277 1764.42 44.677 1759.43 37.281C1754.61 29.713 1747.48 23.865 1738.02 19.737C1728.73 15.437 1717.64 13.287 1704.73 13.287H1679.71Z" fill="#B55A2B"/>
<path fill-rule="evenodd" clip-rule="evenodd" d="M1893.33 43.6671C1893.33 67.2315 1874.23 86.3342 1850.67 86.3342C1827.1 86.3342 1808 67.2315 1808 43.6671C1808 20.1027 1827.1 1 1850.67 1C1874.23 1 1893.33 20.1027 1893.33 43.6671ZM1894.33 43.6671C1894.33 67.7838 1874.78 87.3342 1850.67 87.3342C1826.55 87.3342 1807 67.7838 1807 43.6671C1807 19.5504 1826.55 0 1850.67 0C1874.78 0 1894.33 19.5504 1894.33 43.6671ZM1838.92 39.3142C1838.92 37.6849 1838.51 37.6035 1836.28 37.6035C1834 37.6035 1832.97 38.6625 1832.51 41.4322C1832.48 41.5137 1832.18 41.5137 1832.18 41.4051C1832.32 40.509 1832.56 37.7392 1832.56 36.5173C1832.56 36.3544 1832.89 36.3272 1832.89 36.5173C1832.89 37.0604 1833.81 37.1147 1834.33 37.1147C1835.88 37.169 1837.75 37.1961 1839.79 37.1961C1841.26 37.1961 1842.31 37.1691 1843.21 37.1462C1843.87 37.1293 1844.44 37.1147 1845.03 37.1147C1846.25 37.1147 1846.9 37.0061 1847.09 36.4358C1847.12 36.3 1847.39 36.3 1847.39 36.4358C1847.28 37.522 1847.15 40.5633 1847.15 41.4051C1847.15 41.5137 1846.85 41.5137 1846.82 41.4051C1846.71 38.6082 1845.76 37.6035 1843.34 37.6035C1841.06 37.6035 1840.71 37.7664 1840.71 39.3685V51.8866C1840.71 53.4616 1841.06 53.7603 1843.34 53.7603C1843.45 53.7603 1843.45 54.0861 1843.34 54.0861C1842.9 54.0861 1842.43 54.0751 1841.91 54.0629H1841.91H1841.91C1841.27 54.0481 1840.58 54.0318 1839.79 54.0318C1839.07 54.0318 1838.39 54.0476 1837.75 54.0621H1837.75H1837.75H1837.75H1837.75C1837.21 54.0746 1836.71 54.0861 1836.26 54.0861C1836.18 54.0861 1836.18 53.7603 1836.26 53.7603C1838.51 53.7603 1838.92 53.4616 1838.92 51.8866V39.3142ZM1868.08 51.8866C1868.13 53.4616 1868.43 53.7603 1870.41 53.7603C1870.52 53.7603 1870.52 54.0861 1870.41 54.0861C1870.01 54.0861 1869.55 54.0746 1869.06 54.0622C1868.48 54.0476 1867.85 54.0318 1867.21 54.0318C1866.57 54.0318 1865.99 54.0479 1865.46 54.0626L1865.46 54.0626C1865.02 54.0749 1864.62 54.0861 1864.25 54.0861C1864.17 54.0861 1864.17 53.7603 1864.25 53.7603C1866.04 53.7603 1866.39 53.4616 1866.31 51.8866L1865.82 39.5586L1859.63 53.8961C1859.55 54.0318 1859.25 54.0318 1859.17 53.8961L1852.49 39.64L1852.24 51.1263C1852.22 53 1852.79 53.7603 1854.55 53.7603C1854.63 53.7603 1854.63 54.0861 1854.55 54.0861C1854.17 54.0861 1853.78 54.0739 1853.37 54.0611H1853.37C1852.92 54.0469 1852.45 54.0318 1851.92 54.0318C1851.43 54.0318 1850.95 54.0473 1850.5 54.0617L1850.5 54.0617L1850.5 54.0617C1850.11 54.0743 1849.75 54.0861 1849.42 54.0861C1849.31 54.0861 1849.31 53.7603 1849.42 53.7603C1850.94 53.7603 1851.59 53 1851.62 51.1263L1851.84 38.5267C1851.29 37.7935 1850.56 37.4405 1849.61 37.4405C1849.53 37.4405 1849.53 37.1147 1849.61 37.1147C1849.93 37.1147 1850.29 37.1305 1850.61 37.145L1850.61 37.1451C1850.89 37.1575 1851.15 37.169 1851.35 37.169C1851.71 37.169 1852.06 37.1488 1852.33 37.133L1852.33 37.133L1852.33 37.133C1852.5 37.1229 1852.64 37.1147 1852.73 37.1147C1853.22 37.1147 1853.41 37.3319 1853.98 38.5267L1860.07 51.2892L1865.96 37.7935C1866.15 37.3591 1866.45 37.1147 1866.77 37.1147C1866.85 37.1147 1866.95 37.1227 1867.07 37.1326C1867.27 37.1484 1867.53 37.169 1867.83 37.169C1868.36 37.169 1868.77 37.1528 1869.14 37.1381C1869.44 37.1259 1869.72 37.1147 1870.03 37.1147C1870.14 37.1147 1870.14 37.4405 1870.03 37.4405C1868.29 37.4405 1867.48 37.8207 1867.53 39.3142L1868.08 51.8866Z" fill="#B55A2B"/>
</svg>
