<svg width="867" height="14781" viewBox="0 0 867 14781" fill="none" xmlns="http://www.w3.org/2000/svg">
<path opacity="0.5" d="M611.241 1C548.241 266 984.741 1370.5 165.241 1784C20.2415 1896 -161.259 2126.5 272.741 2152.5C759.241 2201.5 752.741 2364.5 528.241 2592.5C334.741 2856 738.741 2845 853.241 3133.5C922.016 3306.79 692.741 4736 509.241 5040.5C395.408 5253.5 335.942 5663.8 748.742 7223C1075.74 8310 550.41 9239.5 504.243 9534C346.243 10325 553.742 11442.3 683.742 11859.5C719.742 12012 756.342 12364.8 570.742 12734C371.242 13177 487.742 13771.5 625.742 14271.5C763.742 14771.5 646.076 14693.2 570.742 14780" stroke="#B55A2B" stroke-dasharray="15 15"/>
</svg>
