<svg width="200" height="201" viewBox="0 0 200 201" fill="none" xmlns="http://www.w3.org/2000/svg">
<circle cx="100" cy="100.002" r="99.5" stroke="#B55A2B"/>
<path d="M156.301 126.904L158.608 121.886C158.612 121.877 158.69 121.695 158.841 121.341C158.983 120.983 159.117 120.666 159.243 120.392C159.269 120.336 159.301 120.316 159.339 120.333C159.376 120.351 159.382 120.388 159.356 120.445C159.206 120.845 159.149 121.156 159.184 121.379C159.22 121.601 159.376 121.821 159.653 122.04C159.939 122.264 160.437 122.55 161.147 122.899L166.108 125.179C166.835 125.49 167.371 125.68 167.718 125.748C168.074 125.82 168.348 125.797 168.539 125.679C168.731 125.561 168.93 125.315 169.136 124.94C169.162 124.884 169.194 124.864 169.232 124.881C169.27 124.899 169.276 124.936 169.25 124.992C169.124 125.266 168.971 125.574 168.791 125.915C168.621 126.26 168.534 126.438 168.53 126.447L166.647 130.543C165.999 131.951 165.34 132.913 164.668 133.428C163.996 133.944 163.273 134.023 162.498 133.667C161.988 133.432 161.647 132.99 161.477 132.339C161.174 131.181 161.391 129.701 162.127 127.899L162.071 127.873C161.476 129.168 160.803 130.232 160.053 131.067C159.618 131.542 159.156 131.862 158.668 132.026C158.176 132.201 157.698 132.182 157.235 131.969C156.356 131.565 155.835 130.93 155.672 130.066C155.518 129.205 155.728 128.151 156.301 126.904ZM165.195 127.575L162.828 126.487L162.659 126.856C161.673 129.001 161.973 130.438 163.561 131.168C164.251 131.485 164.884 131.49 165.46 131.183C166.036 130.875 166.483 130.377 166.8 129.687L167.263 128.68C166.876 128.4 166.187 128.032 165.195 127.575ZM162.442 126.842L162.644 126.403L159.979 125.178C158.864 124.665 158.117 124.373 157.738 124.302L157.197 125.478C156.793 126.357 156.696 127.154 156.905 127.868C157.115 128.583 157.588 129.109 158.325 129.448C159.931 130.186 161.304 129.318 162.442 126.842Z" fill="#B55A2B"/>
<path d="M142.76 145.971C142.74 145.994 142.718 146.003 142.696 145.996C142.666 145.998 142.647 145.988 142.639 145.967C142.63 145.945 142.639 145.919 142.667 145.888C142.868 145.662 143.107 145.409 143.385 145.127C143.649 144.847 143.784 144.703 143.791 144.695L145.294 143.005C145.301 142.997 145.432 142.842 145.687 142.54C145.927 142.238 146.147 141.975 146.348 141.75C146.368 141.726 146.393 141.714 146.423 141.712C146.445 141.718 146.461 141.732 146.469 141.753C146.471 141.783 146.462 141.809 146.441 141.832C146.174 142.18 146.025 142.465 145.994 142.687C145.962 142.91 146.047 143.167 146.249 143.457C146.458 143.754 146.85 144.173 147.427 144.714L153.395 150.022L156.92 146.059L150.952 140.751C150.348 140.241 149.886 139.9 149.566 139.727C149.254 139.561 148.99 139.506 148.772 139.563C148.554 139.62 148.292 139.798 147.986 140.096C147.944 140.142 147.908 140.152 147.877 140.124C147.846 140.096 147.851 140.059 147.892 140.013C148.093 139.787 148.329 139.538 148.6 139.264C148.863 138.983 148.999 138.839 149.005 138.832L150.519 137.13C150.526 137.122 150.653 136.971 150.901 136.676C151.142 136.375 151.362 136.112 151.562 135.886C151.604 135.84 151.64 135.83 151.671 135.858C151.702 135.885 151.697 135.923 151.656 135.969C151.396 136.309 151.25 136.59 151.219 136.812C151.188 137.035 151.273 137.292 151.474 137.582C151.683 137.879 152.076 138.298 152.652 138.839L156.732 142.468C157.337 142.977 157.795 143.315 158.106 143.481C158.426 143.654 158.695 143.712 158.912 143.655C159.13 143.598 159.392 143.421 159.699 143.123C159.74 143.076 159.776 143.067 159.808 143.094C159.839 143.122 159.833 143.159 159.792 143.206C159.592 143.431 159.356 143.681 159.084 143.954C158.821 144.235 158.686 144.379 158.679 144.387L151.95 151.952C151.943 151.96 151.816 152.111 151.568 152.405C151.321 152.714 151.097 152.982 150.897 153.207C150.841 153.269 150.805 153.271 150.787 153.213C150.77 153.185 150.776 153.155 150.803 153.124C151.064 152.785 151.209 152.504 151.24 152.281C151.271 152.058 151.183 151.798 150.974 151.501C150.773 151.211 150.384 150.795 149.807 150.254L145.727 146.626C145.122 146.116 144.661 145.775 144.341 145.602C144.029 145.436 143.765 145.381 143.547 145.438C143.329 145.495 143.067 145.673 142.76 145.971Z" fill="#B55A2B"/>
<path d="M136.178 150.603C137.689 149.551 139.22 149.12 140.77 149.309C142.32 149.497 143.567 150.27 144.512 151.627C145.462 152.993 145.752 154.458 145.382 156.02C145.009 157.597 144.085 158.899 142.608 159.926C141.08 160.99 139.54 161.427 137.99 161.238C136.426 161.047 135.171 160.273 134.227 158.915C133.283 157.558 132.997 156.091 133.369 154.514C133.739 152.952 134.676 151.648 136.178 150.603ZM135.957 151.022C135.263 151.518 134.841 152.223 134.692 153.138C134.522 154.168 134.986 155.417 136.082 156.884C136.956 158.049 138.01 158.944 139.242 159.569C139.858 159.889 140.482 160.049 141.117 160.051C141.743 160.059 142.301 159.886 142.79 159.533C143.487 159.023 143.91 158.311 144.059 157.396C144.221 156.372 143.747 155.118 142.639 153.634C141.771 152.477 140.721 151.579 139.491 150.939C138.868 150.626 138.246 150.469 137.625 150.47C136.997 150.477 136.441 150.661 135.957 151.022Z" fill="#B55A2B"/>
<path d="M125.351 161.737L127.345 160.927L126.834 159.669C126.561 159.051 126.333 158.588 126.152 158.28C125.965 157.985 125.748 157.77 125.502 157.634C125.251 157.512 124.997 157.469 124.743 157.505C124.478 157.545 124.106 157.652 123.626 157.824C123.578 157.844 123.54 157.848 123.513 157.836C123.477 157.829 123.464 157.812 123.475 157.784C123.483 157.748 123.516 157.718 123.573 157.694C123.988 157.526 124.478 157.338 125.045 157.13C125.608 156.913 125.894 156.802 125.903 156.798L127.941 155.97C127.951 155.966 128.132 155.887 128.484 155.732C128.833 155.568 129.147 155.429 129.427 155.316C129.484 155.292 129.521 155.3 129.537 155.338C129.552 155.377 129.531 155.408 129.474 155.432C129.09 155.621 128.835 155.809 128.709 155.995C128.583 156.181 128.545 156.449 128.597 156.798C128.653 157.157 128.821 157.706 129.099 158.446L131.154 163.505C131.471 164.229 131.732 164.735 131.939 165.021C132.149 165.318 132.364 165.488 132.585 165.533C132.805 165.579 133.119 165.535 133.525 165.404C133.583 165.38 133.62 165.388 133.636 165.426C133.651 165.465 133.63 165.496 133.572 165.519C133.293 165.633 132.971 165.753 132.607 165.878C132.246 166.013 132.061 166.083 132.052 166.087L128.048 167.713C126.555 168.32 125.271 168.516 124.196 168.302C123.098 168.086 122.363 167.52 121.991 166.605C121.615 165.68 121.727 164.781 122.327 163.909C122.926 163.037 123.934 162.313 125.351 161.737ZM128.868 167.161L129.605 166.862C129.492 166.335 129.322 165.793 129.095 165.234L127.422 161.115L126.41 161.526C125.475 161.906 124.842 162.46 124.51 163.19C124.172 163.934 124.177 164.734 124.526 165.592C124.866 166.43 125.433 166.997 126.227 167.292C127.014 167.6 127.895 167.557 128.868 167.161Z" fill="#B55A2B"/>
<path d="M110.632 161.426L112.735 161.049C112.745 161.047 113.036 160.99 113.608 160.877C114.167 160.756 114.657 160.657 115.076 160.582C115.128 160.573 115.165 160.577 115.189 160.593C115.213 160.61 115.217 160.631 115.2 160.655C115.185 160.689 115.152 160.711 115.101 160.72C114.634 160.825 114.287 160.924 114.061 161.018C113.826 161.123 113.64 161.294 113.503 161.53C113.367 161.776 113.303 162.067 113.311 162.404C113.31 162.753 113.356 163.246 113.449 163.885L114.825 171.562L115.332 171.472C115.946 171.362 116.565 170.833 117.188 169.887C117.788 168.934 118.194 167.752 118.406 166.341C118.422 166.253 118.45 166.232 118.49 166.278C118.502 166.286 118.511 166.306 118.517 166.337L118.504 171.838C118.489 171.873 118.458 171.878 118.412 171.855C118.221 171.614 117.922 171.478 117.514 171.445C117.097 171.414 116.453 171.477 115.583 171.633L111.621 172.343C110.71 172.506 110.079 172.672 109.729 172.84C109.369 173.01 109.141 173.241 109.045 173.533C109.011 173.582 108.981 173.587 108.953 173.55L107.031 168.395C107.023 168.354 107.034 168.326 107.063 168.31C107.083 168.306 107.103 168.324 107.12 168.363C107.819 169.611 108.626 170.576 109.541 171.257C110.453 171.929 111.222 172.208 111.846 172.096L112.307 172.014L110.931 164.336C110.788 163.538 110.615 162.956 110.412 162.591C110.21 162.225 109.952 161.997 109.64 161.905C109.329 161.823 108.877 161.836 108.283 161.942C108.232 161.951 108.194 161.947 108.17 161.93C108.146 161.914 108.143 161.893 108.159 161.869C108.174 161.835 108.207 161.813 108.259 161.804C108.678 161.729 109.177 161.65 109.754 161.568C110.329 161.475 110.621 161.428 110.632 161.426Z" fill="#B55A2B"/>
<path d="M89.9997 167.308C90.0654 166.103 90.6757 165.132 91.8306 164.393C92.9842 163.675 94.4287 163.352 96.1641 163.426C96.106 162.965 95.9828 162.646 95.7946 162.469C95.6058 162.302 95.2832 162.201 94.8268 162.166C94.7957 162.164 94.7755 162.153 94.7662 162.131C94.7466 162.11 94.7425 162.088 94.7541 162.068C94.7656 162.048 94.7921 162.039 94.8336 162.041C95.1244 162.057 95.4665 162.086 95.86 162.129C96.2541 162.161 96.4563 162.177 96.4667 162.177L98.7253 162.301C98.7357 162.301 98.9385 162.307 99.3336 162.318C99.719 162.319 100.062 162.327 100.363 162.343C100.395 162.345 100.42 162.357 100.44 162.379C100.449 162.4 100.448 162.421 100.436 162.441C100.414 162.461 100.388 162.47 100.357 162.468C99.8991 162.453 99.5675 162.519 99.3616 162.664C99.1449 162.818 98.9825 163.122 98.8745 163.574C100.608 163.69 102.008 164.167 103.077 165.007C104.135 165.856 104.63 166.888 104.564 168.103C104.499 169.298 103.889 170.264 102.734 171.003C101.59 171.732 100.156 172.06 98.4307 171.987C98.4795 172.427 98.6036 172.73 98.8027 172.898C98.991 173.074 99.3133 173.181 99.7696 173.216C99.8008 173.218 99.8262 173.229 99.8458 173.251C99.8551 173.273 99.8539 173.293 99.8424 173.314C99.8205 173.333 99.794 173.342 99.7628 173.341C99.4617 173.324 99.1195 173.295 98.7364 173.253C98.3424 173.221 98.1402 173.205 98.1298 173.205L95.8712 173.081C95.8608 173.081 95.658 173.075 95.2628 173.064C94.8671 173.063 94.5238 173.054 94.2331 173.039C94.15 173.034 94.1254 173.007 94.1594 172.956C94.1715 172.926 94.1983 172.912 94.2399 172.914C94.687 172.928 95.0189 172.858 95.2357 172.703C95.4415 172.558 95.5926 172.269 95.6891 171.837C93.9555 171.732 92.5601 171.249 91.503 170.39C90.4356 169.529 89.9344 168.502 89.9997 167.308ZM96.1712 163.583C95.1321 163.537 94.313 163.851 93.7136 164.527C93.1143 165.202 92.7852 166.174 92.7264 167.441C92.6337 170.092 93.6348 171.501 95.7297 171.667C95.7854 171.41 95.8302 170.97 95.8643 170.347L96.162 164.895C96.1955 164.282 96.1985 163.845 96.1712 163.583ZM101.823 167.938C101.913 166.683 101.697 165.681 101.175 164.934C100.653 164.197 99.8779 163.796 98.8504 163.729C98.7947 163.987 98.7501 164.422 98.7166 165.034L98.4189 170.486C98.3848 171.109 98.3815 171.552 98.4089 171.814C99.449 171.839 100.258 171.519 100.836 170.853C101.414 170.197 101.743 169.225 101.823 167.938Z" fill="#B55A2B"/>
<path d="M82.6589 159.508C84.4176 160.051 85.6998 160.992 86.5056 162.329C87.3113 163.667 87.4701 165.126 86.9818 166.706C86.4904 168.295 85.5152 169.425 84.0562 170.096C82.5842 170.773 80.9888 170.846 79.2698 170.314C77.4912 169.765 76.199 168.821 75.3933 167.483C74.5807 166.133 74.4185 164.668 74.9068 163.088C75.3951 161.508 76.3752 160.379 77.8472 159.702C79.3062 159.032 80.9101 158.967 82.6589 159.508ZM82.192 159.592C81.3741 159.35 80.5589 159.452 79.7463 159.897C78.8297 160.398 78.1309 161.532 77.65 163.299C77.2697 164.705 77.2129 166.086 77.4796 167.442C77.6065 168.124 77.8645 168.715 78.2539 169.217C78.6332 169.715 79.1126 170.048 79.692 170.216C80.5228 170.451 81.3446 170.346 82.1572 169.901C83.0639 169.397 83.7607 168.252 84.2478 166.465C84.625 165.068 84.6867 163.688 84.4331 162.326C84.2963 161.641 84.0367 161.055 83.6542 160.566C83.2618 160.075 82.7744 159.75 82.192 159.592Z" fill="#B55A2B"/>
<path d="M63.3555 150.512C63.3287 150.495 63.3163 150.476 63.3181 150.453C63.311 150.424 63.3217 150.406 63.3503 150.399C63.3699 150.387 63.3931 150.389 63.4198 150.405C63.6782 150.56 63.9713 150.749 64.2992 150.97C64.6234 151.178 64.79 151.284 64.799 151.29L66.7368 152.456C66.7457 152.462 66.9221 152.562 67.2661 152.757C67.6153 152.943 67.9147 153.111 68.1642 153.261C68.2355 153.304 68.2443 153.34 68.1908 153.368C68.1658 153.39 68.1355 153.39 68.0998 153.368C67.7184 153.175 67.4154 153.084 67.1906 153.094C66.9659 153.104 66.7293 153.235 66.481 153.486C66.2274 153.746 65.8878 154.209 65.4622 154.876L61.3422 161.718L65.3916 164.156L65.995 163.245C66.0843 163.117 66.2229 162.927 66.4105 162.676C66.5893 162.419 66.7493 162.194 66.8905 162C67.0174 161.809 67.1184 161.651 67.1935 161.527L67.8183 160.61C69.0339 158.853 70.2612 157.601 71.5002 156.854C72.4571 156.253 73.283 156.161 73.978 156.58C74.2631 156.751 74.4491 156.967 74.5361 157.225C74.6089 157.488 74.5782 157.73 74.444 157.953C74.2777 158.229 74.0412 158.39 73.7343 158.436C73.4221 158.491 73.1145 158.427 72.8116 158.245C72.3661 157.976 71.9797 157.55 71.6525 156.964C70.4331 157.699 69.2219 158.954 68.0188 160.731L67.2921 161.786C67.2868 161.795 67.1947 161.928 67.0159 162.185C66.687 162.691 66.4572 163.092 66.3265 163.39C66.1958 163.688 66.149 163.957 66.1861 164.198C66.2178 164.448 66.3227 164.656 66.5008 164.824C66.6647 164.996 66.9328 165.206 67.3051 165.454C67.3497 165.481 67.3755 165.509 67.3826 165.537C67.3897 165.566 67.379 165.584 67.3504 165.591C67.3219 165.598 67.2853 165.588 67.2408 165.561C66.8933 165.352 66.4977 165.102 66.0541 164.81C65.5961 164.522 65.3627 164.376 65.3538 164.37L59.1661 160.645C59.1572 160.639 58.9852 160.542 58.6502 160.352C58.3009 160.166 57.9971 159.995 57.7387 159.84C57.712 159.824 57.6995 159.804 57.7013 159.781C57.6942 159.752 57.705 159.735 57.7335 159.727C57.7532 159.715 57.7763 159.717 57.8031 159.733C58.0989 159.887 58.3386 159.983 58.5223 160.02C58.6917 160.062 58.8808 160.03 59.0896 159.925C59.2896 159.815 59.4905 159.632 59.6924 159.377C59.8801 159.126 60.134 158.745 60.454 158.234L63.2705 153.556C63.5727 153.034 63.7936 152.627 63.9332 152.334C64.0585 152.046 64.1231 151.787 64.127 151.559C64.122 151.325 64.0644 151.139 63.954 150.999C63.8293 150.864 63.6298 150.701 63.3555 150.512Z" fill="#B55A2B"/>
<path d="M51.995 139.743C51.973 139.721 51.9657 139.699 51.9732 139.677C51.9733 139.648 51.9845 139.629 52.0066 139.622C52.0287 139.615 52.0543 139.626 52.0836 139.656C52.2959 139.87 52.5336 140.125 52.797 140.42C53.0604 140.701 53.1957 140.845 53.2031 140.852L54.7949 142.459C54.8022 142.467 54.9486 142.607 55.2341 142.881C55.5197 143.139 55.7686 143.376 55.9808 143.59C56.0028 143.612 56.0137 143.638 56.0135 143.668C56.0061 143.69 55.9913 143.704 55.9692 143.712C55.9398 143.711 55.9141 143.7 55.8921 143.678C55.5626 143.39 55.2876 143.223 55.0672 143.178C54.8468 143.133 54.5854 143.201 54.283 143.384C53.9732 143.573 53.5303 143.939 52.9541 144.48L49.1635 148.235L56.7087 148.227C57.2483 147.663 57.6107 147.231 57.796 146.93C57.9813 146.63 58.0524 146.369 58.0093 146.148C57.9662 145.927 57.8058 145.654 57.5279 145.33C57.4839 145.285 57.4768 145.248 57.5063 145.219C57.5359 145.19 57.5726 145.197 57.6165 145.242C57.8288 145.456 58.0629 145.707 58.3189 145.995C58.5823 146.276 58.7177 146.42 58.725 146.427L60.3278 148.045C60.3351 148.053 60.4778 148.19 60.756 148.456C61.0416 148.714 61.2905 148.951 61.5027 149.165C61.5466 149.21 61.5538 149.246 61.5243 149.276C61.4947 149.305 61.458 149.297 61.4141 149.253C61.0918 148.972 60.8205 148.809 60.6001 148.764C60.3797 148.719 60.1183 148.787 59.8159 148.97C59.5062 149.159 59.0632 149.525 58.487 150.066L54.6077 153.909C54.0608 154.48 53.6947 154.915 53.5094 155.216C53.3167 155.524 53.2419 155.788 53.285 156.009C53.3281 156.23 53.4886 156.503 53.7665 156.828C53.8104 156.872 53.8175 156.909 53.788 156.938C53.7584 156.968 53.7217 156.96 53.6778 156.916C53.4655 156.701 53.2314 156.45 52.9754 156.162C52.712 155.882 52.5766 155.737 52.5693 155.73L50.9665 154.112C50.9592 154.105 50.8165 153.968 50.5383 153.702C50.2527 153.443 50.0038 153.206 49.7916 152.992C49.7477 152.948 49.7405 152.911 49.77 152.882C49.7996 152.852 49.8363 152.86 49.8802 152.904C50.2025 153.185 50.4738 153.348 50.6942 153.394C50.9146 153.439 51.1797 153.366 51.4895 153.177C51.7919 152.994 52.2312 152.632 52.8074 152.091L56.4982 148.435L48.964 148.432C48.4541 148.952 48.1101 149.366 47.9322 149.674C47.7542 149.982 47.6941 150.246 47.7519 150.467C47.795 150.688 47.9592 150.95 48.2445 151.253C48.2665 151.275 48.2774 151.301 48.2773 151.33C48.2698 151.352 48.255 151.367 48.2329 151.374C48.2035 151.374 48.1778 151.363 48.1559 151.341C47.9436 151.126 47.7095 150.875 47.4535 150.587C47.1828 150.299 47.0437 150.151 47.0364 150.144L45.4446 148.537C45.4373 148.53 45.2945 148.393 45.0164 148.127C44.7235 147.861 44.4709 147.62 44.2587 147.406C44.2001 147.347 44.2003 147.31 44.2592 147.296C44.2887 147.281 44.3181 147.289 44.3473 147.318C44.6696 147.599 44.9409 147.762 45.1613 147.807C45.3817 147.853 45.6468 147.78 45.9566 147.591C46.259 147.408 46.6982 147.046 47.2744 146.505L51.1537 142.663C51.7006 142.092 52.0704 141.652 52.2631 141.344C52.4484 141.044 52.5195 140.783 52.4764 140.562C52.4333 140.341 52.2728 140.068 51.995 139.743Z" fill="#B55A2B"/>
<path d="M47.7623 132.83C48.7123 134.406 49.0424 135.962 48.7526 137.496C48.4629 139.031 47.6098 140.225 46.1934 141.078C44.7681 141.937 43.288 142.13 41.7533 141.658C40.2043 141.183 38.9656 140.175 38.0371 138.634C37.0764 137.039 36.741 135.475 37.0307 133.94C37.324 132.392 38.1788 131.191 39.5952 130.337C41.0116 129.484 42.4944 129.295 44.0434 129.77C45.5781 130.242 46.8178 131.262 47.7623 132.83ZM47.3579 132.581C46.9089 131.856 46.233 131.389 45.3301 131.181C44.313 130.943 43.0367 131.324 41.501 132.322C40.2807 133.118 39.3185 134.11 38.6143 135.299C38.2551 135.892 38.0538 136.505 38.0103 137.138C37.9615 137.763 38.0972 138.331 38.4174 138.842C38.8806 139.571 39.5637 140.039 40.4666 140.248C41.4783 140.476 42.7609 140.086 44.3143 139.077C45.5257 138.287 46.4907 137.299 47.2091 136.113C47.5629 135.512 47.7598 134.901 47.7997 134.282C47.8343 133.654 47.687 133.087 47.3579 132.581Z" fill="#B55A2B"/>
<path d="M34.155 102.079L34.531 107.776L34.2975 107.792L33.9215 102.094L34.155 102.079Z" fill="#B55A2B"/>
<path d="M43.5858 75.2082L41.4153 80.2862C41.4112 80.2958 41.3384 80.4795 41.1967 80.8374C41.0646 81.1994 40.9392 81.5191 40.8207 81.7964C40.7962 81.8538 40.7648 81.8743 40.7265 81.858C40.6883 81.8416 40.6814 81.8047 40.7059 81.7474C40.8448 81.343 40.8937 81.0303 40.8525 80.8091C40.8113 80.5879 40.6493 80.3716 40.3664 80.1602C40.074 79.9447 39.5685 79.6721 38.8498 79.3423L33.8292 77.1964C33.0943 76.9048 32.5526 76.7299 32.2044 76.6715C31.8465 76.609 31.5734 76.6393 31.3851 76.7624C31.1968 76.8855 31.0045 77.137 30.8082 77.5168C30.7837 77.5742 30.7523 77.5947 30.714 77.5783C30.6758 77.562 30.6689 77.5251 30.6934 77.4677C30.812 77.1904 30.9564 76.8789 31.1268 76.5332C31.2876 76.1835 31.37 76.0038 31.3741 75.9943L33.1461 71.8487C33.7551 70.4238 34.3885 69.4447 35.0462 68.9115C35.7039 68.3783 36.4248 68.2793 37.209 68.6145C37.7254 68.8352 38.0774 69.2684 38.2651 69.9142C38.5995 71.0637 38.4227 72.5489 37.7348 74.3699L37.7922 74.3944C38.3522 73.0843 38.9957 72.0021 39.7227 71.1479C40.1456 70.6614 40.5986 70.3291 41.0819 70.1511C41.5692 69.9636 42.0472 69.9699 42.5158 70.1702C43.4051 70.5504 43.9431 71.1705 44.1297 72.0306C44.3066 72.8867 44.1254 73.9459 43.5858 75.2082ZM34.677 74.7764L37.0725 75.8003L37.2319 75.4274C38.1598 73.2566 37.8204 71.8278 36.2138 71.1411C35.5157 70.8427 34.8828 70.8549 34.315 71.1777C33.7473 71.5006 33.3142 72.011 33.0158 72.7091L32.5805 73.7276C32.974 73.9976 33.6729 74.3472 34.677 74.7764ZM37.4491 75.4354L37.259 75.88L39.9558 77.0327C41.0842 77.515 41.839 77.7868 42.22 77.8478L42.7289 76.6572C43.1091 75.7679 43.1848 74.9689 42.956 74.2604C42.7273 73.5519 42.24 73.0382 41.494 72.7194C39.8683 72.0245 38.52 72.9298 37.4491 75.4354Z" fill="#B55A2B"/>
<path d="M56.4419 55.9335C56.4619 55.9096 56.4833 55.9003 56.5059 55.9057C56.5352 55.9031 56.5545 55.9124 56.5638 55.9338C56.573 55.9551 56.5643 55.9817 56.5376 56.0136C56.344 56.2448 56.1124 56.5053 55.8428 56.795C55.5878 57.0834 55.4569 57.2315 55.4503 57.2395L53.9982 58.974C53.9916 58.9819 53.8654 59.1408 53.6197 59.4505C53.3886 59.7589 53.1763 60.0287 52.9827 60.26C52.9626 60.2839 52.938 60.2972 52.9087 60.2998C52.8861 60.2944 52.8701 60.281 52.8608 60.2597C52.8582 60.2304 52.8669 60.2038 52.887 60.1799C53.1434 59.8249 53.2839 59.5356 53.3084 59.312C53.3329 59.0883 53.2402 58.8344 53.0305 58.5503C52.8127 58.2596 52.4075 57.8525 51.8148 57.3292L45.6905 52.2021L42.2857 56.269L48.4101 61.3961C49.0295 61.8876 49.5015 62.2149 49.826 62.3781C50.1426 62.5346 50.4088 62.5811 50.6247 62.5177C50.8405 62.4543 51.0973 62.2691 51.3949 61.9622C51.435 61.9143 51.4709 61.9037 51.5028 61.9304C51.5347 61.9571 51.5307 61.9944 51.4906 62.0423C51.297 62.2735 51.0687 62.53 50.8058 62.8117C50.5508 63.1001 50.4199 63.2483 50.4133 63.2562L48.9512 65.0026C48.9446 65.0106 48.8217 65.1655 48.5827 65.4672C48.3516 65.7756 48.1393 66.0454 47.9457 66.2767C47.9056 66.3245 47.8696 66.3351 47.8377 66.3084C47.8058 66.2817 47.8099 66.2444 47.85 66.1966C48.0998 65.8496 48.2369 65.5643 48.2614 65.3406C48.2858 65.117 48.1932 64.8631 47.9835 64.579C47.7657 64.2882 47.3605 63.8812 46.7678 63.3579L42.5812 59.853C41.9618 59.3616 41.4938 59.0376 41.1773 58.8811C40.8527 58.7179 40.5825 58.668 40.3667 58.7315C40.1508 58.7949 39.8941 58.9801 39.5964 59.287C39.5564 59.3348 39.5204 59.3454 39.4885 59.3187C39.4566 59.292 39.4607 59.2547 39.5007 59.2069C39.6943 58.9756 39.9226 58.7191 40.1856 58.4374C40.4406 58.1491 40.5714 58.0009 40.5781 57.9929L47.0771 50.2298C47.0838 50.2218 47.2066 50.067 47.4457 49.7652C47.6834 49.4488 47.8991 49.175 48.0927 48.9438C48.1461 48.88 48.1827 48.8767 48.2026 48.934C48.2198 48.962 48.2151 48.992 48.1884 49.0239C47.9386 49.3709 47.8014 49.6562 47.777 49.8798C47.7525 50.1035 47.8491 50.3607 48.0668 50.6515C48.2766 50.9356 48.6778 51.3393 49.2705 51.8626L53.4571 55.3675C54.0765 55.8589 54.5485 56.1862 54.873 56.3494C55.1896 56.5059 55.4558 56.5524 55.6717 56.489C55.8875 56.4256 56.1443 56.2404 56.4419 55.9335Z" fill="#B55A2B"/>
<path d="M62.9821 51.0043C61.4983 52.0938 59.9793 52.5642 58.4249 52.4154C56.8704 52.2665 55.6039 51.5257 54.6251 50.1928C53.6402 48.8516 53.3128 47.3954 53.6427 45.8241C53.9749 44.2382 54.8661 42.9128 56.3163 41.8479C57.8168 40.7461 59.3443 40.2695 60.8987 40.4184C62.4676 40.5694 63.7415 41.3114 64.7202 42.6442C65.699 43.9771 66.0222 45.4364 65.69 47.0222C65.3601 48.5935 64.4574 49.9209 62.9821 51.0043ZM63.1923 50.5789C63.8735 50.0658 64.277 49.3502 64.4028 48.432C64.5463 47.3976 64.0513 46.1612 62.9176 44.7228C62.0139 43.58 60.9379 42.7121 59.6896 42.1191C59.0665 41.8154 58.4377 41.6707 57.8032 41.6851C57.177 41.6933 56.6238 41.8801 56.1438 42.2455C55.4604 42.7732 55.0558 43.4961 54.93 44.4143C54.7948 45.4426 55.3002 46.6843 56.4462 48.1395C57.3437 49.2739 58.4156 50.1448 59.6616 50.7523C60.2931 51.0499 60.9188 51.1904 61.5388 51.1738C62.1673 51.151 62.7184 50.9527 63.1923 50.5789Z" fill="#B55A2B"/>
<path d="M73.4647 39.5766L71.4915 40.4374L72.0342 41.6814C72.3236 42.2927 72.5628 42.75 72.7519 43.0533C72.9463 43.3429 73.1682 43.5524 73.4176 43.6819C73.6724 43.7977 73.9266 43.8343 74.1803 43.7917C74.4436 43.7449 74.8129 43.6292 75.2883 43.4444C75.336 43.4236 75.3735 43.4186 75.4009 43.4294C75.4378 43.436 75.4509 43.4529 75.4401 43.4803C75.4335 43.5172 75.4016 43.5482 75.3445 43.5731C74.9346 43.752 74.449 43.9524 73.8878 44.1746C73.3308 44.4062 73.0475 44.5242 73.038 44.5283L71.0219 45.4079C71.0124 45.412 70.8333 45.4958 70.4848 45.6592C70.1404 45.8322 69.83 45.9789 69.5536 46.0995C69.4964 46.1245 69.4595 46.1179 69.4428 46.0798C69.4262 46.0416 69.4465 46.0101 69.5037 45.9851C69.882 45.786 70.132 45.5919 70.2537 45.4026C70.3754 45.2134 70.4057 44.9448 70.3448 44.597C70.2796 44.2396 70.0985 43.6946 69.8016 42.9618L67.6182 37.9573C67.2831 37.2412 67.0088 36.7425 66.7953 36.4612C66.5777 36.1703 66.3581 36.0051 66.1366 35.9656C65.9151 35.9261 65.6027 35.9773 65.1994 36.1192C65.1422 36.1441 65.1053 36.1375 65.0887 36.0994C65.072 36.0613 65.0923 36.0297 65.1495 36.0048C65.426 35.8842 65.7447 35.7565 66.1057 35.6217C66.4625 35.4773 66.6457 35.4031 66.6553 35.3989L70.616 33.671C72.0935 33.0264 73.3723 32.7976 74.4523 32.9845C75.5556 33.1726 76.3047 33.7194 76.6998 34.625C77.0991 35.5401 77.01 36.4413 76.4326 37.3286C75.8553 38.2159 74.866 38.9652 73.4647 39.5766ZM69.8105 34.2436L69.0813 34.5618C69.2076 35.0854 69.3914 35.6236 69.6326 36.1765L71.4104 40.2515L72.4113 39.8149C73.3359 39.4115 73.955 38.8407 74.2684 38.1026C74.5871 37.3508 74.5615 36.5507 74.1913 35.7024C73.8295 34.8731 73.2483 34.321 72.4476 34.0463C71.6523 33.7578 70.7733 33.8236 69.8105 34.2436Z" fill="#B55A2B"/>
<path d="M88.2693 39.4432L86.176 39.8743C86.1658 39.8764 85.8766 39.9413 85.3082 40.069C84.7522 40.2047 84.2654 40.3156 83.8477 40.4016C83.7968 40.4121 83.759 40.4093 83.7345 40.3931C83.7099 40.3769 83.7057 40.3566 83.7219 40.332C83.736 40.2972 83.7685 40.2746 83.8194 40.2641C84.2838 40.1472 84.6279 40.0392 84.8516 39.94C85.0835 39.8286 85.2651 39.6531 85.3963 39.4137C85.5254 39.1642 85.5818 38.8712 85.5656 38.5347C85.5575 38.186 85.4986 37.6937 85.3889 37.058L83.8154 29.4184L83.3112 29.5222C82.7 29.6481 82.0953 30.1921 81.4971 31.1541C80.9214 32.1222 80.5458 33.3144 80.3703 34.731C80.3565 34.8187 80.3291 34.8403 80.2881 34.7957C80.2758 34.7876 80.2665 34.7683 80.2602 34.7377L80.1308 29.2375C80.1449 29.2028 80.1754 29.1965 80.2225 29.2187C80.4196 29.4541 80.7222 29.5829 81.1303 29.6051C81.5485 29.6251 82.1906 29.546 83.0564 29.3676L86.9984 28.5557C87.905 28.369 88.5312 28.1869 88.8769 28.0095C89.2328 27.8301 89.4548 27.5932 89.5428 27.299C89.5752 27.2499 89.6057 27.2436 89.6345 27.2801L91.6891 32.3838C91.6975 32.4245 91.6875 32.4531 91.659 32.4696C91.6386 32.4738 91.6192 32.4566 91.6006 32.4179C90.8695 31.1881 90.038 30.2445 89.1062 29.5869C88.1765 28.9396 87.401 28.6799 86.7796 28.8078L86.3212 28.9022L87.8947 36.5419C88.0584 37.3364 88.2462 37.9136 88.4584 38.2734C88.6705 38.6332 88.9339 38.855 89.2485 38.9389C89.561 39.0126 90.0126 38.9886 90.6034 38.8669C90.6543 38.8564 90.6921 38.8592 90.7167 38.8754C90.7412 38.8916 90.7454 38.9119 90.7292 38.9365C90.7152 38.9713 90.6827 38.9939 90.6317 39.0044C90.2141 39.0904 89.718 39.182 89.1433 39.2791C88.5708 39.3864 88.2795 39.4411 88.2693 39.4432Z" fill="#B55A2B"/>
<path d="M108.623 32.9923C108.589 34.1983 108.005 35.1858 106.87 35.9551C105.736 36.7036 104.301 37.0638 102.564 37.0359C102.634 37.4956 102.766 37.8114 102.959 37.9833C103.152 38.1448 103.477 38.2372 103.934 38.2604C103.965 38.2613 103.986 38.2723 103.996 38.2933C104.016 38.3147 104.02 38.3357 104.009 38.3562C103.998 38.3767 103.972 38.3863 103.931 38.3852C103.639 38.377 103.297 38.357 102.902 38.3251C102.507 38.3036 102.305 38.2927 102.294 38.2924L100.033 38.2289C100.023 38.2286 99.8201 38.2281 99.4248 38.2275C99.0395 38.2374 98.6962 38.2382 98.3947 38.2297C98.3635 38.2289 98.3378 38.2177 98.3176 38.1964C98.3078 38.1753 98.3084 38.1545 98.3194 38.134C98.3407 38.1138 98.367 38.1041 98.3982 38.105C98.8559 38.1074 99.1857 38.0335 99.3876 37.8831C99.6002 37.7226 99.7545 37.4148 99.8505 36.9597C98.115 36.8902 96.702 36.4499 95.6115 35.639C94.5317 34.818 94.0089 33.7993 94.0431 32.583C94.0766 31.3875 94.6608 30.4051 95.7956 29.6358C96.9198 28.8767 98.345 28.5109 100.071 28.5386C100.011 28.0999 99.8788 27.7997 99.6752 27.6379C99.4824 27.466 99.1574 27.3685 98.7003 27.3452C98.6691 27.3444 98.6434 27.3332 98.6232 27.3119C98.6134 27.2908 98.6139 27.27 98.6249 27.2495C98.6463 27.2293 98.6726 27.2196 98.7038 27.2205C99.0053 27.2289 99.348 27.249 99.7321 27.2806C100.127 27.3021 100.329 27.3129 100.34 27.3132L102.601 27.3767C102.611 27.377 102.814 27.3775 103.21 27.3782C103.605 27.3685 103.949 27.3677 104.24 27.3759C104.323 27.3782 104.348 27.4049 104.315 27.4561C104.304 27.4869 104.278 27.5018 104.236 27.5006C103.789 27.4985 103.459 27.5777 103.246 27.7382C103.044 27.8886 102.901 28.181 102.816 28.6156C104.552 28.6748 105.959 29.12 107.039 29.9515C108.129 30.7832 108.657 31.7968 108.623 32.9923ZM102.553 36.8795C103.593 36.8983 104.403 36.5621 104.984 35.8709C105.566 35.1798 105.869 34.1999 105.894 32.9313C105.916 30.2789 104.878 28.8972 102.78 28.7863C102.731 29.045 102.698 29.4863 102.68 30.11L102.527 35.5679C102.51 36.1812 102.518 36.6184 102.553 36.8795ZM96.7871 32.6756C96.731 33.933 96.9736 34.9282 97.5148 35.6612C98.0564 36.3839 98.8416 36.7649 99.8705 36.8042C99.9194 36.5455 99.9524 36.1094 99.9696 35.4961L100.123 30.0382C100.14 29.4145 100.132 28.9721 100.098 28.711C99.0572 28.713 98.2569 29.0547 97.6968 29.736C97.1369 30.407 96.8337 31.3868 96.7871 32.6756Z" fill="#B55A2B"/>
<path d="M115.922 40.4773C114.15 39.9814 112.842 39.0758 112.001 37.7604C111.159 36.4451 110.961 34.9912 111.407 33.3987C111.855 31.7963 112.799 30.6403 114.24 29.9309C115.693 29.2143 117.286 29.0983 119.018 29.583C120.811 30.0845 122.128 30.9929 122.97 32.3082C123.819 33.6364 124.02 35.0967 123.575 36.6892C123.13 38.2816 122.18 39.4362 120.727 40.1528C119.287 40.8622 117.685 40.9704 115.922 40.4773ZM116.387 40.3804C117.211 40.6001 118.023 40.4764 118.823 40.0091C119.726 39.4841 120.394 38.3318 120.827 36.5523C121.169 35.1361 121.189 33.7538 120.886 32.4055C120.74 31.7277 120.466 31.1435 120.064 30.6529C119.671 30.1651 119.183 29.8449 118.599 29.6925C117.762 29.4799 116.944 29.6073 116.143 30.0746C115.251 30.6024 114.585 31.7661 114.146 33.5657C113.807 34.9719 113.782 36.3527 114.073 37.7083C114.228 38.3888 114.503 38.968 114.899 39.4458C115.304 39.9264 115.8 40.238 116.387 40.3804Z" fill="#B55A2B"/>
<path d="M135.739 48.9915C135.766 49.0069 135.779 49.0262 135.778 49.0494C135.786 49.0777 135.775 49.0958 135.747 49.1037C135.728 49.1166 135.704 49.1154 135.677 49.1001C135.415 48.9515 135.117 48.7707 134.783 48.5579C134.453 48.3592 134.284 48.2573 134.275 48.2522L132.307 47.1376C132.298 47.1325 132.119 47.0371 131.77 46.8514C131.415 46.6748 131.112 46.5147 130.858 46.3712C130.786 46.3302 130.776 46.2948 130.829 46.2649C130.853 46.2429 130.884 46.2421 130.92 46.2626C131.306 46.4456 131.612 46.5289 131.836 46.5125C132.06 46.4962 132.293 46.3592 132.535 46.1015C132.781 45.8348 133.109 45.3627 133.516 44.6852L137.452 37.735L133.339 35.4058L132.76 36.333C132.674 36.4636 132.541 36.657 132.36 36.9131C132.188 37.1743 132.034 37.4039 131.898 37.6018C131.776 37.7958 131.679 37.9561 131.608 38.0828L131.008 39.0158C129.839 40.8044 128.646 42.0887 127.427 42.8687C126.487 43.4955 125.664 43.609 124.958 43.2092C124.668 43.0452 124.477 42.8351 124.383 42.5787C124.303 42.3185 124.327 42.0752 124.455 41.849C124.614 41.5684 124.846 41.4011 125.152 41.347C125.463 41.2839 125.772 41.3395 126.079 41.5137C126.532 41.7699 126.929 42.1863 127.272 42.7629C128.472 41.9959 129.649 40.7084 130.804 38.9005L131.502 37.8259C131.507 37.8168 131.596 37.6817 131.768 37.4204C132.083 36.9058 132.302 36.4979 132.425 36.1969C132.547 35.8959 132.587 35.6255 132.543 35.3857C132.505 35.1369 132.395 34.9309 132.212 34.7678C132.044 34.6008 131.77 34.398 131.391 34.1595C131.346 34.1339 131.319 34.1069 131.312 34.0786C131.304 34.0502 131.314 34.0321 131.342 34.0243C131.371 34.0164 131.407 34.0253 131.453 34.051C131.806 34.2508 132.208 34.4905 132.659 34.7699C133.125 35.0455 133.362 35.1858 133.371 35.1909L139.656 38.75C139.665 38.7551 139.839 38.8479 140.179 39.0285C140.534 39.2052 140.842 39.3678 141.104 39.5164C141.131 39.5318 141.144 39.5511 141.143 39.5743C141.151 39.6026 141.141 39.6207 141.112 39.6286C141.093 39.6416 141.07 39.6404 141.043 39.625C140.743 39.4791 140.501 39.3897 140.316 39.3569C140.146 39.3202 139.958 39.357 139.752 39.4675C139.555 39.5831 139.359 39.7709 139.164 40.0309C138.983 40.287 138.739 40.675 138.433 41.1947L135.742 45.9458C135.454 46.4759 135.244 46.8888 135.113 47.1847C134.995 47.4767 134.937 47.7369 134.939 47.9652C134.951 48.1986 135.013 48.3835 135.127 48.5198C135.256 48.6522 135.459 48.8094 135.739 48.9915Z" fill="#B55A2B"/>
<path d="M147.511 59.5185C147.534 59.5401 147.542 59.562 147.535 59.5842C147.535 59.6136 147.525 59.6322 147.503 59.6401C147.481 59.6479 147.455 59.6374 147.425 59.6086C147.207 59.3999 146.963 59.1513 146.692 58.8629C146.421 58.5891 146.282 58.4486 146.275 58.4414L144.642 56.8762C144.634 56.869 144.484 56.7324 144.192 56.4665C143.9 56.2153 143.645 55.9853 143.427 55.7766C143.404 55.755 143.393 55.7295 143.392 55.7001C143.399 55.6779 143.413 55.6629 143.435 55.655C143.465 55.6544 143.491 55.6649 143.513 55.6865C143.85 55.9662 144.129 56.1258 144.351 56.1652C144.572 56.2047 144.832 56.1293 145.129 55.9391C145.434 55.7414 145.868 55.3644 146.429 54.8082L150.121 50.9564L142.579 51.1606C142.054 51.7381 141.703 52.1795 141.525 52.4848C141.348 52.7902 141.284 53.0527 141.333 53.2723C141.381 53.4919 141.549 53.7605 141.835 54.0781C141.88 54.1213 141.888 54.1579 141.86 54.1879C141.831 54.218 141.794 54.2114 141.749 54.1682C141.531 53.9595 141.29 53.7145 141.027 53.4333C140.756 53.1595 140.617 53.019 140.61 53.0118L138.966 51.4358C138.958 51.4286 138.812 51.2956 138.527 51.0369C138.235 50.7856 137.98 50.5557 137.762 50.347C137.717 50.3038 137.709 50.2672 137.738 50.2372C137.766 50.2071 137.803 50.2137 137.848 50.2569C138.178 50.5294 138.453 50.6854 138.675 50.7248C138.896 50.7643 139.156 50.6889 139.453 50.4987C139.758 50.301 140.191 49.924 140.753 49.3678L144.531 45.4259C145.063 44.8409 145.418 44.3958 145.595 44.0904C145.78 43.7776 145.848 43.5113 145.799 43.2917C145.75 43.0721 145.583 42.8035 145.296 42.4859C145.251 42.4427 145.243 42.4061 145.272 42.3761C145.301 42.346 145.338 42.3526 145.383 42.3958C145.601 42.6045 145.841 42.8495 146.105 43.1307C146.375 43.4045 146.514 43.545 146.522 43.5522L148.166 45.1282C148.173 45.1354 148.32 45.2684 148.605 45.5271C148.897 45.7784 149.152 46.0083 149.37 46.217C149.415 46.2602 149.423 46.2968 149.394 46.3268C149.365 46.3569 149.328 46.3503 149.283 46.3071C148.954 46.0346 148.678 45.8786 148.457 45.8392C148.235 45.7997 147.972 45.8789 147.668 46.0766C147.37 46.2668 146.94 46.64 146.378 47.1962L142.784 50.9466L150.315 50.7537C150.812 50.221 151.145 49.7983 151.315 49.4858C151.485 49.1732 151.538 48.9073 151.474 48.688C151.425 48.4683 151.255 48.2108 150.961 47.9155C150.939 47.8939 150.927 47.8684 150.927 47.839C150.934 47.8168 150.948 47.8018 150.97 47.7939C150.999 47.7933 151.025 47.8038 151.048 47.8254C151.265 48.0341 151.506 48.2791 151.769 48.5603C152.048 48.8413 152.19 48.9854 152.198 48.9926L153.831 50.5578C153.838 50.565 153.985 50.698 154.27 50.9567C154.569 51.2152 154.828 51.4487 155.046 51.6574C155.106 51.715 155.107 51.7518 155.048 51.7677C155.019 51.783 154.99 51.7763 154.96 51.7475C154.63 51.475 154.355 51.319 154.133 51.2796C153.912 51.2401 153.648 51.3193 153.344 51.517C153.046 51.7072 152.616 52.0804 152.055 52.6366L148.276 56.5785C147.745 57.1635 147.386 57.6124 147.202 57.9253C147.024 58.2306 146.96 58.4931 147.009 58.7127C147.058 58.9323 147.225 59.2009 147.511 59.5185Z" fill="#B55A2B"/>
<path d="M151.744 66.0168C150.748 64.4684 150.373 62.9231 150.618 61.3809C150.863 59.8387 151.681 58.6205 153.072 57.7263C154.471 56.8264 155.945 56.5899 157.493 57.0166C159.055 57.4465 160.323 58.4182 161.296 59.9316C162.302 61.4975 162.683 63.0516 162.438 64.5938C162.19 66.1504 161.371 67.3758 159.98 68.27C158.589 69.1642 157.112 69.3964 155.55 68.9665C154.002 68.5397 152.733 67.5565 151.744 66.0168ZM152.155 66.253C152.625 66.9647 153.314 67.4118 154.223 67.5943C155.246 67.8017 156.511 67.3843 158.017 66.342C159.214 65.5109 160.147 64.4907 160.816 63.2816C161.158 62.6786 161.341 62.06 161.366 61.4257C161.397 60.8002 161.244 60.2366 160.91 59.7348C160.425 59.0199 159.729 58.5713 158.82 58.3888C157.802 58.1902 156.532 58.6176 155.008 59.6711C153.82 60.4966 152.885 61.5124 152.201 62.7184C151.865 63.3302 151.686 63.946 151.664 64.5658C151.648 65.1945 151.811 65.7569 152.155 66.253Z" fill="#B55A2B"/>
<path d="M166.351 96.4079L165.805 90.7245L166.038 90.7021L166.584 96.3856L166.351 96.4079Z" fill="#B55A2B"/>
<circle opacity="0.4" cx="100" cy="100.002" r="4" fill="#B55A2B"/>
</svg>
