<svg width="201" height="201" viewBox="0 0 201 201" fill="none" xmlns="http://www.w3.org/2000/svg">
<circle cx="100.996" cy="100.002" r="100" fill="#B55A2B"/>
<path d="M157.297 126.904L159.604 121.886C159.608 121.877 159.686 121.695 159.837 121.341C159.979 120.983 160.113 120.666 160.239 120.392C160.265 120.336 160.297 120.316 160.335 120.333C160.372 120.351 160.378 120.388 160.352 120.445C160.202 120.845 160.145 121.156 160.18 121.379C160.216 121.601 160.372 121.821 160.649 122.04C160.935 122.264 161.433 122.55 162.143 122.899L167.104 125.179C167.831 125.49 168.367 125.68 168.714 125.748C169.07 125.82 169.344 125.797 169.535 125.679C169.727 125.561 169.926 125.315 170.132 124.94C170.158 124.884 170.19 124.864 170.228 124.881C170.266 124.899 170.272 124.936 170.246 124.992C170.12 125.266 169.967 125.574 169.787 125.915C169.617 126.26 169.53 126.438 169.526 126.447L167.643 130.543C166.995 131.951 166.336 132.913 165.664 133.428C164.992 133.944 164.269 134.023 163.494 133.667C162.984 133.432 162.644 132.99 162.473 132.339C162.17 131.181 162.387 129.701 163.123 127.899L163.067 127.873C162.472 129.168 161.799 130.232 161.049 131.067C160.614 131.542 160.152 131.862 159.664 132.026C159.172 132.201 158.694 132.182 158.231 131.969C157.352 131.565 156.831 130.93 156.668 130.066C156.514 129.205 156.724 128.151 157.297 126.904ZM166.191 127.575L163.824 126.487L163.655 126.856C162.669 129.001 162.969 130.438 164.557 131.168C165.247 131.485 165.88 131.49 166.456 131.183C167.032 130.875 167.479 130.377 167.796 129.687L168.259 128.68C167.873 128.4 167.183 128.032 166.191 127.575ZM163.438 126.842L163.64 126.403L160.975 125.178C159.86 124.665 159.113 124.373 158.734 124.302L158.193 125.478C157.789 126.357 157.692 127.154 157.901 127.868C158.111 128.583 158.584 129.109 159.321 129.448C160.928 130.186 162.3 129.318 163.438 126.842Z" fill="#F7F3F0"/>
<path d="M143.756 145.971C143.736 145.994 143.714 146.003 143.692 145.996C143.662 145.998 143.643 145.988 143.635 145.967C143.626 145.945 143.636 145.919 143.663 145.888C143.864 145.662 144.103 145.409 144.381 145.127C144.645 144.847 144.78 144.703 144.787 144.695L146.29 143.005C146.297 142.997 146.428 142.842 146.683 142.54C146.923 142.238 147.143 141.975 147.344 141.75C147.364 141.726 147.389 141.714 147.419 141.712C147.441 141.718 147.457 141.732 147.465 141.753C147.467 141.783 147.458 141.809 147.437 141.832C147.17 142.18 147.021 142.465 146.99 142.687C146.959 142.91 147.044 143.167 147.245 143.457C147.454 143.754 147.846 144.173 148.423 144.714L154.391 150.022L157.916 146.059L151.948 140.751C151.344 140.241 150.882 139.9 150.562 139.727C150.251 139.561 149.986 139.506 149.768 139.563C149.551 139.62 149.288 139.798 148.982 140.096C148.94 140.142 148.904 140.152 148.873 140.124C148.842 140.096 148.847 140.059 148.888 140.013C149.089 139.787 149.325 139.538 149.596 139.264C149.859 138.983 149.995 138.839 150.002 138.832L151.515 137.13C151.522 137.122 151.65 136.971 151.898 136.676C152.138 136.375 152.358 136.112 152.558 135.886C152.6 135.84 152.636 135.83 152.667 135.858C152.698 135.885 152.693 135.923 152.652 135.969C152.392 136.309 152.246 136.59 152.215 136.812C152.184 137.035 152.269 137.292 152.47 137.582C152.679 137.879 153.072 138.298 153.648 138.839L157.728 142.468C158.333 142.977 158.791 143.315 159.103 143.481C159.422 143.654 159.691 143.712 159.908 143.655C160.126 143.598 160.388 143.421 160.695 143.123C160.736 143.076 160.773 143.067 160.804 143.094C160.835 143.122 160.83 143.159 160.788 143.206C160.588 143.431 160.352 143.681 160.08 143.954C159.817 144.235 159.682 144.379 159.675 144.387L152.946 151.952C152.94 151.96 152.812 152.111 152.564 152.405C152.317 152.714 152.093 152.982 151.893 153.207C151.838 153.269 151.801 153.271 151.783 153.213C151.766 153.185 151.772 153.155 151.8 153.124C152.06 152.785 152.205 152.504 152.236 152.281C152.268 152.058 152.179 151.798 151.97 151.501C151.769 151.211 151.38 150.795 150.803 150.254L146.723 146.626C146.119 146.116 145.657 145.775 145.337 145.602C145.025 145.436 144.761 145.381 144.543 145.438C144.325 145.495 144.063 145.673 143.756 145.971Z" fill="#F7F3F0"/>
<path d="M137.174 150.603C138.685 149.551 140.216 149.12 141.766 149.309C143.316 149.497 144.564 150.27 145.508 151.627C146.458 152.993 146.748 154.458 146.378 156.02C146.006 157.597 145.081 158.899 143.604 159.926C142.076 160.99 140.536 161.427 138.986 161.238C137.422 161.047 136.167 160.273 135.223 158.915C134.279 157.558 133.993 156.091 134.365 154.514C134.736 152.952 135.672 151.648 137.174 150.603ZM136.953 151.022C136.259 151.518 135.838 152.223 135.688 153.138C135.518 154.168 135.982 155.417 137.078 156.884C137.952 158.049 139.006 158.944 140.239 159.569C140.854 159.889 141.479 160.049 142.113 160.051C142.739 160.059 143.297 159.886 143.786 159.533C144.483 159.023 144.906 158.311 145.055 157.396C145.217 156.372 144.743 155.118 143.635 153.634C142.767 152.477 141.717 151.579 140.487 150.939C139.864 150.626 139.242 150.469 138.621 150.47C137.993 150.477 137.437 150.661 136.953 151.022Z" fill="#F7F3F0"/>
<path d="M126.347 161.737L128.341 160.927L127.83 159.669C127.557 159.051 127.329 158.588 127.148 158.28C126.961 157.985 126.744 157.77 126.498 157.634C126.247 157.512 125.993 157.469 125.739 157.505C125.474 157.545 125.102 157.652 124.622 157.824C124.574 157.844 124.536 157.848 124.509 157.836C124.473 157.829 124.46 157.812 124.471 157.784C124.479 157.748 124.512 157.718 124.569 157.694C124.984 157.526 125.474 157.338 126.041 157.13C126.604 156.913 126.89 156.802 126.899 156.798L128.937 155.97C128.947 155.966 129.128 155.887 129.481 155.732C129.829 155.568 130.143 155.429 130.423 155.316C130.481 155.292 130.517 155.3 130.533 155.338C130.549 155.377 130.528 155.408 130.47 155.432C130.086 155.621 129.832 155.809 129.705 155.995C129.579 156.181 129.541 156.449 129.594 156.798C129.65 157.157 129.817 157.706 130.095 158.446L132.15 163.505C132.467 164.229 132.729 164.735 132.935 165.021C133.145 165.318 133.36 165.488 133.581 165.533C133.801 165.579 134.115 165.535 134.521 165.404C134.579 165.38 134.616 165.388 134.632 165.426C134.647 165.465 134.626 165.496 134.568 165.519C134.289 165.633 133.967 165.753 133.603 165.878C133.242 166.013 133.057 166.083 133.048 166.087L129.044 167.713C127.551 168.32 126.267 168.516 125.192 168.302C124.094 168.086 123.359 167.52 122.987 166.605C122.611 165.68 122.723 164.781 123.323 163.909C123.922 163.037 124.93 162.313 126.347 161.737ZM129.864 167.161L130.601 166.862C130.488 166.335 130.318 165.793 130.091 165.234L128.418 161.115L127.406 161.526C126.471 161.906 125.838 162.46 125.506 163.19C125.168 163.934 125.173 164.734 125.522 165.592C125.862 166.43 126.429 166.997 127.223 167.292C128.011 167.6 128.891 167.557 129.864 167.161Z" fill="#F7F3F0"/>
<path d="M111.628 161.426L113.731 161.049C113.742 161.047 114.032 160.99 114.604 160.877C115.163 160.756 115.653 160.657 116.072 160.582C116.124 160.573 116.161 160.577 116.185 160.593C116.21 160.61 116.213 160.631 116.196 160.655C116.181 160.689 116.148 160.711 116.097 160.72C115.63 160.825 115.283 160.924 115.057 161.018C114.822 161.123 114.636 161.294 114.499 161.53C114.363 161.776 114.299 162.067 114.307 162.404C114.306 162.753 114.352 163.246 114.446 163.885L115.821 171.562L116.328 171.472C116.942 171.362 117.561 170.833 118.184 169.887C118.784 168.934 119.19 167.752 119.402 166.341C119.418 166.253 119.446 166.232 119.486 166.278C119.498 166.286 119.507 166.306 119.513 166.337L119.5 171.838C119.485 171.873 119.454 171.878 119.408 171.855C119.217 171.614 118.918 171.478 118.51 171.445C118.093 171.414 117.449 171.477 116.579 171.633L112.617 172.343C111.706 172.506 111.075 172.672 110.725 172.84C110.365 173.01 110.137 173.241 110.041 173.533C110.008 173.582 109.977 173.587 109.949 173.55L108.027 168.395C108.019 168.354 108.03 168.326 108.059 168.31C108.08 168.306 108.099 168.324 108.116 168.363C108.815 169.611 109.622 170.576 110.537 171.257C111.449 171.929 112.218 172.208 112.842 172.096L113.303 172.014L111.927 164.336C111.784 163.538 111.611 162.956 111.408 162.591C111.206 162.225 110.948 161.997 110.636 161.905C110.325 161.823 109.873 161.836 109.279 161.942C109.228 161.951 109.191 161.947 109.166 161.93C109.142 161.914 109.139 161.893 109.155 161.869C109.17 161.835 109.203 161.813 109.255 161.804C109.674 161.729 110.173 161.65 110.75 161.568C111.325 161.475 111.617 161.428 111.628 161.426Z" fill="#F7F3F0"/>
<path d="M90.9957 167.308C91.0615 166.103 91.6718 165.132 92.8266 164.393C93.9803 163.675 95.4248 163.352 97.1602 163.426C97.1021 162.965 96.9789 162.646 96.7907 162.469C96.6019 162.302 96.2793 162.201 95.8229 162.166C95.7918 162.164 95.7716 162.153 95.7623 162.131C95.7427 162.11 95.7386 162.088 95.7502 162.068C95.7617 162.048 95.7882 162.039 95.8297 162.041C96.1205 162.057 96.4626 162.086 96.8561 162.129C97.2501 162.161 97.4524 162.177 97.4627 162.177L99.7214 162.301C99.7318 162.301 99.9345 162.307 100.33 162.318C100.715 162.319 101.058 162.327 101.359 162.343C101.391 162.345 101.416 162.357 101.436 162.379C101.445 162.4 101.444 162.421 101.432 162.441C101.41 162.461 101.384 162.47 101.353 162.468C100.895 162.453 100.564 162.519 100.358 162.664C100.141 162.818 99.9786 163.122 99.8706 163.574C101.604 163.69 103.004 164.167 104.073 165.007C105.131 165.856 105.626 166.888 105.56 168.103C105.495 169.298 104.885 170.264 103.73 171.003C102.586 171.732 101.152 172.06 99.4268 171.987C99.4756 172.427 99.5997 172.73 99.7988 172.898C99.9871 173.074 100.309 173.181 100.766 173.216C100.797 173.218 100.822 173.229 100.842 173.251C100.851 173.273 100.85 173.293 100.838 173.314C100.817 173.333 100.79 173.342 100.759 173.341C100.458 173.324 100.116 173.295 99.7325 173.253C99.3385 173.221 99.1363 173.205 99.1259 173.205L96.8673 173.081C96.8569 173.081 96.6541 173.075 96.2589 173.064C95.8632 173.063 95.5199 173.054 95.2291 173.039C95.1461 173.034 95.1215 173.007 95.1555 172.956C95.1676 172.926 95.1944 172.912 95.236 172.914C95.6831 172.928 96.015 172.858 96.2318 172.703C96.4376 172.558 96.5887 172.269 96.6852 171.837C94.9516 171.732 93.5562 171.249 92.4991 170.39C91.4317 169.529 90.9305 168.502 90.9957 167.308ZM97.1673 163.583C96.1282 163.537 95.3091 163.851 94.7097 164.527C94.1104 165.202 93.7813 166.174 93.7225 167.441C93.6298 170.092 94.6309 171.501 96.7258 171.667C96.7815 171.41 96.8263 170.97 96.8604 170.347L97.1581 164.895C97.1916 164.282 97.1946 163.845 97.1673 163.583ZM102.819 167.938C102.909 166.683 102.693 165.681 102.171 164.934C101.649 164.197 100.874 163.796 99.8465 163.729C99.7908 163.987 99.7462 164.422 99.7127 165.034L99.415 170.486C99.3809 171.109 99.3776 171.552 99.405 171.814C100.445 171.839 101.254 171.519 101.832 170.853C102.41 170.197 102.739 169.225 102.819 167.938Z" fill="#F7F3F0"/>
<path d="M83.655 159.508C85.4137 160.051 86.6959 160.992 87.5017 162.329C88.3074 163.667 88.4662 165.126 87.9779 166.706C87.4865 168.295 86.5113 169.425 85.0523 170.096C83.5803 170.773 81.9849 170.846 80.2659 170.314C78.4873 169.765 77.1951 168.821 76.3894 167.483C75.5768 166.133 75.4146 164.668 75.9029 163.088C76.3912 161.508 77.3713 160.379 78.8433 159.702C80.3023 159.032 81.9062 158.967 83.655 159.508ZM83.1881 159.592C82.3702 159.35 81.555 159.452 80.7424 159.897C79.8258 160.398 79.127 161.532 78.6461 163.299C78.2658 164.705 78.209 166.086 78.4757 167.442C78.6025 168.124 78.8606 168.715 79.2499 169.217C79.6293 169.715 80.1087 170.048 80.6881 170.216C81.5189 170.451 82.3407 170.346 83.1533 169.901C84.06 169.397 84.7568 168.252 85.2439 166.465C85.6211 165.068 85.6828 163.688 85.4292 162.326C85.2924 161.641 85.0328 161.055 84.6503 160.566C84.2579 160.075 83.7705 159.75 83.1881 159.592Z" fill="#F7F3F0"/>
<path d="M64.3516 150.512C64.3248 150.495 64.3124 150.476 64.3142 150.453C64.3071 150.424 64.3178 150.406 64.3464 150.399C64.366 150.387 64.3892 150.389 64.4159 150.405C64.6743 150.56 64.9674 150.749 65.2953 150.97C65.6195 151.178 65.7861 151.284 65.7951 151.29L67.7329 152.456C67.7418 152.462 67.9182 152.562 68.2621 152.757C68.6114 152.943 68.9108 153.111 69.1603 153.261C69.2316 153.304 69.2404 153.34 69.1869 153.368C69.1619 153.39 69.1316 153.39 69.0959 153.368C68.7145 153.175 68.4115 153.084 68.1867 153.094C67.962 153.104 67.7254 153.235 67.4771 153.486C67.2234 153.746 66.8838 154.209 66.4583 154.876L62.3383 161.718L66.3877 164.156L66.9911 163.245C67.0804 163.117 67.219 162.927 67.4066 162.676C67.5854 162.419 67.7454 162.194 67.8866 162C68.0135 161.809 68.1145 161.651 68.1896 161.527L68.8144 160.61C70.03 158.853 71.2573 157.601 72.4962 156.854C73.4532 156.253 74.2791 156.161 74.9741 156.58C75.2592 156.751 75.4452 156.967 75.5322 157.225C75.6049 157.488 75.5742 157.73 75.4401 157.953C75.2738 158.229 75.0373 158.39 74.7304 158.436C74.4182 158.491 74.1106 158.427 73.8077 158.245C73.3622 157.976 72.9758 157.55 72.6486 156.964C71.4292 157.699 70.218 158.954 69.0149 160.731L68.2882 161.786C68.2829 161.795 68.1908 161.928 68.012 162.185C67.6831 162.691 67.4533 163.092 67.3226 163.39C67.1919 163.688 67.1451 163.957 67.1822 164.198C67.2139 164.448 67.3188 164.656 67.4969 164.824C67.6608 164.996 67.9289 165.206 68.3012 165.454C68.3458 165.481 68.3716 165.509 68.3787 165.537C68.3858 165.566 68.3751 165.584 68.3465 165.591C68.318 165.598 68.2814 165.588 68.2369 165.561C67.8894 165.352 67.4938 165.102 67.0502 164.81C66.5922 164.522 66.3588 164.376 66.3499 164.37L60.1622 160.645C60.1533 160.639 59.9813 160.542 59.6463 160.352C59.297 160.166 58.9932 159.995 58.7348 159.84C58.7081 159.824 58.6956 159.804 58.6974 159.781C58.6903 159.752 58.7011 159.735 58.7296 159.727C58.7492 159.715 58.7724 159.717 58.7992 159.733C59.095 159.887 59.3347 159.983 59.5184 160.02C59.6878 160.062 59.8769 160.03 60.0857 159.925C60.2857 159.815 60.4866 159.632 60.6885 159.377C60.8762 159.126 61.1301 158.745 61.4501 158.234L64.2666 153.556C64.5688 153.034 64.7897 152.627 64.9293 152.334C65.0546 152.046 65.1192 151.787 65.1231 151.559C65.1181 151.325 65.0604 151.139 64.9501 150.999C64.8254 150.864 64.6259 150.701 64.3516 150.512Z" fill="#F7F3F0"/>
<path d="M52.991 139.743C52.9691 139.721 52.9618 139.699 52.9693 139.677C52.9694 139.648 52.9806 139.629 53.0027 139.622C53.0248 139.615 53.0504 139.626 53.0797 139.656C53.292 139.87 53.5297 140.125 53.7931 140.42C54.0565 140.701 54.1918 140.845 54.1992 140.852L55.791 142.459C55.7983 142.467 55.9447 142.607 56.2302 142.881C56.5158 143.139 56.7647 143.376 56.9769 143.59C56.9989 143.612 57.0098 143.638 57.0096 143.668C57.0022 143.69 56.9874 143.704 56.9653 143.712C56.9359 143.711 56.9102 143.7 56.8882 143.678C56.5587 143.39 56.2837 143.223 56.0633 143.178C55.8429 143.133 55.5815 143.201 55.2791 143.384C54.9693 143.573 54.5264 143.939 53.9502 144.48L50.1596 148.235L57.7048 148.227C58.2444 147.663 58.6068 147.231 58.7921 146.93C58.9774 146.63 59.0485 146.369 59.0054 146.148C58.9623 145.927 58.8018 145.654 58.524 145.33C58.48 145.285 58.4729 145.248 58.5024 145.219C58.532 145.19 58.5687 145.197 58.6126 145.242C58.8249 145.456 59.059 145.707 59.315 145.995C59.5784 146.276 59.7138 146.42 59.7211 146.427L61.3239 148.045C61.3312 148.053 61.4739 148.19 61.7521 148.456C62.0377 148.714 62.2866 148.951 62.4988 149.165C62.5427 149.21 62.5499 149.246 62.5204 149.276C62.4908 149.305 62.4541 149.297 62.4102 149.253C62.0879 148.972 61.8166 148.809 61.5962 148.764C61.3758 148.719 61.1144 148.787 60.812 148.97C60.5022 149.159 60.0593 149.525 59.4831 150.066L55.6038 153.909C55.0569 154.48 54.6908 154.915 54.5055 155.216C54.3128 155.524 54.238 155.788 54.2811 156.009C54.3242 156.23 54.4847 156.503 54.7626 156.828C54.8065 156.872 54.8136 156.909 54.7841 156.938C54.7545 156.968 54.7178 156.96 54.6739 156.916C54.4616 156.701 54.2275 156.45 53.9715 156.162C53.7081 155.882 53.5727 155.737 53.5654 155.73L51.9626 154.112C51.9553 154.105 51.8126 153.968 51.5344 153.702C51.2488 153.443 50.9999 153.206 50.7877 152.992C50.7438 152.948 50.7366 152.911 50.7661 152.882C50.7957 152.852 50.8324 152.86 50.8763 152.904C51.1986 153.185 51.4699 153.348 51.6903 153.394C51.9107 153.439 52.1758 153.366 52.4856 153.177C52.788 152.994 53.2272 152.632 53.8034 152.091L57.4942 148.435L49.9601 148.432C49.4502 148.952 49.1062 149.366 48.9283 149.674C48.7503 149.982 48.6902 150.246 48.748 150.467C48.7911 150.688 48.9553 150.95 49.2406 151.253C49.2626 151.275 49.2735 151.301 49.2733 151.33C49.2659 151.352 49.2511 151.367 49.229 151.374C49.1996 151.374 49.1739 151.363 49.152 151.341C48.9397 151.126 48.7056 150.875 48.4496 150.587C48.1789 150.299 48.0398 150.151 48.0325 150.144L46.4407 148.537C46.4334 148.53 46.2906 148.393 46.0125 148.127C45.7196 147.861 45.467 147.62 45.2548 147.406C45.1962 147.347 45.1964 147.31 45.2553 147.296C45.2848 147.281 45.3142 147.289 45.3434 147.318C45.6657 147.599 45.937 147.762 46.1574 147.807C46.3778 147.853 46.6429 147.78 46.9527 147.591C47.255 147.408 47.6943 147.046 48.2705 146.505L52.1498 142.663C52.6967 142.092 53.0665 141.652 53.2592 141.344C53.4445 141.044 53.5156 140.783 53.4725 140.562C53.4294 140.341 53.2689 140.068 52.991 139.743Z" fill="#F7F3F0"/>
<path d="M48.7584 132.83C49.7084 134.406 50.0384 135.962 49.7487 137.496C49.459 139.031 48.6059 140.225 47.1895 141.078C45.7642 141.937 44.2841 142.13 42.7494 141.658C41.2004 141.183 39.9616 140.175 39.0332 138.634C38.0725 137.039 37.7371 135.475 38.0268 133.94C38.3201 132.392 39.1749 131.191 40.5913 130.337C42.0077 129.484 43.4905 129.295 45.0395 129.77C46.5742 130.242 47.8139 131.262 48.7584 132.83ZM48.354 132.581C47.905 131.856 47.2291 131.389 46.3262 131.181C45.3091 130.943 44.0328 131.324 42.4971 132.322C41.2768 133.118 40.3145 134.11 39.6104 135.299C39.2512 135.892 39.0498 136.505 39.0064 137.138C38.9576 137.763 39.0933 138.331 39.4135 138.842C39.8767 139.571 40.5598 140.039 41.4627 140.248C42.4744 140.476 43.757 140.086 45.3104 139.077C46.5218 138.287 47.4868 137.299 48.2052 136.113C48.559 135.512 48.7559 134.901 48.7958 134.282C48.8304 133.654 48.6831 133.087 48.354 132.581Z" fill="#F7F3F0"/>
<path d="M35.1511 102.079L35.5271 107.776L35.2936 107.792L34.9176 102.094L35.1511 102.079Z" fill="#F7F3F0"/>
<path d="M44.5819 75.2082L42.4114 80.2862C42.4073 80.2958 42.3344 80.4795 42.1928 80.8374C42.0607 81.1994 41.9353 81.5191 41.8168 81.7964C41.7923 81.8538 41.7609 81.8743 41.7226 81.858C41.6844 81.8416 41.6775 81.8047 41.702 81.7474C41.8409 81.343 41.8898 81.0303 41.8486 80.8091C41.8074 80.5879 41.6454 80.3716 41.3625 80.1602C41.0701 79.9447 40.5646 79.6721 39.8459 79.3423L34.8253 77.1964C34.0904 76.9048 33.5487 76.7299 33.2005 76.6715C32.8426 76.609 32.5695 76.6393 32.3812 76.7624C32.1929 76.8855 32.0006 77.137 31.8043 77.5168C31.7797 77.5742 31.7484 77.5947 31.7101 77.5783C31.6719 77.562 31.665 77.5251 31.6895 77.4677C31.8081 77.1904 31.9525 76.8789 32.1229 76.5332C32.2837 76.1835 32.3661 76.0038 32.3702 75.9943L34.1421 71.8487C34.7512 70.4238 35.3846 69.4447 36.0423 68.9115C36.7 68.3783 37.4209 68.2793 38.2051 68.6145C38.7215 68.8352 39.0735 69.2684 39.2612 69.9142C39.5955 71.0637 39.4188 72.5489 38.7309 74.3699L38.7883 74.3944C39.3483 73.0843 39.9918 72.0021 40.7188 71.1479C41.1417 70.6614 41.5947 70.3291 42.078 70.1511C42.5653 69.9636 43.0433 69.9699 43.5119 70.1702C44.4012 70.5504 44.9392 71.1705 45.1257 72.0306C45.3027 72.8867 45.1214 73.9459 44.5819 75.2082ZM35.6731 74.7764L38.0686 75.8003L38.228 75.4274C39.1559 73.2566 38.8165 71.8278 37.2099 71.1411C36.5118 70.8427 35.8789 70.8549 35.3111 71.1777C34.7434 71.5006 34.3103 72.011 34.0119 72.7091L33.5766 73.7276C33.9701 73.9976 34.6689 74.3472 35.6731 74.7764ZM38.4452 75.4354L38.2551 75.88L40.9519 77.0327C42.0803 77.515 42.8351 77.7868 43.2161 77.8478L43.725 76.6572C44.1052 75.7679 44.1809 74.9689 43.9521 74.2604C43.7234 73.5519 43.2361 73.0382 42.4901 72.7194C40.8644 72.0245 39.5161 72.9298 38.4452 75.4354Z" fill="#F7F3F0"/>
<path d="M57.438 55.9335C57.458 55.9096 57.4794 55.9003 57.502 55.9057C57.5313 55.9031 57.5506 55.9124 57.5599 55.9338C57.5691 55.9551 57.5604 55.9817 57.5337 56.0136C57.3401 56.2448 57.1085 56.5053 56.8388 56.795C56.5839 57.0834 56.453 57.2315 56.4464 57.2395L54.9943 58.974C54.9877 58.9819 54.8615 59.1408 54.6158 59.4505C54.3847 59.7589 54.1724 60.0287 53.9788 60.26C53.9587 60.2839 53.9341 60.2972 53.9048 60.2998C53.8821 60.2944 53.8662 60.281 53.8569 60.2597C53.8543 60.2304 53.863 60.2038 53.8831 60.1799C54.1395 59.8249 54.28 59.5356 54.3045 59.312C54.329 59.0883 54.2363 58.8344 54.0266 58.5503C53.8088 58.2596 53.4036 57.8525 52.8109 57.3292L46.6865 52.2021L43.2818 56.269L49.4062 61.3961C50.0256 61.8876 50.4976 62.2149 50.8221 62.3781C51.1387 62.5346 51.4049 62.5811 51.6208 62.5177C51.8366 62.4543 52.0934 62.2691 52.391 61.9622C52.4311 61.9143 52.467 61.9037 52.4989 61.9304C52.5308 61.9571 52.5267 61.9944 52.4867 62.0423C52.2931 62.2735 52.0648 62.53 51.8018 62.8117C51.5469 63.1001 51.416 63.2483 51.4094 63.2562L49.9473 65.0026C49.9406 65.0106 49.8178 65.1655 49.5788 65.4672C49.3477 65.7756 49.1354 66.0454 48.9418 66.2767C48.9017 66.3245 48.8657 66.3351 48.8338 66.3084C48.8019 66.2817 48.806 66.2444 48.8461 66.1966C49.0959 65.8496 49.233 65.5643 49.2575 65.3406C49.2819 65.117 49.1893 64.8631 48.9796 64.579C48.7618 64.2882 48.3566 63.8812 47.7639 63.3579L43.5773 59.853C42.9579 59.3616 42.4899 59.0376 42.1734 58.8811C41.8488 58.7179 41.5786 58.668 41.3628 58.7315C41.1469 58.7949 40.8902 58.9801 40.5925 59.287C40.5525 59.3348 40.5165 59.3454 40.4846 59.3187C40.4527 59.292 40.4568 59.2547 40.4968 59.2069C40.6904 58.9756 40.9187 58.7191 41.1817 58.4374C41.4367 58.1491 41.5675 58.0009 41.5742 57.9929L48.0732 50.2298C48.0799 50.2218 48.2027 50.067 48.4418 49.7652C48.6795 49.4488 48.8952 49.175 49.0888 48.9438C49.1422 48.88 49.1788 48.8767 49.1986 48.934C49.2159 48.962 49.2112 48.992 49.1845 49.0239C48.9347 49.3709 48.7975 49.6562 48.7731 49.8798C48.7486 50.1035 48.8452 50.3607 49.0629 50.6515C49.2727 50.9356 49.6739 51.3393 50.2666 51.8626L54.4532 55.3675C55.0726 55.8589 55.5446 56.1862 55.8691 56.3494C56.1857 56.5059 56.4519 56.5524 56.6678 56.489C56.8836 56.4256 57.1404 56.2404 57.438 55.9335Z" fill="#F7F3F0"/>
<path d="M63.9782 51.0043C62.4944 52.0938 60.9754 52.5642 59.4209 52.4154C57.8665 52.2665 56.6 51.5257 55.6212 50.1928C54.6363 48.8516 54.3088 47.3954 54.6388 45.8241C54.971 44.2382 55.8622 42.9128 57.3124 41.8479C58.8129 40.7461 60.3403 40.2695 61.8948 40.4184C63.4637 40.5694 64.7376 41.3114 65.7163 42.6442C66.6951 43.9771 67.0183 45.4364 66.6861 47.0222C66.3562 48.5935 65.4535 49.9209 63.9782 51.0043ZM64.1884 50.5789C64.8696 50.0658 65.2731 49.3502 65.3989 48.432C65.5424 47.3976 65.0474 46.1612 63.9137 44.7228C63.01 43.58 61.934 42.7121 60.6857 42.1191C60.0626 41.8154 59.4338 41.6707 58.7992 41.6851C58.1731 41.6933 57.6199 41.8801 57.1399 42.2455C56.4565 42.7732 56.0518 43.4961 55.9261 44.4143C55.7909 45.4426 56.2963 46.6843 57.4423 48.1395C58.3398 49.2739 59.4116 50.1448 60.6577 50.7523C61.2892 51.0499 61.9149 51.1904 62.5349 51.1738C63.1634 51.151 63.7145 50.9527 64.1884 50.5789Z" fill="#F7F3F0"/>
<path d="M74.4608 39.5766L72.4876 40.4374L73.0303 41.6814C73.3197 42.2927 73.5589 42.75 73.748 43.0533C73.9424 43.3429 74.1643 43.5524 74.4137 43.6819C74.6684 43.7977 74.9227 43.8343 75.1764 43.7917C75.4397 43.7449 75.809 43.6292 76.2844 43.4444C76.3321 43.4236 76.3696 43.4186 76.397 43.4294C76.4339 43.436 76.447 43.4529 76.4362 43.4803C76.4296 43.5172 76.3977 43.5482 76.3405 43.5731C75.9307 43.752 75.4451 43.9524 74.8839 44.1746C74.3269 44.4062 74.0436 44.5242 74.0341 44.5283L72.018 45.4079C72.0085 45.412 71.8294 45.4958 71.4809 45.6592C71.1365 45.8322 70.8261 45.9789 70.5497 46.0995C70.4925 46.1245 70.4555 46.1179 70.4389 46.0798C70.4223 46.0416 70.4426 46.0101 70.4998 45.9851C70.8781 45.786 71.1281 45.5919 71.2498 45.4026C71.3715 45.2134 71.4018 44.9448 71.3408 44.597C71.2757 44.2396 71.0946 43.6946 70.7976 42.9618L68.6143 37.9573C68.2792 37.2412 68.0049 36.7425 67.7914 36.4612C67.5738 36.1703 67.3542 36.0051 67.1327 35.9656C66.9112 35.9261 66.5988 35.9773 66.1955 36.1192C66.1383 36.1441 66.1014 36.1375 66.0848 36.0994C66.0681 36.0613 66.0884 36.0297 66.1456 36.0048C66.422 35.8842 66.7408 35.7565 67.1018 35.6217C67.4586 35.4773 67.6418 35.4031 67.6514 35.3989L71.6121 33.671C73.0896 33.0264 74.3683 32.7976 75.4484 32.9845C76.5517 33.1726 77.3008 33.7194 77.6959 34.625C78.0951 35.5401 78.0061 36.4413 77.4287 37.3286C76.8514 38.2159 75.8621 38.9652 74.4608 39.5766ZM70.8066 34.2436L70.0774 34.5618C70.2037 35.0854 70.3875 35.6236 70.6287 36.1765L72.4065 40.2515L73.4074 39.8149C74.332 39.4115 74.9511 38.8407 75.2645 38.1026C75.5832 37.3508 75.5576 36.5507 75.1874 35.7024C74.8256 34.8731 74.2444 34.321 73.4437 34.0463C72.6484 33.7578 71.7694 33.8236 70.8066 34.2436Z" fill="#F7F3F0"/>
<path d="M89.2654 39.4432L87.1721 39.8743C87.1619 39.8764 86.8727 39.9413 86.3043 40.069C85.7483 40.2047 85.2615 40.3156 84.8438 40.4016C84.7929 40.4121 84.7551 40.4093 84.7306 40.3931C84.706 40.3769 84.7018 40.3566 84.718 40.332C84.7321 40.2972 84.7646 40.2746 84.8155 40.2641C85.2799 40.1472 85.624 40.0392 85.8477 39.94C86.0796 39.8286 86.2612 39.6531 86.3924 39.4137C86.5215 39.1642 86.5779 38.8712 86.5617 38.5347C86.5536 38.186 86.4947 37.6937 86.385 37.058L84.8115 29.4184L84.3073 29.5222C83.6961 29.6481 83.0914 30.1921 82.4932 31.1541C81.9174 32.1222 81.5418 33.3144 81.3664 34.731C81.3526 34.8187 81.3252 34.8403 81.2842 34.7957C81.2719 34.7876 81.2626 34.7683 81.2563 34.7377L81.1269 29.2375C81.141 29.2028 81.1715 29.1965 81.2186 29.2187C81.4157 29.4541 81.7183 29.5829 82.1264 29.6051C82.5446 29.6251 83.1866 29.546 84.0525 29.3676L87.9945 28.5557C88.9011 28.369 89.5272 28.1869 89.873 28.0095C90.2289 27.8301 90.4509 27.5932 90.5389 27.299C90.5713 27.2499 90.6018 27.2436 90.6306 27.2801L92.6852 32.3838C92.6936 32.4245 92.6836 32.4531 92.6551 32.4696C92.6347 32.4738 92.6152 32.4566 92.5967 32.4179C91.8656 31.1881 91.0341 30.2445 90.1023 29.5869C89.1726 28.9396 88.3971 28.6799 87.7757 28.8078L87.3173 28.9022L88.8908 36.5419C89.0544 37.3364 89.2423 37.9136 89.4545 38.2734C89.6666 38.6332 89.93 38.855 90.2446 38.9389C90.5571 39.0126 91.0087 38.9886 91.5995 38.8669C91.6504 38.8564 91.6882 38.8592 91.7128 38.8754C91.7373 38.8916 91.7415 38.9119 91.7253 38.9365C91.7113 38.9713 91.6788 38.9939 91.6278 39.0044C91.2102 39.0904 90.7141 39.182 90.1394 39.2791C89.5669 39.3864 89.2756 39.4411 89.2654 39.4432Z" fill="#F7F3F0"/>
<path d="M109.619 32.9923C109.586 34.1983 109.001 35.1858 107.866 35.9551C106.732 36.7036 105.297 37.0638 103.56 37.0359C103.63 37.4956 103.762 37.8114 103.955 37.9833C104.148 38.1448 104.473 38.2372 104.93 38.2604C104.961 38.2613 104.982 38.2723 104.992 38.2933C105.012 38.3147 105.016 38.3357 105.005 38.3562C104.994 38.3767 104.968 38.3863 104.927 38.3852C104.636 38.377 104.293 38.357 103.898 38.3251C103.504 38.3036 103.301 38.2927 103.291 38.2924L101.029 38.2289C101.019 38.2286 100.816 38.2281 100.421 38.2275C100.036 38.2374 99.6923 38.2382 99.3908 38.2297C99.3596 38.2289 99.3339 38.2177 99.3137 38.1964C99.3039 38.1753 99.3045 38.1545 99.3155 38.134C99.3368 38.1138 99.3631 38.1041 99.3943 38.105C99.852 38.1074 100.182 38.0335 100.384 37.8831C100.596 37.7226 100.751 37.4148 100.847 36.9597C99.1111 36.8902 97.6981 36.4499 96.6076 35.639C95.5278 34.818 95.005 33.7993 95.0391 32.583C95.0727 31.3875 95.6569 30.4051 96.7917 29.6358C97.9159 28.8767 99.3411 28.5109 101.067 28.5386C101.007 28.0999 100.875 27.7997 100.671 27.6379C100.478 27.466 100.153 27.3685 99.6964 27.3452C99.6652 27.3444 99.6395 27.3332 99.6193 27.3119C99.6095 27.2908 99.61 27.27 99.621 27.2495C99.6424 27.2293 99.6687 27.2196 99.6999 27.2205C100.001 27.2289 100.344 27.249 100.728 27.2806C101.123 27.3021 101.326 27.3129 101.336 27.3132L103.597 27.3767C103.607 27.377 103.81 27.3775 104.206 27.3782C104.601 27.3685 104.945 27.3677 105.236 27.3759C105.319 27.3782 105.344 27.4049 105.311 27.4561C105.3 27.4869 105.274 27.5018 105.232 27.5006C104.785 27.4985 104.455 27.5777 104.242 27.7382C104.04 27.8886 103.897 28.181 103.812 28.6156C105.548 28.6748 106.955 29.12 108.035 29.9515C109.125 30.7832 109.653 31.7968 109.619 32.9923ZM103.549 36.8795C104.589 36.8983 105.399 36.5621 105.98 35.8709C106.562 35.1798 106.865 34.1999 106.89 32.9313C106.912 30.2789 105.874 28.8972 103.776 28.7863C103.727 29.045 103.694 29.4863 103.676 30.11L103.523 35.5679C103.506 36.1812 103.514 36.6184 103.549 36.8795ZM97.7832 32.6756C97.7271 33.933 97.9697 34.9282 98.5109 35.6612C99.0525 36.3839 99.8377 36.7649 100.867 36.8042C100.915 36.5455 100.949 36.1094 100.966 35.4961L101.119 30.0382C101.136 29.4145 101.128 28.9721 101.094 28.711C100.053 28.713 99.253 29.0547 98.6929 29.736C98.133 30.407 97.8298 31.3868 97.7832 32.6756Z" fill="#F7F3F0"/>
<path d="M116.918 40.4773C115.146 39.9814 113.839 39.0758 112.997 37.7604C112.155 36.4451 111.957 34.9912 112.403 33.3987C112.851 31.7963 113.795 30.6403 115.236 29.9309C116.689 29.2143 118.282 29.0983 120.015 29.583C121.807 30.0845 123.125 30.9929 123.966 32.3082C124.815 33.6364 125.017 35.0967 124.571 36.6892C124.126 38.2816 123.176 39.4362 121.723 40.1528C120.283 40.8622 118.681 40.9704 116.918 40.4773ZM117.383 40.3804C118.207 40.6001 119.019 40.4764 119.819 40.0091C120.722 39.4841 121.39 38.3318 121.823 36.5523C122.165 35.1361 122.185 33.7538 121.882 32.4055C121.736 31.7277 121.462 31.1435 121.06 30.6529C120.667 30.1651 120.179 29.8449 119.595 29.6925C118.758 29.4799 117.94 29.6073 117.139 30.0746C116.247 30.6024 115.581 31.7661 115.142 33.5657C114.803 34.9719 114.778 36.3527 115.069 37.7083C115.224 38.3888 115.499 38.968 115.895 39.4458C116.3 39.9264 116.796 40.238 117.383 40.3804Z" fill="#F7F3F0"/>
<path d="M136.735 48.9915C136.762 49.0069 136.775 49.0262 136.774 49.0494C136.782 49.0777 136.771 49.0958 136.743 49.1037C136.724 49.1166 136.701 49.1154 136.673 49.1001C136.411 48.9515 136.113 48.7707 135.779 48.5579C135.45 48.3592 135.28 48.2573 135.271 48.2522L133.303 47.1376C133.294 47.1325 133.115 47.0371 132.766 46.8514C132.412 46.6748 132.108 46.5147 131.854 46.3712C131.782 46.3302 131.772 46.2948 131.825 46.2649C131.849 46.2429 131.88 46.2421 131.916 46.2626C132.302 46.4456 132.608 46.5289 132.832 46.5125C133.056 46.4962 133.289 46.3592 133.531 46.1015C133.778 45.8348 134.105 45.3627 134.512 44.6852L138.448 37.735L134.335 35.4058L133.756 36.333C133.67 36.4636 133.537 36.657 133.356 36.9131C133.184 37.1743 133.03 37.4039 132.894 37.6018C132.772 37.7958 132.676 37.9561 132.604 38.0828L132.004 39.0158C130.836 40.8044 129.642 42.0887 128.424 42.8687C127.483 43.4955 126.66 43.609 125.954 43.2092C125.664 43.0452 125.473 42.8351 125.379 42.5787C125.299 42.3185 125.323 42.0752 125.451 41.849C125.61 41.5684 125.842 41.4011 126.148 41.347C126.459 41.2839 126.768 41.3395 127.075 41.5137C127.528 41.7699 127.926 42.1863 128.268 42.7629C129.468 41.9959 130.645 40.7084 131.8 38.9005L132.498 37.8259C132.503 37.8168 132.592 37.6817 132.764 37.4204C133.079 36.9058 133.298 36.4979 133.421 36.1969C133.543 35.8959 133.583 35.6255 133.54 35.3857C133.501 35.1369 133.391 34.9309 133.208 34.7678C133.04 34.6008 132.766 34.398 132.387 34.1595C132.342 34.1339 132.316 34.1069 132.308 34.0786C132.3 34.0502 132.31 34.0321 132.338 34.0243C132.367 34.0164 132.404 34.0253 132.449 34.051C132.802 34.2508 133.204 34.4905 133.655 34.7699C134.121 35.0455 134.358 35.1858 134.367 35.1909L140.652 38.75C140.661 38.7551 140.836 38.8479 141.175 39.0285C141.53 39.2052 141.838 39.3678 142.1 39.5164C142.128 39.5318 142.14 39.5511 142.139 39.5743C142.147 39.6026 142.137 39.6207 142.109 39.6286C142.089 39.6416 142.066 39.6404 142.039 39.625C141.739 39.4791 141.497 39.3897 141.312 39.3569C141.142 39.3202 140.954 39.357 140.748 39.4675C140.551 39.5831 140.355 39.7709 140.16 40.0309C139.979 40.287 139.735 40.675 139.429 41.1947L136.738 45.9458C136.45 46.4759 136.24 46.8888 136.109 47.1847C135.991 47.4767 135.933 47.7369 135.936 47.9652C135.947 48.1986 136.009 48.3835 136.124 48.5198C136.252 48.6522 136.456 48.8094 136.735 48.9915Z" fill="#F7F3F0"/>
<path d="M148.507 59.5185C148.53 59.5401 148.538 59.562 148.531 59.5842C148.532 59.6136 148.521 59.6322 148.499 59.6401C148.477 59.6479 148.451 59.6374 148.421 59.6086C148.203 59.3999 147.959 59.1513 147.688 58.8629C147.417 58.5891 147.278 58.4486 147.271 58.4414L145.638 56.8762C145.63 56.869 145.48 56.7324 145.188 56.4665C144.896 56.2153 144.641 55.9853 144.423 55.7766C144.4 55.755 144.389 55.7295 144.388 55.7001C144.395 55.6779 144.41 55.6629 144.431 55.655C144.461 55.6544 144.487 55.6649 144.509 55.6865C144.846 55.9662 145.125 56.1258 145.347 56.1652C145.568 56.2047 145.828 56.1293 146.126 55.9391C146.43 55.7414 146.864 55.3644 147.426 54.8082L151.117 50.9564L143.575 51.1606C143.05 51.7381 142.699 52.1795 142.522 52.4848C142.344 52.7902 142.28 53.0527 142.329 53.2723C142.377 53.4919 142.545 53.7605 142.831 54.0781C142.876 54.1213 142.884 54.1579 142.856 54.1879C142.827 54.218 142.79 54.2114 142.745 54.1682C142.527 53.9595 142.287 53.7145 142.023 53.4333C141.753 53.1595 141.613 53.019 141.606 53.0118L139.962 51.4358C139.954 51.4286 139.808 51.2956 139.523 51.0369C139.231 50.7856 138.976 50.5557 138.758 50.347C138.713 50.3038 138.705 50.2672 138.734 50.2372C138.762 50.2071 138.799 50.2137 138.844 50.2569C139.174 50.5294 139.449 50.6854 139.671 50.7248C139.892 50.7643 140.152 50.6889 140.449 50.4987C140.754 50.301 141.187 49.924 141.749 49.3678L145.527 45.4259C146.059 44.8409 146.414 44.3958 146.591 44.0904C146.776 43.7776 146.844 43.5113 146.795 43.2917C146.746 43.0721 146.579 42.8035 146.293 42.4859C146.247 42.4427 146.239 42.4061 146.268 42.3761C146.297 42.346 146.334 42.3526 146.379 42.3958C146.597 42.6045 146.837 42.8495 147.101 43.1307C147.371 43.4045 147.51 43.545 147.518 43.5522L149.162 45.1282C149.17 45.1354 149.316 45.2684 149.601 45.5271C149.893 45.7784 150.148 46.0083 150.366 46.217C150.411 46.2602 150.419 46.2968 150.39 46.3268C150.361 46.3569 150.324 46.3503 150.279 46.3071C149.95 46.0346 149.674 45.8786 149.453 45.8392C149.231 45.7997 148.968 45.8789 148.664 46.0766C148.366 46.2668 147.936 46.64 147.374 47.1962L143.78 50.9466L151.312 50.7537C151.808 50.221 152.141 49.7983 152.311 49.4858C152.481 49.1732 152.534 48.9073 152.47 48.688C152.422 48.4683 152.251 48.2108 151.957 47.9155C151.935 47.8939 151.923 47.8684 151.923 47.839C151.93 47.8168 151.944 47.8018 151.966 47.7939C151.995 47.7933 152.021 47.8038 152.044 47.8254C152.262 48.0341 152.502 48.2791 152.766 48.5603C153.044 48.8413 153.186 48.9854 153.194 48.9926L154.827 50.5578C154.835 50.565 154.981 50.698 155.266 50.9567C155.565 51.2152 155.824 51.4487 156.042 51.6574C156.102 51.715 156.103 51.7518 156.044 51.7677C156.015 51.783 155.986 51.7763 155.956 51.7475C155.626 51.475 155.351 51.319 155.129 51.2796C154.908 51.2401 154.645 51.3193 154.34 51.517C154.042 51.7072 153.613 52.0804 153.051 52.6366L149.273 56.5785C148.741 57.1635 148.382 57.6124 148.198 57.9253C148.02 58.2306 147.956 58.4931 148.005 58.7127C148.054 58.9323 148.221 59.2009 148.507 59.5185Z" fill="#F7F3F0"/>
<path d="M152.74 66.0168C151.744 64.4684 151.369 62.9231 151.614 61.3809C151.859 59.8387 152.677 58.6205 154.068 57.7263C155.467 56.8264 156.941 56.5899 158.489 57.0166C160.051 57.4465 161.319 58.4182 162.292 59.9316C163.298 61.4975 163.679 63.0516 163.434 64.5938C163.186 66.1504 162.367 67.3758 160.976 68.27C159.585 69.1642 158.108 69.3964 156.546 68.9665C154.998 68.5397 153.73 67.5565 152.74 66.0168ZM153.151 66.253C153.621 66.9647 154.31 67.4118 155.219 67.5943C156.242 67.8017 157.507 67.3843 159.013 66.342C160.21 65.5109 161.143 64.4907 161.812 63.2816C162.154 62.6786 162.337 62.06 162.362 61.4257C162.393 60.8002 162.241 60.2366 161.906 59.7348C161.421 59.0199 160.725 58.5713 159.816 58.3888C158.798 58.1902 157.528 58.6176 156.004 59.6711C154.816 60.4966 153.881 61.5124 153.197 62.7184C152.861 63.3302 152.682 63.946 152.66 64.5658C152.644 65.1945 152.808 65.7569 153.151 66.253Z" fill="#F7F3F0"/>
<path d="M167.347 96.4079L166.801 90.7245L167.034 90.7021L167.58 96.3856L167.347 96.4079Z" fill="#F7F3F0"/>
<circle opacity="0.4" cx="100.996" cy="100.002" r="4" fill="#FDF1EC"/>
</svg>
