<svg width="46" height="41" viewBox="0 0 46 41" fill="none" xmlns="http://www.w3.org/2000/svg">
<path d="M18.3373 0L19.4831 1.31727C15.2273 4.3909 11.3535 8.39759 7.86153 13.3374C4.69696 18.0576 3.00556 22.174 2.78731 25.6867C5.62451 24.1499 7.80697 23.3815 9.33469 23.3815C11.9536 23.3815 14.1361 24.1499 15.8821 25.6867C17.628 27.2236 18.501 29.3092 18.501 31.9438C18.501 34.3588 17.628 36.4993 15.8821 38.3655C14.1361 40.1218 12.0082 41 9.49837 41C6.66118 41 4.36959 40.1218 2.62363 38.3655C0.87766 36.6091 0.00467672 34.249 0.00467672 31.2851C-0.104446 24.9183 1.69608 18.9357 5.40626 13.3374C9.11644 7.84873 13.4268 3.40295 18.3373 0ZM44.8542 0L46 1.31727C41.7442 4.3909 37.8703 8.39759 34.3784 13.3374C31.2138 18.0576 29.5224 22.174 29.3042 25.6867C32.1414 24.1499 34.3238 23.3815 35.8516 23.3815C38.4705 23.3815 40.653 24.1499 42.3989 25.6867C44.1449 27.2236 45.0179 29.3092 45.0179 31.9438C45.0179 34.3588 44.1449 36.4993 42.3989 38.3655C40.653 40.1218 38.5251 41 36.0153 41C33.1781 41 30.8865 40.1218 29.1405 38.3655C27.3945 36.6091 26.5216 34.249 26.5216 31.2851C26.4124 24.9183 28.213 18.9357 31.9231 13.3374C35.6333 7.84873 39.9437 3.40295 44.8542 0Z" fill="#B55A2B"/>
</svg>
