<svg width="32" height="22" viewBox="0 0 32 22" fill="none" xmlns="http://www.w3.org/2000/svg">
<path d="M1.09301 13.4855C1.09301 13.4855 -0.766639 12.2298 0.365433 10.9859C1.26045 10.0038 2.31681 10.5531 3.01589 11.2619C3.71497 11.9707 10.6129 18.5141 10.6129 18.5141L29.2087 0.641381C29.2087 0.641381 30.4385 -0.619759 31.4859 0.394814C31.6555 0.535046 31.7894 0.708959 31.878 0.906045C31.9666 1.10313 32.0087 1.31831 31.9985 1.53264C31.9882 1.74698 31.926 1.95489 31.819 2.14341C31.712 2.33192 31.5618 2.4959 31.3796 2.62071C31.0046 2.97048 12.0279 21.1721 12.0279 21.1721C11.855 21.4124 11.627 21.612 11.3618 21.7557C11.0965 21.8994 10.8014 21.982 10.4972 22C10.2059 21.9746 9.92394 21.8879 9.67275 21.7444C9.42155 21.6009 9.20609 21.4055 9.04438 21.1721L1.09301 13.4855Z" fill="url(#paint0_linear_1_990)"/>
<defs>
<linearGradient id="paint0_linear_1_990" x1="16" y1="0" x2="16" y2="22" gradientUnits="userSpaceOnUse">
<stop stop-color="#00AFAA"/>
<stop offset="1" stop-color="#00539B"/>
</linearGradient>
</defs>
</svg>
