<svg width="253" height="50" viewBox="0 0 253 50" fill="none" xmlns="http://www.w3.org/2000/svg">
<path d="M133.242 15.7212H145.042C150.348 25.0209 157.997 32.7381 167.213 38.0896V49.9998C159.332 47.2873 152.171 42.787 146.282 36.8445C140.393 30.9021 135.932 23.6759 133.242 15.7212Z" fill="#000300"/>
<path d="M167.213 15.7214H145.042C142.242 10.8036 140.146 5.51067 138.816 0L151.706 0C155.826 0.0150124 159.772 1.67836 162.678 4.62539C165.585 7.57243 167.216 11.5627 167.213 15.7214Z" fill="#000300"/>
<path d="M182.788 31.4313V44.3736C177.327 43.0358 172.083 40.9198 167.213 38.0896V15.7212C171.342 15.7212 175.302 17.376 178.222 20.3219C181.143 23.2678 182.785 27.2637 182.788 31.4313Z" fill="#000300"/>
<path d="M167.09 0C167.934 3.88774 169.865 7.44969 172.653 10.2641C175.442 13.0785 178.97 15.0275 182.822 15.8802V0H167.09Z" fill="#000300"/>
<path d="M208.657 19.4078V35.4015H203.814V19.4078H198.678V15.6533H213.793V19.4078H208.657ZM238.998 17.4568C240.626 16.1357 242.641 15.3941 244.729 15.347C250.348 15.347 252.989 19.3284 252.989 25.0453C252.989 32.2481 248.977 35.9346 243.167 35.9346C237.358 35.9346 234.312 32.2481 234.312 23.7636C234.312 16.7082 235.953 11.8988 238.335 9.56211C240.043 7.83797 241.976 7.00993 245.257 6.1592C247.258 5.63743 249.202 5.34251 249.943 5.0249L251.719 9.07436C250.753 9.67554 248.966 10.0499 245.392 10.7985C241.302 11.6265 239.436 13.0671 238.987 17.4115L238.998 17.4568ZM243.493 31.9532C246.685 31.9532 247.876 29.3216 247.876 25.5671C247.876 22.1642 246.909 19.4078 243.639 19.4078C242.169 19.3241 240.718 19.7748 239.549 20.6783C239.387 22.1847 239.334 23.7012 239.391 25.2155C239.391 29.2763 240.661 31.9078 243.493 31.9078V31.9532ZM227.862 35.3561L221.31 26.1229V35.3561H216.4V15.6533H221.31V24.2853L227.12 15.6533H232.48L226.154 24.5916L233.593 35.4015L227.862 35.3561Z" fill="#000300"/>
<path d="M8.74274 38.4412C7.51492 38.4502 6.28994 38.3209 5.09057 38.0555V46.835H0V16.1295H3.8994L4.28147 19.0447C6.14689 16.7761 8.05725 15.5283 10.8554 15.5283C16.4179 15.5283 18.789 20.281 18.789 26.2815C18.789 32.9966 15.7324 38.4412 8.74274 38.4412ZM9.75411 19.7252C8.14715 19.7252 6.91103 20.5419 5.09057 22.9807V33.5977C6.17586 34.1654 7.38593 34.4464 8.60789 34.4144C11.7881 34.4144 13.4512 31.6694 13.4512 26.7919C13.4849 22.9353 12.6421 19.7252 9.75411 19.7252Z" fill="#000300"/>
<path d="M34.1505 20.7123C33.5063 20.4846 32.8322 20.3546 32.1502 20.3267C30.9703 20.3267 29.9028 21.461 28.0373 24.1379V38.0898H22.9468V16.1298H26.8911L27.3631 19.7709C29.2735 16.765 30.4534 15.5286 32.4537 15.5286C33.2169 15.5064 33.978 15.6216 34.7011 15.8689L34.1505 20.7123Z" fill="#000300"/>
<path d="M39.5333 38.0896V20.0656H36.5667V16.1296H44.6239V38.0896H39.5333ZM41.9494 12.6586C41.5375 12.6781 41.1261 12.6104 40.7416 12.4599C40.3572 12.3093 40.0082 12.0792 39.7172 11.7843C39.4261 11.4894 39.1994 11.1364 39.0516 10.7478C38.9038 10.3592 38.8383 9.94366 38.8591 9.52794C38.8336 9.09869 38.8953 8.6687 39.0404 8.26441C39.1856 7.86012 39.4111 7.49007 39.7032 7.17701C39.9953 6.86396 40.3477 6.61451 40.7388 6.44401C41.1299 6.2735 41.5515 6.18555 41.9775 6.18555C42.4035 6.18555 42.825 6.2735 43.2161 6.44401C43.6072 6.61451 43.9597 6.86396 44.2517 7.17701C44.5438 7.49007 44.7694 7.86012 44.9145 8.26441C45.0597 8.6687 45.1214 9.09869 45.0959 9.52794C45.1138 9.94779 45.0444 10.3668 44.892 10.7579C44.7397 11.1489 44.5077 11.5034 44.2112 11.7984C43.9147 12.0934 43.5603 12.3224 43.1707 12.4706C42.7811 12.6187 42.365 12.6828 41.9494 12.6586Z" fill="#000300"/>
<path d="M66.3909 16.1294C64.7714 23.5841 62.6578 30.9207 60.0642 38.0895H54.1758C51.5498 30.9314 49.4355 23.5926 47.8491 16.1294H53.1082C54.1309 20.8821 55.2771 25.5441 56.6256 30.0926C56.884 30.9887 57.1874 32.0096 57.3897 32.9511C57.6032 32.0096 57.8954 30.9887 58.1539 30.0473C59.4237 25.4193 60.5362 20.6666 61.3341 16.1294H66.3909Z" fill="#000300"/>
<path d="M80.977 38.0897L80.6399 35.8211C79.8671 36.7105 78.9148 37.4227 77.8468 37.9098C76.7789 38.397 75.62 38.6478 74.448 38.6455C70.4587 38.6455 67.7056 36.3769 67.7056 32.0099C67.7056 27.087 71.3915 24.9545 77.5383 24.9545H79.9094V23.5366C79.9094 20.7576 79.0217 19.4305 75.9201 19.4305C73.9194 19.4725 71.946 19.9079 70.1104 20.7122L69.2339 17.0144C71.572 16.0838 74.0588 15.5918 76.5719 15.5625C82.5053 15.5625 84.8876 18.3869 84.8876 23.0602V38.0897H80.977ZM79.8533 28.2894H77.2686C74.1671 28.2894 72.7737 29.4917 72.7737 31.7603C72.7208 32.1679 72.7586 32.5823 72.8842 32.9734C73.0098 33.3644 73.2202 33.7223 73.5 34.021C73.7798 34.3197 74.122 34.5518 74.5017 34.7003C74.8815 34.8488 75.2893 34.9101 75.6954 34.8797C77.3923 34.8797 78.6733 33.8588 79.8982 32.4863L79.8533 28.2894Z" fill="#000300"/>
<path d="M100.159 38.0558C98.87 38.4068 97.5392 38.5786 96.2038 38.5662C92.9899 38.5662 90.7761 37.1484 90.7761 32.4864V20.0658H88.0229V16.1298H90.7761L91.9673 9.74365H95.8667V16.1298H100.159V20.0658H95.8667V30.819C95.8667 33.8589 96.5859 34.4147 98.5862 34.4147H100.159V38.0558Z" fill="#000300"/>
<path d="M120.893 28.1985H107.958C107.958 32.2253 109.363 34.5847 113.307 34.5847C115.502 34.588 117.686 34.2709 119.791 33.6432L120.308 37.4544C117.792 38.2266 115.173 38.6091 112.543 38.5887C105.924 38.5887 102.744 34.9136 102.744 27.2457C102.744 19.9635 106.115 15.4717 112.453 15.4717C118.443 15.4717 120.938 19.3283 120.938 25.6804C120.938 26.2362 120.893 27.3478 120.893 28.1985ZM115.937 24.7956C116.061 21.3927 114.813 19.2376 112.206 19.2376C109.273 19.2376 108.048 22.0166 107.958 24.7956H115.937Z" fill="#000300"/>
</svg>
