<svg width="1449" height="233" viewBox="0 0 1449 233" fill="none" xmlns="http://www.w3.org/2000/svg">
<path d="M94.6992 8.32941C123.066 8.32941 145.827 16.6525 162.983 33.2987C180.308 49.7751 188.971 71.602 188.971 98.7795C188.971 125.447 179.714 147.699 161.199 165.534C142.854 183.369 120.008 192.287 92.6609 192.287C65.1437 192.287 42.8921 184.049 25.9062 167.573C8.92022 151.096 0.427253 129.439 0.427253 102.601C0.427253 76.1033 9.51473 53.7668 27.6897 35.5918C45.8646 17.4169 68.2011 8.32941 94.6992 8.32941ZM98.2662 188.975C116.951 188.975 132.578 181.671 145.147 167.063C157.887 152.625 164.087 132.072 163.747 105.404C164.087 80.2648 157.122 58.268 142.854 39.4137C128.756 20.5593 111.43 11.3019 90.8773 11.6417C72.1928 11.6417 56.4808 19.1155 43.7414 34.0631C31.1718 49.0107 25.1418 69.6486 25.6514 95.9768C25.9911 121.456 32.8704 143.368 46.2893 161.712C59.878 180.057 77.2037 189.145 98.2662 188.975ZM361.354 192.032C336.724 192.032 315.407 183.794 297.402 167.318C279.397 150.841 270.394 129.439 270.394 103.111C270.394 75.0841 279.142 52.323 296.637 34.8275C314.303 17.1621 335.96 8.32941 361.609 8.32941C369.252 8.32941 377.236 9.17871 385.559 10.8773C394.222 12.406 399.402 13.1704 401.101 13.1704C406.366 13.1704 410.273 9.26363 412.821 1.45011C413.331 0.770667 413.84 0.770667 414.35 1.45011L434.223 77.632C434.223 77.9717 434.054 78.2265 433.714 78.3964C433.544 78.5662 433.289 78.5662 432.949 78.3964C432.61 78.2265 432.355 77.9717 432.185 77.632C428.108 66.0816 422.928 55.7202 416.643 46.5477C410.358 37.3754 403.734 30.4111 396.769 25.6551C384.03 16.1429 371.545 11.3869 359.315 11.3869C341.99 11.3869 327.042 18.7758 314.473 33.5535C302.073 47.9916 295.873 67.4405 295.873 91.9002C295.873 117.889 303.432 139.206 318.549 155.852C333.837 172.159 353.116 180.312 376.386 180.312C407.64 180.312 431.166 161.797 446.963 124.768C447.642 124.089 448.322 124.004 449.001 124.513C449.681 124.853 449.85 125.447 449.511 126.297C429.637 170.12 400.252 192.032 361.354 192.032ZM547.937 189.484H531.885L518.127 189.994C509.124 190.164 500.971 190.249 493.667 190.249C492.308 190.249 491.629 189.909 491.629 189.23C491.798 188.55 492.478 188.21 493.667 188.21C504.198 188.21 511.672 187.446 516.088 185.917C520.674 184.389 523.902 180.906 525.77 175.471C527.809 170.035 528.828 161.288 528.828 149.228V13.9348H515.834C501.395 13.9348 489.335 19.0306 479.653 29.2221C470.141 39.2438 461.563 56.4845 453.92 80.9443C453.58 81.4538 453.155 81.7086 452.646 81.7086C452.306 81.5388 452.221 81.1141 452.391 80.4347L468.443 1.45011C468.613 0.770667 469.037 0.770667 469.717 1.45011C472.265 5.35687 476.001 7.98969 480.927 9.34857C486.023 10.5376 494.346 11.1321 505.897 11.1321H573.671C585.221 11.1321 593.544 10.5376 598.64 9.34857C603.736 7.98969 607.473 5.35687 609.851 1.45011C610.53 0.770667 611.04 0.770667 611.379 1.45011L627.431 80.4347C627.601 81.1141 627.431 81.5388 626.922 81.7086C626.582 81.7086 626.242 81.4538 625.902 80.9443C618.259 56.3147 609.596 39.0739 599.914 29.2221C590.232 19.0306 578.172 13.9348 563.734 13.9348H550.994V149.228C550.994 161.458 552.014 170.29 554.052 175.726C556.09 180.991 559.317 184.389 563.734 185.917C567.98 187.446 575.454 188.21 586.155 188.21C586.835 188.21 587.344 188.38 587.684 188.72C588.024 189.06 588.024 189.399 587.684 189.739C587.514 190.079 587.005 190.249 586.155 190.249C578.851 190.249 570.613 190.164 561.441 189.994L547.937 189.484ZM818.228 10.3677C819.078 10.3677 819.417 10.7074 819.247 11.3869C819.078 11.8965 818.738 12.1512 818.228 12.1512C805.659 12.491 792.834 25.4003 779.755 50.8792L738.989 130.373L731.6 144.387C722.597 161.373 715.803 172.583 711.217 178.019C703.573 187.361 694.825 192.032 684.974 192.032C677.5 192.032 670.536 190.249 664.081 186.682C657.796 182.945 654.654 178.359 654.654 172.923C654.654 170.205 655.588 167.912 657.456 166.044C659.325 164.005 661.873 162.986 665.1 162.986C675.461 162.986 683.785 171.734 690.069 189.23C700.77 188.89 712.491 176.065 725.23 150.756L672.744 48.3313C665.1 33.8932 658.9 24.3811 654.144 19.7949C649.048 14.869 642.084 12.3211 633.251 12.1512C632.572 12.1512 632.232 11.8965 632.232 11.3869C632.402 10.8773 632.742 10.5376 633.251 10.3677C637.838 10.3677 643.103 10.4527 649.048 10.6225L657.966 11.1321H677.839L687.776 10.6225C694.401 10.4527 700.261 10.3677 705.357 10.3677C706.036 10.3677 706.376 10.6225 706.376 11.1321C706.206 11.6417 705.866 11.9814 705.357 12.1512C695.165 12.3211 689.39 15.0388 688.031 20.3045C686.842 25.5701 689.73 34.9124 696.694 48.3313L737.205 127.061L774.914 53.9366C781.199 42.3862 782.643 32.6193 779.245 24.6359C776.188 16.4827 768.714 12.406 756.824 12.406C756.314 12.406 755.89 12.2362 755.55 11.8965C755.38 11.5567 755.38 11.217 755.55 10.8773C755.89 10.5376 756.314 10.3677 756.824 10.3677C761.071 10.3677 768.799 10.5376 780.01 10.8773C785.615 11.0472 790.626 11.1321 795.042 11.1321C797.76 11.1321 800.818 11.0472 804.215 10.8773C811.009 10.5376 815.68 10.3677 818.228 10.3677ZM1007.07 10.3677C1007.92 10.3677 1008.43 10.6225 1008.6 11.1321C1008.43 11.4718 1007.92 11.8115 1007.07 12.1512C1003.33 12.3211 1000.53 12.5759 998.661 12.9156C996.962 13.0855 995.009 13.4252 992.8 13.9348C990.762 14.4443 989.318 15.3786 988.469 16.7374C987.62 17.9265 986.685 19.2853 985.666 20.8141C984.817 22.1729 984.223 24.466 983.883 27.6934C983.543 30.7508 983.203 33.8932 982.864 37.1206C982.694 40.3479 982.524 44.8492 982.354 50.6244V186.682H1005.29V185.917L1005.79 201.714C1005.96 212.246 1006.05 221.758 1006.05 230.251C1006.05 231.27 1005.88 231.864 1005.54 232.034C1005.2 232.374 1004.86 232.374 1004.52 232.034C1004.18 231.694 1004.01 231.1 1004.01 230.251C1004.01 220.399 1003.67 213.435 1002.99 209.358C1002.48 205.111 1000.78 201.12 997.896 197.383C995.348 194.156 991.781 192.032 987.195 191.013C982.609 189.994 975.475 189.484 965.793 189.484H868.209C858.527 189.484 851.393 189.994 846.806 191.013C842.22 192.032 838.568 194.156 835.85 197.383C833.303 200.78 831.604 204.687 830.755 209.103C830.075 213.519 829.735 220.569 829.735 230.251C829.735 231.27 829.481 231.949 828.971 232.289C828.631 231.949 828.292 231.27 827.952 230.251C827.952 221.758 828.122 212.246 828.462 201.714L828.716 185.917V186.682H843.749C852.412 186.172 858.866 181.501 863.113 172.668C867.359 163.836 870.162 149.652 871.521 130.119L876.362 67.95L877.891 50.6244C878.57 39.2438 877.976 30.6659 876.107 24.8907C874.578 19.7949 871.776 16.4826 867.699 14.9539C863.622 13.2553 856.488 12.3211 846.297 12.1512C845.617 12.1512 845.108 11.8965 844.768 11.3869C844.938 11.0472 845.447 10.7074 846.297 10.3677C851.393 10.3677 856.658 10.4527 862.094 10.6225C867.529 10.6225 872.03 10.7074 875.597 10.8773C879.165 11.0472 881.288 11.1321 881.967 11.1321H980.316L989.743 10.6225C996.028 10.4527 1001.8 10.3677 1007.07 10.3677ZM854.195 186.682H960.187V13.9348H883.241C883.071 23.7866 881.797 41.1972 879.419 66.1665L874.578 129.354C873.389 146 871.181 158.91 867.954 168.082C864.896 177.085 860.31 183.285 854.195 186.682ZM1228.06 188.465C1228.74 188.465 1229.17 188.72 1229.34 189.23C1229.17 189.739 1228.74 190.079 1228.06 190.249C1222.97 190.249 1217.19 190.164 1210.74 189.994L1201.06 189.484H1183.22L1173.54 189.994C1167.08 190.164 1161.31 190.249 1156.21 190.249C1155.53 190.249 1155.11 189.994 1154.94 189.484C1155.11 188.975 1155.53 188.635 1156.21 188.465C1159.95 188.295 1162.67 188.126 1164.37 187.956C1166.24 187.616 1168.19 187.191 1170.23 186.682C1172.44 186.172 1173.96 185.323 1174.81 184.134C1175.66 182.775 1176.51 181.416 1177.36 180.057C1178.38 178.528 1179.06 176.235 1179.4 173.178C1179.74 169.951 1179.99 166.723 1180.16 163.496C1180.5 160.269 1180.76 155.767 1180.93 149.992V50.6244V49.86L1073.92 155.597C1074.26 163.751 1074.68 169.781 1075.19 173.687C1075.87 177.594 1077.23 180.737 1079.27 183.115C1081.48 185.493 1083.77 186.936 1086.15 187.446C1088.69 187.786 1092.86 188.126 1098.63 188.465C1099.31 188.465 1099.74 188.72 1099.91 189.23C1099.74 189.739 1099.31 190.079 1098.63 190.249C1093.54 190.249 1087.85 190.079 1081.56 189.739C1075.28 189.569 1072.05 189.484 1071.88 189.484H1054.04C1053.87 189.484 1050.65 189.569 1044.36 189.739C1038.08 190.079 1032.3 190.249 1027.04 190.249C1026.53 190.249 1026.1 189.994 1025.76 189.484C1025.93 188.975 1026.36 188.635 1027.04 188.465C1030.77 188.295 1033.49 188.126 1035.19 187.956C1037.06 187.616 1039.01 187.191 1041.05 186.682C1043.26 186.172 1044.79 185.323 1045.64 184.134C1046.48 182.775 1047.33 181.416 1048.18 180.057C1049.2 178.528 1049.88 176.235 1050.22 173.178C1050.56 169.951 1050.82 166.723 1050.99 163.496C1051.33 160.269 1051.58 155.767 1051.75 149.992V50.6244C1051.58 44.8492 1051.33 40.3479 1050.99 37.1206C1050.82 33.8932 1050.56 30.7508 1050.22 27.6934C1049.88 24.466 1049.2 22.1729 1048.18 20.8141C1047.33 19.2853 1046.48 17.9265 1045.64 16.7374C1044.79 15.3786 1043.26 14.4443 1041.05 13.9348C1039.01 13.4252 1037.06 13.0855 1035.19 12.9156C1033.49 12.5759 1030.77 12.3211 1027.04 12.1512C1026.53 12.1512 1026.1 11.8965 1025.76 11.3869C1025.93 10.8773 1026.36 10.5376 1027.04 10.3677C1032.3 10.3677 1038.08 10.5376 1044.36 10.8773C1050.65 11.0472 1053.87 11.1321 1054.04 11.1321H1071.88C1072.05 11.1321 1075.28 11.0472 1081.56 10.8773C1087.85 10.5376 1093.54 10.3677 1098.63 10.3677C1099.31 10.3677 1099.82 10.6225 1100.16 11.1321C1099.99 11.4718 1099.48 11.8115 1098.63 12.1512C1094.89 12.3211 1092.09 12.5759 1090.22 12.9156C1088.52 13.0855 1086.57 13.4252 1084.36 13.9348C1082.32 14.4443 1080.88 15.3786 1080.03 16.7374C1079.18 17.9265 1078.25 19.2853 1077.23 20.8141C1076.38 22.1729 1075.79 24.466 1075.45 27.6934C1075.11 30.7508 1074.77 33.8932 1074.43 37.1206C1074.26 40.3479 1074.09 44.8492 1073.92 50.6244V149.992V151.521L1180.93 45.5286C1180.59 30.9207 1178.97 21.7483 1176.09 18.0114C1173.2 14.4443 1166.58 12.491 1156.21 12.1512C1155.53 12.1512 1155.11 11.8965 1154.94 11.3869C1155.11 10.8773 1155.53 10.5376 1156.21 10.3677C1161.31 10.3677 1167.08 10.4527 1173.54 10.6225L1183.22 11.1321H1201.06L1210.74 10.6225C1217.19 10.4527 1222.97 10.3677 1228.06 10.3677C1228.74 10.3677 1229.17 10.6225 1229.34 11.1321C1229.17 11.6417 1228.74 11.9814 1228.06 12.1512C1222.12 12.1512 1217.79 12.5759 1215.07 13.4252C1212.35 14.1046 1209.97 15.7183 1207.94 18.2662C1204.71 22.5127 1203.09 33.2987 1203.09 50.6244V149.992C1203.09 167.318 1204.71 178.104 1207.94 182.35C1209.97 184.898 1212.35 186.597 1215.07 187.446C1217.79 188.126 1222.12 188.465 1228.06 188.465ZM1447.02 188.465C1447.7 188.465 1448.13 188.72 1448.3 189.23C1448.13 189.739 1447.7 190.079 1447.02 190.249C1441.93 190.249 1436.15 190.164 1429.7 189.994L1420.02 189.484H1402.18L1392.5 189.994C1386.04 190.164 1380.27 190.249 1375.17 190.249C1374.49 190.249 1374.07 189.994 1373.9 189.484C1374.07 188.975 1374.49 188.635 1375.17 188.465C1378.91 188.295 1381.63 188.126 1383.33 187.956C1385.19 187.616 1387.15 187.191 1389.19 186.682C1391.39 186.172 1392.92 185.323 1393.77 184.134C1394.62 182.775 1395.47 181.416 1396.32 180.057C1397.34 178.528 1398.02 176.235 1398.36 173.178C1398.7 169.951 1398.95 166.723 1399.12 163.496C1399.46 160.269 1399.72 155.767 1399.89 149.992V50.6244V49.86L1292.88 155.597C1293.22 163.751 1293.64 169.781 1294.15 173.687C1294.83 177.594 1296.19 180.737 1298.23 183.115C1300.43 185.493 1302.73 186.936 1305.11 187.446C1307.65 187.786 1311.82 188.126 1317.59 188.465C1318.27 188.465 1318.69 188.72 1318.86 189.23C1318.69 189.739 1318.27 190.079 1317.59 190.249C1312.49 190.249 1306.8 190.079 1300.52 189.739C1294.24 189.569 1291.01 189.484 1290.84 189.484H1273C1272.83 189.484 1269.61 189.569 1263.32 189.739C1257.04 190.079 1251.26 190.249 1246 190.249C1245.49 190.249 1245.06 189.994 1244.72 189.484C1244.89 188.975 1245.32 188.635 1246 188.465C1249.73 188.295 1252.45 188.126 1254.15 187.956C1256.02 187.616 1257.97 187.191 1260.01 186.682C1262.22 186.172 1263.75 185.323 1264.59 184.134C1265.44 182.775 1266.29 181.416 1267.14 180.057C1268.16 178.528 1268.84 176.235 1269.18 173.178C1269.52 169.951 1269.78 166.723 1269.95 163.496C1270.28 160.269 1270.54 155.767 1270.71 149.992V50.6244C1270.54 44.8492 1270.28 40.3479 1269.95 37.1206C1269.78 33.8932 1269.52 30.7508 1269.18 27.6934C1268.84 24.466 1268.16 22.1729 1267.14 20.8141C1266.29 19.2853 1265.44 17.9265 1264.59 16.7374C1263.75 15.3786 1262.22 14.4443 1260.01 13.9348C1257.97 13.4252 1256.02 13.0855 1254.15 12.9156C1252.45 12.5759 1249.73 12.3211 1246 12.1512C1245.49 12.1512 1245.06 11.8965 1244.72 11.3869C1244.89 10.8773 1245.32 10.5376 1246 10.3677C1251.26 10.3677 1257.04 10.5376 1263.32 10.8773C1269.61 11.0472 1272.83 11.1321 1273 11.1321H1290.84C1291.01 11.1321 1294.24 11.0472 1300.52 10.8773C1306.8 10.5376 1312.49 10.3677 1317.59 10.3677C1318.27 10.3677 1318.78 10.6225 1319.12 11.1321C1318.95 11.4718 1318.44 11.8115 1317.59 12.1512C1313.85 12.3211 1311.05 12.5759 1309.18 12.9156C1307.48 13.0855 1305.53 13.4252 1303.32 13.9348C1301.28 14.4443 1299.84 15.3786 1298.99 16.7374C1298.14 17.9265 1297.21 19.2853 1296.19 20.8141C1295.34 22.1729 1294.74 24.466 1294.4 27.6934C1294.07 30.7508 1293.73 33.8932 1293.39 37.1206C1293.22 40.3479 1293.05 44.8492 1292.88 50.6244V149.992V151.521L1399.89 45.5286C1399.55 30.9207 1397.93 21.7483 1395.05 18.0114C1392.16 14.4443 1385.53 12.491 1375.17 12.1512C1374.49 12.1512 1374.07 11.8965 1373.9 11.3869C1374.07 10.8773 1374.49 10.5376 1375.17 10.3677C1380.27 10.3677 1386.04 10.4527 1392.5 10.6225L1402.18 11.1321H1420.02L1429.7 10.6225C1436.15 10.4527 1441.93 10.3677 1447.02 10.3677C1447.7 10.3677 1448.13 10.6225 1448.3 11.1321C1448.13 11.6417 1447.7 11.9814 1447.02 12.1512C1441.08 12.1512 1436.75 12.5759 1434.03 13.4252C1431.31 14.1046 1428.93 15.7183 1426.9 18.2662C1423.67 22.5127 1422.05 33.2987 1422.05 50.6244V149.992C1422.05 167.318 1423.67 178.104 1426.9 182.35C1428.93 184.898 1431.31 186.597 1434.03 187.446C1436.75 188.126 1441.08 188.465 1447.02 188.465Z" fill="#B55A2B"/>
</svg>
