<svg width="201" height="200" viewBox="0 0 201 200" fill="none" xmlns="http://www.w3.org/2000/svg">
<path d="M100.004 0.5C154.956 0.5 199.504 45.0477 199.504 100C199.504 154.952 154.956 199.5 100.004 199.5C45.0516 199.5 0.503906 154.952 0.503906 100C0.503906 45.0477 45.0516 0.5 100.004 0.5Z" stroke="#B55A2B"/>
<path d="M111.878 38.85L105.847 37.8424C105.836 37.8407 105.635 37.8124 105.244 37.7576C104.851 37.713 104.516 37.6676 104.239 37.6213C104.177 37.611 104.15 37.5854 104.157 37.5443C104.165 37.493 104.2 37.4725 104.262 37.4828C104.841 37.548 105.253 37.4216 105.495 37.1037C105.74 36.7755 105.97 36.0284 106.186 34.8625L106.998 30.0002C107.171 28.8377 107.191 28.0606 107.056 27.669C106.931 27.2791 106.589 27.0217 106.03 26.8967C105.968 26.8864 105.941 26.8607 105.948 26.8197C105.957 26.7684 105.992 26.7479 106.053 26.7582C106.33 26.8045 106.662 26.8704 107.048 26.956C107.436 27.0314 107.635 27.07 107.646 27.0717L112.369 27.8607C114.185 28.164 115.452 28.5654 116.17 29.0649C116.898 29.5662 117.187 30.2681 117.036 31.1708C116.943 31.7247 116.595 32.1674 115.992 32.4989C115.388 32.8304 114.684 33.0344 113.881 33.1111C113.089 33.1792 112.265 33.1575 111.408 33.0461L111.393 33.1384C112.761 33.3458 113.976 33.707 115.039 34.222C115.645 34.5129 116.097 34.8678 116.396 35.2868C116.705 35.7075 116.819 36.1641 116.736 36.6564C116.57 37.6515 116.093 38.3309 115.305 38.6948C114.528 39.0501 113.386 39.1019 111.878 38.85ZM110.54 30.1964L110.108 32.7814L110.308 32.8148C112.083 33.1113 113.112 32.4081 113.397 30.7053C113.527 29.9257 113.404 29.3042 113.028 28.8407C112.654 28.3669 112.082 28.0658 111.313 27.9373L111.067 27.8962C110.889 28.3936 110.713 29.1604 110.54 30.1964ZM110.362 33.0611L110.07 33.0122L109.574 35.9819C109.392 37.0692 109.316 37.8052 109.347 38.1899L109.578 38.2285C110.583 38.3964 111.386 38.2933 111.986 37.9191C112.586 37.5448 112.954 36.9526 113.09 36.1422C113.234 35.2805 113.064 34.5931 112.58 34.08C112.096 33.5669 111.357 33.2273 110.362 33.0611Z" fill="#B55A2B"/>
<path d="M122.808 42.2015C121.181 41.5633 120.021 40.5772 119.326 39.2434C118.651 37.9172 118.629 36.4505 119.26 34.8434C119.849 33.3428 120.893 32.2893 122.394 31.6827C123.908 31.0702 125.512 31.0964 127.206 31.7613C127.671 31.9436 128.127 32.1618 128.575 32.4157C129.056 32.6714 129.344 32.8182 129.441 32.8562C129.983 33.0689 130.414 32.9531 130.734 32.5088C130.807 32.4368 130.845 32.452 130.85 32.5544L129.765 38.0946C129.75 38.1333 129.728 38.1469 129.699 38.1356C129.67 38.1242 129.658 38.0972 129.663 38.0547C129.68 36.7876 129.395 35.5081 128.807 34.2161C128.225 32.9375 127.624 32.1767 127.005 31.9335C126.317 31.6638 125.626 31.789 124.93 32.3092C124.248 32.8235 123.682 33.6519 123.234 34.7943C122.657 36.2658 122.523 37.5877 122.834 38.7598C123.155 39.9358 123.993 40.7898 125.348 41.3216C126.2 41.656 127.068 41.6223 127.952 41.2206C128.67 40.8992 129.338 40.4632 129.957 39.9126C129.997 39.8949 130.023 39.8996 130.035 39.9265C130.056 39.9573 130.057 39.9853 130.035 40.0105C129.732 40.3273 129.42 40.6239 129.1 40.9002C128.81 41.1551 128.422 41.4329 127.935 41.7335C127.435 42.0399 126.944 42.2662 126.462 42.4123C125.294 42.7695 124.076 42.6992 122.808 42.2015Z" fill="#B55A2B"/>
<path d="M141.739 47.2207C141.784 47.1885 141.816 47.1968 141.834 47.2456L141.83 47.2803L137.821 51.203C137.752 51.27 137.722 51.2502 137.729 51.1433C137.659 50.4518 137.292 49.8902 136.63 49.4586L130.475 45.4463C130.466 45.4406 130.293 45.3342 129.957 45.1271C129.614 44.9287 129.325 44.7529 129.09 44.5995C129.038 44.5655 129.023 44.531 129.046 44.4961C129.074 44.4526 129.114 44.4478 129.167 44.4819C129.672 44.7738 130.099 44.8227 130.449 44.6287C130.805 44.426 131.315 43.8337 131.98 42.8519L134.672 38.7222C135.296 37.7263 135.625 37.0219 135.658 36.6091C135.7 36.2019 135.49 35.8291 135.028 35.4906C134.975 35.4565 134.96 35.4221 134.983 35.3872C135.012 35.3437 135.052 35.3389 135.104 35.373C135.339 35.5263 135.617 35.7196 135.937 35.9528C136.262 36.1774 136.429 36.2925 136.438 36.2981L141.665 39.7056C142.118 40.0009 142.546 40.1927 142.948 40.2808C143.358 40.3746 143.675 40.3454 143.899 40.1931C143.993 40.1431 144.024 40.163 143.99 40.2527L141.992 45.7469C141.975 45.7731 141.949 45.7748 141.914 45.752C141.888 45.735 141.879 45.7106 141.887 45.6788C142.146 44.1963 142.011 42.7741 141.484 41.4123C140.953 40.0361 140.248 39.0611 139.368 38.4875L139.133 38.3342L136.347 42.6077L136.975 43.0166C137.619 43.4368 138.205 43.5952 138.732 43.4917C139.276 43.3995 139.67 43.1661 139.915 42.7915C139.949 42.7392 139.983 42.7244 140.018 42.7471C140.053 42.7699 140.053 42.8074 140.019 42.8596L137.923 46.0745C137.906 46.1007 137.884 46.1168 137.855 46.1229C137.832 46.1202 137.814 46.1088 137.802 46.0888C137.796 46.06 137.802 46.0325 137.819 46.0064C138.097 45.5795 138.156 45.1087 137.995 44.594C137.848 44.0763 137.465 43.6158 136.847 43.2126L136.219 42.8037L133.425 47.0903L133.648 47.2351C134.284 47.6497 135.385 47.9888 136.951 48.2524C137.742 48.3711 138.573 48.3539 139.443 48.2007C140.318 48.0387 141.083 47.7121 141.739 47.2207Z" fill="#B55A2B"/>
<path d="M147.539 59.6282L143.473 55.0601C143.466 55.0524 143.328 54.9043 143.057 54.616C142.779 54.3346 142.546 54.0891 142.36 53.8793C142.318 53.8327 142.313 53.7956 142.344 53.7679C142.383 53.7333 142.423 53.7393 142.465 53.786C142.875 54.2003 143.275 54.3598 143.663 54.2646C144.06 54.1624 144.708 53.725 145.607 52.9523L149.29 49.675C150.154 48.8782 150.656 48.285 150.796 47.8954C150.944 47.5135 150.839 47.0986 150.482 46.6506C150.441 46.604 150.435 46.5668 150.467 46.5392C150.505 46.5046 150.546 46.5106 150.587 46.5572C150.774 46.767 150.991 47.0264 151.238 47.3354C151.493 47.6376 151.624 47.7925 151.631 47.8003L154.815 51.3778C156.038 52.7529 156.773 53.8601 157.019 54.6995C157.272 55.5466 157.056 56.2744 156.373 56.8828C155.953 57.2562 155.404 57.3826 154.726 57.2621C154.048 57.1416 153.372 56.8592 152.698 56.4148C152.039 55.9713 151.411 55.4375 150.814 54.8134L150.744 54.8756C151.679 55.895 152.399 56.9388 152.904 58.0068C153.193 58.613 153.322 59.173 153.292 59.6869C153.269 60.2086 153.071 60.6353 152.698 60.9672C151.945 61.6379 151.147 61.8677 150.305 61.6566C149.477 61.4463 148.555 60.7702 147.539 59.6282ZM151.925 52.0494L149.967 53.7917L150.102 53.9432C151.298 55.2872 152.541 55.3854 153.83 54.2376C154.421 53.7122 154.715 53.151 154.713 52.5542C154.719 51.9505 154.462 51.3573 153.944 50.7747L153.778 50.5882C153.327 50.864 152.709 51.3511 151.925 52.0494ZM149.989 54.1687L149.792 53.9473L147.543 55.949C146.72 56.6819 146.199 57.2077 145.982 57.5265L146.137 57.7013C146.815 58.4627 147.505 58.8859 148.207 58.971C148.909 59.056 149.567 58.8255 150.181 58.2793C150.833 57.6985 151.132 57.0566 151.078 56.3536C151.023 55.6506 150.66 54.9223 149.989 54.1687Z" fill="#B55A2B"/>
<path d="M158.213 76.3378C158.243 76.3926 158.235 76.4324 158.189 76.4572C158.152 76.477 158.119 76.4595 158.09 76.4047C157.956 76.1578 157.804 75.8557 157.634 75.4983C157.455 75.1459 157.362 74.9652 157.358 74.956L155.826 72.1308C155.821 72.1216 155.72 71.9458 155.522 71.6033C155.316 71.2658 155.146 70.9736 155.012 70.7267C154.982 70.6719 154.986 70.6345 155.022 70.6147C155.068 70.5899 155.106 70.605 155.135 70.6598C155.44 71.157 155.793 71.4036 156.193 71.3997C156.602 71.3908 157.333 71.113 158.385 70.5663L162.472 68.351L156.505 66.7055L156.341 66.7947C155.308 67.378 154.677 67.8386 154.446 68.1767C154.224 68.5098 154.238 68.9397 154.489 69.4666C154.518 69.5215 154.51 69.5613 154.465 69.5861C154.428 69.6059 154.395 69.5884 154.365 69.5335C154.231 69.2867 154.079 68.9846 153.909 68.6272C153.73 68.2748 153.638 68.094 153.633 68.0849L152.102 65.2596C152.097 65.2505 151.996 65.0747 151.798 64.7322C151.591 64.3947 151.421 64.1025 151.287 63.8556C151.258 63.8007 151.261 63.7634 151.298 63.7436C151.343 63.7188 151.381 63.7338 151.411 63.7887C151.716 64.2858 152.068 64.5325 152.468 64.5285C152.878 64.5196 153.608 64.2419 154.661 63.6952L158.995 61.346C160.018 60.7677 160.642 60.305 160.868 59.9578C161.099 59.6198 161.092 59.1919 160.847 58.6741C160.817 58.6193 160.82 58.5819 160.857 58.5621C160.903 58.5373 160.94 58.5524 160.97 58.6072C161.104 58.8541 161.256 59.1562 161.426 59.5136C161.605 59.866 161.697 60.0467 161.702 60.0559L163.233 62.8811C163.238 62.8903 163.34 63.0661 163.537 63.4086C163.744 63.7461 163.914 64.0383 164.048 64.2852C164.077 64.34 164.07 64.3798 164.024 64.4046C163.987 64.4244 163.954 64.4069 163.924 64.3521C163.624 63.8641 163.267 63.6199 162.853 63.6197C162.444 63.6285 161.718 63.9039 160.675 64.4456L156.821 66.5345L162.76 68.1949C163.738 67.6646 164.347 67.2163 164.586 66.8501C164.83 66.493 164.825 66.0581 164.571 65.5453C164.541 65.4904 164.545 65.4531 164.581 65.4332C164.627 65.4085 164.665 65.4235 164.695 65.4784C164.828 65.7252 164.98 66.0273 165.15 66.3847C165.329 66.7371 165.422 66.9179 165.427 66.927L166.958 69.7523C166.963 69.7614 167.064 69.9372 167.262 70.2797C167.468 70.6172 167.638 70.9094 167.772 71.1563C167.802 71.2112 167.794 71.251 167.748 71.2758C167.712 71.2956 167.678 71.2781 167.649 71.2232C167.349 70.7352 166.992 70.4911 166.577 70.4908C166.168 70.4997 165.442 70.775 164.399 71.3167L160.065 73.6658C159.033 74.2491 158.401 74.7098 158.17 75.0478C157.949 75.3809 157.963 75.8109 158.213 76.3378Z" fill="#B55A2B"/>
<path d="M161.951 89.3658L161.996 89.3536C161.665 89.4433 161.315 89.5436 160.946 89.6542C160.209 89.8756 159.624 90.0448 159.193 90.1618C159.123 90.1808 159.07 90.1844 159.034 90.1724C158.999 90.1605 158.992 90.1354 159.014 90.0972C159.038 90.0689 159.086 90.0453 159.156 90.0262C160.142 89.7268 160.753 89.3566 160.989 88.9155C161.225 88.4744 161.209 87.6813 160.942 86.5361L159.244 80.2724C159.002 79.4976 158.753 78.9349 158.496 78.5842C158.232 78.2463 157.914 78.0469 157.542 77.9861C157.162 77.9381 156.629 77.9965 155.941 78.1614C155.871 78.1804 155.816 78.179 155.778 78.157C155.742 78.1451 155.737 78.125 155.762 78.0968C155.786 78.0686 155.834 78.0449 155.904 78.0259C156.707 77.8083 157.296 77.6541 157.67 77.5635C157.82 77.5227 157.981 77.4792 158.152 77.433C158.315 77.3995 158.442 77.3705 158.532 77.346C158.625 77.3316 158.692 77.3189 158.732 77.308L158.687 77.3203L159.091 78.8109C159.387 79.3879 160.562 79.4682 162.615 79.0519L166.199 78.323L166.889 78.1845C168.019 77.8999 168.724 77.5796 169.005 77.2234C169.298 76.8745 169.354 76.3045 169.172 75.5134C169.158 75.4632 169.158 75.4253 169.173 75.3998C169.188 75.3743 169.208 75.3688 169.233 75.3835C169.269 75.3954 169.293 75.4265 169.307 75.4766C169.397 75.8079 169.511 76.2673 169.648 76.855C169.717 77.1488 169.787 77.4262 169.858 77.6872L171.771 84.7489C171.774 84.7589 171.832 84.9533 171.946 85.332C172.069 85.708 172.167 86.0315 172.241 86.3026C172.257 86.3628 172.24 86.3997 172.19 86.4133C172.15 86.4242 172.122 86.3995 172.105 86.3393C171.926 85.7954 171.634 85.4756 171.231 85.3801C170.831 85.2947 170.061 85.3956 168.921 85.6829L161.498 87.6945L161.951 89.3658ZM159.201 79.2174L160.576 84.2916L170.664 81.5578L169.664 77.8689L166.551 78.4864L162.751 79.2574C162.176 79.3595 161.712 79.4368 161.359 79.4891C161.017 79.5387 160.621 79.549 160.172 79.52C159.742 79.4856 159.419 79.3847 159.201 79.2174Z" fill="#B55A2B"/>
<path d="M167.193 102.149C167.247 102.167 167.259 102.197 167.23 102.241L167.2 102.258L161.663 101.36C161.568 101.345 161.566 101.308 161.657 101.251C162.171 100.784 162.406 100.156 162.36 99.3665L161.935 92.0312C161.934 92.0208 161.917 91.8186 161.884 91.4247C161.841 91.0314 161.811 90.6945 161.794 90.4142C161.791 90.3519 161.81 90.3196 161.851 90.3172C161.903 90.3141 161.931 90.3438 161.935 90.4061C161.999 90.9857 162.214 91.3587 162.578 91.5252C162.952 91.691 163.731 91.75 164.916 91.7022L169.837 91.417C171.009 91.3283 171.771 91.1748 172.123 90.9564C172.476 90.7485 172.651 90.3581 172.649 89.7853C172.646 89.723 172.665 89.6906 172.706 89.6882C172.758 89.6852 172.786 89.7148 172.79 89.7771C172.806 90.0575 172.815 90.3955 172.817 90.7912C172.83 91.1864 172.836 91.3891 172.837 91.3995L173.198 97.6291C173.229 98.169 173.328 98.6268 173.496 99.0025C173.664 99.3886 173.876 99.6264 174.131 99.7158C174.228 99.7623 174.23 99.7986 174.137 99.8248L168.53 101.478C168.498 101.48 168.482 101.46 168.479 101.418C168.477 101.387 168.492 101.366 168.522 101.353C169.869 100.682 170.934 99.7291 171.716 98.4962C172.509 97.2523 172.875 96.106 172.814 95.0573L172.798 94.777L167.705 95.0721L167.749 95.8196C167.793 96.5879 168.013 97.1534 168.409 97.5159C168.807 97.8991 169.229 98.0778 169.675 98.0519C169.737 98.0483 169.77 98.0673 169.772 98.1088C169.774 98.1504 169.744 98.1729 169.682 98.1765L165.851 98.3985C165.82 98.4003 165.793 98.3914 165.771 98.3719C165.76 98.3517 165.759 98.331 165.768 98.3096C165.787 98.2876 165.813 98.2757 165.844 98.2739C166.353 98.2445 166.766 98.0121 167.085 97.577C167.414 97.1516 167.558 96.5703 167.515 95.8332L167.472 95.0856L162.363 95.3816L162.379 95.6464C162.423 96.4043 162.803 97.4917 163.521 98.9086C163.895 99.6161 164.402 100.274 165.042 100.883C165.692 101.491 166.409 101.913 167.193 102.149Z" fill="#B55A2B"/>
<path d="M162.081 114.501C161.238 113.078 160.974 111.401 161.289 109.472C161.604 107.542 162.387 106.036 163.638 104.955C164.898 103.885 166.349 103.484 167.991 103.752C169.633 104.02 170.877 104.861 171.721 106.273C172.576 107.688 172.845 109.365 172.528 111.305C172.212 113.245 171.424 114.75 170.164 115.819C168.913 116.901 167.466 117.307 165.824 117.04C164.192 116.773 162.944 115.927 162.081 114.501ZM161.457 109.989C161.221 111.889 162.619 113.008 165.652 113.344C167.007 113.502 168.374 113.42 169.755 113.097C170.477 112.93 171.072 112.643 171.539 112.234C172.015 111.838 172.288 111.355 172.36 110.787C172.428 110.24 172.348 109.732 172.119 109.262C171.662 108.313 170.329 107.701 168.119 107.424C166.806 107.273 165.434 107.35 164.004 107.654C163.291 107.822 162.702 108.111 162.235 108.519C161.778 108.93 161.519 109.42 161.457 109.989Z" fill="#B55A2B"/>
<path d="M158.533 131.152L161.047 126.025L161.257 126.129L158.743 131.255L158.533 131.152Z" fill="#B55A2B"/>
<path d="M145.193 142.544L149.308 138.021C149.315 138.013 149.448 137.86 149.706 137.56C149.957 137.254 150.176 136.997 150.365 136.789C150.407 136.743 150.444 136.734 150.474 136.762C150.513 136.797 150.511 136.837 150.469 136.884C150.1 137.335 149.984 137.75 150.119 138.126C150.263 138.509 150.766 139.108 151.629 139.921L155.275 143.238C156.159 144.014 156.801 144.451 157.204 144.549C157.599 144.656 158 144.508 158.408 144.106C158.45 144.06 158.487 144.051 158.518 144.079C158.556 144.114 158.554 144.154 158.512 144.2C158.323 144.408 158.088 144.651 157.807 144.93C157.533 145.215 157.393 145.361 157.386 145.369L154.163 148.912C152.924 150.273 151.901 151.121 151.092 151.453C150.276 151.794 149.529 151.656 148.853 151.04C148.437 150.662 148.254 150.13 148.302 149.443C148.351 148.756 148.56 148.054 148.931 147.337C149.303 146.635 149.768 145.954 150.326 145.294L150.256 145.231C149.341 146.268 148.379 147.094 147.37 147.709C146.797 148.06 146.254 148.248 145.74 148.272C145.219 148.304 144.774 148.152 144.404 147.816C143.658 147.137 143.346 146.368 143.467 145.508C143.589 144.663 144.164 143.675 145.193 142.544ZM153.191 146.108L151.253 144.345L151.116 144.495C149.905 145.826 149.939 147.072 151.216 148.234C151.8 148.766 152.389 148.999 152.983 148.934C153.583 148.877 154.146 148.559 154.671 147.982L154.839 147.797C154.518 147.378 153.968 146.815 153.191 146.108ZM150.88 144.407L151.08 144.187L148.852 142.161C148.037 141.42 147.459 140.957 147.119 140.775L146.962 140.948C146.276 141.702 145.928 142.432 145.917 143.139C145.906 143.847 146.205 144.477 146.813 145.03C147.459 145.618 148.128 145.847 148.822 145.719C149.515 145.59 150.201 145.153 150.88 144.407Z" fill="#B55A2B"/>
<path d="M136.457 149.907C137.873 148.884 139.33 148.442 140.828 148.579C142.308 148.729 143.554 149.504 144.564 150.904C145.508 152.211 145.829 153.659 145.527 155.249C145.223 156.854 144.333 158.189 142.858 159.254C142.453 159.546 142.023 159.812 141.567 160.051C141.092 160.317 140.812 160.481 140.728 160.542C140.256 160.882 140.12 161.308 140.321 161.817C140.342 161.917 140.308 161.941 140.22 161.89L136.147 157.98C136.123 157.947 136.123 157.921 136.148 157.902C136.174 157.884 136.203 157.889 136.235 157.916C137.292 158.616 138.523 159.068 139.927 159.273C141.317 159.475 142.282 159.381 142.822 158.991C143.421 158.559 143.689 157.91 143.628 157.043C143.565 156.191 143.174 155.268 142.456 154.273C141.53 152.991 140.491 152.164 139.337 151.791C138.174 151.425 137.003 151.667 135.822 152.52C135.08 153.055 134.639 153.803 134.499 154.764C134.38 155.542 134.386 156.34 134.514 157.158C134.507 157.201 134.489 157.221 134.46 157.216C134.423 157.218 134.399 157.203 134.389 157.171C134.287 156.745 134.206 156.322 134.147 155.903C134.09 155.521 134.066 155.044 134.076 154.472C134.089 153.886 134.165 153.351 134.302 152.866C134.634 151.691 135.352 150.704 136.457 149.907Z" fill="#B55A2B"/>
<path d="M122.192 163.062C122.195 163.118 122.17 163.141 122.12 163.129L122.093 163.107L120.937 157.619C120.917 157.525 120.95 157.51 121.036 157.573C121.657 157.885 122.328 157.878 123.047 157.551L129.738 154.513C129.747 154.509 129.93 154.42 130.285 154.247C130.636 154.065 130.94 153.916 131.196 153.8C131.252 153.774 131.289 153.78 131.307 153.818C131.328 153.865 131.31 153.902 131.254 153.928C130.736 154.197 130.465 154.531 130.441 154.93C130.421 155.339 130.647 156.088 131.118 157.176L133.156 161.664C133.661 162.726 134.079 163.381 134.409 163.631C134.73 163.885 135.157 163.908 135.691 163.7C135.748 163.674 135.785 163.68 135.802 163.718C135.824 163.765 135.806 163.802 135.749 163.828C135.494 163.944 135.181 164.074 134.813 164.219C134.449 164.373 134.262 164.452 134.253 164.456L128.571 167.036C128.079 167.26 127.687 167.517 127.397 167.809C127.097 168.105 126.952 168.388 126.96 168.658C126.952 168.765 126.919 168.78 126.861 168.703L123.299 164.067C123.286 164.039 123.299 164.016 123.337 163.999C123.365 163.986 123.391 163.991 123.413 164.015C124.525 165.03 125.797 165.68 127.229 165.966C128.675 166.258 129.876 166.187 130.832 165.752L131.088 165.636L128.979 160.991L128.297 161.301C127.596 161.619 127.148 162.028 126.952 162.528C126.738 163.037 126.723 163.495 126.908 163.902C126.934 163.959 126.928 163.996 126.89 164.013C126.852 164.03 126.82 164.01 126.794 163.954L125.208 160.459C125.195 160.431 125.193 160.403 125.204 160.375C125.218 160.357 125.237 160.349 125.261 160.35C125.288 160.36 125.308 160.379 125.321 160.408C125.532 160.872 125.898 161.174 126.418 161.314C126.934 161.469 127.528 161.393 128.2 161.088L128.882 160.778L126.766 156.119L126.525 156.229C125.834 156.543 124.956 157.29 123.893 158.469C123.368 159.073 122.936 159.783 122.598 160.599C122.265 161.424 122.129 162.245 122.192 163.062Z" fill="#B55A2B"/>
<path d="M108.568 161.246L114.611 160.307C114.621 160.306 114.821 160.27 115.21 160.199C115.597 160.117 115.93 160.055 116.207 160.012C116.269 160.003 116.303 160.018 116.309 160.06C116.317 160.111 116.29 160.141 116.229 160.151C115.658 160.271 115.307 160.52 115.176 160.898C115.047 161.287 115.063 162.068 115.225 163.243L115.981 168.114C116.182 169.273 116.408 170.016 116.659 170.346C116.9 170.677 117.305 170.814 117.875 170.757C117.937 170.747 117.971 170.763 117.977 170.804C117.985 170.855 117.958 170.886 117.897 170.896C117.619 170.939 117.284 170.98 116.89 171.02C116.498 171.071 116.297 171.097 116.286 171.098L111.554 171.833C109.735 172.115 108.406 172.132 107.568 171.883C106.719 171.636 106.224 171.061 106.084 170.156C105.998 169.601 106.189 169.072 106.658 168.567C107.127 168.063 107.731 167.648 108.47 167.323C109.2 167.01 109.989 166.771 110.837 166.608L110.823 166.516C109.459 166.748 108.192 166.787 107.021 166.632C106.355 166.546 105.814 166.351 105.399 166.047C104.973 165.745 104.722 165.347 104.645 164.854C104.49 163.857 104.73 163.062 105.364 162.469C105.989 161.888 107.058 161.48 108.568 161.246ZM112.557 169.041L112.155 166.451L111.954 166.482C110.177 166.758 109.42 167.749 109.685 169.455C109.806 170.236 110.118 170.788 110.621 171.109C111.125 171.442 111.762 171.548 112.533 171.428L112.78 171.39C112.792 170.862 112.718 170.079 112.557 169.041ZM111.826 166.265L112.119 166.22L111.657 163.245C111.488 162.155 111.328 161.433 111.179 161.077L110.947 161.113C109.94 161.269 109.21 161.619 108.758 162.163C108.306 162.707 108.143 163.385 108.269 164.197C108.403 165.06 108.78 165.659 109.4 165.995C110.021 166.33 110.829 166.42 111.826 166.265Z" fill="#B55A2B"/>
<path d="M88.6229 161.162C88.5607 161.157 88.5316 161.128 88.5356 161.077C88.5388 161.035 88.5715 161.017 88.6337 161.022C88.9137 161.043 89.2499 161.08 89.6423 161.131C90.0355 161.172 90.2373 161.192 90.2477 161.193L93.4517 161.441C93.4621 161.442 93.6647 161.452 94.0595 161.472C94.4551 161.482 94.7929 161.498 95.0729 161.519C95.1351 161.524 95.1646 161.547 95.1614 161.589C95.1574 161.641 95.1243 161.664 95.0621 161.659C94.479 161.645 94.0805 161.808 93.8666 162.146C93.6519 162.494 93.4885 163.259 93.3764 164.439L93.0181 169.074L97.6392 164.956L97.6537 164.77C97.7243 163.586 97.6803 162.806 97.5217 162.428C97.3623 162.061 96.9935 161.84 96.4152 161.764C96.353 161.759 96.3239 161.731 96.3279 161.679C96.3311 161.637 96.3638 161.619 96.4261 161.624C96.706 161.646 97.0422 161.682 97.4346 161.733C97.8279 161.774 98.0297 161.795 98.04 161.796L101.244 162.043C101.255 162.044 101.457 162.054 101.852 162.075C102.248 162.084 102.585 162.1 102.865 162.122C102.928 162.126 102.957 162.15 102.954 162.191C102.95 162.243 102.917 162.266 102.855 162.262C102.272 162.248 101.873 162.41 101.659 162.748C101.444 163.097 101.281 163.861 101.169 165.042L100.789 169.956C100.719 171.13 100.769 171.906 100.938 172.284C101.096 172.661 101.46 172.887 102.027 172.962C102.09 172.967 102.119 172.99 102.116 173.032C102.112 173.084 102.079 173.107 102.017 173.102C101.737 173.081 101.4 173.044 101.008 172.993C100.615 172.952 100.413 172.932 100.403 172.931L97.1984 172.683C97.1881 172.682 96.9855 172.672 96.5906 172.652C96.195 172.642 95.8572 172.626 95.5772 172.605C95.515 172.6 95.4859 172.572 95.4899 172.52C95.4931 172.478 95.5258 172.46 95.5881 172.465C96.1608 172.478 96.5597 172.31 96.7847 171.963C96.9994 171.614 97.1624 170.855 97.2737 169.685L97.6116 165.314L92.9929 169.401C92.9071 170.51 92.9531 171.265 93.1308 171.665C93.2982 172.063 93.6662 172.295 94.2349 172.36C94.2971 172.365 94.3266 172.388 94.3234 172.43C94.3194 172.481 94.2863 172.505 94.2241 172.5C93.9441 172.478 93.6079 172.442 93.2155 172.391C92.8223 172.35 92.6205 172.329 92.6101 172.328L89.4061 172.081C89.3957 172.08 89.1931 172.069 88.7983 172.049C88.4026 172.04 88.0649 172.024 87.7849 172.002C87.7227 171.998 87.6936 171.969 87.6976 171.917C87.7008 171.876 87.7335 171.858 87.7957 171.862C88.3684 171.875 88.7673 171.708 88.9924 171.36C89.2071 171.012 89.3701 170.253 89.4814 169.082L89.8613 164.167C89.9319 162.984 89.888 162.203 89.7294 161.826C89.57 161.459 89.2011 161.238 88.6229 161.162Z" fill="#B55A2B"/>
<path d="M75.5924 157.242L75.5781 157.287C75.6828 156.96 75.7889 156.612 75.8964 156.242C76.1114 155.503 76.2871 154.92 76.4236 154.494C76.4458 154.425 76.4715 154.379 76.5009 154.355C76.5302 154.332 76.5549 154.34 76.5751 154.379C76.5854 154.415 76.5795 154.468 76.5573 154.537C76.2728 155.527 76.2516 156.241 76.4935 156.679C76.7355 157.117 77.4097 157.535 78.5161 157.933L84.6963 159.913C85.4784 160.131 86.0863 160.227 86.5202 160.202C86.9473 160.165 87.2875 160.006 87.5408 159.727C87.7873 159.434 88.0284 158.955 88.2639 158.288C88.2862 158.218 88.3169 158.174 88.3561 158.153C88.3854 158.13 88.4052 158.136 88.4155 158.172C88.4258 158.208 88.4199 158.261 88.3976 158.33C88.1438 159.123 87.9532 159.701 87.8259 160.064C87.7783 160.212 87.7276 160.371 87.6736 160.539C87.6129 160.695 87.5683 160.817 87.5398 160.906C87.5013 160.992 87.4757 161.055 87.463 161.094L87.4773 161.05L86.0066 160.579C85.3612 160.514 84.6552 161.456 83.8887 163.406L82.5521 166.81L82.2933 167.465C81.9181 168.568 81.8038 169.334 81.9502 169.763C82.0836 170.199 82.5318 170.555 83.2948 170.832C83.3443 170.848 83.3758 170.869 83.3893 170.895C83.4027 170.922 83.3964 170.941 83.3702 170.955C83.3409 170.978 83.3015 170.982 83.252 170.966C82.9251 170.861 82.4777 170.707 81.9096 170.503C81.6255 170.401 81.3547 170.309 81.0972 170.227L74.1297 167.994C74.1198 167.991 73.925 167.934 73.5455 167.824C73.1628 167.723 72.8378 167.63 72.5703 167.544C72.5109 167.525 72.4891 167.491 72.505 167.441C72.5177 167.402 72.5538 167.391 72.6132 167.41C73.1674 167.555 73.5942 167.484 73.8934 167.198C74.1827 166.908 74.5166 166.207 74.8949 165.094L77.2414 157.77L75.5924 157.242ZM85.6054 160.45L80.5989 158.846L77.41 168.8L81.0498 169.966L82.2239 167.017L83.642 163.408C83.8692 162.87 84.0566 162.438 84.2041 162.114C84.3484 161.8 84.5549 161.462 84.8237 161.1C85.0861 160.759 85.3467 160.542 85.6054 160.45Z" fill="#B55A2B"/>
<path d="M62.0258 154.719C61.982 154.754 61.9497 154.747 61.9291 154.699L61.931 154.665L65.7029 150.513C65.7674 150.442 65.799 150.46 65.7978 150.567C65.9089 151.253 66.3077 151.792 66.994 152.184L73.3746 155.828C73.3836 155.833 73.5623 155.929 73.9107 156.116C74.2642 156.294 74.5629 156.453 74.8067 156.592C74.8609 156.623 74.8777 156.656 74.857 156.692C74.8312 156.738 74.7913 156.745 74.7371 156.714C74.2159 156.452 73.7863 156.428 73.4484 156.642C73.1053 156.866 72.6308 157.487 72.0248 158.506L69.5803 162.787C69.0156 163.818 68.7288 164.54 68.7199 164.954C68.702 165.363 68.9336 165.723 69.4149 166.034C69.4691 166.065 69.4858 166.098 69.4652 166.135C69.4394 166.18 69.3994 166.187 69.3452 166.156C69.1014 166.017 68.813 165.84 68.4802 165.626C68.1421 165.421 67.9686 165.316 67.9596 165.311L62.5408 162.216C62.0712 161.948 61.6332 161.782 61.2269 161.718C60.8115 161.648 60.4967 161.696 60.2826 161.861C60.1911 161.917 60.1595 161.898 60.1878 161.807L61.8599 156.205C61.8754 156.178 61.9012 156.174 61.9373 156.195C61.9644 156.211 61.9747 156.234 61.9683 156.267C61.7971 157.762 62.0149 159.174 62.6216 160.502C63.2321 161.845 63.9935 162.776 64.9056 163.297L65.1495 163.437L67.6791 159.007L67.0288 158.635C66.3605 158.254 65.7665 158.13 65.2466 158.264C64.7088 158.388 64.3289 158.645 64.1072 159.033C64.0762 159.087 64.0427 159.104 64.0066 159.083C63.9705 159.063 63.9679 159.025 63.9988 158.971L65.9018 155.639C65.9173 155.611 65.9392 155.594 65.9676 155.586C65.9908 155.588 66.0089 155.598 66.0218 155.617C66.0295 155.646 66.0257 155.673 66.0102 155.7C65.7575 156.143 65.7267 156.616 65.9177 157.121C66.0946 157.629 66.5036 158.066 67.1449 158.432L67.7951 158.804L70.3324 154.36L70.1022 154.229C69.4429 153.852 68.3237 153.578 66.7448 153.407C65.9476 153.335 65.1194 153.401 64.2604 153.605C63.3962 153.819 62.6513 154.19 62.0258 154.719Z" fill="#B55A2B"/>
<path d="M54.5504 143.856C56.2031 143.919 57.7549 144.606 59.206 145.917C60.657 147.227 61.4979 148.701 61.7285 150.339C61.9445 151.977 61.4948 153.414 60.3796 154.649C59.2643 155.884 57.8842 156.473 56.2393 156.417C54.5874 156.368 53.0321 155.686 51.5733 154.368C50.1146 153.051 49.2772 151.573 49.0612 149.934C48.8306 148.297 49.2729 146.86 50.3881 145.625C51.4964 144.398 52.8839 143.808 54.5504 143.856ZM58.6798 145.778C57.2108 144.549 55.513 145.118 53.5865 147.484C52.7196 148.537 52.0478 149.731 51.5709 151.066C51.3192 151.763 51.2385 152.419 51.3286 153.033C51.4041 153.648 51.6611 154.139 52.0995 154.507C52.5225 154.861 52.9933 155.069 53.5119 155.131C54.5569 155.262 55.7943 154.474 57.2242 152.766C58.0631 151.744 58.7423 150.55 59.2618 149.183C59.5065 148.493 59.5838 147.841 59.4936 147.227C59.3965 146.621 59.1252 146.138 58.6798 145.778Z" fill="#B55A2B"/>
<path d="M44.5359 135.415L47.7926 140.104L47.6004 140.238L44.3438 135.548L44.5359 135.415Z" fill="#B55A2B"/>
<path d="M42.3724 122.017L44.6702 127.684C44.6741 127.694 44.7551 127.88 44.9132 128.242C45.081 128.601 45.2176 128.91 45.3231 129.17C45.3466 129.228 45.339 129.265 45.3005 129.281C45.2523 129.3 45.2165 129.281 45.193 129.223C44.9453 128.695 44.6224 128.411 44.2244 128.37C43.8167 128.333 43.0596 128.528 41.9531 128.954L37.3847 130.807C36.3034 131.268 35.6312 131.658 35.3681 131.978C35.1011 132.288 35.0607 132.714 35.2467 133.256C35.2701 133.314 35.2626 133.35 35.224 133.366C35.1758 133.386 35.14 133.366 35.1166 133.309C35.011 133.048 34.8937 132.731 34.7645 132.357C34.6256 131.987 34.5542 131.797 34.5503 131.788L32.7508 127.349C32.0592 125.643 31.7383 124.354 31.7883 123.481C31.8344 122.598 32.2815 121.984 33.1296 121.641C33.6501 121.43 34.2095 121.495 34.8078 121.836C35.4062 122.176 35.9483 122.669 36.4341 123.314C36.9064 123.953 37.3192 124.667 37.6724 125.455L37.7592 125.42C37.2202 124.146 36.8919 122.921 36.7744 121.745C36.7056 121.077 36.7715 120.506 36.9721 120.032C37.1687 119.548 37.4983 119.213 37.961 119.025C38.8958 118.646 39.7246 118.697 40.4472 119.179C41.1563 119.654 41.798 120.601 42.3724 122.017ZM35.6985 127.686L38.1273 126.701L38.0511 126.513C37.3751 124.846 36.2371 124.337 34.6372 124.985C33.9047 125.282 33.4394 125.712 33.2412 126.275C33.0333 126.842 33.0759 127.487 33.369 128.21L33.4628 128.441C33.9799 128.332 34.7251 128.081 35.6985 127.686ZM38.2328 126.339L38.3442 126.613L41.1343 125.482C42.156 125.068 42.8227 124.747 43.1345 124.52L43.0465 124.303C42.6636 123.358 42.1556 122.728 41.5226 122.412C40.8896 122.097 40.1924 122.093 39.431 122.402C38.6214 122.73 38.1246 123.235 37.9404 123.915C37.7563 124.596 37.8537 125.404 38.2328 126.339Z" fill="#B55A2B"/>
<path d="M39.4963 111.098C39.8039 112.818 39.5713 114.323 38.7983 115.613C38.0217 116.882 36.7837 117.669 35.0842 117.973C33.4974 118.257 32.0528 117.918 30.7505 116.957C29.4361 115.988 28.6187 114.608 28.2982 112.816C28.2103 112.325 28.1573 111.822 28.1393 111.307C28.1055 110.764 28.0794 110.441 28.0611 110.339C27.9585 109.765 27.6343 109.459 27.0884 109.419C26.9889 109.395 26.9816 109.354 27.0664 109.296L32.3547 107.32C32.3957 107.313 32.4189 107.325 32.4244 107.355C32.4299 107.386 32.4131 107.41 32.3739 107.428C31.2856 108.077 30.3449 108.99 29.5518 110.167C28.7671 111.332 28.4333 112.242 28.5505 112.898C28.6805 113.624 29.1493 114.148 29.9567 114.469C30.7521 114.781 31.7538 114.829 32.9618 114.612C34.5179 114.334 35.7139 113.756 36.5499 112.877C37.384 111.988 37.6729 110.827 37.4166 109.394C37.2554 108.493 36.7724 107.771 35.9674 107.229C35.3176 106.785 34.5962 106.444 33.8034 106.205C33.7672 106.18 33.7575 106.155 33.7743 106.131C33.7893 106.097 33.8131 106.082 33.8456 106.087C34.2742 106.179 34.6901 106.29 35.0935 106.418C35.4625 106.532 35.9024 106.717 36.4133 106.975C36.9362 107.24 37.386 107.54 37.7628 107.874C38.6786 108.682 39.2564 109.757 39.4963 111.098Z" fill="#B55A2B"/>
<path d="M33.7987 91.9919C33.7473 91.9697 33.7378 91.9382 33.7701 91.8975L33.8017 91.8828L39.2424 93.247C39.3354 93.2703 39.3344 93.3067 39.2395 93.3562C38.6871 93.7782 38.4002 94.3843 38.3788 95.1744L38.1803 102.519C38.1801 102.53 38.1798 102.732 38.1795 103.128C38.1896 103.523 38.1909 103.862 38.1833 104.142C38.1816 104.205 38.16 104.235 38.1184 104.234C38.0664 104.233 38.0413 104.201 38.0429 104.139C38.0275 103.555 37.8456 103.166 37.4971 102.969C37.1383 102.772 36.3666 102.647 35.182 102.594L30.2542 102.461C29.0789 102.45 28.3066 102.538 27.9374 102.726C27.5685 102.903 27.3607 103.278 27.3141 103.849C27.3124 103.911 27.2907 103.942 27.2492 103.94C27.1972 103.939 27.172 103.907 27.1737 103.845C27.1813 103.564 27.2008 103.226 27.2323 102.832C27.2534 102.437 27.264 102.235 27.2643 102.224L27.4329 95.9866C27.4475 95.446 27.3872 94.9814 27.2521 94.5928C27.1172 94.1938 26.9264 93.939 26.6797 93.8283C26.5876 93.7738 26.5886 93.7374 26.6827 93.7191L32.4104 92.5474C32.4416 92.5483 32.4566 92.5695 32.4555 92.6111C32.4547 92.6422 32.4385 92.6626 32.4071 92.6722C31.0083 93.2274 29.8667 94.0861 28.9822 95.2482C28.087 96.4204 27.6252 97.5316 27.5969 98.5816L27.5893 98.8623L32.6886 99.0001L32.7088 98.2516C32.7296 97.4822 32.5581 96.9002 32.1942 96.5054C31.8309 96.0898 31.4257 95.876 30.9787 95.8639C30.9163 95.8623 30.8857 95.8406 30.8868 95.799C30.888 95.7575 30.9197 95.7375 30.9821 95.7392L34.8183 95.8429C34.8495 95.8437 34.8752 95.8548 34.8954 95.8762C34.9052 95.8972 34.9047 95.918 34.8937 95.9385C34.8724 95.9588 34.8461 95.9685 34.8149 95.9676C34.3055 95.9538 33.8736 96.1503 33.5193 96.5568C33.1549 96.9527 32.9627 97.5197 32.9428 98.2579L32.9225 99.0064L38.0375 99.1446L38.0446 98.8795C38.0651 98.1206 37.778 97.0048 37.1831 95.5322C36.8701 94.7955 36.4208 94.0967 35.8353 93.4359C35.2393 92.7747 34.5605 92.2934 33.7987 91.9919Z" fill="#B55A2B"/>
<path d="M41.2595 80.693L39.4819 86.5441C39.4789 86.5541 39.4249 86.7496 39.32 87.1308C39.225 87.515 39.1367 87.8414 39.0551 88.1101C39.037 88.1698 39.008 88.1937 38.9682 88.1816C38.9184 88.1665 38.9026 88.129 38.9208 88.0693C39.0602 87.5029 38.988 87.0788 38.704 86.7969C38.4102 86.512 37.6991 86.1873 36.5707 85.8228L31.8539 84.3898C30.7234 84.0681 29.9553 83.949 29.5496 84.0323C29.1469 84.1056 28.8475 84.4113 28.6514 84.9495C28.6332 85.0092 28.6043 85.0331 28.5645 85.021C28.5147 85.0059 28.4989 84.9684 28.517 84.9087C28.5987 84.64 28.7069 84.3196 28.8416 83.9475C28.9665 83.5724 29.0304 83.38 29.0334 83.37L30.4255 78.7875C30.9606 77.0262 31.5221 75.8218 32.1101 75.1744C32.7011 74.517 33.4345 74.3214 34.3102 74.5874C34.8475 74.7507 35.2416 75.153 35.4924 75.7944C35.7432 76.4358 35.8547 77.1598 35.827 77.9666C35.7924 78.7604 35.6645 79.5748 35.4434 80.4098L35.533 80.4371C35.9152 79.1076 36.4302 77.9487 37.0782 76.9608C37.4447 76.3983 37.855 75.9959 38.3091 75.7534C38.7662 75.501 39.2336 75.4472 39.7112 75.5923C40.6765 75.8855 41.2887 76.4465 41.5478 77.2752C41.7999 78.0909 41.7038 79.2302 41.2595 80.693ZM32.5056 80.9031L35.0132 81.6649L35.0722 81.4709C35.5952 79.7493 35.0307 78.6378 33.3789 78.136C32.6226 77.9062 31.9904 77.9478 31.4823 78.2609C30.9642 78.5708 30.5918 79.0989 30.3651 79.8452L30.2925 80.084C30.7629 80.3248 31.5005 80.5978 32.5056 80.9031ZM35.3233 81.4494L35.2371 81.733L38.1179 82.6081C39.1727 82.9285 39.8928 83.0984 40.2783 83.1177L40.3463 82.8938C40.6426 81.9186 40.6439 81.1092 40.3503 80.4657C40.0566 79.8221 39.5168 79.381 38.7307 79.1421C37.8948 78.8882 37.1912 78.9679 36.62 79.3814C36.0488 79.7948 35.6165 80.4842 35.3233 81.4494Z" fill="#B55A2B"/>
<path d="M50.1007 62.5699C50.1322 62.516 50.1704 62.5023 50.2153 62.5286C50.2512 62.5496 50.2534 62.587 50.2218 62.6409C50.0799 62.8831 49.9001 63.1695 49.6824 63.5C49.4737 63.8358 49.3667 64.0081 49.3614 64.0171L47.7371 66.79C47.7318 66.7989 47.6338 66.9766 47.443 67.3228C47.2612 67.6743 47.0994 67.9712 46.9574 68.2135C46.9259 68.2674 46.8922 68.2838 46.8563 68.2627C46.8114 68.2365 46.8048 68.1964 46.8363 68.1426C47.1037 67.6243 47.1322 67.195 46.9217 66.8547C46.7023 66.5092 46.0863 66.0279 45.0738 65.4107L41.0626 63.0609L42.7439 69.0177L42.9054 69.1123C43.939 69.6936 44.6601 69.9955 45.0688 70.018C45.4685 70.0352 45.829 69.8004 46.1503 69.3136C46.1818 69.2598 46.22 69.246 46.2649 69.2723C46.3008 69.2933 46.303 69.3308 46.2714 69.3846C46.1295 69.6269 45.9497 69.9133 45.732 70.2438C45.5233 70.5795 45.4163 70.7519 45.411 70.7608L43.7867 73.5337C43.7814 73.5427 43.6834 73.7203 43.4926 74.0666C43.3108 74.4181 43.149 74.715 43.007 74.9573C42.9755 75.0111 42.9418 75.0275 42.9059 75.0065C42.861 74.9802 42.8544 74.9401 42.8859 74.8863C43.1534 74.368 43.1818 73.9387 42.9713 73.5985C42.7519 73.253 42.1359 72.7716 41.1234 72.1544L36.8699 69.6627C35.8453 69.0867 35.1261 68.7919 34.7121 68.7784C34.3034 68.756 33.9411 68.9836 33.625 69.4614C33.5935 69.5153 33.5598 69.5317 33.5239 69.5106C33.479 69.4844 33.4724 69.4443 33.5039 69.3904C33.6458 69.1482 33.8256 68.8618 34.0433 68.5313C34.2521 68.1955 34.3591 68.0232 34.3643 68.0142L35.9886 65.2413C35.9939 65.2324 36.0919 65.0547 36.2827 64.7085C36.4645 64.357 36.6264 64.0601 36.7683 63.8178C36.7998 63.7639 36.838 63.7502 36.8829 63.7764C36.9188 63.7975 36.921 63.8349 36.8894 63.8887C36.6272 64.3981 36.6032 64.83 36.8174 65.1845C37.0369 65.53 37.6484 66.0087 38.6519 66.6206L42.4343 68.8363L40.7799 62.8953C39.8197 62.3329 39.121 62.0441 38.6839 62.0291C38.252 62.0051 37.8825 62.2346 37.5754 62.7177C37.5439 62.7715 37.5102 62.7879 37.4743 62.7669C37.4294 62.7406 37.4227 62.7005 37.4543 62.6467C37.5962 62.4044 37.776 62.118 37.9937 61.7875C38.2025 61.4518 38.3094 61.2794 38.3147 61.2705L39.939 58.4976C39.9443 58.4886 40.0423 58.311 40.2331 57.9647C40.4149 57.6132 40.5767 57.3163 40.7187 57.074C40.7502 57.0202 40.7884 57.0064 40.8333 57.0327C40.8692 57.0537 40.8714 57.0912 40.8398 57.145C40.5776 57.6543 40.5536 58.0862 40.7678 58.4407C40.9873 58.7862 41.5988 59.265 42.6023 59.8769L46.8558 62.3686C47.8893 62.9499 48.6105 63.2518 49.0192 63.2742C49.4189 63.2914 49.7794 63.0566 50.1007 62.5699Z" fill="#B55A2B"/>
<path d="M59.276 52.5833L59.2421 52.5511C59.4908 52.7875 59.7583 53.0345 60.0444 53.2921C60.6165 53.8072 61.0647 54.2188 61.3889 54.5268C61.4416 54.577 61.4722 54.6203 61.4805 54.6569C61.4887 54.6935 61.4708 54.7123 61.4267 54.7135C61.3898 54.707 61.3449 54.6788 61.2922 54.6286C60.5243 53.9419 59.8907 53.6123 59.3911 53.6397C58.8916 53.6671 58.222 54.0925 57.3822 54.9157L52.9116 59.6197C52.3754 60.2292 52.0241 60.7347 51.8577 61.1362C51.7061 61.5373 51.7009 61.9126 51.8422 62.2621C51.9983 62.6112 52.3254 63.0369 52.8237 63.5392C52.8765 63.5893 52.9034 63.6365 52.9045 63.6806C52.9128 63.7171 52.8985 63.7322 52.8615 63.7258C52.8246 63.7194 52.7797 63.6911 52.727 63.6409C52.1239 63.0678 51.6865 62.6449 51.4147 62.3723C51.3016 62.2648 51.181 62.1502 51.0529 62.0284C50.9394 61.9062 50.8488 61.8129 50.7809 61.7484C50.7202 61.6764 50.6748 61.626 50.6447 61.5974L50.6786 61.6296L51.7425 60.5101C52.0815 59.9571 51.54 58.9116 50.1179 57.3735L47.6331 54.6892L47.1565 54.1717C46.3265 53.3542 45.6864 52.918 45.2363 52.8633C44.7858 52.7938 44.2698 53.0423 43.6884 53.6089C43.6525 53.6465 43.6199 53.6658 43.5905 53.6665C43.5611 53.6673 43.546 53.6529 43.5453 53.6235C43.537 53.587 43.5508 53.5498 43.5866 53.5121C43.823 53.2634 44.1565 52.9275 44.5872 52.5046C44.8025 52.2932 45.0033 52.0894 45.1895 51.8934L50.2298 46.5901C50.2369 46.5825 50.3729 46.4319 50.6376 46.1383C50.8948 45.8375 51.1201 45.5853 51.3135 45.3818C51.3565 45.3366 51.3968 45.3319 51.4345 45.3677C51.4647 45.3963 51.4583 45.4333 51.4153 45.4785C51.0439 45.9146 50.922 46.3297 51.0497 46.7237C51.1846 47.1101 51.6708 47.7157 52.5083 48.5404L58.0831 53.8385L59.276 52.5833ZM52.0327 60.2048L55.6543 56.3941L48.0781 49.1937L45.4451 51.9642L47.5902 54.3041L50.2226 57.1502C50.6089 57.5891 50.9159 57.9454 51.1435 58.2192C51.3637 58.4858 51.5781 58.8187 51.7869 59.218C51.9806 59.6029 52.0625 59.9319 52.0327 60.2048Z" fill="#B55A2B"/>
<path d="M67.2024 41.5813C67.1898 41.5267 67.2095 41.5004 67.2615 41.5023L67.2921 41.519L69.4158 46.7106C69.4521 46.7994 69.4222 46.8201 69.3261 46.7729C68.6588 46.5779 68.0006 46.7057 67.3514 47.1566L61.3162 51.3474C61.3076 51.3534 61.144 51.4733 60.8253 51.7073C60.5126 51.9498 60.2409 52.1511 60.0102 52.3113C59.959 52.3468 59.9215 52.3476 59.8978 52.3134C59.8681 52.2707 59.8789 52.2315 59.9302 52.1959C60.3907 51.8381 60.5971 51.4606 60.5491 51.0634C60.4953 50.6576 60.1388 49.9619 59.4796 48.9762L56.6679 44.9271C55.9805 43.9737 55.4519 43.4038 55.082 43.2175C54.7206 43.0253 54.2961 43.0795 53.8084 43.3802C53.7572 43.4158 53.7197 43.4165 53.696 43.3823C53.6663 43.3396 53.6771 43.3004 53.7284 43.2649C53.959 43.1047 54.2426 42.9204 54.579 42.7121C54.9096 42.4952 55.0791 42.3838 55.0877 42.3779L60.2131 38.8188C60.6573 38.5103 60.9959 38.1866 61.2289 37.8475C61.4705 37.5025 61.5628 37.1978 61.5059 36.9335C61.4952 36.8269 61.5251 36.8062 61.5956 36.8712L65.9324 40.7918C65.9502 40.8175 65.9421 40.8421 65.9079 40.8659C65.8823 40.8837 65.8563 40.8827 65.8299 40.863C64.5541 40.065 63.186 39.6539 61.7258 39.6296C60.2511 39.6028 59.0823 39.8889 58.2195 40.488L57.9889 40.6482L60.8985 44.8382L61.5135 44.4111C62.1457 43.9722 62.513 43.4892 62.6155 42.9622C62.7351 42.4233 62.6674 41.9702 62.4123 41.6029C62.3767 41.5516 62.376 41.5142 62.4102 41.4904C62.4443 41.4667 62.4792 41.4805 62.5148 41.5317L64.7037 44.6839C64.7215 44.7095 64.7278 44.7368 64.7225 44.7657C64.7114 44.7861 64.6943 44.798 64.6713 44.8013C64.6423 44.7961 64.619 44.7807 64.6012 44.755C64.3105 44.3365 63.8965 44.1049 63.359 44.0602C62.8242 44.0011 62.2535 44.1822 61.647 44.6033L61.0319 45.0304L63.9504 49.2333L64.1683 49.082C64.7919 48.649 65.5207 47.7567 66.3548 46.4052C66.7629 45.7166 67.0598 44.9407 67.2454 44.0774C67.425 43.2056 67.4107 42.3736 67.2024 41.5813Z" fill="#B55A2B"/>
<path d="M80.3623 39.4523C79.5906 40.915 78.3001 42.0171 76.4909 42.7585C74.6817 43.4999 72.989 43.6204 71.4127 43.1199C69.8421 42.6059 68.7413 41.5791 68.1103 40.0393C67.4793 38.4996 67.5449 37.0004 68.307 35.5416C69.0652 34.0732 70.3537 32.9664 72.1725 32.221C73.9913 31.4756 75.686 31.36 77.2567 31.874C78.833 32.3744 79.9366 33.3945 80.5676 34.9342C81.1946 36.4643 81.1262 37.9703 80.3623 39.4523ZM76.8437 42.3441C78.5868 41.5511 78.8084 39.7744 77.5086 37.0139C76.9342 35.777 76.1484 34.6547 75.151 33.6473C74.6309 33.1186 74.0746 32.7622 73.4821 32.5779C72.8952 32.38 72.3411 32.3992 71.8197 32.6353C71.3176 32.8636 70.9264 33.1981 70.6462 33.6389C70.0762 34.5244 70.2517 35.981 71.1726 38.0088C71.7312 39.2073 72.5142 40.3363 73.5216 41.3959C74.0378 41.9149 74.5921 42.2665 75.1847 42.4508C75.7733 42.6255 76.3263 42.5899 76.8437 42.3441Z" fill="#B55A2B"/>
<path d="M95.5113 33.1049L89.8727 34.0024L89.8359 33.7714L95.4745 32.8738L95.5113 33.1049Z" fill="#B55A2B"/>
<path opacity="0.4" d="M104.004 100C104.004 97.7909 102.213 96 100.004 96C97.7948 96 96.0039 97.7909 96.0039 100C96.0039 102.209 97.7948 104 100.004 104C102.213 104 104.004 102.209 104.004 100Z" fill="#B55A2B"/>
</svg>
