<svg width="201" height="200" viewBox="0 0 201 200" fill="none" xmlns="http://www.w3.org/2000/svg">
<circle cx="100.004" cy="100" r="100" transform="rotate(-90 100.004 100)" fill="#B55A2B"/>
<path d="M111.879 38.8499L105.848 37.8423C105.837 37.8406 105.636 37.8123 105.245 37.7575C104.852 37.7129 104.517 37.6675 104.24 37.6212C104.178 37.6109 104.151 37.5853 104.158 37.5442C104.166 37.4929 104.201 37.4724 104.263 37.4827C104.842 37.5479 105.254 37.4215 105.496 37.1036C105.741 36.7754 105.971 36.0283 106.187 34.8624L106.999 30.0001C107.172 28.8376 107.192 28.0605 107.057 27.6689C106.932 27.279 106.59 27.0216 106.031 26.8966C105.969 26.8863 105.942 26.8606 105.949 26.8196C105.958 26.7683 105.993 26.7478 106.054 26.7581C106.331 26.8044 106.663 26.8703 107.049 26.9559C107.437 27.0313 107.636 27.0699 107.647 27.0716L112.37 27.8606C114.186 28.1639 115.453 28.5653 116.171 29.0648C116.899 29.5661 117.188 30.268 117.037 31.1707C116.944 31.7246 116.596 32.1673 115.993 32.4988C115.389 32.8303 114.685 33.0343 113.882 33.111C113.09 33.1791 112.266 33.1574 111.409 33.046L111.394 33.1383C112.762 33.3457 113.977 33.7069 115.04 34.2219C115.646 34.5128 116.098 34.8677 116.397 35.2867C116.706 35.7074 116.82 36.164 116.737 36.6563C116.571 37.6514 116.094 38.3308 115.306 38.6947C114.529 39.05 113.387 39.1018 111.879 38.8499ZM110.541 30.1963L110.109 32.7813L110.309 32.8147C112.084 33.1112 113.113 32.408 113.398 30.7052C113.528 29.9256 113.405 29.3041 113.029 28.8406C112.655 28.3668 112.083 28.0657 111.314 27.9372L111.068 27.8961C110.89 28.3935 110.714 29.1603 110.541 30.1963ZM110.363 33.061L110.071 33.0121L109.575 35.9818C109.393 37.0691 109.317 37.8051 109.348 38.1898L109.579 38.2284C110.584 38.3963 111.387 38.2932 111.987 37.919C112.587 37.5447 112.955 36.9525 113.091 36.1421C113.235 35.2804 113.065 34.593 112.581 34.0799C112.097 33.5668 111.358 33.2272 110.363 33.061Z" fill="#FDF4EE"/>
<path d="M122.808 42.2015C121.181 41.5633 120.021 40.5772 119.326 39.2434C118.651 37.9172 118.629 36.4505 119.26 34.8434C119.849 33.3428 120.893 32.2893 122.394 31.6827C123.908 31.0702 125.512 31.0964 127.206 31.7613C127.671 31.9436 128.127 32.1618 128.575 32.4157C129.056 32.6714 129.344 32.8182 129.441 32.8562C129.983 33.0689 130.414 32.9531 130.734 32.5088C130.807 32.4368 130.845 32.452 130.85 32.5544L129.765 38.0946C129.75 38.1333 129.728 38.1469 129.699 38.1356C129.67 38.1242 129.658 38.0972 129.663 38.0547C129.68 36.7876 129.395 35.5081 128.807 34.2161C128.225 32.9375 127.624 32.1767 127.005 31.9335C126.317 31.6638 125.626 31.789 124.93 32.3092C124.248 32.8235 123.682 33.6519 123.234 34.7943C122.657 36.2658 122.523 37.5877 122.834 38.7598C123.155 39.9358 123.993 40.7898 125.348 41.3216C126.2 41.656 127.068 41.6223 127.952 41.2206C128.67 40.8992 129.338 40.4632 129.957 39.9126C129.997 39.8949 130.023 39.8996 130.035 39.9265C130.056 39.9573 130.057 39.9853 130.035 40.0105C129.732 40.3273 129.42 40.6239 129.1 40.9002C128.81 41.1551 128.422 41.4329 127.935 41.7335C127.435 42.0399 126.944 42.2662 126.462 42.4123C125.294 42.7695 124.076 42.6992 122.808 42.2015Z" fill="#FDF4EE"/>
<path d="M141.738 47.2208C141.783 47.1886 141.815 47.1969 141.833 47.2457L141.829 47.2804L137.82 51.2031C137.751 51.2701 137.721 51.2503 137.728 51.1434C137.658 50.4519 137.291 49.8903 136.629 49.4587L130.474 45.4464C130.465 45.4407 130.292 45.3343 129.956 45.1272C129.613 44.9288 129.324 44.753 129.089 44.5996C129.037 44.5656 129.022 44.5311 129.045 44.4962C129.073 44.4527 129.113 44.4479 129.166 44.482C129.671 44.7739 130.098 44.8228 130.448 44.6288C130.804 44.4261 131.314 43.8338 131.979 42.852L134.671 38.7223C135.295 37.7264 135.624 37.022 135.657 36.6092C135.699 36.202 135.489 35.8292 135.027 35.4907C134.974 35.4566 134.959 35.4222 134.982 35.3873C135.011 35.3438 135.051 35.339 135.103 35.3731C135.338 35.5264 135.616 35.7197 135.936 35.9529C136.261 36.1775 136.428 36.2926 136.437 36.2982L141.664 39.7057C142.117 40.001 142.545 40.1928 142.947 40.2809C143.357 40.3747 143.674 40.3455 143.898 40.1932C143.992 40.1432 144.023 40.1631 143.989 40.2528L141.991 45.747C141.974 45.7732 141.948 45.7749 141.913 45.7521C141.887 45.7351 141.878 45.7107 141.886 45.6789C142.145 44.1964 142.01 42.7742 141.483 41.4124C140.952 40.0362 140.247 39.0612 139.367 38.4876L139.132 38.3343L136.346 42.6078L136.974 43.0167C137.618 43.4369 138.204 43.5953 138.731 43.4918C139.275 43.3996 139.669 43.1662 139.914 42.7916C139.948 42.7393 139.982 42.7245 140.017 42.7472C140.052 42.77 140.052 42.8075 140.018 42.8597L137.922 46.0746C137.905 46.1008 137.883 46.1169 137.854 46.123C137.831 46.1203 137.813 46.1089 137.801 46.0889C137.795 46.0601 137.801 46.0326 137.818 46.0065C138.096 45.5796 138.155 45.1088 137.994 44.5941C137.847 44.0764 137.464 43.6159 136.846 43.2127L136.218 42.8038L133.424 47.0904L133.647 47.2352C134.283 47.6498 135.384 47.9889 136.95 48.2525C137.741 48.3712 138.572 48.354 139.442 48.2008C140.317 48.0388 141.082 47.7122 141.738 47.2208Z" fill="#FDF4EE"/>
<path d="M147.54 59.6281L143.474 55.06C143.467 55.0523 143.329 54.9042 143.058 54.6159C142.78 54.3345 142.547 54.089 142.361 53.8792C142.319 53.8326 142.314 53.7955 142.345 53.7678C142.384 53.7332 142.424 53.7392 142.466 53.7859C142.876 54.2002 143.276 54.3597 143.664 54.2645C144.061 54.1623 144.709 53.7249 145.608 52.9522L149.291 49.6749C150.155 48.8781 150.657 48.2849 150.797 47.8953C150.945 47.5134 150.84 47.0985 150.483 46.6505C150.442 46.6039 150.436 46.5667 150.468 46.5391C150.506 46.5045 150.547 46.5105 150.588 46.5571C150.775 46.7669 150.992 47.0263 151.239 47.3353C151.494 47.6375 151.625 47.7924 151.632 47.8002L154.816 51.3777C156.039 52.7528 156.774 53.86 157.02 54.6994C157.273 55.5465 157.057 56.2743 156.374 56.8827C155.954 57.2561 155.405 57.3825 154.727 57.262C154.049 57.1415 153.373 56.8591 152.699 56.4147C152.04 55.9712 151.412 55.4374 150.815 54.8133L150.745 54.8755C151.68 55.8949 152.4 56.9387 152.905 58.0067C153.194 58.6129 153.323 59.1729 153.293 59.6868C153.27 60.2085 153.072 60.6352 152.699 60.9671C151.946 61.6378 151.148 61.8676 150.306 61.6565C149.478 61.4462 148.556 60.7701 147.54 59.6281ZM151.926 52.0493L149.968 53.7916L150.103 53.9431C151.299 55.2871 152.542 55.3853 153.831 54.2375C154.422 53.7121 154.716 53.1509 154.714 52.5541C154.72 51.9504 154.463 51.3572 153.945 50.7746L153.779 50.5881C153.328 50.8639 152.71 51.351 151.926 52.0493ZM149.99 54.1686L149.793 53.9472L147.544 55.9489C146.721 56.6818 146.2 57.2076 145.983 57.5264L146.138 57.7012C146.816 58.4626 147.506 58.8858 148.208 58.9709C148.91 59.0559 149.568 58.8254 150.182 58.2792C150.834 57.6984 151.133 57.0565 151.079 56.3535C151.024 55.6505 150.661 54.9222 149.99 54.1686Z" fill="#FDF4EE"/>
<path d="M158.213 76.3377C158.243 76.3925 158.235 76.4323 158.189 76.4571C158.152 76.4769 158.119 76.4594 158.09 76.4046C157.956 76.1577 157.804 75.8556 157.634 75.4982C157.455 75.1458 157.362 74.9651 157.358 74.9559L155.826 72.1307C155.821 72.1215 155.72 71.9457 155.522 71.6032C155.316 71.2657 155.146 70.9735 155.012 70.7266C154.982 70.6718 154.986 70.6344 155.022 70.6146C155.068 70.5898 155.106 70.6049 155.135 70.6597C155.44 71.1569 155.793 71.4035 156.193 71.3996C156.602 71.3907 157.333 71.1129 158.385 70.5662L162.472 68.3509L156.505 66.7054L156.341 66.7946C155.308 67.3779 154.677 67.8385 154.446 68.1766C154.224 68.5097 154.238 68.9396 154.489 69.4665C154.518 69.5214 154.51 69.5612 154.465 69.586C154.428 69.6058 154.395 69.5883 154.365 69.5334C154.231 69.2866 154.079 68.9845 153.909 68.6271C153.73 68.2747 153.638 68.0939 153.633 68.0848L152.102 65.2595C152.097 65.2504 151.996 65.0746 151.798 64.7321C151.591 64.3946 151.421 64.1024 151.287 63.8555C151.258 63.8006 151.261 63.7633 151.298 63.7435C151.343 63.7187 151.381 63.7337 151.411 63.7886C151.716 64.2857 152.068 64.5324 152.468 64.5284C152.878 64.5195 153.608 64.2418 154.661 63.6951L158.995 61.3459C160.018 60.7676 160.642 60.3049 160.868 59.9577C161.099 59.6197 161.092 59.1918 160.847 58.674C160.817 58.6192 160.82 58.5818 160.857 58.562C160.903 58.5372 160.94 58.5523 160.97 58.6071C161.104 58.854 161.256 59.1561 161.426 59.5135C161.605 59.8659 161.697 60.0466 161.702 60.0558L163.233 62.881C163.238 62.8902 163.34 63.066 163.537 63.4085C163.744 63.746 163.914 64.0382 164.048 64.2851C164.077 64.3399 164.07 64.3797 164.024 64.4045C163.987 64.4243 163.954 64.4068 163.924 64.352C163.624 63.864 163.267 63.6198 162.853 63.6196C162.444 63.6284 161.718 63.9038 160.675 64.4455L156.821 66.5344L162.76 68.1948C163.738 67.6645 164.347 67.2162 164.586 66.85C164.83 66.4929 164.825 66.058 164.571 65.5452C164.541 65.4903 164.545 65.453 164.581 65.4331C164.627 65.4084 164.665 65.4234 164.695 65.4783C164.828 65.7251 164.98 66.0272 165.15 66.3846C165.329 66.737 165.422 66.9178 165.427 66.9269L166.958 69.7522C166.963 69.7613 167.064 69.9371 167.262 70.2796C167.468 70.6171 167.638 70.9093 167.772 71.1562C167.802 71.2111 167.794 71.2509 167.748 71.2757C167.712 71.2955 167.678 71.278 167.649 71.2231C167.349 70.7351 166.992 70.491 166.577 70.4907C166.168 70.4996 165.442 70.7749 164.399 71.3166L160.065 73.6657C159.033 74.249 158.401 74.7097 158.17 75.0477C157.949 75.3808 157.963 75.8108 158.213 76.3377Z" fill="#FDF4EE"/>
<path d="M161.95 89.3657L161.995 89.3535C161.664 89.4432 161.314 89.5435 160.945 89.6541C160.208 89.8755 159.623 90.0447 159.192 90.1617C159.122 90.1807 159.069 90.1843 159.033 90.1723C158.998 90.1604 158.991 90.1353 159.013 90.0971C159.037 90.0688 159.085 90.0452 159.155 90.0261C160.141 89.7267 160.752 89.3565 160.988 88.9154C161.224 88.4743 161.208 87.6812 160.941 86.536L159.243 80.2723C159.001 79.4975 158.752 78.9348 158.495 78.5841C158.231 78.2462 157.913 78.0468 157.541 77.986C157.161 77.938 156.628 77.9964 155.94 78.1613C155.87 78.1803 155.815 78.1789 155.777 78.1569C155.741 78.145 155.736 78.1249 155.761 78.0967C155.785 78.0685 155.833 78.0448 155.903 78.0258C156.706 77.8082 157.295 77.654 157.669 77.5634C157.819 77.5226 157.98 77.4791 158.151 77.4329C158.314 77.3994 158.441 77.3704 158.531 77.3459C158.624 77.3315 158.691 77.3188 158.731 77.3079L158.686 77.3202L159.09 78.8108C159.386 79.3878 160.561 79.4681 162.614 79.0518L166.198 78.3229L166.888 78.1844C168.018 77.8998 168.723 77.5795 169.004 77.2233C169.297 76.8744 169.353 76.3044 169.171 75.5133C169.157 75.4631 169.157 75.4252 169.172 75.3997C169.187 75.3742 169.207 75.3687 169.232 75.3834C169.268 75.3953 169.292 75.4264 169.306 75.4765C169.396 75.8078 169.51 76.2672 169.647 76.8549C169.716 77.1487 169.786 77.4261 169.857 77.6871L171.77 84.7488C171.773 84.7588 171.831 84.9532 171.945 85.3319C172.068 85.7079 172.166 86.0314 172.24 86.3025C172.256 86.3627 172.239 86.3996 172.189 86.4132C172.149 86.4241 172.121 86.3994 172.104 86.3392C171.925 85.7953 171.633 85.4755 171.23 85.38C170.83 85.2946 170.06 85.3955 168.92 85.6828L161.497 87.6944L161.95 89.3657ZM159.2 79.2173L160.575 84.2915L170.663 81.5577L169.663 77.8688L166.55 78.4863L162.75 79.2573C162.175 79.3594 161.711 79.4367 161.358 79.489C161.016 79.5386 160.62 79.5489 160.171 79.5199C159.741 79.4855 159.418 79.3846 159.2 79.2173Z" fill="#FDF4EE"/>
<path d="M167.193 102.149C167.247 102.167 167.259 102.197 167.23 102.241L167.2 102.258L161.663 101.36C161.568 101.345 161.566 101.308 161.657 101.251C162.171 100.784 162.406 100.156 162.36 99.3665L161.935 92.0312C161.934 92.0208 161.917 91.8186 161.884 91.4247C161.841 91.0314 161.811 90.6945 161.794 90.4142C161.791 90.3519 161.81 90.3196 161.851 90.3172C161.903 90.3141 161.931 90.3438 161.935 90.4061C161.999 90.9857 162.214 91.3587 162.578 91.5252C162.952 91.691 163.731 91.75 164.916 91.7022L169.837 91.417C171.009 91.3283 171.771 91.1748 172.123 90.9564C172.476 90.7485 172.651 90.3581 172.649 89.7853C172.646 89.723 172.665 89.6906 172.706 89.6882C172.758 89.6852 172.786 89.7148 172.79 89.7771C172.806 90.0575 172.815 90.3955 172.817 90.7912C172.83 91.1864 172.836 91.3891 172.837 91.3995L173.198 97.6291C173.229 98.169 173.328 98.6268 173.496 99.0025C173.664 99.3886 173.876 99.6264 174.131 99.7158C174.228 99.7623 174.23 99.7986 174.137 99.8248L168.53 101.478C168.498 101.48 168.482 101.46 168.479 101.418C168.477 101.387 168.492 101.366 168.522 101.353C169.869 100.682 170.934 99.7291 171.716 98.4962C172.509 97.2523 172.875 96.106 172.814 95.0573L172.798 94.777L167.705 95.0721L167.749 95.8196C167.793 96.5879 168.013 97.1534 168.409 97.5159C168.807 97.8991 169.229 98.0778 169.675 98.0519C169.737 98.0483 169.77 98.0673 169.772 98.1088C169.774 98.1504 169.744 98.1729 169.682 98.1765L165.851 98.3985C165.82 98.4003 165.793 98.3914 165.771 98.3719C165.76 98.3517 165.759 98.331 165.768 98.3096C165.787 98.2876 165.813 98.2757 165.844 98.2739C166.353 98.2445 166.766 98.0121 167.085 97.577C167.414 97.1516 167.558 96.5703 167.515 95.8332L167.472 95.0856L162.363 95.3816L162.379 95.6464C162.423 96.4043 162.803 97.4917 163.521 98.9086C163.895 99.6161 164.402 100.274 165.042 100.883C165.692 101.491 166.409 101.913 167.193 102.149Z" fill="#FDF4EE"/>
<path d="M162.081 114.501C161.238 113.078 160.974 111.401 161.289 109.472C161.604 107.542 162.387 106.036 163.638 104.955C164.898 103.885 166.349 103.484 167.991 103.752C169.633 104.02 170.877 104.861 171.721 106.273C172.576 107.688 172.845 109.365 172.528 111.305C172.212 113.245 171.424 114.75 170.164 115.819C168.913 116.901 167.466 117.307 165.824 117.04C164.192 116.773 162.944 115.927 162.081 114.501ZM161.457 109.989C161.221 111.889 162.619 113.008 165.652 113.344C167.007 113.502 168.374 113.42 169.755 113.097C170.477 112.93 171.072 112.643 171.539 112.234C172.015 111.838 172.288 111.355 172.36 110.787C172.428 110.24 172.348 109.732 172.119 109.262C171.662 108.313 170.329 107.701 168.119 107.424C166.806 107.273 165.434 107.35 164.004 107.654C163.291 107.822 162.702 108.111 162.235 108.519C161.778 108.93 161.519 109.42 161.457 109.989Z" fill="#FDF4EE"/>
<path d="M158.533 131.152L161.047 126.025L161.257 126.129L158.743 131.255L158.533 131.152Z" fill="#FDF4EE"/>
<path d="M145.192 142.544L149.307 138.021C149.314 138.013 149.447 137.86 149.705 137.56C149.956 137.254 150.175 136.997 150.364 136.789C150.406 136.743 150.443 136.734 150.473 136.762C150.512 136.797 150.51 136.837 150.468 136.884C150.099 137.335 149.983 137.75 150.118 138.126C150.262 138.509 150.765 139.108 151.628 139.921L155.274 143.238C156.158 144.014 156.8 144.451 157.203 144.549C157.598 144.656 157.999 144.508 158.407 144.106C158.449 144.06 158.486 144.051 158.517 144.079C158.555 144.114 158.553 144.154 158.511 144.2C158.322 144.408 158.087 144.651 157.806 144.93C157.532 145.215 157.392 145.361 157.385 145.369L154.162 148.912C152.923 150.273 151.9 151.121 151.091 151.453C150.275 151.794 149.528 151.656 148.852 151.04C148.436 150.662 148.253 150.13 148.301 149.443C148.35 148.756 148.559 148.054 148.93 147.337C149.302 146.635 149.767 145.954 150.325 145.294L150.255 145.231C149.34 146.268 148.378 147.094 147.369 147.709C146.796 148.06 146.253 148.248 145.739 148.272C145.218 148.304 144.773 148.152 144.403 147.816C143.657 147.137 143.345 146.368 143.466 145.508C143.588 144.663 144.163 143.675 145.192 142.544ZM153.19 146.108L151.252 144.345L151.115 144.495C149.904 145.826 149.938 147.072 151.215 148.234C151.799 148.766 152.388 148.999 152.982 148.934C153.582 148.877 154.145 148.559 154.67 147.982L154.838 147.797C154.517 147.378 153.967 146.815 153.19 146.108ZM150.879 144.407L151.079 144.187L148.851 142.161C148.036 141.42 147.458 140.957 147.118 140.775L146.961 140.948C146.275 141.702 145.927 142.432 145.916 143.139C145.905 143.847 146.204 144.477 146.812 145.03C147.458 145.618 148.127 145.847 148.821 145.719C149.514 145.59 150.2 145.153 150.879 144.407Z" fill="#FDF4EE"/>
<path d="M136.457 149.907C137.873 148.884 139.33 148.442 140.828 148.579C142.308 148.729 143.554 149.504 144.564 150.904C145.508 152.211 145.829 153.659 145.527 155.249C145.223 156.854 144.333 158.189 142.858 159.254C142.453 159.546 142.023 159.812 141.567 160.051C141.092 160.317 140.812 160.481 140.728 160.542C140.256 160.882 140.12 161.308 140.321 161.817C140.342 161.917 140.308 161.941 140.22 161.89L136.147 157.98C136.123 157.947 136.123 157.921 136.148 157.902C136.174 157.884 136.203 157.889 136.235 157.916C137.292 158.616 138.523 159.068 139.927 159.273C141.317 159.475 142.282 159.381 142.822 158.991C143.421 158.559 143.689 157.91 143.628 157.043C143.565 156.191 143.174 155.268 142.456 154.273C141.53 152.991 140.491 152.164 139.337 151.791C138.174 151.425 137.003 151.667 135.822 152.52C135.08 153.055 134.639 153.803 134.499 154.764C134.38 155.542 134.386 156.34 134.514 157.158C134.507 157.201 134.489 157.221 134.46 157.216C134.423 157.218 134.399 157.203 134.389 157.171C134.287 156.745 134.206 156.322 134.147 155.903C134.09 155.521 134.066 155.044 134.076 154.472C134.089 153.886 134.165 153.351 134.302 152.866C134.634 151.691 135.352 150.704 136.457 149.907Z" fill="#FDF4EE"/>
<path d="M122.193 163.062C122.196 163.118 122.171 163.141 122.121 163.129L122.094 163.107L120.938 157.619C120.918 157.525 120.951 157.51 121.037 157.573C121.658 157.885 122.329 157.878 123.048 157.551L129.739 154.513C129.748 154.509 129.931 154.42 130.286 154.247C130.637 154.065 130.941 153.916 131.197 153.8C131.253 153.774 131.29 153.78 131.308 153.818C131.329 153.865 131.311 153.902 131.255 153.928C130.737 154.197 130.466 154.531 130.442 154.93C130.422 155.339 130.648 156.088 131.119 157.176L133.157 161.664C133.662 162.726 134.08 163.381 134.41 163.631C134.731 163.885 135.158 163.908 135.692 163.7C135.749 163.674 135.786 163.68 135.803 163.718C135.825 163.765 135.807 163.802 135.75 163.828C135.495 163.944 135.182 164.074 134.814 164.219C134.45 164.373 134.263 164.452 134.254 164.456L128.572 167.036C128.08 167.26 127.688 167.517 127.398 167.809C127.098 168.105 126.953 168.388 126.961 168.658C126.953 168.765 126.92 168.78 126.862 168.703L123.3 164.067C123.287 164.039 123.3 164.016 123.338 163.999C123.366 163.986 123.392 163.991 123.414 164.015C124.526 165.03 125.798 165.68 127.23 165.966C128.676 166.258 129.877 166.187 130.833 165.752L131.089 165.636L128.98 160.991L128.298 161.301C127.597 161.619 127.149 162.028 126.953 162.528C126.739 163.037 126.724 163.495 126.909 163.902C126.935 163.959 126.929 163.996 126.891 164.013C126.853 164.03 126.821 164.01 126.795 163.954L125.209 160.459C125.196 160.431 125.194 160.403 125.205 160.375C125.219 160.357 125.238 160.349 125.262 160.35C125.289 160.36 125.309 160.379 125.322 160.408C125.533 160.872 125.899 161.174 126.419 161.314C126.935 161.469 127.529 161.393 128.201 161.088L128.883 160.778L126.767 156.119L126.526 156.229C125.835 156.543 124.957 157.29 123.894 158.469C123.369 159.073 122.937 159.783 122.599 160.599C122.266 161.424 122.13 162.245 122.193 163.062Z" fill="#FDF4EE"/>
<path d="M108.569 161.246L114.612 160.307C114.622 160.306 114.822 160.27 115.211 160.199C115.598 160.117 115.931 160.055 116.208 160.012C116.27 160.003 116.304 160.018 116.31 160.06C116.318 160.111 116.291 160.141 116.23 160.151C115.659 160.271 115.308 160.52 115.177 160.898C115.048 161.287 115.064 162.068 115.226 163.243L115.982 168.114C116.183 169.273 116.409 170.016 116.66 170.346C116.901 170.677 117.306 170.814 117.876 170.757C117.938 170.747 117.972 170.763 117.978 170.804C117.986 170.855 117.959 170.886 117.898 170.896C117.62 170.939 117.285 170.98 116.891 171.02C116.499 171.071 116.298 171.097 116.287 171.098L111.555 171.833C109.736 172.115 108.407 172.132 107.569 171.883C106.72 171.636 106.225 171.061 106.085 170.156C105.999 169.601 106.19 169.072 106.659 168.567C107.128 168.063 107.732 167.648 108.471 167.323C109.201 167.01 109.99 166.771 110.838 166.608L110.824 166.516C109.46 166.748 108.193 166.787 107.022 166.632C106.356 166.546 105.815 166.351 105.4 166.047C104.974 165.745 104.723 165.347 104.646 164.854C104.491 163.857 104.731 163.062 105.365 162.469C105.99 161.888 107.059 161.48 108.569 161.246ZM112.558 169.041L112.156 166.451L111.955 166.482C110.178 166.758 109.421 167.749 109.686 169.455C109.807 170.236 110.119 170.788 110.622 171.109C111.126 171.442 111.763 171.548 112.534 171.428L112.781 171.39C112.793 170.862 112.719 170.079 112.558 169.041ZM111.827 166.265L112.12 166.22L111.658 163.245C111.489 162.155 111.329 161.433 111.18 161.077L110.948 161.113C109.941 161.269 109.211 161.619 108.759 162.163C108.307 162.707 108.144 163.385 108.27 164.197C108.404 165.06 108.781 165.659 109.401 165.995C110.022 166.33 110.83 166.42 111.827 166.265Z" fill="#FDF4EE"/>
<path d="M88.6221 161.162C88.5599 161.157 88.5308 161.128 88.5348 161.077C88.538 161.035 88.5707 161.017 88.6329 161.022C88.9129 161.043 89.2491 161.08 89.6415 161.131C90.0347 161.172 90.2365 161.192 90.2469 161.193L93.4509 161.441C93.4613 161.442 93.6639 161.452 94.0587 161.472C94.4543 161.482 94.7921 161.498 95.0721 161.519C95.1343 161.524 95.1638 161.547 95.1606 161.589C95.1566 161.641 95.1235 161.664 95.0613 161.659C94.4782 161.645 94.0797 161.808 93.8658 162.146C93.6511 162.494 93.4877 163.259 93.3756 164.439L93.0173 169.074L97.6384 164.956L97.6529 164.77C97.7235 163.586 97.6795 162.806 97.5209 162.428C97.3615 162.061 96.9927 161.84 96.4144 161.764C96.3522 161.759 96.3231 161.731 96.3271 161.679C96.3303 161.637 96.363 161.619 96.4253 161.624C96.7052 161.646 97.0414 161.682 97.4338 161.733C97.8271 161.774 98.0289 161.795 98.0392 161.796L101.243 162.043C101.254 162.044 101.456 162.054 101.851 162.075C102.247 162.084 102.584 162.1 102.864 162.122C102.927 162.126 102.956 162.15 102.953 162.191C102.949 162.243 102.916 162.266 102.854 162.262C102.271 162.248 101.872 162.41 101.658 162.748C101.443 163.097 101.28 163.861 101.168 165.042L100.788 169.956C100.718 171.13 100.768 171.906 100.937 172.284C101.095 172.661 101.459 172.887 102.026 172.962C102.089 172.967 102.118 172.99 102.115 173.032C102.111 173.084 102.078 173.107 102.016 173.102C101.736 173.081 101.399 173.044 101.007 172.993C100.614 172.952 100.412 172.932 100.402 172.931L97.1976 172.683C97.1873 172.682 96.9847 172.672 96.5898 172.652C96.1942 172.642 95.8564 172.626 95.5764 172.605C95.5142 172.6 95.4851 172.572 95.4891 172.52C95.4923 172.478 95.525 172.46 95.5873 172.465C96.16 172.478 96.5589 172.31 96.7839 171.963C96.9986 171.614 97.1616 170.855 97.2729 169.685L97.6108 165.314L92.9921 169.401C92.9063 170.51 92.9523 171.265 93.13 171.665C93.2974 172.063 93.6654 172.295 94.2341 172.36C94.2963 172.365 94.3258 172.388 94.3226 172.43C94.3186 172.481 94.2855 172.505 94.2233 172.5C93.9433 172.478 93.6071 172.442 93.2147 172.391C92.8215 172.35 92.6197 172.329 92.6093 172.328L89.4053 172.081C89.3949 172.08 89.1923 172.069 88.7975 172.049C88.4018 172.04 88.0641 172.024 87.7841 172.002C87.7219 171.998 87.6928 171.969 87.6968 171.917C87.7 171.876 87.7327 171.858 87.7949 171.862C88.3676 171.875 88.7665 171.708 88.9916 171.36C89.2063 171.012 89.3693 170.253 89.4806 169.082L89.8605 164.167C89.9311 162.984 89.8872 162.203 89.7286 161.826C89.5692 161.459 89.2003 161.238 88.6221 161.162Z" fill="#FDF4EE"/>
<path d="M75.5924 157.242L75.5781 157.287C75.6828 156.96 75.7889 156.612 75.8964 156.242C76.1114 155.503 76.2871 154.92 76.4236 154.494C76.4458 154.425 76.4715 154.379 76.5009 154.355C76.5302 154.332 76.5549 154.34 76.5751 154.379C76.5854 154.415 76.5795 154.468 76.5573 154.537C76.2728 155.527 76.2516 156.241 76.4935 156.679C76.7355 157.117 77.4097 157.535 78.5161 157.933L84.6963 159.913C85.4784 160.131 86.0863 160.227 86.5202 160.202C86.9473 160.165 87.2875 160.006 87.5408 159.727C87.7873 159.434 88.0284 158.955 88.2639 158.288C88.2862 158.218 88.3169 158.174 88.3561 158.153C88.3854 158.13 88.4052 158.136 88.4155 158.172C88.4258 158.208 88.4199 158.261 88.3976 158.33C88.1438 159.123 87.9532 159.701 87.8259 160.064C87.7783 160.212 87.7276 160.371 87.6736 160.539C87.6129 160.695 87.5683 160.817 87.5398 160.906C87.5013 160.992 87.4757 161.055 87.463 161.094L87.4773 161.05L86.0066 160.579C85.3612 160.514 84.6552 161.456 83.8887 163.406L82.5521 166.81L82.2933 167.465C81.9181 168.568 81.8038 169.334 81.9502 169.763C82.0836 170.199 82.5318 170.555 83.2948 170.832C83.3443 170.848 83.3758 170.869 83.3893 170.895C83.4027 170.922 83.3964 170.941 83.3702 170.955C83.3409 170.978 83.3015 170.982 83.252 170.966C82.9251 170.861 82.4777 170.707 81.9096 170.503C81.6255 170.401 81.3547 170.309 81.0972 170.227L74.1297 167.994C74.1198 167.991 73.925 167.934 73.5455 167.824C73.1628 167.723 72.8378 167.63 72.5703 167.544C72.5109 167.525 72.4891 167.491 72.505 167.441C72.5177 167.402 72.5538 167.391 72.6132 167.41C73.1674 167.555 73.5942 167.484 73.8934 167.198C74.1827 166.908 74.5166 166.207 74.8949 165.094L77.2414 157.77L75.5924 157.242ZM85.6054 160.45L80.5989 158.846L77.41 168.8L81.0498 169.966L82.2239 167.017L83.642 163.408C83.8692 162.87 84.0566 162.438 84.2041 162.114C84.3484 161.8 84.5549 161.462 84.8237 161.1C85.0861 160.759 85.3467 160.542 85.6054 160.45Z" fill="#FDF4EE"/>
<path d="M62.0251 154.719C61.9813 154.754 61.949 154.747 61.9284 154.699L61.9303 154.665L65.7022 150.513C65.7667 150.442 65.7983 150.46 65.7971 150.567C65.9082 151.253 66.307 151.792 66.9933 152.184L73.3739 155.828C73.3829 155.833 73.5616 155.929 73.91 156.116C74.2635 156.294 74.5622 156.453 74.806 156.592C74.8602 156.623 74.877 156.656 74.8563 156.692C74.8305 156.738 74.7906 156.745 74.7364 156.714C74.2152 156.452 73.7856 156.428 73.4477 156.642C73.1046 156.866 72.6301 157.487 72.0241 158.506L69.5796 162.787C69.0149 163.818 68.7281 164.54 68.7192 164.954C68.7013 165.363 68.9329 165.723 69.4142 166.034C69.4684 166.065 69.4851 166.098 69.4645 166.135C69.4387 166.18 69.3987 166.187 69.3445 166.156C69.1007 166.017 68.8123 165.84 68.4795 165.626C68.1414 165.421 67.9679 165.316 67.9589 165.311L62.5401 162.216C62.0705 161.948 61.6325 161.782 61.2262 161.718C60.8108 161.648 60.496 161.696 60.2819 161.861C60.1904 161.917 60.1588 161.898 60.1871 161.807L61.8592 156.205C61.8747 156.178 61.9005 156.174 61.9366 156.195C61.9637 156.211 61.974 156.234 61.9676 156.267C61.7964 157.762 62.0142 159.174 62.6209 160.502C63.2314 161.845 63.9928 162.776 64.9049 163.297L65.1488 163.437L67.6784 159.007L67.0281 158.635C66.3598 158.254 65.7658 158.13 65.2459 158.264C64.7081 158.388 64.3282 158.645 64.1065 159.033C64.0755 159.087 64.042 159.104 64.0059 159.083C63.9698 159.063 63.9672 159.025 63.9981 158.971L65.9011 155.639C65.9166 155.611 65.9385 155.594 65.9669 155.586C65.9901 155.588 66.0082 155.598 66.0211 155.617C66.0288 155.646 66.025 155.673 66.0095 155.7C65.7568 156.143 65.726 156.616 65.917 157.121C66.0939 157.629 66.5029 158.066 67.1442 158.432L67.7944 158.804L70.3317 154.36L70.1015 154.229C69.4422 153.852 68.323 153.578 66.7441 153.407C65.9469 153.335 65.1187 153.401 64.2597 153.605C63.3955 153.819 62.6506 154.19 62.0251 154.719Z" fill="#FDF4EE"/>
<path d="M54.5505 143.856C56.2032 143.919 57.755 144.606 59.2061 145.917C60.6571 147.227 61.498 148.701 61.7286 150.339C61.9446 151.977 61.4949 153.414 60.3797 154.649C59.2644 155.884 57.8843 156.473 56.2394 156.417C54.5875 156.368 53.0322 155.686 51.5734 154.368C50.1147 153.051 49.2773 151.573 49.0613 149.934C48.8307 148.297 49.273 146.86 50.3882 145.625C51.4965 144.398 52.884 143.808 54.5505 143.856ZM58.6799 145.778C57.2109 144.549 55.5131 145.118 53.5866 147.484C52.7197 148.537 52.0479 149.731 51.571 151.066C51.3193 151.763 51.2386 152.419 51.3287 153.033C51.4042 153.648 51.6612 154.139 52.0996 154.507C52.5226 154.861 52.9934 155.069 53.512 155.131C54.557 155.262 55.7944 154.474 57.2243 152.766C58.0632 151.744 58.7424 150.55 59.2619 149.183C59.5066 148.493 59.5839 147.841 59.4937 147.227C59.3966 146.621 59.1253 146.138 58.6799 145.778Z" fill="#FDF4EE"/>
<path d="M44.5366 135.415L47.7932 140.104L47.601 140.238L44.3444 135.548L44.5366 135.415Z" fill="#FDF4EE"/>
<path d="M42.3714 122.017L44.6692 127.684C44.6731 127.694 44.7541 127.88 44.9122 128.242C45.08 128.601 45.2166 128.91 45.3221 129.17C45.3456 129.228 45.338 129.265 45.2995 129.281C45.2513 129.3 45.2155 129.281 45.192 129.223C44.9443 128.695 44.6214 128.411 44.2234 128.37C43.8157 128.333 43.0586 128.528 41.9521 128.954L37.3837 130.807C36.3024 131.268 35.6302 131.658 35.3671 131.978C35.1001 132.288 35.0597 132.714 35.2457 133.256C35.2691 133.314 35.2616 133.35 35.223 133.366C35.1748 133.386 35.139 133.366 35.1156 133.309C35.01 133.048 34.8927 132.731 34.7635 132.357C34.6246 131.987 34.5532 131.797 34.5493 131.788L32.7498 127.349C32.0582 125.643 31.7373 124.354 31.7873 123.481C31.8334 122.598 32.2805 121.984 33.1286 121.641C33.6491 121.43 34.2085 121.495 34.8068 121.836C35.4052 122.176 35.9473 122.669 36.4331 123.314C36.9054 123.953 37.3182 124.667 37.6714 125.455L37.7582 125.42C37.2192 124.146 36.8909 122.921 36.7734 121.745C36.7046 121.077 36.7705 120.506 36.9711 120.032C37.1677 119.548 37.4973 119.213 37.96 119.025C38.8948 118.646 39.7236 118.697 40.4462 119.179C41.1553 119.654 41.797 120.601 42.3714 122.017ZM35.6975 127.686L38.1263 126.701L38.0501 126.513C37.3741 124.846 36.2361 124.337 34.6362 124.985C33.9037 125.282 33.4384 125.712 33.2402 126.275C33.0323 126.842 33.0749 127.487 33.368 128.21L33.4618 128.441C33.9789 128.332 34.7241 128.081 35.6975 127.686ZM38.2318 126.339L38.3432 126.613L41.1333 125.482C42.155 125.068 42.8217 124.747 43.1335 124.52L43.0455 124.303C42.6626 123.358 42.1546 122.728 41.5216 122.412C40.8886 122.097 40.1914 122.093 39.43 122.402C38.6204 122.73 38.1236 123.235 37.9394 123.915C37.7553 124.596 37.8527 125.404 38.2318 126.339Z" fill="#FDF4EE"/>
<path d="M39.4964 111.098C39.804 112.818 39.5714 114.323 38.7984 115.613C38.0218 116.882 36.7838 117.669 35.0843 117.973C33.4975 118.257 32.0529 117.918 30.7506 116.957C29.4362 115.988 28.6188 114.608 28.2983 112.816C28.2104 112.325 28.1574 111.822 28.1394 111.307C28.1056 110.764 28.0795 110.441 28.0612 110.339C27.9586 109.765 27.6344 109.459 27.0885 109.419C26.989 109.395 26.9817 109.354 27.0665 109.296L32.3548 107.32C32.3958 107.313 32.419 107.325 32.4245 107.355C32.43 107.386 32.4132 107.41 32.374 107.428C31.2857 108.077 30.345 108.99 29.5519 110.167C28.7672 111.332 28.4334 112.242 28.5506 112.898C28.6806 113.624 29.1494 114.148 29.9568 114.469C30.7522 114.781 31.7539 114.829 32.9619 114.612C34.518 114.334 35.714 113.756 36.55 112.877C37.3841 111.988 37.673 110.827 37.4167 109.394C37.2555 108.493 36.7725 107.771 35.9675 107.229C35.3177 106.785 34.5963 106.444 33.8035 106.205C33.7673 106.18 33.7576 106.155 33.7744 106.131C33.7894 106.097 33.8132 106.082 33.8457 106.087C34.2743 106.179 34.6902 106.29 35.0936 106.418C35.4626 106.532 35.9025 106.717 36.4134 106.975C36.9363 107.24 37.3861 107.54 37.7629 107.874C38.6787 108.682 39.2565 109.757 39.4964 111.098Z" fill="#FDF4EE"/>
<path d="M33.7992 91.9918C33.7478 91.9696 33.7383 91.9381 33.7706 91.8974L33.8022 91.8827L39.2429 93.2469C39.3359 93.2702 39.3349 93.3066 39.24 93.3561C38.6876 93.7781 38.4007 94.3842 38.3793 95.1743L38.1808 102.519C38.1806 102.53 38.1803 102.732 38.18 103.128C38.1901 103.523 38.1914 103.862 38.1838 104.142C38.1821 104.205 38.1605 104.235 38.1189 104.234C38.0669 104.233 38.0418 104.201 38.0434 104.139C38.028 103.555 37.8461 103.166 37.4976 102.969C37.1388 102.772 36.3671 102.647 35.1825 102.594L30.2547 102.461C29.0794 102.45 28.3071 102.538 27.9379 102.726C27.569 102.903 27.3612 103.278 27.3146 103.849C27.3129 103.911 27.2912 103.942 27.2497 103.94C27.1977 103.939 27.1725 103.907 27.1742 103.845C27.1818 103.564 27.2013 103.226 27.2328 102.832C27.2539 102.437 27.2645 102.235 27.2648 102.224L27.4334 95.9865C27.448 95.4459 27.3877 94.9813 27.2526 94.5927C27.1177 94.1937 26.9269 93.9389 26.6802 93.8282C26.5881 93.7737 26.5891 93.7373 26.6832 93.719L32.4109 92.5473C32.4421 92.5482 32.4571 92.5694 32.456 92.611C32.4552 92.6421 32.439 92.6625 32.4076 92.6721C31.0088 93.2273 29.8672 94.086 28.9827 95.2481C28.0875 96.4203 27.6257 97.5315 27.5974 98.5815L27.5898 98.8622L32.6891 99L32.7093 98.2515C32.7301 97.4821 32.5586 96.9001 32.1947 96.5053C31.8314 96.0897 31.4262 95.8759 30.9792 95.8638C30.9168 95.8622 30.8862 95.8405 30.8873 95.7989C30.8885 95.7574 30.9202 95.7374 30.9826 95.7391L34.8188 95.8428C34.85 95.8436 34.8757 95.8547 34.8959 95.8761C34.9057 95.8971 34.9052 95.9179 34.8942 95.9384C34.8729 95.9587 34.8466 95.9684 34.8154 95.9675C34.306 95.9537 33.8741 96.1502 33.5198 96.5567C33.1554 96.9526 32.9632 97.5196 32.9433 98.2578L32.923 99.0063L38.038 99.1445L38.0451 98.8794C38.0656 98.1205 37.7785 97.0047 37.1836 95.5321C36.8706 94.7954 36.4213 94.0966 35.8358 93.4358C35.2398 92.7746 34.561 92.2933 33.7992 91.9918Z" fill="#FDF4EE"/>
<path d="M41.2591 80.6931L39.4815 86.5442C39.4785 86.5542 39.4245 86.7497 39.3196 87.1309C39.2246 87.5151 39.1363 87.8415 39.0547 88.1102C39.0366 88.1699 39.0076 88.1937 38.9678 88.1816C38.918 88.1665 38.9022 88.1291 38.9204 88.0694C39.0598 87.503 38.9876 87.0789 38.7036 86.797C38.4098 86.5121 37.6987 86.1874 36.5703 85.8229L31.8535 84.3899C30.723 84.0682 29.9549 83.949 29.5492 84.0323C29.1465 84.1056 28.8471 84.4114 28.651 84.9496C28.6328 85.0093 28.6039 85.0331 28.5641 85.021C28.5143 85.0059 28.4985 84.9685 28.5166 84.9088C28.5983 84.6401 28.7065 84.3197 28.8412 83.9476C28.9661 83.5725 29.03 83.38 29.033 83.37L30.4251 78.7876C30.9602 77.0263 31.5217 75.8219 32.1097 75.1745C32.7007 74.5171 33.4341 74.3214 34.3098 74.5874C34.8471 74.7507 35.2412 75.153 35.492 75.7944C35.7428 76.4358 35.8543 77.1599 35.8266 77.9667C35.792 78.7605 35.6641 79.5749 35.443 80.4099L35.5326 80.4371C35.9148 79.1076 36.4298 77.9488 37.0778 76.9609C37.4443 76.3984 37.8546 75.9959 38.3087 75.7534C38.7658 75.501 39.2332 75.4473 39.7108 75.5924C40.6761 75.8856 41.2883 76.4466 41.5474 77.2753C41.7995 78.091 41.7034 79.2303 41.2591 80.6931ZM32.5052 80.9032L35.0128 81.665L35.0718 81.471C35.5948 79.7494 35.0303 78.6378 33.3785 78.136C32.6222 77.9062 31.99 77.9478 31.4819 78.2609C30.9638 78.5708 30.5914 79.099 30.3647 79.8453L30.2921 80.0841C30.7625 80.3249 31.5001 80.5979 32.5052 80.9032ZM35.3229 81.4494L35.2367 81.733L38.1175 82.6082C39.1723 82.9286 39.8924 83.0985 40.2779 83.1178L40.3459 82.8939C40.6422 81.9187 40.6435 81.1093 40.3499 80.4658C40.0562 79.8222 39.5164 79.3811 38.7303 79.1422C37.8944 78.8883 37.1908 78.968 36.6196 79.3815C36.0484 79.7949 35.6161 80.4842 35.3229 81.4494Z" fill="#FDF4EE"/>
<path d="M50.1014 62.5698C50.1329 62.5159 50.1711 62.5022 50.216 62.5285C50.2519 62.5495 50.2541 62.5869 50.2225 62.6408C50.0806 62.883 49.9008 63.1694 49.6831 63.4999C49.4744 63.8357 49.3674 64.008 49.3621 64.017L47.7378 66.7899C47.7325 66.7988 47.6345 66.9765 47.4437 67.3227C47.2619 67.6742 47.1001 67.9711 46.9581 68.2134C46.9266 68.2673 46.8929 68.2837 46.857 68.2626C46.8121 68.2364 46.8055 68.1963 46.837 68.1425C47.1044 67.6242 47.1329 67.1949 46.9224 66.8546C46.703 66.5091 46.087 66.0278 45.0745 65.4106L41.0633 63.0608L42.7446 69.0176L42.9061 69.1122C43.9397 69.6935 44.6608 69.9954 45.0695 70.0179C45.4692 70.0351 45.8297 69.8003 46.151 69.3135C46.1825 69.2597 46.2207 69.2459 46.2656 69.2722C46.3015 69.2932 46.3037 69.3307 46.2721 69.3845C46.1302 69.6268 45.9504 69.9132 45.7327 70.2437C45.524 70.5794 45.417 70.7518 45.4117 70.7607L43.7874 73.5336C43.7821 73.5426 43.6841 73.7202 43.4933 74.0665C43.3115 74.418 43.1497 74.7149 43.0077 74.9572C42.9762 75.011 42.9425 75.0274 42.9066 75.0064C42.8617 74.9801 42.8551 74.94 42.8866 74.8862C43.1541 74.3679 43.1825 73.9386 42.972 73.5984C42.7526 73.2529 42.1366 72.7715 41.1241 72.1543L36.8706 69.6626C35.846 69.0866 35.1268 68.7918 34.7128 68.7783C34.3041 68.7559 33.9418 68.9835 33.6257 69.4613C33.5942 69.5152 33.5605 69.5316 33.5246 69.5105C33.4797 69.4843 33.4731 69.4442 33.5046 69.3903C33.6465 69.1481 33.8263 68.8617 34.044 68.5312C34.2528 68.1954 34.3598 68.0231 34.365 68.0141L35.9893 65.2412C35.9946 65.2323 36.0926 65.0546 36.2834 64.7084C36.4652 64.3569 36.6271 64.06 36.769 63.8177C36.8005 63.7638 36.8387 63.7501 36.8836 63.7763C36.9195 63.7974 36.9217 63.8348 36.8901 63.8886C36.6279 64.398 36.6039 64.8299 36.8181 65.1844C37.0376 65.5299 37.6491 66.0086 38.6526 66.6205L42.435 68.8362L40.7806 62.8952C39.8204 62.3328 39.1217 62.044 38.6846 62.029C38.2527 62.005 37.8832 62.2345 37.5761 62.7176C37.5446 62.7714 37.5109 62.7878 37.475 62.7668C37.4301 62.7405 37.4234 62.7004 37.455 62.6466C37.5969 62.4043 37.7767 62.1179 37.9944 61.7874C38.2032 61.4517 38.3101 61.2793 38.3154 61.2704L39.9397 58.4975C39.945 58.4885 40.043 58.3109 40.2338 57.9646C40.4156 57.6131 40.5774 57.3162 40.7194 57.0739C40.7509 57.0201 40.7891 57.0063 40.834 57.0326C40.8699 57.0536 40.8721 57.0911 40.8405 57.1449C40.5783 57.6542 40.5543 58.0861 40.7685 58.4406C40.988 58.7861 41.5995 59.2649 42.603 59.8768L46.8565 62.3685C47.89 62.9498 48.6112 63.2517 49.0199 63.2741C49.4196 63.2913 49.7801 63.0565 50.1014 62.5698Z" fill="#FDF4EE"/>
<path d="M59.2762 52.5834L59.2423 52.5512C59.491 52.7876 59.7585 53.0346 60.0446 53.2922C60.6167 53.8073 61.0649 54.2189 61.3891 54.5269C61.4418 54.5771 61.4724 54.6204 61.4807 54.657C61.4889 54.6936 61.471 54.7124 61.4269 54.7136C61.39 54.7071 61.3451 54.6789 61.2924 54.6287C60.5245 53.942 59.8909 53.6124 59.3913 53.6398C58.8918 53.6672 58.2222 54.0926 57.3824 54.9158L52.9118 59.6198C52.3756 60.2293 52.0243 60.7348 51.8579 61.1363C51.7063 61.5374 51.7011 61.9127 51.8424 62.2622C51.9985 62.6113 52.3256 63.037 52.8239 63.5393C52.8767 63.5894 52.9036 63.6366 52.9047 63.6807C52.913 63.7172 52.8987 63.7323 52.8617 63.7259C52.8248 63.7195 52.7799 63.6912 52.7272 63.641C52.1241 63.0679 51.6867 62.645 51.4149 62.3724C51.3018 62.2649 51.1812 62.1503 51.0531 62.0285C50.9396 61.9063 50.849 61.813 50.7811 61.7485C50.7204 61.6765 50.675 61.6261 50.6449 61.5975L50.6788 61.6297L51.7427 60.5102C52.0817 59.9572 51.5402 58.9117 50.1181 57.3736L47.6333 54.6893L47.1567 54.1718C46.3267 53.3543 45.6866 52.9181 45.2365 52.8634C44.786 52.7939 44.27 53.0424 43.6886 53.609C43.6527 53.6466 43.6201 53.6659 43.5907 53.6666C43.5613 53.6674 43.5462 53.653 43.5455 53.6236C43.5372 53.5871 43.551 53.5499 43.5868 53.5122C43.8232 53.2635 44.1567 52.9276 44.5874 52.5047C44.8027 52.2933 45.0035 52.0895 45.1897 51.8935L50.23 46.5902C50.2371 46.5826 50.3731 46.432 50.6378 46.1384C50.895 45.8376 51.1203 45.5854 51.3137 45.3819C51.3567 45.3367 51.397 45.332 51.4347 45.3678C51.4649 45.3964 51.4585 45.4334 51.4155 45.4786C51.0441 45.9147 50.9222 46.3298 51.0499 46.7238C51.1848 47.1102 51.671 47.7158 52.5085 48.5405L58.0833 53.8386L59.2762 52.5834ZM52.0329 60.2049L55.6545 56.3942L48.0783 49.1938L45.4453 51.9643L47.5904 54.3042L50.2228 57.1503C50.6091 57.5892 50.9161 57.9455 51.1437 58.2193C51.3639 58.4859 51.5783 58.8188 51.7871 59.2181C51.9808 59.603 52.0627 59.932 52.0329 60.2049Z" fill="#FDF4EE"/>
<path d="M67.2025 41.5813C67.1899 41.5267 67.2096 41.5004 67.2616 41.5023L67.2922 41.519L69.4159 46.7106C69.4522 46.7994 69.4223 46.8201 69.3262 46.7729C68.6589 46.5779 68.0007 46.7057 67.3515 47.1566L61.3163 51.3474C61.3077 51.3534 61.1441 51.4733 60.8254 51.7073C60.5127 51.9498 60.241 52.1511 60.0103 52.3113C59.9591 52.3468 59.9216 52.3476 59.8979 52.3134C59.8682 52.2707 59.879 52.2315 59.9303 52.1959C60.3908 51.8381 60.5972 51.4606 60.5492 51.0634C60.4954 50.6576 60.1389 49.9619 59.4797 48.9762L56.668 44.9271C55.9806 43.9737 55.452 43.4038 55.0821 43.2175C54.7207 43.0253 54.2962 43.0795 53.8085 43.3802C53.7573 43.4158 53.7198 43.4165 53.6961 43.3823C53.6664 43.3396 53.6772 43.3004 53.7285 43.2649C53.9591 43.1047 54.2427 42.9204 54.5791 42.7121C54.9097 42.4952 55.0792 42.3838 55.0878 42.3779L60.2132 38.8188C60.6574 38.5103 60.996 38.1866 61.229 37.8475C61.4706 37.5025 61.5629 37.1978 61.506 36.9335C61.4953 36.8269 61.5252 36.8062 61.5957 36.8712L65.9325 40.7918C65.9503 40.8175 65.9422 40.8421 65.908 40.8659C65.8824 40.8837 65.8564 40.8827 65.83 40.863C64.5542 40.065 63.1861 39.6539 61.7259 39.6296C60.2512 39.6028 59.0824 39.8889 58.2196 40.488L57.989 40.6482L60.8986 44.8382L61.5136 44.4111C62.1458 43.9722 62.5131 43.4892 62.6156 42.9622C62.7352 42.4233 62.6675 41.9702 62.4124 41.6029C62.3768 41.5516 62.3761 41.5142 62.4103 41.4904C62.4444 41.4667 62.4793 41.4805 62.5149 41.5317L64.7038 44.6839C64.7216 44.7095 64.7279 44.7368 64.7226 44.7657C64.7115 44.7861 64.6944 44.798 64.6714 44.8013C64.6424 44.7961 64.6191 44.7807 64.6013 44.755C64.3106 44.3365 63.8966 44.1049 63.3591 44.0602C62.8243 44.0011 62.2536 44.1822 61.6471 44.6033L61.032 45.0304L63.9505 49.2333L64.1684 49.082C64.792 48.649 65.5208 47.7567 66.3549 46.4052C66.763 45.7166 67.0599 44.9407 67.2455 44.0774C67.4251 43.2056 67.4108 42.3736 67.2025 41.5813Z" fill="#FDF4EE"/>
<path d="M80.363 39.4524C79.5913 40.9151 78.3008 42.0172 76.4916 42.7586C74.6824 43.5 72.9897 43.6205 71.4134 43.12C69.8428 42.606 68.742 41.5792 68.111 40.0394C67.48 38.4997 67.5456 37.0005 68.3077 35.5417C69.0659 34.0733 70.3544 32.9665 72.1732 32.2211C73.992 31.4757 75.6867 31.3601 77.2574 31.8741C78.8337 32.3745 79.9373 33.3946 80.5683 34.9343C81.1953 36.4644 81.1269 37.9704 80.363 39.4524ZM76.8444 42.3442C78.5875 41.5512 78.8091 39.7745 77.5093 37.014C76.9349 35.7771 76.1491 34.6548 75.1517 33.6474C74.6316 33.1187 74.0753 32.7623 73.4828 32.578C72.8959 32.3801 72.3418 32.3993 71.8204 32.6354C71.3183 32.8637 70.9271 33.1982 70.6469 33.639C70.0769 34.5245 70.2524 35.9811 71.1733 38.0089C71.7319 39.2074 72.5149 40.3364 73.5223 41.396C74.0385 41.915 74.5928 42.2666 75.1854 42.4509C75.774 42.6256 76.327 42.59 76.8444 42.3442Z" fill="#FDF4EE"/>
<path d="M95.5104 33.1049L89.8718 34.0024L89.835 33.7714L95.4736 32.8738L95.5104 33.1049Z" fill="#FDF4EE"/>
<circle opacity="0.4" cx="100.004" cy="100" r="4" transform="rotate(-90 100.004 100)" fill="#FDF1EC"/>
</svg>
