<svg width="200" height="200" viewBox="0 0 200 200" fill="none" xmlns="http://www.w3.org/2000/svg">
<circle cx="100" cy="100" r="99.5" stroke="#B55A2B"/>
<circle opacity="0.4" cx="100" cy="100" r="4" fill="#B55A2B"/>
<path d="M164.956 111.777C164.953 111.805 164.941 111.823 164.922 111.831C164.901 111.848 164.882 111.846 164.865 111.825C164.847 111.814 164.839 111.794 164.842 111.766C164.869 111.491 164.909 111.175 164.962 110.816C165.006 110.467 165.028 110.288 165.029 110.278L165.227 108.218C165.228 108.209 165.241 108.024 165.267 107.663C165.282 107.301 165.303 106.988 165.329 106.723C165.336 106.647 165.362 106.625 165.406 106.658C165.433 106.68 165.445 106.705 165.442 106.734C165.433 107.125 165.477 107.411 165.574 107.592C165.671 107.774 165.871 107.917 166.176 108.023C166.49 108.13 167.005 108.228 167.721 108.317L169.068 108.447C168.723 107.467 168.593 106.542 168.677 105.671C168.749 104.932 168.923 104.265 169.199 103.671C169.4 103.27 169.633 102.934 169.897 102.663C170.192 102.376 170.59 102.152 171.092 101.99C171.603 101.839 172.165 101.793 172.779 101.853L173.346 101.908C174.066 101.958 174.586 101.961 174.905 101.915C175.232 101.88 175.461 101.783 175.591 101.623C175.721 101.464 175.819 101.187 175.886 100.792C175.888 100.763 175.9 100.74 175.921 100.723C175.941 100.716 175.96 100.718 175.978 100.729C175.996 100.74 176.003 100.765 175.999 100.803C175.973 101.077 175.933 101.389 175.88 101.737C175.836 102.096 175.814 102.281 175.813 102.29L175.614 104.35C175.613 104.359 175.6 104.545 175.575 104.905C175.559 105.267 175.538 105.58 175.513 105.846C175.505 105.921 175.479 105.943 175.435 105.91C175.408 105.888 175.396 105.863 175.399 105.835C175.41 105.53 175.394 105.294 175.353 105.128C175.32 104.971 175.22 104.828 175.051 104.697C174.882 104.575 174.652 104.481 174.363 104.415C174.082 104.359 173.669 104.3 173.121 104.237L172.413 104.169C171.421 104.073 170.621 104.205 170.014 104.567C169.416 104.93 169.081 105.495 169.007 106.262C168.947 106.877 169.043 107.613 169.294 108.469L172.682 108.797C173.401 108.848 173.921 108.851 174.24 108.805C174.569 108.76 174.798 108.658 174.928 108.499C175.057 108.339 175.155 108.067 175.221 107.681C175.224 107.653 175.236 107.63 175.256 107.613C175.276 107.605 175.295 107.607 175.313 107.619C175.331 107.63 175.338 107.654 175.334 107.692C175.309 107.958 175.269 108.269 175.216 108.627C175.171 108.986 175.149 109.17 175.148 109.18L174.949 111.24C174.948 111.249 174.936 111.429 174.911 111.781C174.896 112.143 174.874 112.461 174.848 112.735C174.845 112.764 174.834 112.782 174.814 112.789C174.793 112.806 174.774 112.805 174.757 112.784C174.739 112.773 174.732 112.753 174.735 112.724C174.745 112.419 174.729 112.184 174.688 112.017C174.656 111.861 174.555 111.718 174.387 111.587C174.217 111.465 173.988 111.371 173.698 111.305C173.418 111.249 173.004 111.19 172.457 111.127L167.496 110.646C166.947 110.603 166.525 110.581 166.23 110.581C165.942 110.591 165.704 110.64 165.515 110.727C165.324 110.823 165.193 110.944 165.122 111.09C165.059 111.246 165.004 111.475 164.956 111.777Z" fill="#B55A2B"/>
<path d="M161.151 124.959C161.143 124.986 161.128 125.002 161.107 125.005C161.083 125.018 161.064 125.017 161.048 125.002C161.033 124.987 161.031 124.962 161.042 124.926C161.123 124.662 161.226 124.36 161.35 124.02C161.463 123.686 161.52 123.515 161.523 123.506L162.131 121.528C162.133 121.519 162.183 121.34 162.28 120.992C162.366 120.65 162.449 120.347 162.53 120.083C162.538 120.056 162.554 120.036 162.578 120.024C162.599 120.02 162.617 120.026 162.632 120.04C162.645 120.064 162.647 120.09 162.639 120.117C162.548 120.507 162.533 120.801 162.591 120.998C162.65 121.196 162.818 121.377 163.095 121.542C163.381 121.71 163.866 121.909 164.55 122.14L169.204 123.577L165.947 117.495C165.261 117.303 164.757 117.197 164.436 117.177C164.114 117.158 163.873 117.213 163.714 117.343C163.555 117.473 163.405 117.72 163.263 118.085C163.246 118.139 163.22 118.161 163.183 118.15C163.147 118.139 163.137 118.106 163.154 118.051C163.235 117.787 163.336 117.49 163.458 117.159C163.57 116.826 163.628 116.654 163.631 116.645L164.242 114.654C164.245 114.645 164.294 114.47 164.388 114.131C164.473 113.789 164.556 113.486 164.637 113.223C164.654 113.168 164.681 113.146 164.717 113.158C164.753 113.169 164.763 113.202 164.746 113.256C164.659 113.637 164.645 113.927 164.703 114.124C164.762 114.321 164.93 114.502 165.207 114.668C165.493 114.836 165.978 115.035 166.662 115.266L171.424 116.736C172.119 116.931 172.628 117.038 172.95 117.057C173.28 117.08 173.525 117.026 173.684 116.896C173.844 116.766 173.994 116.519 174.136 116.154C174.153 116.1 174.179 116.078 174.215 116.089C174.252 116.1 174.261 116.133 174.245 116.188C174.164 116.452 174.062 116.749 173.941 117.08C173.828 117.413 173.771 117.585 173.768 117.594L173.156 119.585C173.153 119.594 173.105 119.768 173.011 120.108C172.925 120.45 172.842 120.753 172.761 121.016C172.745 121.071 172.718 121.093 172.682 121.081C172.645 121.07 172.636 121.037 172.652 120.983C172.74 120.602 172.754 120.312 172.696 120.115C172.637 119.918 172.465 119.735 172.179 119.567C171.901 119.402 171.421 119.204 170.737 118.973L166.206 117.574L169.449 123.652C170.086 123.839 170.568 123.938 170.892 123.949C171.217 123.959 171.455 123.894 171.608 123.752C171.767 123.621 171.907 123.376 172.028 123.015C172.036 122.988 172.053 122.968 172.076 122.955C172.097 122.952 172.115 122.957 172.131 122.972C172.143 122.996 172.145 123.021 172.137 123.049C172.056 123.312 171.955 123.61 171.833 123.94C171.718 124.283 171.659 124.459 171.656 124.468L171.049 126.446C171.046 126.455 170.997 126.629 170.903 126.969C170.815 127.32 170.73 127.627 170.649 127.891C170.627 127.964 170.597 127.979 170.56 127.938C170.536 127.921 170.529 127.894 170.541 127.857C170.628 127.476 170.642 127.187 170.584 126.989C170.525 126.792 170.353 126.61 170.067 126.442C169.79 126.276 169.309 126.078 168.625 125.847L163.862 124.377C163.167 124.183 162.654 124.074 162.324 124.052C162.002 124.032 161.761 124.087 161.602 124.217C161.443 124.347 161.293 124.595 161.151 124.959Z" fill="#B55A2B"/>
<path d="M157.944 130.998L158.848 129.266C158.852 129.257 158.974 129.015 159.212 128.538C159.437 128.066 159.64 127.657 159.82 127.311C159.842 127.269 159.866 127.244 159.891 127.236C159.917 127.228 159.934 127.237 159.942 127.262C159.958 127.292 159.955 127.329 159.933 127.371C159.748 127.767 159.626 128.074 159.566 128.29C159.511 128.518 159.53 128.749 159.624 128.98C159.726 129.216 159.9 129.426 160.147 129.609C160.399 129.805 160.781 130.048 161.293 130.338L167.602 133.646L167.819 133.229C168.083 132.723 168.048 131.979 167.714 130.999C167.362 130.03 166.736 129.074 165.836 128.13C165.782 128.069 165.783 128.037 165.838 128.034C165.851 128.03 165.87 128.035 165.895 128.048L169.857 131.14C169.874 131.17 169.861 131.195 169.818 131.216C169.537 131.219 169.272 131.359 169.02 131.635C168.765 131.92 168.45 132.421 168.076 133.137L166.373 136.4C165.982 137.151 165.749 137.7 165.674 138.047C165.596 138.403 165.635 138.698 165.792 138.93C165.808 138.982 165.795 139.007 165.753 139.006L160.959 137.508C160.925 137.49 160.911 137.466 160.915 137.437C160.924 137.42 160.948 137.416 160.986 137.425C162.277 137.619 163.424 137.576 164.427 137.297C165.422 137.013 166.053 136.614 166.321 136.099L166.519 135.72L160.211 132.412C159.555 132.069 159.038 131.868 158.662 131.81C158.285 131.752 157.976 131.81 157.735 131.984C157.502 132.163 157.259 132.497 157.003 132.986C156.981 133.028 156.958 133.053 156.932 133.061C156.906 133.069 156.889 133.06 156.881 133.035C156.865 133.004 156.868 132.968 156.89 132.926C157.07 132.581 157.292 132.176 157.555 131.713C157.81 131.245 157.94 131.007 157.944 130.998Z" fill="#B55A2B"/>
<path d="M148.603 144.673C148.586 144.696 148.566 144.705 148.546 144.701C148.525 144.696 148.51 144.685 148.501 144.665C148.491 144.646 148.496 144.625 148.513 144.603C148.647 144.43 148.821 144.222 149.034 143.979C149.24 143.729 149.346 143.601 149.352 143.593L150.734 141.814C150.74 141.807 150.859 141.646 151.09 141.333C151.309 141.021 151.503 140.756 151.672 140.538C151.689 140.516 151.711 140.503 151.738 140.499C151.759 140.504 151.774 140.515 151.783 140.535C151.786 140.561 151.779 140.586 151.762 140.608C151.432 141.063 151.381 141.439 151.607 141.736C151.835 142.047 152.431 142.349 153.394 142.642L153.541 142.685L156.297 139.138C155.978 138.527 155.532 138.125 154.96 137.932C154.396 137.745 153.917 137.889 153.523 138.365C153.505 138.388 153.486 138.397 153.465 138.393C153.439 138.396 153.424 138.384 153.42 138.358C153.404 138.333 153.404 138.309 153.422 138.286C153.527 138.151 153.808 137.804 154.266 137.245C154.496 136.966 154.692 136.721 154.855 136.511C154.948 136.391 155.053 136.249 155.168 136.086C155.398 135.759 155.548 135.55 155.618 135.46C155.635 135.438 155.659 135.438 155.689 135.461C155.719 135.485 155.725 135.508 155.708 135.53C155.493 135.821 155.471 136.292 155.639 136.942C155.805 137.627 156.06 138.29 156.403 138.932L159.11 144.066C159.793 144.177 160.372 144.261 160.845 144.317C160.899 144.311 160.914 144.329 160.893 144.372C160.701 144.789 160.572 145.219 160.505 145.661C160.429 146.145 160.446 146.526 160.555 146.804C160.557 146.818 160.545 146.833 160.52 146.849L151.871 144.601C150.864 144.334 150.13 144.195 149.669 144.184C149.236 144.184 148.88 144.347 148.603 144.673ZM156.404 139.349L153.762 142.749C155.972 143.389 157.679 143.817 158.882 144.033L156.404 139.349Z" fill="#B55A2B"/>
<path d="M143.486 149.312L144.933 148.001C144.94 147.995 145.138 147.81 145.526 147.446C145.901 147.081 146.233 146.768 146.521 146.506C146.557 146.474 146.588 146.459 146.615 146.46C146.641 146.462 146.654 146.476 146.653 146.503C146.658 146.537 146.643 146.57 146.607 146.601C146.296 146.909 146.075 147.154 145.945 147.336C145.814 147.531 145.752 147.754 145.76 148.003C145.774 148.26 145.865 148.517 146.033 148.775C146.201 149.046 146.475 149.407 146.855 149.858L151.627 155.154L151.976 154.838C152.398 154.455 152.622 153.746 152.648 152.71C152.654 151.68 152.398 150.565 151.881 149.366C151.851 149.291 151.862 149.261 151.915 149.277C151.929 149.278 151.945 149.289 151.964 149.31L154.61 153.588C154.615 153.622 154.594 153.641 154.546 153.645C154.282 153.551 153.985 153.59 153.653 153.762C153.315 153.94 152.846 154.3 152.248 154.842L149.521 157.31C148.894 157.877 148.486 158.311 148.296 158.611C148.099 158.918 148.034 159.208 148.1 159.48C148.098 159.534 148.077 159.553 148.037 159.538L144.06 156.465C144.034 156.437 144.029 156.41 144.044 156.383C144.058 156.371 144.081 156.375 144.114 156.397C145.258 157.028 146.348 157.387 147.386 157.474C148.417 157.553 149.147 157.398 149.577 157.009L149.894 156.722L145.122 151.426C144.626 150.876 144.211 150.508 143.878 150.322C143.545 150.137 143.235 150.084 142.948 150.164C142.668 150.25 142.324 150.479 141.916 150.849C141.88 150.88 141.849 150.896 141.822 150.894C141.796 150.893 141.783 150.879 141.784 150.852C141.779 150.818 141.794 150.785 141.83 150.753C142.118 150.492 142.467 150.19 142.874 149.847C143.275 149.496 143.479 149.318 143.486 149.312Z" fill="#B55A2B"/>
<path d="M139.192 159.269L138.159 159.928C136.685 160.868 135.429 161.398 134.392 161.518C133.352 161.651 132.617 161.381 132.189 160.707C131.721 159.968 131.69 159.193 132.097 158.381C132.504 157.568 133.32 156.772 134.545 155.99L138.233 153.638C138.241 153.633 138.391 153.532 138.682 153.335C138.968 153.13 139.227 152.953 139.46 152.805C139.508 152.775 139.542 152.775 139.562 152.807C139.588 152.848 139.576 152.883 139.528 152.914C139.21 153.139 139.01 153.346 138.927 153.534C138.844 153.723 138.857 153.974 138.966 154.287C139.075 154.601 139.315 155.068 139.687 155.688L142.347 159.879C142.75 160.479 143.07 160.895 143.307 161.127C143.545 161.359 143.766 161.477 143.971 161.481C144.177 161.486 144.449 161.391 144.787 161.198C144.835 161.167 144.869 161.168 144.89 161.2C144.91 161.232 144.896 161.264 144.848 161.294C144.616 161.442 144.347 161.603 144.04 161.776C143.739 161.957 143.584 162.05 143.576 162.055L141.842 163.178C141.834 163.183 141.68 163.287 141.381 163.489C141.087 163.699 140.828 163.875 140.603 164.018C140.539 164.059 140.507 164.052 140.505 163.997C140.498 163.967 140.51 163.943 140.542 163.922C140.855 163.689 141.053 163.478 141.136 163.289C141.219 163.101 141.206 162.85 141.097 162.536C140.993 162.231 140.755 161.768 140.384 161.147L139.192 159.269ZM136.37 155.063L135.541 155.592C134.732 156.108 134.219 156.7 134.002 157.368C133.785 158.037 133.876 158.684 134.273 159.31C135.139 160.675 136.622 160.688 138.72 159.35L139.092 159.112L137.655 156.849C137.054 155.901 136.626 155.306 136.37 155.063Z" fill="#B55A2B"/>
<path d="M124.557 166.748L123.399 167.149C121.749 167.72 120.405 167.944 119.368 167.82C118.325 167.708 117.673 167.274 117.413 166.519C117.128 165.692 117.277 164.93 117.861 164.235C118.445 163.539 119.423 162.954 120.795 162.479L124.927 161.048C124.936 161.045 125.105 160.981 125.434 160.857C125.76 160.724 126.053 160.613 126.313 160.523C126.367 160.504 126.4 160.513 126.412 160.549C126.428 160.594 126.408 160.625 126.355 160.644C125.993 160.789 125.75 160.944 125.626 161.108C125.501 161.272 125.456 161.519 125.49 161.85C125.523 162.18 125.649 162.69 125.867 163.38L127.485 168.074C127.738 168.752 127.954 169.231 128.131 169.512C128.308 169.792 128.496 169.959 128.695 170.011C128.893 170.063 129.18 170.034 129.554 169.925C129.607 169.906 129.641 169.915 129.653 169.951C129.665 169.987 129.645 170.014 129.591 170.033C129.331 170.123 129.031 170.216 128.693 170.313C128.358 170.419 128.186 170.474 128.177 170.477L125.598 171.385L123.149 172.233C122.198 172.563 121.695 172.968 121.64 173.45C121.623 173.517 121.596 173.526 121.559 173.478L118.988 169.341C118.979 169.314 118.987 169.296 119.014 169.286C119.041 169.277 119.068 169.283 119.096 169.303C119.974 170.338 120.937 171.031 121.982 171.384C123.016 171.731 123.981 171.749 124.878 171.438L124.972 171.406L124.968 171.392L125.91 171.066C125.851 170.633 125.659 169.945 125.333 169L124.557 166.748ZM122.785 162.001L121.856 162.323C120.95 162.636 120.314 163.093 119.949 163.693C119.583 164.293 119.521 164.943 119.763 165.645C120.29 167.174 121.729 167.531 124.079 166.717L124.496 166.572L123.622 164.036C123.256 162.975 122.977 162.297 122.785 162.001Z" fill="#B55A2B"/>
<path d="M104.046 166.085C104.018 166.09 103.997 166.083 103.985 166.066C103.964 166.05 103.961 166.031 103.977 166.009C103.983 165.989 104.001 165.977 104.029 165.973C104.301 165.931 104.617 165.893 104.976 165.858C105.325 165.814 105.504 165.792 105.513 165.791L107.555 165.481C107.564 165.48 107.746 165.447 108.102 165.384C108.455 165.311 108.764 165.254 109.026 165.214C109.102 165.203 109.129 165.223 109.107 165.274C109.102 165.304 109.081 165.322 109.044 165.327C108.663 165.414 108.397 165.526 108.245 165.665C108.093 165.804 108.003 166.034 107.975 166.355C107.948 166.687 107.979 167.211 108.068 167.929L109.159 175.154L113.425 174.507L113.318 173.513C113.306 173.37 113.293 173.156 113.278 172.869C113.254 172.584 113.236 172.332 113.222 172.113C113.2 171.904 113.179 171.734 113.159 171.603L113.064 170.592C112.895 168.645 113.028 167.047 113.463 165.797C113.786 164.815 114.313 164.268 115.045 164.157C115.345 164.112 115.601 164.155 115.813 164.286C116.017 164.428 116.137 164.617 116.172 164.852C116.216 165.144 116.144 165.396 115.955 165.607C115.767 165.828 115.514 165.963 115.195 166.011C114.726 166.082 114.206 166.007 113.635 165.786C113.206 167.015 113.086 168.607 113.275 170.56L113.38 171.728C113.381 171.737 113.394 171.885 113.417 172.17C113.481 172.718 113.554 173.135 113.635 173.421C113.717 173.707 113.841 173.924 114.007 174.072C114.175 174.23 114.37 174.315 114.593 174.33C114.808 174.355 115.119 174.346 115.525 174.304C115.572 174.297 115.607 174.301 115.628 174.317C115.65 174.333 115.653 174.352 115.637 174.374C115.621 174.395 115.589 174.41 115.542 174.417C115.176 174.472 114.753 174.527 114.271 174.581C113.782 174.645 113.532 174.678 113.523 174.68L107.005 175.668C106.995 175.67 106.818 175.702 106.472 175.764C106.118 175.837 105.805 175.894 105.533 175.935C105.505 175.939 105.484 175.933 105.472 175.915C105.451 175.899 105.448 175.881 105.464 175.859C105.47 175.839 105.488 175.826 105.516 175.822C105.813 175.758 106.037 175.685 106.188 175.605C106.332 175.535 106.446 175.402 106.532 175.206C106.608 175.012 106.643 174.766 106.636 174.469C106.622 174.182 106.578 173.765 106.505 173.218L105.759 168.279C105.668 167.735 105.586 167.319 105.513 167.032C105.433 166.755 105.328 166.536 105.198 166.373C105.058 166.211 104.909 166.113 104.75 166.08C104.584 166.057 104.349 166.059 104.046 166.085Z" fill="#B55A2B"/>
<path d="M96.816 165.643C98.4943 165.721 99.8425 166.26 100.861 167.26C101.879 168.259 102.353 169.515 102.283 171.026C102.213 172.547 101.61 173.771 100.474 174.7C99.3282 175.637 97.9352 176.068 96.2948 175.991C94.5975 175.913 93.2398 175.373 92.2217 174.373C91.1946 173.364 90.716 172.103 90.7858 170.592C90.8557 169.081 91.4635 167.857 92.6091 166.919C93.7448 165.991 95.1471 165.566 96.816 165.643ZM96.4227 165.825C95.6447 165.798 94.9477 166.075 94.3317 166.656C93.6363 167.31 93.2784 168.474 93.258 170.15C93.2439 171.483 93.5098 172.719 94.0558 173.859C94.3238 174.433 94.6872 174.898 95.1459 175.252C95.5951 175.606 96.095 175.792 96.6454 175.808C97.4333 175.825 98.1352 175.544 98.7513 174.963C99.4372 174.309 99.7908 173.134 99.8121 171.44C99.8258 170.117 99.5646 168.881 99.0285 167.732C98.751 167.157 98.3874 166.697 97.9377 166.352C97.4786 166.007 96.9736 165.831 96.4227 165.825Z" fill="#B55A2B"/>
<path d="M80.0414 174.038L79.9967 169.164C80.0028 169.136 80.0243 169.126 80.0614 169.134C80.0893 169.14 80.1048 169.158 80.108 169.188C80.3299 170.532 80.7908 171.626 81.4908 172.471C82.1928 173.307 83.0074 173.826 83.9348 174.029L84.4077 174.133C84.5824 173.733 84.7772 173.04 84.992 172.055L86.0349 167.273C86.1481 166.664 86.216 166.197 86.2385 165.871C86.2498 165.552 86.1979 165.278 86.0828 165.048C85.9564 164.825 85.788 164.662 85.5776 164.557C85.358 164.451 85.0229 164.338 84.5726 164.22C84.4891 164.202 84.4525 164.17 84.4626 164.123C84.4707 164.086 84.5165 164.077 84.6 164.095C84.9987 164.182 85.465 164.294 85.9988 164.431C86.5346 164.558 86.8072 164.622 86.8165 164.624L88.7639 165.051C88.7732 165.053 88.8566 165.071 89.0143 165.106C89.174 165.131 89.3697 165.169 89.6015 165.22C89.8261 165.259 90.0358 165.3 90.2305 165.343C90.3047 165.359 90.3228 165.388 90.2849 165.428C90.2695 165.454 90.2433 165.463 90.2062 165.455C89.8219 165.39 89.5342 165.395 89.3429 165.47C89.1517 165.545 88.9845 165.732 88.8414 166.032C88.6983 166.332 88.5405 166.833 88.3679 167.535L87.3098 172.387C87.1743 173.098 87.1091 173.619 87.1144 173.951C87.1197 174.284 87.1936 174.524 87.3362 174.672C87.4788 174.82 87.7382 174.945 88.1143 175.047C88.1422 175.053 88.1633 175.068 88.1778 175.09C88.183 175.111 88.179 175.129 88.1657 175.146C88.1523 175.163 88.1271 175.167 88.09 175.159C87.8304 175.102 87.5264 175.025 87.178 174.93C86.8277 174.843 86.6479 174.799 86.6386 174.797L84.5768 174.36L82.0452 173.805C81.0715 173.592 80.436 173.676 80.1387 174.059C80.0822 174.096 80.0498 174.089 80.0414 174.038Z" fill="#B55A2B"/>
<path d="M70.4297 163.234L75.2294 165.269L75.1573 165.44L70.3576 163.405L70.4297 163.234Z" fill="#B55A2B"/>
<path d="M57.5218 150.927C57.4984 150.911 57.4883 150.892 57.4913 150.871C57.4865 150.845 57.4974 150.829 57.5238 150.824C57.5424 150.814 57.5634 150.817 57.5868 150.833C57.8129 150.991 58.0687 151.18 58.3542 151.402C58.6372 151.611 58.7827 151.718 58.7905 151.723L60.4863 152.904C60.4941 152.909 60.6488 153.011 60.9505 153.209C61.2576 153.4 61.5203 153.571 61.7387 153.723C61.801 153.767 61.807 153.8 61.7565 153.822C61.7247 153.835 61.6971 153.833 61.6737 153.817C61.3378 153.618 61.0672 153.516 60.8618 153.512C60.6565 153.509 60.4333 153.614 60.1923 153.828C59.9458 154.051 59.6091 154.453 59.182 155.036L58.4105 156.15C59.4314 156.328 60.3006 156.666 61.0179 157.166C61.626 157.589 62.1212 158.067 62.5035 158.599C62.7545 158.971 62.9332 159.339 63.0396 159.702C63.1453 160.1 63.1458 160.558 63.0412 161.076C62.9234 161.596 62.6886 162.11 62.3366 162.618L62.0118 163.087C61.6159 163.692 61.3598 164.145 61.2435 164.447C61.114 164.75 61.0869 164.998 61.1623 165.189C61.2377 165.381 61.431 165.602 61.7422 165.854C61.7656 165.87 61.7797 165.891 61.7845 165.918C61.7814 165.939 61.7706 165.954 61.752 165.965C61.7333 165.975 61.7084 165.969 61.6772 165.947C61.4511 165.79 61.1993 165.603 60.9216 165.387C60.6307 165.173 60.4814 165.063 60.4736 165.057L58.7778 163.877C58.77 163.872 58.6152 163.77 58.3135 163.571C58.0064 163.381 57.7437 163.209 57.5254 163.058C57.463 163.014 57.4571 162.981 57.5075 162.958C57.5394 162.946 57.567 162.947 57.5904 162.964C57.8507 163.122 58.0634 163.223 58.2284 163.269C58.3802 163.317 58.5544 163.299 58.7508 163.215C58.9394 163.127 59.1333 162.972 59.3323 162.751C59.5181 162.533 59.7719 162.2 60.0937 161.752L60.4998 161.166C61.0683 160.346 61.3434 159.582 61.3252 158.874C61.3016 158.174 60.974 157.604 60.3425 157.165C59.8357 156.812 59.1484 156.536 58.2805 156.338L56.3395 159.139C55.9437 159.744 55.6876 160.197 55.5713 160.499C55.4496 160.808 55.4264 161.058 55.5018 161.249C55.5771 161.441 55.7665 161.66 56.07 161.906C56.0934 161.922 56.1074 161.943 56.1122 161.97C56.1092 161.991 56.0983 162.006 56.0797 162.017C56.0611 162.027 56.0362 162.021 56.005 161.999C55.7867 161.847 55.5348 161.66 55.2493 161.439C54.9585 161.225 54.8091 161.115 54.8014 161.109L53.1055 159.929C53.0977 159.924 52.9469 159.824 52.653 159.631C52.3459 159.441 52.0793 159.267 51.8532 159.109C51.8298 159.093 51.8196 159.075 51.8226 159.053C51.8178 159.027 51.8287 159.011 51.8551 159.007C51.8737 158.996 51.8947 158.999 51.9181 159.016C52.1785 159.174 52.3911 159.275 52.5562 159.321C52.708 159.369 52.8821 159.351 53.0785 159.267C53.2672 159.179 53.461 159.024 53.66 158.803C53.8459 158.585 54.0997 158.252 54.4215 157.804L57.264 153.701C57.5702 153.243 57.7955 152.884 57.94 152.626C58.0712 152.369 58.1454 152.137 58.1625 151.929C58.1718 151.715 58.1303 151.542 58.0381 151.408C57.9326 151.277 57.7605 151.116 57.5218 150.927Z" fill="#B55A2B"/>
<path d="M47.991 141.22C47.9713 141.199 47.965 141.179 47.9722 141.159C47.9728 141.132 47.9832 141.115 48.0035 141.109C48.0238 141.103 48.047 141.114 48.0733 141.141C48.2636 141.34 48.4767 141.577 48.7124 141.851C48.9484 142.112 49.0697 142.246 49.0763 142.253L50.504 143.748C50.5106 143.755 50.642 143.886 50.8983 144.14C51.1549 144.381 51.3784 144.601 51.5687 144.801C51.5884 144.821 51.598 144.845 51.5974 144.872C51.5902 144.892 51.5765 144.905 51.5562 144.912C51.5294 144.911 51.5061 144.9 51.4864 144.88C51.1902 144.611 50.9418 144.454 50.7414 144.409C50.5409 144.364 50.3013 144.423 50.0225 144.585C49.7369 144.754 49.3269 145.082 48.7927 145.568L45.2751 148.943L52.161 149.053C52.6622 148.546 52.9996 148.156 53.1734 147.884C53.3471 147.612 53.4161 147.375 53.3802 147.172C53.3443 146.969 53.2021 146.717 52.9535 146.416C52.9142 146.375 52.9082 146.341 52.9356 146.314C52.963 146.288 52.9964 146.296 53.0358 146.337C53.2262 146.536 53.436 146.77 53.6651 147.037C53.9011 147.298 54.0224 147.432 54.029 147.439L55.4666 148.944C55.4731 148.951 55.6013 149.078 55.851 149.326C56.1076 149.567 56.3311 149.787 56.5214 149.986C56.5608 150.028 56.5668 150.061 56.5394 150.088C56.5119 150.114 56.4785 150.107 56.4391 150.065C56.1494 149.803 55.9044 149.65 55.7039 149.605C55.5035 149.56 55.2639 149.619 54.9851 149.781C54.6994 149.95 54.2895 150.277 53.7553 150.764L50.1554 154.218C49.6474 154.732 49.3065 155.125 49.1328 155.397C48.9522 155.676 48.8798 155.916 48.9157 156.119C48.9515 156.322 49.0937 156.574 49.3423 156.875C49.3817 156.916 49.3877 156.95 49.3602 156.977C49.3328 157.003 49.2994 156.995 49.26 156.954C49.0697 156.755 48.8599 156.521 48.6307 156.254C48.3947 155.993 48.2734 155.859 48.2669 155.852L46.8293 154.347C46.8227 154.34 46.6946 154.213 46.4449 153.965C46.1883 153.724 45.9648 153.504 45.7744 153.305C45.735 153.263 45.7291 153.23 45.7565 153.203C45.7839 153.177 45.8173 153.184 45.8567 153.226C46.1464 153.488 46.3915 153.641 46.5919 153.686C46.7924 153.731 47.0354 153.669 47.3211 153.5C47.5998 153.338 48.0064 153.014 48.5406 152.527L51.9656 149.241L45.09 149.121C44.6166 149.588 44.2963 149.961 44.1291 150.24C43.9619 150.519 43.9029 150.76 43.9522 150.963C43.9881 151.166 44.1339 151.408 44.3896 151.69C44.4093 151.71 44.4189 151.734 44.4183 151.761C44.4111 151.781 44.3974 151.794 44.3771 151.8C44.3503 151.8 44.327 151.789 44.3073 151.769C44.117 151.569 43.9072 151.336 43.678 151.068C43.4355 150.801 43.3109 150.663 43.3043 150.656L41.8766 149.162C41.87 149.155 41.7419 149.027 41.4921 148.78C41.229 148.532 41.0022 148.308 40.8119 148.109C40.7594 148.054 40.7601 148.02 40.8141 148.008C40.8412 147.995 40.8679 148.002 40.8942 148.03C41.1839 148.292 41.4289 148.445 41.6294 148.49C41.8298 148.535 42.0729 148.473 42.3585 148.304C42.6373 148.142 43.0438 147.818 43.5781 147.331L47.1779 143.877C47.6859 143.363 48.0302 142.967 48.2108 142.688C48.3846 142.416 48.4535 142.179 48.4177 141.976C48.3818 141.774 48.2396 141.521 47.991 141.22Z" fill="#B55A2B"/>
<path d="M44.2272 135.371L45.2924 137.009C45.2976 137.017 45.4493 137.241 45.7475 137.682C46.0485 138.11 46.3053 138.488 46.5178 138.814C46.5437 138.854 46.5539 138.887 46.5484 138.914C46.5428 138.94 46.5269 138.951 46.5007 138.945C46.4664 138.945 46.4364 138.924 46.4104 138.885C46.1561 138.528 45.9494 138.272 45.7905 138.114C45.6183 137.954 45.4087 137.858 45.1615 137.827C44.9064 137.8 44.6387 137.85 44.3583 137.977C44.0648 138.1 43.6663 138.315 43.1629 138.621L37.1988 142.518L37.4554 142.913C37.7664 143.391 38.4304 143.724 39.4474 143.911C40.4619 144.077 41.6001 143.998 42.862 143.673C42.9412 143.656 42.9686 143.672 42.9444 143.722C42.9417 143.735 42.9284 143.749 42.9045 143.765L38.2756 145.716C38.2413 145.715 38.2258 145.692 38.2289 145.644C38.3631 145.397 38.3715 145.097 38.254 144.742C38.1314 144.379 37.8498 143.859 37.4092 143.181L35.4031 140.097C34.9418 139.387 34.5781 138.915 34.312 138.68C34.0406 138.437 33.7653 138.327 33.486 138.351C33.4335 138.34 33.4179 138.316 33.4394 138.279L37.0886 134.822C37.1204 134.801 37.1481 134.8 37.1716 134.819C37.1819 134.834 37.1738 134.857 37.1472 134.886C36.3467 135.92 35.8227 136.943 35.5753 137.957C35.3358 138.965 35.3742 139.712 35.6904 140.199L35.9237 140.557L41.8878 136.661C42.508 136.255 42.9356 135.902 43.1704 135.601C43.4052 135.3 43.5056 135.002 43.4718 134.706C43.4301 134.415 43.2589 134.038 42.9582 133.576C42.9323 133.536 42.9221 133.503 42.9277 133.477C42.9332 133.451 42.9491 133.44 42.9754 133.446C43.0096 133.446 43.0397 133.466 43.0656 133.506C43.2781 133.833 43.5216 134.225 43.7959 134.681C44.0783 135.133 44.222 135.363 44.2272 135.371Z" fill="#B55A2B"/>
<path d="M36.9154 120.628C36.9043 120.601 36.9056 120.58 36.9194 120.564C36.9332 120.548 36.9507 120.54 36.9719 120.542C36.9931 120.543 37.0092 120.557 37.0203 120.583C37.1053 120.785 37.202 121.038 37.3102 121.344C37.4272 121.645 37.4875 121.8 37.4912 121.809L38.3676 123.886C38.3713 123.895 38.4533 124.077 38.6137 124.432C38.7791 124.776 38.9154 125.074 39.0226 125.328C39.0337 125.355 39.0342 125.38 39.0241 125.405C39.0104 125.421 38.9929 125.429 38.9717 125.427C38.9468 125.417 38.9288 125.399 38.9177 125.373C38.6821 124.863 38.3796 124.635 38.0105 124.688C37.6288 124.736 37.0755 125.11 36.3505 125.81L36.2416 125.919L37.9888 130.059C38.6767 130.077 39.2441 129.883 39.691 129.477C40.1292 129.074 40.2368 128.584 40.0139 128.007C40.0028 127.981 40.0042 127.96 40.018 127.944C40.0281 127.919 40.0456 127.911 40.0704 127.921C40.1004 127.919 40.1209 127.931 40.132 127.957C40.1985 128.115 40.3636 128.531 40.6271 129.204C40.7589 129.541 40.8766 129.832 40.9801 130.077C41.0393 130.217 41.112 130.377 41.1984 130.558C41.3712 130.918 41.4798 131.151 41.5242 131.256C41.5353 131.283 41.5233 131.303 41.4884 131.318C41.4534 131.333 41.4304 131.327 41.4193 131.301C41.27 130.972 40.8711 130.722 40.2225 130.553C39.5453 130.365 38.8435 130.265 38.1168 130.253L32.3253 130.12C31.8952 130.664 31.5403 131.13 31.2605 131.517C31.2403 131.567 31.2166 131.572 31.1894 131.531C30.9194 131.16 30.6081 130.838 30.2554 130.564C29.8705 130.262 29.5304 130.091 29.2351 130.051C29.2227 130.046 29.2153 130.029 29.213 129.999L35.3854 123.523C36.1094 122.772 36.5882 122.197 36.822 121.798C37.0332 121.42 37.0643 121.029 36.9154 120.628ZM37.7532 130.05L36.0781 126.081C34.4439 127.703 33.2393 128.989 32.4646 129.937L37.7532 130.05Z" fill="#B55A2B"/>
<path d="M35.387 113.92L35.818 115.827C35.8201 115.837 35.8845 116.1 36.0113 116.617C36.1451 117.124 36.2551 117.567 36.3411 117.947C36.3516 117.994 36.3497 118.028 36.3353 118.051C36.321 118.074 36.3025 118.078 36.2798 118.064C36.2478 118.051 36.2266 118.022 36.2161 117.976C36.1011 117.553 35.9963 117.24 35.9018 117.037C35.7959 116.827 35.6326 116.664 35.4117 116.549C35.1817 116.435 34.9133 116.389 34.6065 116.41C34.2884 116.423 33.8403 116.486 33.2621 116.598L26.3189 118.175L26.4227 118.634C26.5485 119.191 27.0558 119.734 27.9445 120.264C28.8382 120.773 29.933 121.095 31.2288 121.23C31.3092 121.241 31.3293 121.266 31.2893 121.304C31.2822 121.316 31.2647 121.325 31.2369 121.331L26.2201 121.548C26.1881 121.536 26.1818 121.508 26.2012 121.465C26.4125 121.28 26.5246 121.001 26.5375 120.628C26.5483 120.245 26.4645 119.659 26.2862 118.87L25.4744 115.279C25.2877 114.453 25.1104 113.884 24.9423 113.571C24.7721 113.248 24.5519 113.05 24.2819 112.974C24.2365 112.946 24.2302 112.918 24.263 112.891L28.8834 110.919C28.9204 110.911 28.9467 110.92 28.9623 110.945C28.9665 110.964 28.9511 110.982 28.9162 111C27.8071 111.691 26.9609 112.468 26.3776 113.332C25.8035 114.194 25.5805 114.909 25.7084 115.475L25.8028 115.892L32.7461 114.315C33.4682 114.151 33.9915 113.969 34.3161 113.768C34.6406 113.568 34.8383 113.323 34.9092 113.034C34.9708 112.747 34.9408 112.334 34.8191 111.796C34.8086 111.749 34.8105 111.715 34.8248 111.692C34.8392 111.669 34.8577 111.665 34.8804 111.679C34.9124 111.692 34.9336 111.721 34.9441 111.767C35.0301 112.148 35.1226 112.6 35.2215 113.124C35.3297 113.646 35.3849 113.911 35.387 113.92Z" fill="#B55A2B"/>
<path d="M28.8223 105.331L28.7561 104.105C28.6618 102.357 28.8168 101 29.221 100.035C29.6153 99.0608 30.2105 98.5521 31.0067 98.5089C31.8787 98.4617 32.568 98.815 33.0744 99.5689C33.5809 100.323 33.8734 101.426 33.9518 102.88L34.1878 107.255C34.1883 107.265 34.2028 107.445 34.2312 107.796C34.2691 108.146 34.2955 108.459 34.3104 108.735C34.3135 108.792 34.2961 108.821 34.2581 108.824C34.2108 108.826 34.1855 108.799 34.1824 108.742C34.1425 108.353 34.061 108.077 33.938 107.912C33.8151 107.747 33.5904 107.635 33.264 107.577C32.9377 107.518 32.4138 107.499 31.6924 107.519L26.7446 107.787C26.0252 107.845 25.5065 107.921 25.1883 108.014C24.8701 108.108 24.6588 108.243 24.5543 108.42C24.4498 108.598 24.3985 108.881 24.4006 109.272C24.4037 109.329 24.3862 109.359 24.3483 109.361C24.3104 109.363 24.2899 109.335 24.2869 109.278C24.272 109.003 24.2646 108.689 24.2645 108.336C24.2551 107.984 24.2501 107.803 24.2495 107.794L24.1239 105.728C24.1233 105.719 24.1086 105.534 24.0797 105.173C24.0412 104.813 24.0148 104.5 24.0005 104.234C23.9964 104.158 24.0188 104.133 24.0677 104.159C24.0967 104.167 24.1122 104.19 24.1142 104.228C24.1637 104.616 24.2499 104.892 24.3728 105.057C24.4958 105.222 24.7205 105.334 25.0469 105.392C25.3637 105.451 25.8829 105.471 26.6043 105.451L28.8223 105.331ZM33.8627 104.929L33.8096 103.945C33.7578 102.986 33.4946 102.247 33.0199 101.73C32.5452 101.213 31.9382 100.974 31.1989 101.014C29.5875 101.101 28.849 102.39 28.9833 104.879L29.0071 105.321L31.68 105.176C32.7985 105.115 33.526 105.033 33.8627 104.929Z" fill="#B55A2B"/>
<path d="M29.4591 88.796L29.6747 87.5878C29.9822 85.8645 30.443 84.5794 31.0569 83.7326C31.6633 82.8748 32.3589 82.5162 33.1438 82.6569C34.0034 82.8111 34.5937 83.3132 34.9145 84.1633C35.2353 85.0134 35.2678 86.1549 35.0121 87.5879L34.2424 91.9009C34.2407 91.9102 34.2136 92.089 34.1612 92.4373C34.118 92.7871 34.0722 93.0979 34.0237 93.3695C34.0137 93.4257 33.99 93.4505 33.9526 93.4437C33.9059 93.4354 33.8875 93.4031 33.8976 93.3469C33.9474 92.9595 33.9313 92.6715 33.8493 92.4828C33.7672 92.2941 33.574 92.1339 33.2697 92.002C32.9654 91.8701 32.4598 91.7311 31.753 91.5851L26.8754 90.7105C26.1619 90.602 25.6396 90.5566 25.3085 90.5746C24.9775 90.5926 24.7408 90.6758 24.5986 90.8243C24.4564 90.9728 24.3417 91.2373 24.2545 91.618C24.2445 91.6742 24.2207 91.6989 24.1834 91.6922C24.146 91.6855 24.1323 91.6541 24.1424 91.5979C24.1908 91.3263 24.2553 91.0189 24.3359 90.6757C24.407 90.3308 24.4435 90.1537 24.4451 90.1443L24.9125 87.4445L25.3688 84.8876C25.5459 83.8948 25.438 83.2568 25.0449 82.9737C24.9956 82.9262 25.0006 82.8981 25.06 82.8894L29.9179 82.6585C29.9459 82.6635 29.9574 82.6801 29.9524 82.7082C29.9474 82.7363 29.9292 82.7572 29.8978 82.7709C28.5682 83.0351 27.4947 83.5386 26.6775 84.2813C25.8713 85.0163 25.3847 85.8521 25.2175 86.7887L25.2 86.8871L25.214 86.8896L25.0385 87.873C25.4439 88.0327 26.1372 88.2005 27.1184 88.3764L29.4591 88.796ZM34.4573 89.5617L34.6303 88.5923C34.7991 87.6464 34.7116 86.8671 34.3677 86.2545C34.0238 85.6419 33.4874 85.2703 32.7586 85.1396C31.1701 84.8548 30.1569 85.9393 29.719 88.3932L29.6413 88.8287L32.2763 89.3011C33.3789 89.4988 34.1059 89.5857 34.4573 89.5617Z" fill="#B55A2B"/>
<path d="M40.0282 71.2341C40.0383 71.2074 40.0539 71.193 40.075 71.1908C40.0995 71.1798 40.1173 71.1865 40.1283 71.2111C40.1427 71.2267 40.1448 71.2479 40.1347 71.2746C40.037 71.5325 39.9153 71.8272 39.7696 72.1584C39.6361 72.4842 39.5676 72.6515 39.5643 72.6604L38.8317 74.5952C38.8284 74.6041 38.7671 74.7792 38.648 75.1206C38.5378 75.4654 38.4355 75.7623 38.3412 76.0114C38.3143 76.0826 38.2836 76.0964 38.2494 76.0528C38.2261 76.0338 38.2212 76.0065 38.2347 75.9709C38.3462 75.5961 38.379 75.3083 38.3331 75.1077C38.2872 74.9071 38.1313 74.7155 37.8654 74.5329C37.5906 74.347 37.1193 74.1168 36.4516 73.8424L29.6358 71.2497L28.105 75.2927L29.0217 75.6872C29.1514 75.7468 29.3444 75.8405 29.6005 75.9685C29.86 76.0876 30.0885 76.1948 30.2858 76.2902C30.4777 76.3734 30.6358 76.4386 30.76 76.4859L31.685 76.8988C33.4605 77.7065 34.7846 78.6071 35.6573 79.6005C36.3531 80.3639 36.5697 81.0925 36.307 81.7863C36.1992 82.071 36.0362 82.2736 35.818 82.3941C35.5942 82.5023 35.3714 82.5142 35.1495 82.4299C34.8744 82.3252 34.6913 82.1385 34.6001 81.8698C34.5001 81.5976 34.5073 81.3104 34.6219 81.0079C34.7903 80.5631 35.1108 80.1457 35.5834 79.7556C34.7251 78.7778 33.4004 77.8922 31.6092 77.0989L30.5429 76.617C30.534 76.6136 30.3998 76.5524 30.1403 76.4333C29.6323 76.2197 29.234 76.0784 28.9454 76.0093C28.6568 75.9403 28.4074 75.942 28.1971 76.0147C27.978 76.084 27.8075 76.2125 27.6857 76.4002C27.5583 76.5757 27.4133 76.8513 27.2508 77.227C27.2339 77.2715 27.2133 77.2993 27.1888 77.3103C27.1643 77.3213 27.1465 77.3146 27.1355 77.29C27.1245 77.2655 27.1274 77.231 27.1443 77.1865C27.2756 76.8396 27.4361 76.4427 27.6256 75.9957C27.8096 75.5366 27.9033 75.3025 27.9067 75.2936L30.2458 69.1157C30.2491 69.1068 30.3087 68.9361 30.4244 68.6036C30.5347 68.2588 30.6386 67.9574 30.7363 67.6995C30.7464 67.6728 30.762 67.6584 30.7831 67.6562C30.8076 67.6452 30.8254 67.6519 30.8364 67.6765C30.8508 67.6921 30.8529 67.7133 30.8428 67.74C30.7528 68.0314 30.7058 68.2628 30.7017 68.4343C30.6922 68.5935 30.7516 68.7586 30.8798 68.9295C31.0114 69.0914 31.208 69.2426 31.4696 69.3828C31.7257 69.5108 32.1095 69.6771 32.6209 69.8818L37.2801 71.6542C37.7982 71.8411 38.1999 71.9735 38.4851 72.0515C38.7648 72.1172 39.0075 72.1332 39.2132 72.0994C39.4222 72.0568 39.5803 71.9745 39.6875 71.8524C39.7891 71.7181 39.9027 71.512 40.0282 71.2341Z" fill="#B55A2B"/>
<path d="M43.7535 65.3841C42.8672 66.8149 41.7405 67.7319 40.3732 68.1354C39.006 68.5388 37.6813 68.3415 36.399 67.5435C35.1087 66.7405 34.3362 65.6157 34.0814 64.1692C33.8235 62.7096 34.1277 61.2806 34.9939 59.8822C35.8902 58.4353 37.022 57.5102 38.3892 57.1068C39.7695 56.7003 41.1008 56.896 42.383 57.694C43.6653 58.492 44.4353 59.6208 44.6932 61.0804C44.948 62.5269 44.6347 63.9615 43.7535 65.3841ZM43.7869 64.9514C44.1894 64.2835 44.2879 63.5384 44.0822 62.7161C43.8521 61.7889 43.0123 60.9079 41.5629 60.0731C40.4089 59.4109 39.2024 59.0408 37.9434 58.9628C37.3124 58.9173 36.7306 59.0087 36.198 59.2372C35.6704 59.4577 35.2654 59.8048 34.983 60.2786C34.5836 60.9596 34.4867 61.7112 34.6923 62.5336C34.9275 63.4527 35.7778 64.3347 37.2433 65.1795C38.3893 65.8367 39.5933 66.2109 40.8553 66.3019C41.4914 66.3394 42.0691 66.2454 42.5887 66.02C43.1132 65.7864 43.5126 65.4302 43.7869 64.9514Z" fill="#B55A2B"/>
<path d="M44.8214 46.3466L49.0827 48.6959C49.104 48.7149 49.102 48.7386 49.0768 48.767C49.0578 48.7883 49.0346 48.7931 49.007 48.7812C47.7294 48.3166 46.5518 48.1831 45.4741 48.3808C44.4034 48.5848 43.5526 49.0422 42.9215 49.7529L42.5997 50.1154C42.862 50.464 43.3689 50.9735 44.1206 51.644L47.7688 54.8985C48.2423 55.2954 48.6154 55.5837 48.8881 55.7632C49.1599 55.9293 49.4239 56.0183 49.6801 56.0304C49.9355 56.0289 50.1602 55.9619 50.3542 55.8293C50.5546 55.6896 50.8164 55.4519 51.1398 55.1163C51.1966 55.0523 51.2428 55.0361 51.2782 55.0678C51.3066 55.0931 51.2924 55.1377 51.2356 55.2017C50.9642 55.5073 50.6384 55.8599 50.2582 56.2595C49.8851 56.6654 49.6954 56.8719 49.6891 56.879L48.3638 58.3715C48.3575 58.3786 48.3007 58.4426 48.1934 58.5634C48.0932 58.6906 47.9643 58.843 47.8065 59.0207C47.6621 59.1976 47.5237 59.3607 47.3912 59.5099C47.3407 59.5668 47.3072 59.5687 47.2906 59.5158C47.2757 59.4897 47.2808 59.4624 47.3061 59.434C47.5506 59.13 47.6872 58.876 47.7157 58.6722C47.7442 58.4683 47.6631 58.2305 47.4725 57.9585C47.2819 57.6866 46.9235 57.3032 46.3972 56.8082L42.6958 53.5063C42.1442 53.0398 41.7227 52.7274 41.4311 52.5692C41.1395 52.411 40.8944 52.3579 40.6957 52.41C40.497 52.462 40.2612 52.6274 39.9883 52.9061C39.9694 52.9275 39.9465 52.9389 39.9197 52.9405C39.8992 52.9349 39.885 52.9223 39.8772 52.9025C39.8693 52.8828 39.878 52.8587 39.9032 52.8302C40.0799 52.6312 40.2953 52.403 40.5493 52.1456C40.7962 51.8818 40.9228 51.7464 40.9291 51.7393L42.3194 50.152L44.0422 48.2116C44.7049 47.4654 44.9425 46.8685 44.7552 46.4212C44.7513 46.354 44.7733 46.3292 44.8214 46.3466Z" fill="#B55A2B"/>
<path d="M58.7314 43.3404L54.62 46.5502L54.5063 46.4038L58.6177 43.194L58.7314 43.3404Z" fill="#B55A2B"/>
<path d="M75.9403 37.8892C75.9659 37.8767 75.9871 37.8769 76.0039 37.8899C76.0293 37.8987 76.0376 37.9158 76.0288 37.9412C76.0286 37.9625 76.0157 37.9794 75.99 37.9918C75.7424 38.1124 75.4523 38.2432 75.1195 38.384C74.7995 38.5293 74.6352 38.6041 74.6266 38.6082L72.7696 39.5126C72.7611 39.5167 72.5967 39.6021 72.2764 39.7686C71.9602 39.9438 71.6826 40.0895 71.4436 40.206C71.3753 40.2392 71.3435 40.2282 71.3484 40.173C71.353 40.139 71.3682 40.1157 71.3938 40.1033C71.7314 39.9071 71.9522 39.7203 72.0561 39.5427C72.16 39.3652 72.1776 39.1186 72.109 38.8029C72.0363 38.4787 71.8508 37.9872 71.5526 37.3285L70.9615 36.109C70.3071 36.9143 69.5871 37.5082 68.8016 37.8907C68.1356 38.215 67.4775 38.4139 66.8271 38.4874C66.3809 38.5248 65.9736 38.501 65.6052 38.416C65.2073 38.3136 64.8087 38.0899 64.4093 37.7449C64.0143 37.3872 63.6819 36.9302 63.4123 36.3739L63.1634 35.8605C62.8311 35.2184 62.5623 34.7728 62.3571 34.5236C62.1563 34.2618 61.9542 34.1169 61.7507 34.089C61.5472 34.0612 61.26 34.1217 60.8889 34.2707C60.8633 34.2832 60.8378 34.285 60.8125 34.2762C60.7956 34.2633 60.7873 34.2461 60.7876 34.2249C60.7878 34.2036 60.805 34.1846 60.8392 34.168C61.0868 34.0474 61.3727 33.9188 61.6969 33.782C62.0255 33.6326 62.194 33.5558 62.2026 33.5516L64.0596 32.6473C64.0681 32.6431 64.2325 32.5578 64.5528 32.3912C64.869 32.2161 65.1466 32.0703 65.3857 31.9539C65.454 31.9206 65.4857 31.9316 65.4808 31.9869C65.4762 32.0209 65.461 32.0441 65.4354 32.0566C65.1705 32.2068 64.9779 32.3429 64.8577 32.4649C64.7418 32.5742 64.672 32.7351 64.6484 32.9476C64.6333 33.156 64.673 33.4011 64.7674 33.683C64.8663 33.9522 65.0317 34.3371 65.2638 34.8376L65.5749 35.4795C66.0104 36.378 66.5405 36.9926 67.1651 37.3231C67.7855 37.6451 68.4415 37.6377 69.1331 37.3009C69.688 37.0306 70.2643 36.5649 70.862 35.9036L69.3748 32.8356C69.0425 32.1935 68.7737 31.7479 68.5685 31.4987C68.3592 31.241 68.1527 31.0982 67.9493 31.0704C67.7458 31.0425 67.4628 31.101 67.1003 31.2458C67.0747 31.2583 67.0492 31.2601 67.0239 31.2513C67.007 31.2384 66.9987 31.2212 66.999 31.2C66.9992 31.1787 67.0164 31.1597 67.0506 31.1431C67.2896 31.0267 67.5755 30.898 67.9083 30.7571C68.2369 30.6077 68.4054 30.5309 68.414 30.5267L70.271 29.6224C70.2795 29.6182 70.4397 29.5349 70.7514 29.3725C71.0676 29.1974 71.3494 29.0496 71.597 28.929C71.6227 28.9165 71.6439 28.9168 71.6607 28.9297C71.6861 28.9385 71.6944 28.9556 71.6856 28.9811C71.6854 29.0023 71.6724 29.0192 71.6468 29.0317C71.3819 29.1819 71.1893 29.318 71.0691 29.44C70.9532 29.5493 70.8834 29.7102 70.8598 29.9227C70.8447 30.1311 70.8844 30.3762 70.9788 30.6581C71.0776 30.9273 71.2431 31.3122 71.4752 31.8127L73.653 36.3056C73.9021 36.7978 74.1038 37.1703 74.258 37.4232C74.4166 37.6633 74.5823 37.8418 74.755 37.9586C74.9363 38.0713 75.1077 38.1201 75.2692 38.1049C75.4351 38.077 75.6588 38.0051 75.9403 37.8892Z" fill="#B55A2B"/>
<path d="M88.7383 34.3517C88.7658 34.3446 88.7866 34.349 88.8005 34.3651C88.8237 34.3787 88.833 34.396 88.8286 34.4168C88.8242 34.4376 88.8036 34.4527 88.7668 34.4623C88.5003 34.5314 88.1901 34.6021 87.8361 34.6742C87.4937 34.7532 87.3179 34.7939 87.3087 34.7963L85.31 35.3148C85.3008 35.3172 85.1228 35.3683 84.776 35.4681C84.4407 35.5747 84.1398 35.6626 83.8733 35.7317C83.8458 35.7389 83.8204 35.7356 83.7973 35.722C83.7833 35.7059 83.7786 35.6875 83.783 35.6667C83.7966 35.6435 83.8172 35.6283 83.8448 35.6212C84.2236 35.4934 84.4815 35.3528 84.6184 35.1994C84.7552 35.0459 84.8212 34.8077 84.8162 34.4847C84.8089 34.1524 84.724 33.6339 84.5616 32.9291L83.3415 28.2038L79.8821 34.1725C80.0788 34.8586 80.2532 35.344 80.4052 35.6289C80.5572 35.9138 80.7302 36.0901 80.9241 36.1577C81.1181 36.2253 81.407 36.2241 81.7909 36.154C81.8461 36.1397 81.8784 36.1509 81.8879 36.1878C81.8974 36.2246 81.8746 36.2502 81.8195 36.2645C81.553 36.3336 81.2473 36.4031 80.9026 36.4729C80.5602 36.5519 80.3844 36.5926 80.3752 36.5949L78.3627 37.117C78.3535 37.1194 78.1801 37.1693 77.8424 37.2667C77.5072 37.3733 77.2063 37.4612 76.9398 37.5304C76.8846 37.5447 76.8523 37.5334 76.8428 37.4965C76.8333 37.4597 76.8561 37.4341 76.9112 37.4198C77.2809 37.2944 77.5341 37.155 77.671 37.0016C77.8079 36.8482 77.8738 36.6099 77.8689 36.2869C77.8615 35.9546 77.7767 35.4361 77.6143 34.7313L76.3657 29.8955C76.1665 29.2002 75.991 28.7101 75.839 28.4252C75.6846 28.1311 75.5104 27.9503 75.3165 27.8826C75.1225 27.815 74.8336 27.8163 74.4497 27.8864C74.3945 27.9007 74.3622 27.8894 74.3527 27.8526C74.3432 27.8157 74.366 27.7901 74.4211 27.7758C74.6876 27.7067 74.9933 27.6372 75.338 27.5675C75.6804 27.4885 75.8562 27.4478 75.8654 27.4454L77.8779 26.9233C77.8871 26.9209 78.0605 26.871 78.3982 26.7736C78.7334 26.667 79.0343 26.5791 79.3008 26.51C79.3559 26.4957 79.3883 26.507 79.3978 26.5438C79.4073 26.5806 79.3845 26.6062 79.3293 26.6205C78.9597 26.7459 78.7064 26.8853 78.5696 27.0387C78.4327 27.1922 78.3679 27.435 78.3753 27.7673C78.3803 28.0903 78.4639 28.6042 78.6263 29.309L79.8143 33.91L83.2773 27.9551C83.1017 27.3127 82.9332 26.8503 82.772 26.5677C82.6108 26.2852 82.4299 26.116 82.2291 26.0599C82.0351 25.9923 81.7532 26.0016 81.3832 26.0877C81.3557 26.0949 81.3303 26.0916 81.3072 26.078C81.2932 26.0619 81.2885 26.0435 81.2929 26.0227C81.3065 25.9995 81.3271 25.9843 81.3547 25.9772C81.6212 25.9081 81.9268 25.8386 82.2716 25.7688C82.6232 25.6874 82.8036 25.6456 82.8127 25.6432L84.8115 25.1247C84.8207 25.1223 84.9941 25.0724 85.3317 24.975C85.6762 24.866 85.9816 24.7769 86.2481 24.7078C86.3217 24.6887 86.3506 24.7058 86.3349 24.759C86.3328 24.789 86.3134 24.8088 86.2767 24.8183C85.907 24.9437 85.6538 25.0831 85.5169 25.2365C85.38 25.39 85.3153 25.6328 85.3226 25.9651C85.3276 26.2881 85.4113 26.802 85.5736 27.5068L86.8223 32.3426C87.0214 33.0379 87.1982 33.5326 87.3525 33.8267C87.5045 34.1116 87.6775 34.2879 87.8715 34.3555C88.0654 34.4231 88.3544 34.4219 88.7383 34.3517Z" fill="#B55A2B"/>
<path d="M95.4694 33.8878L93.5234 34.0235C93.5139 34.0242 93.2444 34.0477 92.7147 34.0942C92.1952 34.1495 91.7413 34.1906 91.3531 34.2177C91.3057 34.221 91.2719 34.2138 91.2517 34.1962C91.2314 34.1785 91.2301 34.1595 91.2477 34.1392C91.2647 34.1094 91.2969 34.0929 91.3442 34.0896C91.7785 34.0402 92.1029 33.9842 92.3174 33.9216C92.5407 33.8488 92.7263 33.7119 92.8741 33.5108C93.0212 33.3003 93.1079 33.0415 93.1342 32.7344C93.1693 32.4173 93.1759 31.9638 93.154 31.374L92.66 24.2552L92.1913 24.2879C91.6231 24.3275 91.0099 24.747 90.3517 25.5464C89.7132 26.3539 89.2283 27.3891 88.8973 28.6521C88.8742 28.73 88.8467 28.7462 88.815 28.7007C88.8049 28.6919 88.7989 28.6733 88.7969 28.6448L89.3489 23.642C89.3659 23.6122 89.3943 23.6102 89.4342 23.6361C89.5839 23.8736 89.8419 24.0273 90.2084 24.0971C90.5843 24.1663 91.1747 24.1728 91.9796 24.1167L95.6443 23.8612C96.4871 23.8025 97.0756 23.7137 97.4099 23.5951C97.7537 23.4757 97.9833 23.288 98.0988 23.032C98.134 22.9914 98.1624 22.9894 98.184 23.0261L99.4217 27.9041C99.4243 27.942 99.4118 27.9668 99.384 27.9782C99.3651 27.9796 99.3495 27.9616 99.3374 27.9243C98.8257 26.7201 98.1884 25.763 97.4255 25.0532C96.6632 24.3529 95.9933 24.0229 95.4156 24.0631L94.9895 24.0928L95.4835 31.2116C95.5348 31.9519 95.6346 32.4981 95.7827 32.8502C95.9309 33.2023 96.1421 33.4356 96.4165 33.55C96.6902 33.6549 97.1017 33.6882 97.6509 33.6499C97.6982 33.6466 97.732 33.6538 97.7523 33.6715C97.7726 33.6891 97.7739 33.7081 97.7562 33.7284C97.7393 33.7582 97.7071 33.7747 97.6598 33.778C97.2715 33.8051 96.8116 33.8276 96.28 33.8456C95.749 33.8731 95.4788 33.8872 95.4694 33.8878Z" fill="#B55A2B"/>
<path d="M112.49 34.6817C112.518 34.6849 112.536 34.6965 112.543 34.7164C112.551 34.7364 112.548 34.7553 112.537 34.7732C112.525 34.791 112.505 34.7983 112.477 34.7952C112.26 34.7708 111.992 34.731 111.674 34.6761C111.354 34.6305 111.189 34.6072 111.18 34.6061L108.944 34.3546C108.935 34.3535 108.736 34.336 108.349 34.3019C107.969 34.2784 107.643 34.2512 107.369 34.2204C107.341 34.2172 107.318 34.2051 107.301 34.1841C107.294 34.1641 107.296 34.1452 107.308 34.1274C107.329 34.1106 107.353 34.1038 107.382 34.107C107.94 34.1507 108.287 33.9982 108.422 33.6495C108.567 33.2924 108.512 32.6257 108.259 31.6493L108.218 31.5011L103.761 30.9996C103.408 31.5918 103.299 32.1827 103.433 32.7723C103.569 33.3524 103.942 33.6865 104.553 33.7744C104.582 33.7776 104.599 33.7891 104.607 33.8091C104.624 33.8301 104.621 33.849 104.6 33.8658C104.588 33.8931 104.567 33.9052 104.539 33.902C104.369 33.8829 103.927 33.8236 103.212 33.724C102.855 33.6742 102.544 33.6345 102.28 33.6047C102.129 33.5878 101.954 33.5728 101.755 33.56C101.356 33.5343 101.101 33.5151 100.988 33.5024C100.959 33.4992 100.947 33.4787 100.951 33.4409C100.956 33.4031 100.972 33.3858 101 33.3889C101.36 33.4198 101.772 33.1933 102.237 32.7095C102.732 32.2099 103.163 31.6456 103.53 31.0167L106.482 26.0208C106.22 25.3785 105.989 24.8403 105.789 24.4061C105.755 24.364 105.763 24.3409 105.811 24.3368C106.266 24.2826 106.699 24.1686 107.11 23.9947C107.561 23.806 107.876 23.5926 108.056 23.3543C108.066 23.3459 108.085 23.348 108.112 23.3606L110.721 31.9263C111.019 32.9269 111.285 33.627 111.517 34.0265C111.743 34.3966 112.067 34.615 112.49 34.6817ZM103.884 30.798L108.157 31.2788C107.546 29.0559 107.018 27.3736 106.573 26.2321L103.884 30.798Z" fill="#B55A2B"/>
<path d="M118.858 36.5476L116.988 35.9934C116.979 35.9907 116.718 35.9185 116.205 35.7766C115.699 35.6465 115.26 35.5262 114.887 35.4156C114.841 35.4021 114.812 35.3836 114.799 35.3599C114.786 35.3363 114.792 35.318 114.815 35.3052C114.841 35.2832 114.877 35.2789 114.923 35.2924C115.347 35.3982 115.67 35.4593 115.893 35.4757C116.128 35.4857 116.349 35.4224 116.558 35.2857C116.769 35.14 116.941 34.9278 117.072 34.6493C117.216 34.3644 117.38 33.9418 117.565 33.3815L119.583 26.5382L119.132 26.4047C118.586 26.2429 117.865 26.4213 116.97 26.9398C116.09 27.4729 115.275 28.2732 114.525 29.3408C114.476 29.4057 114.445 29.4113 114.431 29.3575C114.424 29.3457 114.425 29.3261 114.433 29.2988L116.694 24.8043C116.72 24.7824 116.748 24.7905 116.776 24.8286C116.833 25.1036 117.022 25.338 117.341 25.5317C117.669 25.7281 118.22 25.9409 118.993 26.1701L122.516 27.2138C123.327 27.4538 123.909 27.5767 124.264 27.5825C124.627 27.5911 124.908 27.4956 125.105 27.2961C125.152 27.2704 125.18 27.2785 125.187 27.3204L124.647 32.3245C124.636 32.361 124.616 32.3797 124.586 32.3808C124.568 32.3754 124.559 32.3531 124.561 32.3139C124.501 31.0064 124.237 29.8865 123.77 28.9543C123.3 28.0312 122.787 27.4874 122.232 27.3229L121.822 27.2016L119.804 34.0449C119.594 34.7566 119.498 35.3033 119.514 35.6851C119.53 36.0669 119.646 36.3594 119.864 36.5626C120.084 36.7568 120.458 36.932 120.986 37.0884C121.031 37.1019 121.06 37.1205 121.073 37.1441C121.086 37.1678 121.08 37.186 121.057 37.1989C121.031 37.2209 120.995 37.2251 120.949 37.2116C120.576 37.1011 120.137 36.9611 119.633 36.7919C119.126 36.6317 118.868 36.5503 118.858 36.5476Z" fill="#B55A2B"/>
<path d="M129.837 35.103L130.934 35.6475C132.5 36.4242 133.602 37.2262 134.242 38.0534C134.895 38.8763 135.045 39.6459 134.691 40.3621C134.303 41.1466 133.658 41.5747 132.754 41.6463C131.85 41.718 130.747 41.4309 129.446 40.785L125.528 38.8411C125.52 38.8369 125.356 38.7609 125.037 38.6133C124.714 38.4741 124.429 38.3434 124.182 38.221C124.131 38.1956 124.114 38.1659 124.131 38.1318C124.152 38.0892 124.188 38.0805 124.239 38.1058C124.596 38.2619 124.877 38.3267 125.08 38.3004C125.284 38.274 125.491 38.1328 125.703 37.8766C125.914 37.6205 126.188 37.1726 126.525 36.533L128.724 32.082C129.027 31.4255 129.216 30.9355 129.291 30.6118C129.366 30.2881 129.352 30.0371 129.25 29.8588C129.147 29.6805 128.926 29.4963 128.585 29.3061C128.534 29.2808 128.517 29.2511 128.534 29.217C128.551 29.1829 128.585 29.1785 128.636 29.2038C128.882 29.3262 129.159 29.4741 129.465 29.6473C129.776 29.812 129.935 29.8965 129.944 29.9007L131.8 30.8061C131.809 30.8103 131.977 30.8883 132.304 31.0402C132.636 31.1836 132.921 31.3144 133.159 31.4326C133.227 31.4663 133.238 31.4982 133.192 31.5282C133.17 31.5495 133.143 31.5518 133.109 31.5349C132.747 31.3874 132.465 31.3268 132.261 31.3532C132.057 31.3795 131.85 31.5207 131.639 31.7769C131.432 32.0245 131.16 32.4681 130.823 33.1077L129.837 35.103ZM127.709 39.7005L128.59 40.1374C129.449 40.5638 130.22 40.6969 130.903 40.5367C131.586 40.3766 132.091 39.964 132.42 39.2989C133.136 37.8493 132.379 36.5715 130.151 35.4655L129.755 35.2692L128.567 37.6738C128.07 38.68 127.784 39.3555 127.709 39.7005Z" fill="#B55A2B"/>
<path d="M143.871 43.7702L144.815 44.5523C146.161 45.6679 147.051 46.7018 147.485 47.6539C147.932 48.6049 147.902 49.3883 147.393 50.0042C146.837 50.6789 146.111 50.9473 145.214 50.8094C144.318 50.6716 143.31 50.1388 142.191 49.2112L138.822 46.4193C138.815 46.4133 138.673 46.3018 138.396 46.0848C138.113 45.8751 137.866 45.6824 137.654 45.5065C137.61 45.4702 137.6 45.4373 137.624 45.408C137.654 45.3713 137.691 45.3712 137.735 45.4076C138.047 45.6415 138.306 45.769 138.51 45.7901C138.714 45.8113 138.948 45.7214 139.212 45.5206C139.477 45.3198 139.846 44.9468 140.32 44.4016L143.478 40.5739C143.923 40.0045 144.219 39.5709 144.366 39.2731C144.513 38.9753 144.557 38.7278 144.498 38.5307C144.439 38.3336 144.265 38.1034 143.978 37.8401C143.934 37.8038 143.924 37.7709 143.948 37.7416C143.972 37.7122 144.006 37.7158 144.05 37.7521C144.262 37.928 144.498 38.1354 144.756 38.3743C145.021 38.606 145.157 38.7249 145.164 38.7309L147.28 40.466L149.277 42.1211C150.053 42.7638 150.66 42.9832 151.099 42.7792C151.165 42.7595 151.187 42.7777 151.165 42.8338L148.978 47.1877C148.96 47.2097 148.94 47.2116 148.918 47.1934C148.896 47.1752 148.887 47.149 148.89 47.1149C149.314 45.8244 149.404 44.6399 149.161 43.5615C148.918 42.4965 148.431 41.6609 147.7 41.0546L147.623 40.9909L147.614 41.0019L146.846 40.3654C146.508 40.6408 146.021 41.1634 145.386 41.9334L143.871 43.7702ZM140.749 47.7568L141.506 48.3843C142.245 48.9966 142.965 49.3033 143.666 49.3042C144.368 49.3051 144.954 49.0196 145.426 48.4477C146.454 47.2011 146.01 45.7836 144.093 44.1952L143.753 43.9132L142.047 45.9811C141.334 46.8463 140.901 47.4382 140.749 47.7568Z" fill="#B55A2B"/>
<path d="M153.879 61.5062C153.897 61.528 153.902 61.5487 153.894 61.5682C153.891 61.595 153.877 61.6073 153.85 61.6049C153.829 61.6099 153.81 61.6014 153.792 61.5796C153.615 61.3682 153.417 61.1179 153.2 60.8287C152.982 60.5529 152.869 60.4114 152.863 60.4041L151.536 58.8189C151.53 58.8116 151.407 58.6725 151.168 58.4017C150.922 58.1369 150.713 57.9025 150.542 57.6985C150.494 57.6401 150.496 57.6066 150.551 57.5979C150.579 57.5869 150.605 57.5959 150.63 57.6251C150.902 57.9055 151.136 58.0747 151.333 58.1325C151.53 58.1903 151.773 58.1474 152.062 58.0039C152.358 57.8543 152.788 57.5543 153.353 57.1041L158.938 52.407L156.165 49.0944L155.374 49.7038C155.258 49.7882 155.083 49.9113 154.846 50.0729C154.616 50.2418 154.411 50.3893 154.231 50.5154C154.065 50.6426 153.931 50.7491 153.83 50.8347L153.019 51.4423C151.449 52.6014 150.018 53.3201 148.727 53.5987C147.723 53.8348 146.983 53.6686 146.507 53.1001C146.312 52.8669 146.215 52.6254 146.216 52.3756C146.231 52.1271 146.33 51.9263 146.511 51.7734C146.737 51.5838 146.989 51.5147 147.267 51.5662C147.553 51.6115 147.8 51.7581 148.007 52.0059C148.312 52.3703 148.519 52.8544 148.628 53.4583C149.899 53.1847 151.316 52.4581 152.881 51.2783L153.822 50.5807C153.829 50.5746 153.948 50.4871 154.178 50.3182C154.612 49.9781 154.929 49.6986 155.13 49.4799C155.331 49.2611 155.452 49.042 155.491 48.8226C155.538 48.5971 155.509 48.3852 155.405 48.187C155.314 47.99 155.145 47.7286 154.897 47.403C154.867 47.3665 154.853 47.3349 154.855 47.3081C154.857 47.2813 154.872 47.2691 154.899 47.2714C154.925 47.2738 154.954 47.2932 154.984 47.3296C155.222 47.6138 155.49 47.9479 155.786 48.3319C156.096 48.717 156.254 48.9132 156.261 48.9205L160.498 53.9823C160.504 53.9896 160.624 54.125 160.857 54.3886C161.103 54.6533 161.315 54.8914 161.492 55.1027C161.51 55.1246 161.515 55.1453 161.507 55.1648C161.504 55.1916 161.49 55.2038 161.463 55.2015C161.443 55.2064 161.423 55.198 161.405 55.1761C161.195 54.9551 161.016 54.801 160.869 54.7138C160.735 54.6278 160.562 54.5991 160.351 54.6279C160.146 54.6639 159.918 54.7621 159.668 54.9226C159.432 55.0842 159.1 55.3387 158.672 55.6862L154.854 58.897C154.439 59.2591 154.127 59.5458 153.92 59.7573C153.726 59.9699 153.594 60.1744 153.523 60.3708C153.458 60.5744 153.453 60.7529 153.507 60.9062C153.574 61.0607 153.698 61.2607 153.879 61.5062Z" fill="#B55A2B"/>
<path d="M157.308 67.869C156.496 66.3944 156.249 64.9608 156.567 63.5682C156.885 62.1755 157.704 61.1139 159.026 60.3831C160.356 59.6478 161.712 59.5225 163.096 60.0073C164.492 60.4957 165.587 61.4606 166.38 62.9018C167.201 64.3931 167.452 65.8351 167.134 67.2277C166.813 68.6333 165.992 69.7014 164.67 70.4321C163.349 71.1628 161.99 71.284 160.593 70.7955C159.21 70.3108 158.115 69.3353 157.308 67.869ZM157.668 68.1099C158.052 68.7885 158.653 69.239 159.469 69.4614C160.388 69.7137 161.566 69.4104 163.001 68.5516C164.142 67.8665 165.054 66.9927 165.737 65.9302C166.086 65.4008 166.291 64.8473 166.352 64.2699C166.418 63.7009 166.314 63.177 166.04 62.6984C165.643 62.0161 165.036 61.5638 164.22 61.3414C163.305 61.0974 162.122 61.4095 160.67 62.2775C159.538 62.9579 158.623 63.8276 157.927 64.8864C157.583 65.4241 157.382 65.9752 157.324 66.5397C157.271 67.1125 157.386 67.6359 157.668 68.1099Z" fill="#B55A2B"/>
<path d="M173.157 77.5907L169.038 80.1834C169.011 80.1929 168.992 80.1796 168.979 80.1437C168.97 80.1167 168.977 80.0941 169.001 80.0757C170.026 79.1819 170.715 78.2149 171.066 77.1746C171.408 76.1375 171.422 75.1698 171.109 74.2717L170.949 73.8137C170.517 73.8742 169.827 74.0709 168.877 74.4038L164.267 76.0198C163.691 76.2419 163.258 76.4288 162.969 76.5805C162.692 76.7381 162.487 76.9262 162.352 77.1448C162.229 77.3693 162.178 77.5987 162.2 77.8331C162.224 78.0765 162.304 78.4213 162.44 78.8677C162.468 78.9485 162.46 78.9968 162.415 79.0125C162.379 79.0251 162.347 78.9909 162.319 78.9101C162.184 78.5239 162.035 78.0672 161.871 77.54C161.698 77.016 161.61 76.7495 161.607 76.7405L160.949 74.8544C160.946 74.8455 160.918 74.7646 160.865 74.6119C160.802 74.4624 160.732 74.2754 160.654 74.0508C160.57 73.8384 160.495 73.6379 160.429 73.4493C160.404 73.3775 160.418 73.3472 160.472 73.3584C160.502 73.358 160.524 73.3757 160.536 73.4116C160.683 73.7736 160.838 74.0165 161.002 74.1405C161.166 74.2645 161.412 74.309 161.742 74.2741C162.072 74.2391 162.58 74.1113 163.268 73.8905L167.945 72.251C168.62 71.9943 169.097 71.7767 169.376 71.598C169.656 71.4194 169.821 71.2304 169.872 71.0311C169.924 70.8317 169.894 70.5448 169.783 70.1703C169.774 70.1433 169.775 70.1177 169.787 70.0935C169.801 70.0782 169.819 70.0719 169.84 70.0746C169.861 70.0773 169.878 70.0966 169.891 70.1326C169.979 70.384 170.073 70.6836 170.174 71.0311C170.284 71.3756 170.341 71.5523 170.344 71.5612L171.053 73.5504L171.909 76.0022C172.238 76.9452 172.643 77.4433 173.124 77.4964C173.184 77.5256 173.195 77.5571 173.157 77.5907Z" fill="#B55A2B"/>
<path d="M169.049 91.5298L168.27 86.3651L168.453 86.3373L169.232 91.502L169.049 91.5298Z" fill="#B55A2B"/>
</svg>
