<svg width="200" height="200" viewBox="0 0 200 200" fill="none" xmlns="http://www.w3.org/2000/svg">
<circle cx="100" cy="100" r="100" fill="#B55A2B"/>
<path d="M160.782 105.177C160.922 103.604 161.518 102.326 162.569 101.345C163.62 100.365 164.947 99.9457 166.551 100.088C168.135 100.229 169.406 100.889 170.365 102.069C171.325 103.249 171.731 104.66 171.585 106.304C171.55 106.702 171.467 107.177 171.338 107.727C171.209 108.278 171.142 108.578 171.137 108.628C171.098 109.066 171.316 109.382 171.791 109.575C171.859 109.601 171.856 109.636 171.782 109.679L166.742 110.3C166.722 110.299 166.708 110.287 166.7 110.266C166.691 110.256 166.692 110.241 166.704 110.222C166.715 110.203 166.732 110.189 166.753 110.181C168.039 109.823 169.111 109.231 169.968 108.404C170.854 107.579 171.328 106.828 171.388 106.151C171.463 105.304 171.138 104.562 170.411 103.925C169.694 103.299 168.693 102.929 167.408 102.815C165.884 102.679 164.609 102.958 163.584 103.649C162.567 104.362 161.997 105.401 161.876 106.765C161.803 107.582 162.012 108.344 162.501 109.05C162.99 109.766 163.683 110.38 164.581 110.891C164.617 110.935 164.619 110.97 164.587 110.997C164.564 111.025 164.534 111.028 164.496 111.004C163.444 110.409 162.568 109.713 161.865 108.918C161.01 107.928 160.649 106.681 160.782 105.177Z" fill="#FDF3EE"/>
<path d="M158.489 117.785L159.936 112.676C159.939 112.666 159.986 112.482 160.077 112.123C160.159 111.762 160.239 111.442 160.318 111.163C160.334 111.105 160.362 111.082 160.4 111.092C160.439 111.103 160.45 111.138 160.433 111.195C160.351 111.598 160.342 111.902 160.409 112.108C160.475 112.314 160.656 112.501 160.952 112.667C161.257 112.837 161.773 113.035 162.499 113.261L167.55 114.692C168.287 114.88 168.825 114.98 169.164 114.993C169.513 115.009 169.769 114.947 169.934 114.806C170.099 114.666 170.251 114.402 170.392 114.016C170.408 113.958 170.435 113.935 170.474 113.946C170.512 113.957 170.523 113.991 170.507 114.049C170.428 114.328 170.329 114.643 170.208 114.993C170.098 115.346 170.041 115.528 170.039 115.537L168.857 119.708C168.451 121.142 167.967 122.153 167.405 122.743C166.844 123.332 166.168 123.515 165.379 123.291C164.86 123.144 164.471 122.774 164.213 122.181C163.753 121.126 163.739 119.688 164.172 117.867L164.114 117.85C163.741 119.169 163.26 120.28 162.671 121.183C162.328 121.699 161.936 122.072 161.497 122.301C161.056 122.539 160.599 122.592 160.127 122.458C159.233 122.205 158.644 121.679 158.36 120.882C158.086 120.087 158.129 119.055 158.489 117.785ZM167.038 117.104L164.628 116.421L164.522 116.797C163.903 118.981 164.402 120.302 166.018 120.759C166.721 120.958 167.323 120.869 167.825 120.492C168.327 120.114 168.677 119.574 168.876 118.872L169.166 117.847C168.758 117.638 168.048 117.39 167.038 117.104ZM164.314 116.816L164.44 116.368L161.727 115.6C160.592 115.278 159.839 115.112 159.468 115.1L159.128 116.298C158.875 117.193 158.901 117.964 159.206 118.612C159.511 119.259 160.039 119.689 160.789 119.902C162.425 120.365 163.6 119.336 164.314 116.816Z" fill="#FDF3EE"/>
<path d="M152.041 132.606C152.014 132.659 151.983 132.677 151.947 132.659C151.911 132.641 151.907 132.605 151.934 132.552C152.064 132.293 152.222 132.002 152.406 131.681C152.582 131.355 152.672 131.188 152.676 131.179L153.629 129.29C153.633 129.282 153.762 129.016 154.014 128.494C154.253 127.976 154.471 127.52 154.669 127.127C154.696 127.074 154.723 127.043 154.75 127.034C154.777 127.025 154.795 127.034 154.804 127.061C154.817 127.101 154.812 127.143 154.79 127.188C154.587 127.635 154.458 127.979 154.404 128.22C154.345 128.47 154.366 128.716 154.468 128.958C154.575 129.213 154.764 129.438 155.036 129.631C155.313 129.837 155.737 130.096 156.308 130.407L157.969 131.244L158.064 131.057C158.473 130.244 158.65 129.505 158.594 128.838C158.534 128.18 158.226 127.526 157.669 126.876L157.081 126.21C156.831 125.927 156.649 125.701 156.533 125.53C156.386 125.311 156.284 125.058 156.227 124.771C156.179 124.489 156.209 124.219 156.317 123.96L156.871 122.862L157.094 122.353C157.252 122.018 157.389 121.734 157.506 121.502C157.52 121.475 157.538 121.462 157.56 121.462C157.582 121.462 157.6 121.471 157.614 121.489C157.627 121.507 157.627 121.529 157.613 121.556C157.411 122.003 157.405 122.437 157.596 122.858C157.809 123.323 158.267 123.969 158.971 124.794L159.365 125.245C160.055 126.097 160.024 127.336 159.272 128.961C160.009 127.855 160.752 127.081 161.5 126.641C162.244 126.21 162.951 126.163 163.62 126.501C164.442 126.915 164.875 127.61 164.921 128.585C164.971 129.573 164.639 130.778 163.923 132.197L162.052 135.907C162.047 135.916 161.966 136.088 161.808 136.423C161.66 136.762 161.52 137.061 161.389 137.32C161.362 137.374 161.331 137.392 161.295 137.374C161.259 137.356 161.255 137.32 161.282 137.266C161.44 136.887 161.506 136.589 161.48 136.375C161.454 136.16 161.307 135.94 161.039 135.716C160.781 135.496 160.317 135.206 159.647 134.846L154.959 132.481C154.272 132.157 153.758 131.954 153.419 131.872C153.088 131.795 152.829 131.81 152.64 131.917C152.452 132.023 152.252 132.253 152.041 132.606ZM162.445 128.865C161.704 128.491 160.95 128.509 160.184 128.917C159.431 129.322 158.803 130.024 158.298 131.024L158.143 131.332L161.384 132.967C161.92 133.237 162.422 133.44 162.891 133.576L163.236 132.892C164.209 130.964 163.945 129.621 162.445 128.865Z" fill="#FDF3EE"/>
<path d="M148.657 141.997C147.935 141.443 147.595 140.596 147.638 139.457C147.694 138.315 148.118 137.229 148.909 136.197C149.147 135.888 149.468 135.535 149.872 135.14C150.22 134.802 150.427 134.589 150.494 134.502C150.762 134.153 150.751 133.772 150.461 133.361C150.428 133.273 150.45 133.245 150.525 133.278L154.589 135.621C154.621 135.645 154.624 135.673 154.6 135.705C154.588 135.721 154.563 135.72 154.525 135.704C153.291 135.324 152.183 135.192 151.199 135.307C150.224 135.429 149.512 135.765 149.064 136.316C148.681 136.816 148.574 137.415 148.744 138.113C148.915 138.811 149.349 139.427 150.047 139.963C150.587 140.377 151.171 140.56 151.799 140.513C152.422 140.474 152.91 140.224 153.263 139.764C153.5 139.455 153.664 139.184 153.754 138.951C153.761 138.943 153.767 138.91 153.774 138.852C153.782 138.808 153.79 138.732 153.797 138.624C153.804 138.516 153.815 138.411 153.831 138.309C153.867 137.934 153.943 137.671 154.058 137.52C154.216 137.314 154.367 137.265 154.51 137.375C154.764 137.57 154.635 138.082 154.124 138.913C153.813 139.909 153.704 140.708 153.798 141.309C153.885 141.918 154.246 142.466 154.881 142.953C155.341 143.306 155.791 143.45 156.232 143.385C156.675 143.334 157.066 143.086 157.407 142.642C157.584 142.412 157.72 142.119 157.816 141.764C157.22 140.866 156.832 140.171 156.654 139.681C156.483 139.197 156.501 138.821 156.708 138.551C157.049 138.107 157.438 138.052 157.874 138.387C158.382 138.776 158.565 139.465 158.424 140.454C158.285 141.456 157.954 142.299 157.431 142.981C156.712 143.917 156.006 144.535 155.31 144.833C154.615 145.131 154.005 145.08 153.482 144.678C153.18 144.447 152.955 144.116 152.806 143.686C152.724 143.448 152.728 143.016 152.817 142.391C152.853 142.229 152.915 141.975 153.005 141.628L153.247 140.868C153.313 140.717 153.418 140.432 153.563 140.014L153.869 139.171C153.422 140 153.04 140.621 152.724 141.033C152.121 141.819 151.449 142.293 150.707 142.454C149.967 142.63 149.284 142.478 148.657 141.997Z" fill="#FDF3EE"/>
<path d="M136.582 149.282C136.559 149.302 136.538 149.308 136.517 149.299C136.496 149.291 136.483 149.276 136.477 149.255C136.471 149.233 136.479 149.213 136.501 149.192C136.672 149.038 136.89 148.855 137.156 148.642C137.415 148.421 137.548 148.308 137.555 148.301L139.314 146.712C139.322 146.706 139.474 146.561 139.772 146.279C140.055 145.996 140.305 145.757 140.52 145.563C140.542 145.543 140.567 145.534 140.596 145.535C140.616 145.543 140.63 145.558 140.636 145.58C140.634 145.608 140.623 145.632 140.6 145.652C140.176 146.062 140.054 146.442 140.234 146.791C140.414 147.154 140.977 147.576 141.922 148.056L142.067 148.127L143.815 146.549L145.574 144.96C145.354 144.269 144.965 143.772 144.407 143.467C143.856 143.17 143.333 143.232 142.837 143.653C142.815 143.673 142.793 143.679 142.772 143.671C142.744 143.669 142.73 143.654 142.732 143.626C142.719 143.597 142.724 143.573 142.746 143.552C142.88 143.432 143.235 143.124 143.813 142.63C144.102 142.382 144.35 142.165 144.558 141.977C144.676 141.87 144.81 141.742 144.959 141.594C145.258 141.298 145.451 141.109 145.54 141.029C145.563 141.009 145.587 141.014 145.614 141.043C145.641 141.073 145.643 141.098 145.621 141.118C145.346 141.38 145.236 141.863 145.292 142.567C145.34 143.306 145.483 144.039 145.722 144.766L147.593 150.575C148.281 150.815 148.866 151.008 149.347 151.153C149.404 151.156 149.417 151.178 149.387 151.219C149.112 151.615 148.899 152.036 148.749 152.482C148.582 152.969 148.53 153.366 148.592 153.674C148.592 153.688 148.577 153.701 148.548 153.714L139.985 149.805C138.989 149.344 138.253 149.066 137.776 148.971C137.327 148.891 136.929 148.995 136.582 149.282ZM145.647 145.198L143.966 146.716L142.285 148.234C144.461 149.3 146.154 150.056 147.363 150.5L145.647 145.198Z" fill="#FDF3EE"/>
<path d="M130.74 152.734L132.498 151.669C132.506 151.664 132.748 151.512 133.221 151.213C133.682 150.911 134.087 150.654 134.438 150.441C134.48 150.416 134.515 150.406 134.543 150.413C134.57 150.419 134.581 150.437 134.574 150.464C134.572 150.5 134.55 150.531 134.508 150.557C134.124 150.812 133.848 151.021 133.677 151.183C133.502 151.359 133.394 151.576 133.353 151.835C133.316 152.103 133.359 152.387 133.482 152.686C133.602 152.999 133.814 153.426 134.118 153.967L138.004 160.382L138.427 160.126C138.94 159.815 139.313 159.127 139.545 158.063C139.755 157 139.711 155.799 139.414 154.459C139.398 154.375 139.416 154.347 139.468 154.374C139.482 154.378 139.496 154.392 139.512 154.418L141.4 159.359C141.399 159.395 141.373 159.411 141.323 159.406C141.069 159.256 140.753 159.237 140.376 159.348C139.991 159.465 139.435 159.743 138.708 160.184L135.398 162.189C134.636 162.65 134.128 163.016 133.872 163.288C133.607 163.566 133.482 163.852 133.497 164.147C133.484 164.201 133.458 164.217 133.42 164.193L129.915 160.231C129.894 160.197 129.894 160.167 129.915 160.143C129.932 160.133 129.955 160.142 129.984 160.171C131.043 161.05 132.1 161.637 133.156 161.933C134.207 162.22 134.993 162.206 135.515 161.89L135.9 161.657L132.014 155.242C131.61 154.574 131.254 154.112 130.946 153.854C130.638 153.597 130.328 153.481 130.015 153.506C129.709 153.54 129.307 153.707 128.811 154.007C128.768 154.033 128.733 154.043 128.706 154.036C128.678 154.029 128.668 154.012 128.675 153.985C128.676 153.949 128.698 153.918 128.741 153.892C129.092 153.68 129.512 153.437 130.001 153.164C130.485 152.882 130.732 152.739 130.74 152.734Z" fill="#FDF3EE"/>
<path d="M124.532 161.923L123.324 162.376C121.601 163.023 120.192 163.295 119.097 163.193C117.995 163.105 117.297 162.667 117.002 161.881C116.679 161.019 116.815 160.215 117.41 159.468C118.006 158.721 119.02 158.079 120.453 157.542L124.764 155.924C124.773 155.921 124.949 155.849 125.292 155.71C125.632 155.561 125.937 155.436 126.209 155.334C126.265 155.313 126.3 155.321 126.314 155.358C126.332 155.405 126.312 155.439 126.256 155.46C125.879 155.623 125.628 155.792 125.501 155.968C125.375 156.143 125.334 156.404 125.379 156.751C125.423 157.097 125.57 157.63 125.818 158.348L127.652 163.236C127.937 163.94 128.177 164.438 128.372 164.728C128.566 165.018 128.769 165.188 128.979 165.237C129.19 165.286 129.491 165.248 129.882 165.122C129.938 165.101 129.973 165.11 129.987 165.147C130.001 165.184 129.98 165.214 129.924 165.235C129.652 165.337 129.34 165.443 128.986 165.555C128.636 165.675 128.457 165.737 128.447 165.741L126.416 166.519C126.407 166.522 126.226 166.596 125.874 166.738C125.525 166.891 125.22 167.016 124.958 167.114C124.883 167.142 124.85 167.128 124.861 167.07C124.86 167.039 124.878 167.016 124.915 167.002C125.289 166.83 125.539 166.656 125.665 166.48C125.791 166.305 125.832 166.044 125.788 165.697C125.747 165.36 125.602 164.832 125.354 164.114L124.532 161.923ZM122.535 156.985L121.566 157.348C120.62 157.703 119.963 158.201 119.594 158.841C119.226 159.481 119.178 160.167 119.452 160.897C120.05 162.489 121.575 162.824 124.028 161.904L124.463 161.74L123.472 159.1C123.058 157.995 122.745 157.29 122.535 156.985Z" fill="#FDF3EE"/>
<path d="M110.1 160.082C111.656 159.81 113.044 160.054 114.264 160.816C115.483 161.577 116.231 162.75 116.509 164.336C116.783 165.903 116.474 167.302 115.583 168.534C114.692 169.766 113.434 170.524 111.809 170.808C111.415 170.877 110.935 170.92 110.37 170.938C109.804 170.956 109.497 170.969 109.448 170.977C109.014 171.053 108.766 171.345 108.702 171.854C108.695 171.926 108.66 171.932 108.599 171.872L106.694 167.165C106.691 167.145 106.698 167.129 106.716 167.115C106.724 167.104 106.739 167.101 106.761 167.107C106.782 167.114 106.799 167.126 106.813 167.144C107.491 168.294 108.341 169.176 109.362 169.789C110.388 170.432 111.236 170.695 111.905 170.578C112.743 170.431 113.375 169.925 113.802 169.058C114.221 168.203 114.319 167.141 114.097 165.87C113.833 164.363 113.235 163.204 112.301 162.392C111.349 161.594 110.199 161.313 108.849 161.549C108.041 161.691 107.36 162.089 106.804 162.745C106.239 163.402 105.826 164.23 105.564 165.231C105.532 165.277 105.498 165.288 105.463 165.263C105.43 165.249 105.42 165.22 105.433 165.177C105.736 164.008 106.181 162.981 106.767 162.096C107.502 161.014 108.612 160.342 110.1 160.082Z" fill="#FDF3EE"/>
<path d="M92.2913 161.045C92.2313 161.043 92.2018 161.023 92.2027 160.983C92.2037 160.943 92.2341 160.923 92.2941 160.925C92.584 160.932 92.9137 160.949 93.2831 160.978C93.6528 160.996 93.8426 161.006 93.8526 161.006L95.9671 161.055C95.9771 161.055 96.2721 161.057 96.8522 161.06C97.4225 161.054 97.9276 161.055 98.3675 161.066C98.4275 161.067 98.4672 161.078 98.4867 161.098C98.5063 161.119 98.5058 161.139 98.4854 161.158C98.4547 161.188 98.4143 161.202 98.3643 161.2C97.874 161.209 97.5082 161.241 97.2669 161.295C97.0155 161.349 96.8026 161.474 96.628 161.67C96.4432 161.876 96.322 162.143 96.2643 162.472C96.1965 162.811 96.145 163.305 96.11 163.954L96.0669 165.814L96.2768 165.818C97.1866 165.839 97.9305 165.682 98.5084 165.345C99.0764 165.008 99.5344 164.448 99.8826 163.666L100.232 162.849C100.38 162.503 100.506 162.24 100.61 162.063C100.745 161.836 100.93 161.635 101.164 161.46C101.398 161.296 101.655 161.207 101.935 161.193L103.165 161.222L103.721 161.205C104.091 161.203 104.406 161.205 104.666 161.211C104.696 161.212 104.716 161.223 104.725 161.243C104.735 161.263 104.734 161.283 104.724 161.303C104.713 161.323 104.693 161.332 104.663 161.331C104.173 161.34 103.778 161.521 103.48 161.874C103.151 162.267 102.765 162.958 102.322 163.948L102.084 164.498C101.611 165.487 100.479 165.991 98.6881 166.009C100.004 166.2 101.021 166.538 101.74 167.025C102.449 167.512 102.795 168.13 102.778 168.88C102.756 169.8 102.315 170.489 101.454 170.95C100.583 171.42 99.3529 171.636 97.7634 171.599L93.6095 171.503C93.5995 171.503 93.4094 171.504 93.0393 171.505C92.6689 171.516 92.3388 171.519 92.0489 171.512C91.9889 171.511 91.9594 171.49 91.9603 171.45C91.9612 171.41 91.9917 171.391 92.0516 171.392C92.4622 171.372 92.7589 171.303 92.9416 171.188C93.1243 171.072 93.2596 170.845 93.3475 170.507C93.4351 170.179 93.4977 169.635 93.5353 168.876L93.6569 163.627C93.6545 162.867 93.6172 162.316 93.5451 161.974C93.4728 161.642 93.348 161.414 93.1709 161.29C92.9937 161.166 92.7005 161.084 92.2913 161.045ZM100.138 168.834C100.157 168.004 99.8178 167.331 99.1195 166.814C98.4311 166.308 97.527 166.042 96.4073 166.016L96.0624 166.008L95.9783 169.637C95.9644 170.237 95.9969 170.778 96.0758 171.26L96.8406 171.278C99 171.328 100.099 170.513 100.138 168.834Z" fill="#FDF3EE"/>
<path d="M82.7636 158.594C84.2837 159.025 85.4278 159.848 86.1957 161.063C86.9636 162.278 87.1281 163.66 86.6894 165.209C86.2561 166.739 85.3706 167.865 84.033 168.588C82.6954 169.311 81.2328 169.448 79.6452 168.998C79.2604 168.889 78.8094 168.72 78.2924 168.49C77.7754 168.261 77.4929 168.139 77.4448 168.125C77.0214 168.005 76.6708 168.161 76.393 168.591C76.3547 168.653 76.321 168.644 76.2919 168.563L76.6203 163.495C76.6258 163.476 76.6395 163.464 76.6614 163.46C76.6738 163.453 76.6882 163.457 76.7047 163.473C76.7213 163.488 76.7316 163.506 76.7358 163.528C76.8473 164.859 77.2298 166.022 77.8832 167.018C78.5284 168.043 79.1781 168.647 79.8324 168.833C80.6502 169.064 81.4396 168.883 82.2006 168.288C82.9492 167.699 83.4993 166.785 83.8509 165.543C84.2678 164.071 84.2319 162.767 83.743 161.631C83.2322 160.499 82.3177 159.746 80.9996 159.373C80.2106 159.149 79.4237 159.212 78.6388 159.562C77.8442 159.908 77.112 160.475 76.4421 161.262C76.3927 161.29 76.3577 161.285 76.337 161.248C76.3136 161.221 76.317 161.191 76.3471 161.157C77.128 160.235 77.9745 159.503 78.8867 158.961C80.0184 158.305 81.3107 158.183 82.7636 158.594Z" fill="#FDF3EE"/>
<path d="M62.5151 149.132C62.4894 149.117 62.4774 149.098 62.4791 149.076C62.4723 149.048 62.4783 149.029 62.4971 149.017C62.516 149.005 62.5426 149.009 62.5769 149.029C62.8255 149.179 63.1075 149.36 63.4229 149.573C63.735 149.772 63.8953 149.874 63.9038 149.879L65.7683 150.999C65.7769 151.004 65.9466 151.1 66.2775 151.287C66.605 151.461 66.893 151.622 67.1416 151.772C67.1673 151.787 67.1836 151.808 67.1904 151.836C67.1887 151.858 67.1784 151.875 67.1595 151.887C67.1321 151.894 67.1055 151.89 67.0798 151.874C66.7043 151.684 66.4085 151.594 66.1924 151.604C65.9763 151.614 65.749 151.74 65.5105 151.982C65.2669 152.232 64.9408 152.678 64.5323 153.319L63.1342 155.646C63.5285 155.883 63.8869 156.092 64.2092 156.274C64.5229 156.451 64.8898 156.666 65.3099 156.918C65.7042 157.155 66.0659 157.378 66.3951 157.588C66.7243 157.797 67.0946 158.025 67.5061 158.272L68.9041 155.945C69.2783 155.283 69.5187 154.786 69.6252 154.453C69.7266 154.129 69.731 153.87 69.6385 153.674C69.546 153.478 69.3317 153.262 68.9957 153.025C68.9443 152.994 68.9288 152.962 68.9494 152.928C68.97 152.893 69.0061 152.892 69.0575 152.922C69.3061 153.072 69.5838 153.25 69.8907 153.458C70.2027 153.657 70.363 153.759 70.3716 153.764L72.2489 154.892C72.2575 154.897 72.4229 154.991 72.7452 155.173C73.0727 155.346 73.3607 155.508 73.6093 155.657C73.6608 155.688 73.6762 155.72 73.6556 155.755C73.635 155.789 73.599 155.791 73.5476 155.76C73.1806 155.574 72.8891 155.487 72.673 155.497C72.457 155.507 72.2297 155.633 71.9911 155.875C71.7475 156.125 71.4214 156.571 71.0129 157.212L68.3094 161.712C67.9352 162.374 67.6974 162.867 67.5961 163.191C67.4896 163.524 67.4826 163.788 67.5751 163.983C67.6676 164.179 67.8819 164.395 68.2179 164.632C68.2693 164.663 68.2847 164.695 68.2641 164.73C68.2435 164.764 68.2075 164.766 68.1561 164.735C67.9075 164.585 67.6297 164.407 67.3229 164.199C67.0109 164 66.8506 163.898 66.842 163.893L64.9647 162.765C64.9561 162.76 64.7906 162.667 64.4683 162.485C64.1408 162.311 63.8528 162.15 63.6042 162C63.5528 161.97 63.5374 161.937 63.558 161.903C63.5786 161.868 63.6146 161.867 63.666 161.898C64.0329 162.083 64.3244 162.171 64.5405 162.16C64.7566 162.15 64.9865 162.02 65.2301 161.77C65.4687 161.528 65.7922 161.087 66.2007 160.445L67.4211 158.414L66.3024 157.742C65.9629 157.55 65.596 157.335 65.2017 157.098C64.7817 156.846 64.4199 156.623 64.1165 156.429L63.0492 155.788L61.8288 157.819C61.4546 158.481 61.2168 158.974 61.1155 159.298C61.009 159.631 61.002 159.895 61.0945 160.09C61.187 160.286 61.4055 160.505 61.7501 160.747C61.7758 160.762 61.7921 160.784 61.799 160.811C61.7972 160.833 61.7869 160.85 61.7681 160.862C61.7406 160.869 61.714 160.865 61.6883 160.85C61.4397 160.7 61.162 160.522 60.8551 160.314C60.5345 160.11 60.3699 160.005 60.3614 160L58.4969 158.88C58.4883 158.875 58.3229 158.781 58.0006 158.599C57.6645 158.421 57.3722 158.257 57.1236 158.107C57.055 158.066 57.0465 158.032 57.0979 158.005C57.122 157.984 57.1511 157.984 57.1854 158.005C57.5523 158.19 57.8438 158.278 58.0599 158.267C58.276 158.257 58.5059 158.127 58.7495 157.877C58.9881 157.635 59.3116 157.194 59.7201 156.553L62.4235 152.052C62.7977 151.39 63.0381 150.893 63.1446 150.56C63.2459 150.236 63.2504 149.977 63.1579 149.781C63.0654 149.585 62.8511 149.369 62.5151 149.132Z" fill="#FDF3EE"/>
<path d="M53.5731 140.849C53.5511 140.828 53.5432 140.808 53.5494 140.786C53.5556 140.765 53.5692 140.75 53.5901 140.742C53.611 140.734 53.6325 140.74 53.6545 140.761C53.8235 140.917 54.0262 141.117 54.2624 141.363C54.5055 141.601 54.6307 141.723 54.638 141.73L56.3795 143.337C56.3869 143.344 56.5446 143.483 56.8526 143.754C57.1601 144.01 57.4204 144.237 57.6335 144.434C57.6555 144.454 57.6671 144.478 57.6682 144.507C57.662 144.528 57.6484 144.543 57.6275 144.551C57.5993 144.552 57.5741 144.542 57.5521 144.522C57.105 144.136 56.7158 144.049 56.3846 144.261C56.0392 144.473 55.6704 145.071 55.2781 146.056L55.2205 146.207L56.9509 147.805L58.6924 149.412C59.3605 149.131 59.8209 148.698 60.0735 148.115C60.3194 147.539 60.2103 147.023 59.7463 146.568C59.7242 146.547 59.7163 146.526 59.7226 146.505C59.7214 146.477 59.735 146.462 59.7632 146.461C59.7909 146.446 59.8158 146.448 59.8379 146.468C59.9701 146.591 60.3087 146.917 60.8536 147.447C61.126 147.712 61.3651 147.939 61.5709 148.129C61.6884 148.238 61.8277 148.36 61.9888 148.495C62.311 148.765 62.5162 148.941 62.6044 149.022C62.6264 149.043 62.6239 149.067 62.5967 149.097C62.5696 149.126 62.545 149.131 62.523 149.11C62.237 148.86 61.7461 148.795 61.0503 148.915C60.3189 149.029 59.6019 149.238 58.8993 149.542L53.2839 151.932C53.107 152.64 52.9682 153.24 52.8676 153.732C52.8699 153.788 52.8493 153.803 52.8057 153.777C52.3858 153.539 51.9471 153.365 51.4899 153.256C50.9896 153.135 50.5892 153.119 50.2885 153.209C50.2743 153.209 50.2596 153.196 50.2444 153.168L53.3603 144.286C53.7294 143.252 53.9397 142.494 53.9911 142.01C54.0296 141.556 53.8902 141.169 53.5731 140.849ZM58.4626 149.506L56.7983 147.97L55.134 146.434C54.2692 148.697 53.6706 150.452 53.3382 151.696L58.4626 149.506Z" fill="#FDF3EE"/>
<path d="M44.8492 128.586C44.8322 128.562 44.8291 128.54 44.8399 128.52C44.845 128.492 44.8586 128.477 44.8808 128.474C44.9029 128.471 44.9253 128.485 44.948 128.518C45.1069 128.749 45.2859 129.026 45.485 129.351C45.6924 129.669 45.7989 129.833 45.8046 129.841L47.0509 131.623C47.0793 131.665 47.2026 131.835 47.4207 132.134C47.6471 132.427 47.8354 132.674 47.9854 132.874C48.0195 132.923 48.02 132.959 47.9871 132.982C47.9459 133.011 47.9083 133 47.8743 132.951C47.6252 132.624 47.4002 132.421 47.1992 132.341C46.9983 132.261 46.7351 132.284 46.4098 132.411C46.0844 132.538 45.6031 132.809 44.9659 133.224L39.1975 137.198L44.6788 137.302L45.0842 136.33C46.0898 136.609 46.796 136.717 47.2028 136.656C47.2636 136.638 47.2749 136.654 47.2369 136.705L44.5259 144.165L49.3926 140.812C50.0431 140.364 50.5166 139.764 50.813 139.014C51.0955 138.26 51.0423 137.593 50.6533 137.011C50.6363 136.986 50.6332 136.964 50.644 136.944C50.6491 136.916 50.6656 136.905 50.6934 136.91C50.7238 136.901 50.7475 136.909 50.7645 136.934C50.878 137.099 51.1478 137.508 51.5738 138.161C51.7869 138.488 51.9813 138.779 52.1572 139.035C52.282 139.216 52.4337 139.427 52.6121 139.668C52.9577 140.135 53.1701 140.425 53.2496 140.541C53.2666 140.565 53.2697 140.588 53.2589 140.607C53.2481 140.627 53.2317 140.638 53.2095 140.641C53.1874 140.644 53.1678 140.634 53.1508 140.609C52.8475 140.186 52.3717 139.998 51.7233 140.044C51.0749 140.09 50.4749 140.303 49.9232 140.683C47.8645 142.102 46.5621 143.005 46.0161 143.393C45.3193 143.898 44.8428 144.299 44.5866 144.597C44.3247 144.887 44.197 145.151 44.2034 145.389C44.2016 145.633 44.3217 145.957 44.5636 146.361C44.5977 146.411 44.5982 146.447 44.5653 146.47C44.5241 146.498 44.4865 146.487 44.4525 146.438C44.2709 146.174 44.0664 145.86 43.8389 145.495C43.6032 145.135 43.4825 144.951 43.4768 144.943L42.3789 143.349L44.6319 137.498L38.2769 137.395L37.1705 135.79C37.1648 135.781 37.0501 135.624 36.8263 135.316C36.5942 135.015 36.3987 134.749 36.2399 134.518C36.1945 134.452 36.2009 134.418 36.2591 134.414C36.2951 134.413 36.3217 134.426 36.3387 134.45C36.6017 134.779 36.8336 134.984 37.0346 135.064C37.2355 135.144 37.4987 135.12 37.824 134.993C38.1355 134.864 38.6098 134.592 39.247 134.177L43.5579 131.207C44.1723 130.759 44.5997 130.41 44.84 130.159C45.0663 129.906 45.1779 129.672 45.1745 129.455C45.1712 129.239 45.0628 128.949 44.8492 128.586Z" fill="#FDF3EE"/>
<path d="M39.9401 115.894C39.9293 115.866 39.9314 115.844 39.9464 115.827C39.9578 115.801 39.9746 115.789 39.9969 115.791C40.0192 115.793 40.0375 115.813 40.052 115.85C40.1569 116.121 40.2688 116.437 40.3877 116.798C40.5122 117.147 40.5763 117.326 40.5799 117.335L41.3669 119.363C41.3705 119.372 41.4457 119.552 41.5925 119.903C41.745 120.24 41.8738 120.544 41.9787 120.815C41.9895 120.843 41.9893 120.87 41.9779 120.895C41.9628 120.912 41.9442 120.919 41.9219 120.917C41.896 120.906 41.8777 120.886 41.8668 120.858C41.6869 120.477 41.5084 120.225 41.3314 120.1C41.1544 119.976 40.8976 119.936 40.561 119.981C40.2151 120.03 39.6843 120.182 38.9686 120.438L34.1861 122.294L40.8418 125.182C41.5338 124.892 42.0191 124.65 42.2978 124.456C42.5765 124.262 42.7392 124.059 42.7859 123.848C42.8327 123.637 42.7959 123.335 42.6755 122.942C42.6538 122.886 42.6616 122.85 42.6989 122.836C42.7361 122.822 42.7656 122.842 42.7874 122.898C42.8923 123.169 43.0024 123.48 43.1176 123.832C43.2421 124.181 43.3062 124.359 43.3098 124.369L44.1022 126.41C44.1058 126.42 44.1792 126.595 44.3224 126.936C44.475 127.274 44.6037 127.578 44.7086 127.848C44.7303 127.904 44.7225 127.94 44.6852 127.954C44.6479 127.969 44.6184 127.948 44.5967 127.892C44.4204 127.521 44.2438 127.273 44.0668 127.148C43.8898 127.024 43.633 126.984 43.2964 127.029C42.9505 127.077 42.4197 127.23 41.7039 127.486L36.8096 129.386C36.1083 129.679 35.6183 129.923 35.3396 130.117C35.0516 130.315 34.8842 130.519 34.8375 130.73C34.7908 130.941 34.8276 131.244 34.948 131.637C34.9697 131.693 34.9619 131.728 34.9246 131.742C34.8873 131.757 34.8578 131.736 34.8361 131.68C34.7312 131.41 34.6211 131.098 34.5059 130.746C34.3813 130.398 34.3172 130.219 34.3136 130.21L33.5212 128.168C33.5176 128.159 33.4442 127.983 33.301 127.642C33.1485 127.304 33.0198 127 32.9148 126.73C32.8931 126.674 32.9009 126.639 32.9382 126.624C32.9755 126.61 33.005 126.631 33.0267 126.686C33.203 127.058 33.3797 127.306 33.5567 127.43C33.7337 127.554 33.9951 127.592 34.341 127.544C34.6776 127.499 35.2038 127.349 35.9195 127.092L40.5761 125.285L33.9344 122.392C33.2855 122.655 32.8234 122.888 32.5484 123.091C32.2733 123.294 32.1189 123.504 32.085 123.721C32.0383 123.932 32.0826 124.226 32.218 124.603C32.2289 124.631 32.2286 124.658 32.2172 124.684C32.2022 124.7 32.1835 124.707 32.1613 124.705C32.1354 124.694 32.117 124.674 32.1062 124.646C32.0012 124.376 31.8912 124.065 31.7759 123.713C31.6478 123.355 31.5819 123.171 31.5783 123.162L30.7913 121.134C30.7877 121.125 30.7143 120.949 30.5711 120.608C30.415 120.261 30.2844 119.952 30.1795 119.682C30.1505 119.607 30.1648 119.575 30.2223 119.585C30.2539 119.583 30.2769 119.601 30.2914 119.639C30.4677 120.01 30.6443 120.258 30.8213 120.382C30.9983 120.507 31.2598 120.545 31.6057 120.496C31.9423 120.451 32.4684 120.301 33.1842 120.044L38.0785 118.145C38.7798 117.851 39.2744 117.606 39.5624 117.408C39.8411 117.214 40.0038 117.011 40.0506 116.8C40.0973 116.589 40.0605 116.287 39.9401 115.894Z" fill="#FDF3EE"/>
<path d="M34.5738 107.02L35.416 112.445L35.2233 112.475L34.3811 107.05L34.5738 107.02Z" fill="#FDF3EE"/>
<path d="M38.429 96.7152C38.3558 98.2935 37.815 99.5949 36.8065 100.619C35.798 101.644 34.4896 102.119 32.8813 102.044C31.293 101.97 29.9947 101.365 28.9863 100.227C27.9779 99.0889 27.5119 97.6959 27.5882 96.0476C27.6067 95.6481 27.6689 95.1704 27.7748 94.6147C27.8806 94.059 27.9347 93.7562 27.937 93.7063C27.9574 93.2667 27.7263 92.9607 27.2437 92.7882C27.1747 92.765 27.1764 92.73 27.2486 92.6833L32.2576 91.8493C32.2776 91.8502 32.2921 91.8609 32.3011 91.8813C32.3107 91.8918 32.31 91.9068 32.2991 91.9263C32.2882 91.9458 32.2725 91.9601 32.252 91.9692C30.9816 92.3808 29.936 93.0181 29.1152 93.881C28.2644 94.7425 27.8232 95.5129 27.7918 96.1922C27.7524 97.0413 28.1091 97.7686 28.8619 98.3741C29.6052 98.9691 30.6211 99.2965 31.9097 99.3562C33.4381 99.4271 34.6998 99.0951 35.6949 98.3604C36.6809 97.6052 37.2056 96.5434 37.269 95.1748C37.307 94.3557 37.0665 93.6038 36.5477 92.919C36.0293 92.2243 35.3105 91.6404 34.3914 91.1673C34.3533 91.1255 34.35 91.0903 34.3813 91.0618C34.4027 91.0327 34.4329 91.0291 34.4719 91.0509C35.5476 91.6013 36.4531 92.2589 37.1885 93.0238C38.0854 93.9763 38.4989 95.2068 38.429 96.7152Z" fill="#FDF3EE"/>
<path d="M40.129 84.2022L38.9162 89.3719C38.9139 89.3816 38.8754 89.5677 38.8006 89.9302C38.7356 90.295 38.67 90.6186 38.6037 90.9009C38.59 90.9593 38.5637 90.984 38.5248 90.9748C38.4858 90.9657 38.4732 90.9319 38.4869 90.8735C38.5513 90.4675 38.5457 90.1632 38.47 89.9605C38.3943 89.7579 38.2049 89.5799 37.9019 89.4267C37.5892 89.2711 37.0651 89.0968 36.3298 88.9038L31.2185 87.7047C30.4741 87.5505 29.9321 87.4747 29.5925 87.4773C29.2432 87.4775 28.9896 87.5515 28.8317 87.6993C28.6737 87.8472 28.5333 88.1173 28.4105 88.5096C28.3968 88.568 28.3705 88.5926 28.3315 88.5835C28.2926 88.5743 28.2799 88.5406 28.2937 88.4822C28.3599 88.1998 28.445 87.8808 28.549 87.5252C28.6432 87.1672 28.6915 86.9834 28.6938 86.9737L29.6839 82.7533C30.0242 81.3026 30.4616 80.2702 30.996 79.6561C31.5304 79.0419 32.1967 78.8284 32.9951 79.0157C33.5208 79.1391 33.9261 79.491 34.2111 80.0714C34.7185 81.1046 34.7976 82.5406 34.4484 84.3795L34.5068 84.3932C34.8197 83.0594 35.2496 81.9276 35.7964 80.998C36.1161 80.467 36.49 80.0771 36.9182 79.8283C37.3486 79.5697 37.8024 79.4964 38.2794 79.6084C39.1848 79.8208 39.7973 80.3188 40.1167 81.1025C40.4264 81.8839 40.4305 82.9171 40.129 84.2022ZM31.6198 85.272L34.0586 85.8441L34.1476 85.4644C34.6661 83.2545 34.1076 81.9576 32.472 81.5739C31.7613 81.4071 31.1638 81.5238 30.6797 81.9238C30.1955 82.3238 29.8701 82.8791 29.7033 83.5898L29.4601 84.6267C29.8776 84.8171 30.5975 85.0322 31.6198 85.272ZM34.3546 85.436L34.2484 85.8887L36.9939 86.5328C38.1427 86.8023 38.9026 86.9343 39.2736 86.9289L39.558 85.7169C39.7704 84.8114 39.7095 84.0422 39.3753 83.4091C39.041 82.776 38.4942 82.3704 37.7348 82.1923C36.0798 81.804 34.953 82.8852 34.3546 85.436Z" fill="#FDF3EE"/>
<path d="M45.998 68.9144C46.0228 68.8598 46.0534 68.8407 46.0899 68.8573C46.1263 68.8738 46.1321 68.9094 46.1073 68.964C45.9874 69.2281 45.8418 69.5244 45.6706 69.8531C45.5086 70.1858 45.4254 70.3567 45.4213 70.3658L44.5468 72.2916C44.5427 72.3007 44.4253 72.5714 44.1946 73.1036C43.9771 73.6309 43.7774 74.0948 43.5955 74.4955C43.5707 74.5501 43.5451 74.5824 43.5186 74.5923C43.4921 74.6023 43.4739 74.594 43.464 74.5675C43.4491 74.5278 43.4519 74.4852 43.4726 74.4397C43.657 73.9852 43.7715 73.6363 43.8161 73.393C43.8648 73.1406 43.8333 72.8956 43.7214 72.6581C43.6047 72.4074 43.4064 72.1911 43.1266 72.0091C42.8418 71.8139 42.4076 71.5728 41.8241 71.2859L40.1305 70.5168L40.0437 70.708C39.6674 71.5366 39.5208 72.2828 39.6038 72.9465C39.691 73.6011 40.026 74.2419 40.6088 74.869L41.2236 75.5106C41.4844 75.7828 41.6761 76.0016 41.7986 76.1671C41.9543 76.3806 42.0665 76.6292 42.1353 76.9131C42.195 77.1928 42.1761 77.4642 42.0785 77.7274L41.57 78.8474L41.3678 79.3651C41.2239 79.7062 41.0982 79.995 40.9907 80.2318C40.9783 80.2591 40.961 80.2732 40.9386 80.274C40.9163 80.2748 40.8981 80.2666 40.884 80.2492C40.8699 80.2318 40.8691 80.2095 40.8815 80.1822C41.0659 79.7277 41.0541 79.2941 40.8462 78.8812C40.6143 78.4244 40.1299 77.7981 39.3931 77.0022L38.9808 76.5679C38.2563 75.7447 38.2368 74.5058 38.9222 72.8511C38.2308 73.9869 37.5202 74.7899 36.7904 75.2603C36.0648 75.7215 35.3605 75.7971 34.6776 75.487C33.8399 75.1066 33.3783 74.4303 33.2927 73.4579C33.2021 72.4722 33.4855 71.2555 34.1429 69.8078L35.8608 66.0246C35.8649 66.0155 35.9389 65.8404 36.0828 65.4994C36.2176 65.1542 36.3449 64.8496 36.4648 64.5855C36.4896 64.5309 36.5202 64.5119 36.5567 64.5284C36.5931 64.5449 36.5989 64.5805 36.5741 64.6351C36.4319 65.0209 36.3782 65.3205 36.413 65.534C36.4479 65.7475 36.6036 65.961 36.8801 66.1744C37.1475 66.3837 37.623 66.6545 38.3067 66.987L43.087 69.1576C43.7873 69.4536 44.3087 69.6355 44.6514 69.7032C44.9849 69.7668 45.2435 69.7415 45.4272 69.6272C45.6109 69.5129 45.8012 69.2753 45.998 68.9144ZM35.7555 73.077C36.5112 73.4202 37.2635 73.3719 38.0123 72.9322C38.7479 72.4974 39.3472 71.7701 39.8103 70.7503L39.9529 70.4362L36.6477 68.9354C36.1014 68.6873 35.5911 68.505 35.1169 68.3885L34.8006 69.085C33.9075 71.0518 34.2258 72.3824 35.7555 73.077Z" fill="#FDF3EE"/>
<path d="M48.87 59.5113C49.6155 60.0331 49.9921 60.8642 49.9995 62.0045C49.9931 63.1474 49.6172 64.2513 48.8718 65.3164C48.6482 65.6359 48.3431 66.0022 47.9564 66.4151C47.6239 66.7682 47.4261 66.9898 47.363 67.08C47.1107 67.4405 47.1382 67.8198 47.4454 68.2179C47.4823 68.3047 47.4622 68.3334 47.3852 68.3039L43.2229 66.1416C43.1901 66.1186 43.1852 66.0908 43.2081 66.058C43.2196 66.0416 43.2446 66.0408 43.2831 66.0555C44.5325 66.3806 45.6458 66.4641 46.6231 66.3059C47.5923 66.1419 48.2886 65.7748 48.7121 65.2046C49.0733 64.6884 49.1535 64.0855 48.9527 63.3957C48.7519 62.7059 48.2911 62.1088 47.5701 61.6042C47.013 61.2143 46.4215 61.0567 45.7956 61.1313C45.1754 61.1977 44.6991 61.4685 44.3665 61.9437C44.1429 62.2632 43.9909 62.5414 43.9107 62.7781C43.905 62.7863 43.9 62.8195 43.896 62.8777C43.8894 62.9219 43.8849 62.9981 43.8825 63.1062C43.88 63.2144 43.8735 63.3197 43.8628 63.4221C43.8432 63.7989 43.7789 64.0652 43.67 64.2208C43.5209 64.4338 43.3726 64.4887 43.2252 64.3855C42.963 64.2021 43.069 63.6843 43.5433 62.8322C43.8102 61.8229 43.8839 61.0201 43.7642 60.4237C43.6503 59.8191 43.2656 59.2875 42.6101 58.8288C42.135 58.4962 41.6786 58.3721 41.2412 58.4566C40.8013 58.5271 40.4207 58.7917 40.0997 59.2505C39.9334 59.4881 39.8101 59.7863 39.7299 60.1452C40.3649 61.0168 40.7823 61.6934 40.9823 62.1751C41.174 62.651 41.1724 63.0283 40.9775 63.3069C40.6564 63.7657 40.2705 63.8374 39.8199 63.522C39.2956 63.1551 39.0821 62.4747 39.1795 61.481C39.2744 60.4733 39.5684 59.6172 40.0615 58.9126C40.7381 57.9458 41.4172 57.2981 42.0987 56.9696C42.7803 56.641 43.3915 56.6659 43.9322 57.0443C44.2435 57.2622 44.4832 57.5825 44.6512 58.0052C44.743 58.2403 44.7582 58.6721 44.6968 59.3004C44.6681 59.4634 44.6165 59.7203 44.542 60.0709L44.3332 60.8402C44.2742 60.9942 44.1817 61.2834 44.0556 61.7078L43.7866 62.5631C44.1969 61.7152 44.5511 61.0782 44.8493 60.6521C45.4169 59.841 46.0678 59.3384 46.8018 59.1441C47.5333 58.936 48.2227 59.0584 48.87 59.5113Z" fill="#FDF3EE"/>
<path d="M60.7763 51.5581C60.7978 51.5372 60.8191 51.5303 60.8402 51.5376C60.8613 51.5449 60.8753 51.5592 60.8822 51.5805C60.889 51.6018 60.8817 51.6229 60.8603 51.6439C60.6959 51.8048 60.4852 51.9969 60.2282 52.2204C59.9781 52.451 59.8496 52.5699 59.8424 52.5769L58.1484 54.2343C58.1413 54.2413 57.9946 54.3918 57.7086 54.6856C57.4367 54.9797 57.1971 55.2281 56.9898 55.4309C56.9683 55.4519 56.9435 55.4622 56.9152 55.4619C56.8941 55.4546 56.8801 55.4403 56.8732 55.419C56.8735 55.3908 56.8844 55.3661 56.9059 55.3452C57.3136 54.9182 57.4203 54.534 57.226 54.1925C57.0319 53.8368 56.4529 53.438 55.4889 52.9961L55.3411 52.9309L53.6578 54.5778L51.9638 56.2353C52.2109 56.9169 52.6194 57.3987 53.1891 57.6807C53.7518 57.9555 54.2725 57.8728 54.751 57.4325C54.7725 57.4115 54.7938 57.4047 54.8149 57.412C54.8432 57.4123 54.8572 57.4266 54.8569 57.4549C54.8707 57.4833 54.8669 57.508 54.8455 57.529C54.7168 57.6549 54.3739 57.9764 53.8167 58.4936C53.538 58.7523 53.2987 58.9795 53.0985 59.1753C52.9842 59.2872 52.8554 59.4201 52.7123 59.5742C52.4261 59.8822 52.2401 60.0782 52.1543 60.1621C52.1329 60.1831 52.1082 60.1793 52.0802 60.1507C52.0522 60.1221 52.049 60.0973 52.0704 60.0763C52.335 59.8034 52.4252 59.3165 52.3409 58.6155C52.2641 57.8792 52.0917 57.1525 51.8237 56.4353L49.7223 50.7057C49.0245 50.4931 48.4324 50.324 47.9458 50.1984C47.8892 50.1978 47.8753 50.1765 47.9041 50.1343C48.1631 49.727 48.3587 49.2978 48.4909 48.8467C48.6377 48.3533 48.6739 47.9541 48.5994 47.6492C48.5996 47.6351 48.6139 47.6211 48.6423 47.6073L57.3544 51.1708C58.3681 51.592 59.115 51.8406 59.595 51.9165C60.0469 51.978 60.4407 51.8585 60.7763 51.5581ZM51.8815 56.0011L53.5004 54.417L55.1194 52.833C52.9026 51.8542 51.1811 51.1671 49.9549 50.7719L51.8815 56.0011Z" fill="#FDF3EE"/>
<path d="M66.2739 47.9852L64.5606 49.1199C64.5523 49.1254 64.3175 49.287 63.8561 49.6046C63.4086 49.9249 63.0139 50.1983 62.6721 50.4247C62.6304 50.4523 62.5957 50.4633 62.568 50.4577C62.5403 50.4521 62.5292 50.4354 62.5349 50.4077C62.535 50.3716 62.5559 50.3398 62.5976 50.3122C62.97 50.0415 63.2383 49.8218 63.4025 49.6531C63.5694 49.4706 63.6686 49.249 63.6999 48.9884C63.7256 48.7194 63.671 48.4377 63.536 48.1433C63.4038 47.8351 63.1748 47.417 62.8492 46.889L58.7077 40.6362L58.295 40.9095C57.7948 41.2408 57.4501 41.9429 57.2611 43.0157C57.0942 44.0857 57.1863 45.2842 57.5373 46.611C57.5565 46.6942 57.5398 46.7233 57.4871 46.6982C57.4733 46.6954 57.4581 46.6814 57.4415 46.6564L55.3552 41.7951C55.3553 41.7591 55.3803 41.7425 55.4302 41.7454C55.6905 41.8849 56.0067 41.8914 56.3787 41.7649C56.7591 41.6329 57.3036 41.3323 58.0122 40.8629L61.2387 38.7259C61.9807 38.2344 62.4742 37.8476 62.7191 37.5655C62.9724 37.2778 63.0856 36.9869 63.0587 36.6928C63.07 36.6374 63.095 36.6208 63.1337 36.6431L66.7958 40.4608C66.8179 40.4941 66.8192 40.5233 66.7997 40.5482C66.783 40.5592 66.7595 40.5508 66.729 40.523C65.636 39.6877 64.556 39.1436 63.4889 38.8908C62.4274 38.6463 61.6424 38.6924 61.1338 39.0293L60.7586 39.2778L64.9001 45.5306C65.3308 46.1809 65.7053 46.6286 66.0235 46.8736C66.3417 47.1186 66.6562 47.2222 66.9669 47.1843C67.2722 47.1381 67.6665 46.9548 68.1501 46.6346C68.1918 46.6069 68.2265 46.596 68.2542 46.6016C68.2819 46.6072 68.293 46.6239 68.2873 46.6516C68.2872 46.6877 68.2663 46.7195 68.2246 46.7471C67.8828 46.9735 67.473 47.233 66.995 47.5255C66.5226 47.8264 66.2823 47.9796 66.2739 47.9852Z" fill="#FDF3EE"/>
<path d="M72.0234 38.5257L73.2115 38.0231C74.9061 37.3064 76.3029 36.9762 77.4016 37.0326C78.5057 37.0759 79.2214 37.4844 79.5486 38.2581C79.907 39.1054 79.804 39.9144 79.2397 40.6851C78.6753 41.4559 77.6886 42.1392 76.2795 42.7352L72.0382 44.5291C72.029 44.533 71.856 44.6116 71.5191 44.765C71.1861 44.9275 70.8861 45.0653 70.619 45.1783C70.5637 45.2016 70.5283 45.1949 70.5127 45.1581C70.4933 45.112 70.5111 45.0773 70.5664 45.0539C70.9362 44.8758 71.1807 44.6964 71.2997 44.5158C71.4187 44.3351 71.4489 44.0727 71.3901 43.7284C71.3313 43.3841 71.1631 42.858 70.8855 42.1503L68.852 37.3426C68.5375 36.6504 68.2772 36.1634 68.0711 35.8814C67.865 35.5994 67.6556 35.4382 67.4431 35.3978C67.2306 35.3574 66.9316 35.4079 66.5462 35.5492C66.491 35.5725 66.4555 35.5658 66.44 35.529C66.4244 35.4921 66.4442 35.462 66.4995 35.4387C66.7666 35.3257 67.0744 35.2063 67.423 35.0806C67.7676 34.9457 67.9446 34.8763 67.9538 34.8724L69.9511 34.0113C69.9603 34.0074 70.138 33.9268 70.4841 33.7696C70.8263 33.6032 71.1263 33.4654 71.3842 33.3563C71.4578 33.3252 71.4906 33.3384 71.4825 33.3962C71.4849 33.4277 71.4678 33.4513 71.4309 33.4668C71.065 33.6542 70.8225 33.8382 70.7035 34.0188C70.5844 34.1995 70.5543 34.4619 70.6131 34.8062C70.6679 35.1413 70.8342 35.6628 71.1118 36.3705L72.0234 38.5257ZM74.2221 43.3774L75.1753 42.9742C76.1055 42.5808 76.7416 42.0566 77.0835 41.4017C77.4254 40.7468 77.4444 40.0601 77.1405 39.3417C76.4783 37.776 74.9407 37.5035 72.5276 38.5241L72.0994 38.7053L73.1979 41.3025C73.6576 42.3893 73.999 43.0809 74.2221 43.3774Z" fill="#FDF3EE"/>
<path d="M86.3571 39.743C84.8135 40.0804 83.4166 39.8944 82.1663 39.1851C80.916 38.4757 80.1189 37.3346 79.7751 35.7617C79.4356 34.2084 79.6851 32.7976 80.5236 31.5292C81.3621 30.2609 82.5873 29.4506 84.1993 29.0983C84.59 29.0129 85.0675 28.9494 85.6317 28.908C86.1958 28.8666 86.5023 28.8405 86.5512 28.8299C86.981 28.7359 87.2169 28.4336 87.2588 27.9228C87.2634 27.8502 87.2976 27.8427 87.3614 27.9004L89.4621 32.5235C89.4663 32.543 89.4598 32.5598 89.4424 32.5738C89.4347 32.5857 89.4201 32.5889 89.3984 32.5834C89.3767 32.5779 89.3589 32.5665 89.3448 32.5491C88.6187 31.4283 87.7328 30.583 86.687 30.0131C85.6348 29.414 84.7765 29.1871 84.1122 29.3323C83.2818 29.5138 82.6715 30.0464 82.2812 30.9301C81.8985 31.8019 81.8449 32.868 82.1204 34.1282C82.4471 35.6229 83.094 36.7559 84.061 37.5272C85.0454 38.2845 86.2068 38.5168 87.5452 38.2243C88.3463 38.0492 89.0105 37.6225 89.5378 36.9443C90.0749 36.2639 90.4532 35.4186 90.6725 34.4085C90.703 34.3608 90.7362 34.3485 90.7719 34.3714C90.8055 34.3845 90.8168 34.4128 90.8058 34.4561C90.5522 35.6375 90.151 36.6823 89.6023 37.5904C88.914 38.703 87.8323 39.4206 86.3571 39.743Z" fill="#FDF3EE"/>
<path d="M103.885 37.9362C103.945 37.9348 103.975 37.9541 103.976 37.9941C103.977 38.0341 103.948 38.0548 103.888 38.0561C103.598 38.0629 103.268 38.0605 102.897 38.0491C102.527 38.0476 102.337 38.047 102.327 38.0473L100.213 38.0963C100.203 38.0965 99.9078 38.1083 99.3282 38.1317C98.7588 38.1649 98.2541 38.1866 97.8143 38.1968C97.7543 38.1982 97.7141 38.1891 97.6936 38.1696C97.6731 38.1501 97.6727 38.1301 97.6922 38.1096C97.7215 38.0789 97.7611 38.063 97.8111 38.0619C98.3005 38.0305 98.6645 37.9821 98.9031 37.9165C99.1516 37.8508 99.3585 37.7159 99.5239 37.512C99.699 37.2979 99.8077 37.0253 99.85 36.6943C99.9021 36.353 99.9307 35.8572 99.9356 35.2069L99.8925 33.3474L99.6826 33.3523C98.7728 33.3733 98.0371 33.5654 97.4753 33.9285C96.9236 34.2914 96.4919 34.8716 96.1803 35.669L95.8695 36.5014C95.7376 36.8545 95.6238 37.1223 95.528 37.3045C95.4033 37.5375 95.2281 37.7466 95.0024 37.9319C94.7764 38.1071 94.5236 38.208 94.2442 38.2345L93.0145 38.263L92.4603 38.3058C92.0907 38.3244 91.7759 38.3367 91.516 38.3427C91.486 38.3434 91.4657 38.3339 91.4553 38.3141C91.4448 38.2943 91.4443 38.2743 91.4539 38.2541C91.4634 38.2339 91.4832 38.2234 91.5132 38.2227C92.0026 38.1914 92.3881 37.9924 92.6697 37.6258C92.9803 37.2185 93.334 36.5101 93.7307 35.5007L93.9428 34.9406C94.3695 33.9304 95.477 33.3747 97.2651 33.2732C95.9417 33.1438 94.9097 32.8526 94.169 32.3997C93.4383 31.9465 93.0643 31.345 93.047 30.5952C93.0256 29.6754 93.4343 28.9658 94.273 28.4662C95.1214 27.9564 96.3404 27.6831 97.93 27.6463L102.084 27.5501C102.094 27.5499 102.284 27.5405 102.653 27.5219C103.023 27.4933 103.352 27.4757 103.642 27.469C103.702 27.4676 103.733 27.4869 103.734 27.5269C103.735 27.5669 103.705 27.5876 103.645 27.5889C103.236 27.6284 102.943 27.7102 102.766 27.8344C102.588 27.9585 102.464 28.1915 102.392 28.5332C102.319 28.865 102.282 29.411 102.28 30.1713L102.401 35.4199C102.439 36.1792 102.502 36.7279 102.589 37.0659C102.677 37.394 102.812 37.6159 102.995 37.7317C103.178 37.8475 103.474 37.9157 103.885 37.9362ZM95.6859 30.519C95.7051 31.3488 96.0754 32.0054 96.7968 32.4889C97.508 32.9625 98.4234 33.1864 99.5431 33.1604L99.888 33.1524L99.8039 29.5234C99.7901 28.9236 99.7326 28.3848 99.6315 27.907L98.8667 27.9247C96.7073 27.9747 95.647 28.8395 95.6859 30.519Z" fill="#FDF3EE"/>
<path d="M113.884 39.9385C112.347 39.5718 111.17 38.7973 110.352 37.6152C109.534 36.4331 109.312 35.059 109.686 33.493C110.055 31.9464 110.892 30.7841 112.199 30.006C113.505 29.2279 114.96 29.0304 116.565 29.4134C116.954 29.5062 117.412 29.6565 117.938 29.8643C118.464 30.0721 118.752 30.1818 118.8 30.1934C119.228 30.2956 119.572 30.1257 119.832 29.6839C119.867 29.6205 119.902 29.6286 119.934 29.7083L119.817 34.7849C119.813 34.8043 119.8 34.8166 119.778 34.8217C119.766 34.8291 119.751 34.8256 119.734 34.8113C119.717 34.7969 119.706 34.7788 119.701 34.757C119.534 33.4321 119.103 32.2858 118.409 31.3182C117.721 30.3214 117.047 29.7441 116.385 29.5863C115.559 29.389 114.777 29.6036 114.042 30.23C113.318 30.849 112.807 31.7858 112.508 33.0406C112.153 34.5288 112.243 35.8304 112.779 36.9452C113.336 38.0549 114.282 38.7688 115.614 39.0868C116.412 39.2771 117.195 39.1814 117.965 38.7996C118.744 38.4201 119.452 37.8231 120.089 37.0086C120.137 36.979 120.172 36.9822 120.194 37.0184C120.219 37.0448 120.217 37.0751 120.188 37.1094C119.446 38.0633 118.631 38.83 117.742 39.4096C116.639 40.1127 115.353 40.289 113.884 39.9385Z" fill="#FDF3EE"/>
<path d="M134.486 48.4285C134.512 48.4428 134.525 48.4611 134.524 48.4834C134.532 48.5106 134.527 48.5305 134.509 48.5433C134.49 48.5562 134.464 48.553 134.429 48.534C134.174 48.3958 133.884 48.2273 133.559 48.0287C133.239 47.8436 133.074 47.7486 133.065 47.7439L131.153 46.7074C131.144 46.7026 130.971 46.6141 130.632 46.4418C130.297 46.2831 130.002 46.1346 129.747 45.9964C129.721 45.9821 129.703 45.9614 129.695 45.9343C129.696 45.912 129.706 45.8944 129.724 45.8816C129.751 45.8735 129.778 45.8766 129.804 45.8909C130.188 46.0647 130.487 46.1417 130.703 46.122C130.918 46.1023 131.14 45.9664 131.367 45.7144C131.6 45.4536 131.906 44.9939 132.285 44.3353L133.579 41.9484C133.175 41.7292 132.808 41.5358 132.477 41.3683C132.156 41.2055 131.78 41.0074 131.349 40.7739C130.945 40.5547 130.574 40.3478 130.236 40.1531C129.898 39.9585 129.517 39.7468 129.096 39.5181L127.802 41.905C127.457 42.5826 127.239 43.09 127.147 43.427C127.06 43.7553 127.067 44.0151 127.169 44.2063C127.27 44.3976 127.493 44.6041 127.839 44.8259C127.892 44.8545 127.909 44.8863 127.89 44.9215C127.871 44.9567 127.835 44.96 127.782 44.9314C127.527 44.7932 127.242 44.6271 126.926 44.4332C126.606 44.2481 126.441 44.1532 126.432 44.1484L124.507 43.1048C124.498 43.1 124.329 43.0139 123.999 42.8464C123.664 42.6876 123.369 42.5392 123.114 42.401C123.061 42.3724 123.044 42.3405 123.063 42.3053C123.082 42.2702 123.118 42.2669 123.171 42.2955C123.546 42.4645 123.841 42.5391 124.056 42.5194C124.272 42.4997 124.493 42.3638 124.721 42.1118C124.953 41.851 125.259 41.3913 125.639 40.7327L128.141 36.1171C128.485 35.4394 128.701 34.9365 128.788 34.6082C128.88 34.2712 128.875 34.007 128.774 33.8158C128.673 33.6245 128.449 33.418 128.103 33.1962C128.05 33.1676 128.034 33.1357 128.053 33.1006C128.072 33.0654 128.108 33.0621 128.16 33.0907C128.415 33.2289 128.701 33.395 129.016 33.5889C129.337 33.774 129.502 33.8689 129.51 33.8737L131.436 34.9173C131.445 34.922 131.614 35.0082 131.944 35.1757C132.279 35.3344 132.574 35.4829 132.829 35.6211C132.881 35.6497 132.898 35.6816 132.879 35.7167C132.86 35.7519 132.824 35.7552 132.771 35.7266C132.397 35.5576 132.102 35.483 131.886 35.5027C131.671 35.5224 131.447 35.6627 131.215 35.9235C130.987 36.1755 130.683 36.6308 130.304 37.2894L129.174 39.373L130.321 39.9949C130.669 40.1719 131.045 40.3701 131.45 40.5893C131.88 40.8228 132.252 41.0297 132.563 41.21L133.658 41.8033L134.787 39.7197C135.132 39.042 135.348 38.5391 135.434 38.2108C135.526 37.8738 135.521 37.6096 135.42 37.4184C135.319 37.2271 135.091 37.0182 134.736 36.7917C134.71 36.7774 134.693 36.7567 134.685 36.7295C134.685 36.7072 134.695 36.6896 134.713 36.6768C134.74 36.6687 134.767 36.6719 134.794 36.6862C135.049 36.8244 135.334 36.9904 135.65 37.1843C135.979 37.3742 136.148 37.4715 136.157 37.4763L138.069 38.5127C138.078 38.5175 138.247 38.6036 138.577 38.7712C138.921 38.9347 139.22 39.0855 139.475 39.2237C139.545 39.2618 139.555 39.2957 139.505 39.3254C139.482 39.347 139.453 39.3483 139.418 39.3292C139.043 39.1602 138.748 39.0856 138.533 39.1053C138.317 39.125 138.093 39.2653 137.861 39.5261C137.633 39.7781 137.33 40.2334 136.95 40.892L134.448 45.5076C134.104 46.1853 133.885 46.6926 133.794 47.0297C133.707 47.3579 133.714 47.6177 133.815 47.8089C133.916 48.0002 134.14 48.2067 134.486 48.4285Z" fill="#FDF3EE"/>
<path d="M143.957 56.4397C143.98 56.4591 143.989 56.4797 143.983 56.5014C143.978 56.5231 143.965 56.5384 143.944 56.5471C143.924 56.5558 143.902 56.5505 143.879 56.531C143.704 56.3819 143.494 56.1895 143.248 55.9539C142.995 55.7258 142.865 55.6085 142.858 55.602L141.053 54.0654C141.046 54.0589 140.883 53.9266 140.564 53.6684C140.247 53.4243 139.977 53.2082 139.757 53.0202C139.734 53.0007 139.721 52.9769 139.719 52.9487C139.724 52.927 139.737 52.9118 139.758 52.903C139.786 52.9008 139.812 52.9094 139.834 52.9288C140.297 53.2961 140.689 53.3675 141.011 53.1431C141.348 52.9175 141.693 52.3046 142.045 51.3045L142.097 51.1514L140.304 49.6245L138.499 48.0879C137.843 48.3959 137.4 48.8463 137.171 49.4393C136.949 50.0246 137.078 50.5356 137.56 50.9723C137.583 50.9918 137.592 51.0123 137.586 51.034C137.589 51.0622 137.576 51.0775 137.547 51.0797C137.52 51.0961 137.495 51.0945 137.473 51.0751C137.336 50.9584 136.984 50.646 136.419 50.1381C136.136 49.8841 135.888 49.6663 135.675 49.4848C135.553 49.381 135.409 49.2649 135.242 49.1363C134.91 48.8793 134.698 48.7118 134.606 48.634C134.583 48.6146 134.585 48.5896 134.611 48.5591C134.637 48.5287 134.661 48.5232 134.684 48.5426C134.98 48.7814 135.473 48.827 136.163 48.6795C136.89 48.5361 137.598 48.2985 138.288 47.9666L143.803 45.3539C143.951 44.6397 144.066 44.0346 144.147 43.5387C144.142 43.4823 144.162 43.4665 144.207 43.4913C144.636 43.7123 145.081 43.8682 145.543 43.9589C146.047 44.0603 146.448 44.0601 146.745 43.9583C146.759 43.9572 146.774 43.9701 146.791 43.9972L144.032 52.9967C143.705 54.0445 143.525 54.8108 143.493 55.2958C143.473 55.7514 143.627 56.1327 143.957 56.4397ZM138.725 47.9847L140.45 49.4532L142.174 50.9218C142.948 48.6252 143.476 46.8485 143.758 45.5916L138.725 47.9847Z" fill="#FDF3EE"/>
<path d="M153.232 68.3499C153.25 68.3739 153.254 68.3959 153.244 68.4159C153.24 68.4439 153.227 68.4599 153.205 68.4639C153.183 68.4679 153.16 68.4539 153.136 68.4219C152.968 68.1979 152.778 67.9279 152.566 67.6119C152.346 67.3019 152.233 67.1429 152.227 67.1349L150.91 65.4039C150.88 65.3639 150.75 65.1989 150.52 64.9089C150.282 64.6249 150.084 64.3859 149.926 64.1919C149.89 64.1439 149.888 64.1079 149.92 64.0839C149.96 64.0539 149.998 64.0629 150.034 64.1109C150.296 64.4269 150.529 64.6209 150.733 64.6929C150.937 64.7649 151.199 64.7309 151.519 64.5909C151.839 64.4509 152.309 64.1609 152.929 63.7209L158.533 59.5179L153.052 59.6349L152.686 60.6219C151.67 60.3839 150.96 60.3039 150.556 60.3819C150.496 60.4019 150.484 60.3859 150.52 60.3339L152.929 52.7709L148.201 56.3169C147.569 56.7909 147.12 57.4089 146.854 58.1709C146.602 58.9349 146.682 59.5999 147.094 60.1659C147.112 60.1899 147.116 60.2119 147.106 60.2319C147.102 60.2599 147.086 60.2719 147.058 60.2679C147.028 60.2779 147.004 60.2709 146.986 60.2469C146.866 60.0869 146.58 59.6889 146.128 59.0529C145.902 58.7349 145.696 58.4519 145.51 58.2039C145.378 58.0279 145.218 57.8229 145.03 57.5889C144.666 57.1369 144.442 56.8549 144.358 56.7429C144.34 56.7189 144.336 56.6969 144.346 56.6769C144.356 56.6569 144.372 56.6449 144.394 56.6409C144.416 56.6369 144.436 56.6469 144.454 56.6709C144.774 57.0809 145.257 57.2499 145.903 57.1779C146.549 57.1059 147.14 56.8689 147.676 56.4669C149.676 54.9669 150.941 54.0119 151.471 53.6019C152.147 53.0699 152.607 52.6499 152.851 52.3419C153.101 52.0419 153.218 51.7729 153.202 51.5349C153.194 51.2909 153.061 50.9719 152.803 50.5779C152.767 50.5299 152.765 50.4939 152.797 50.4699C152.837 50.4399 152.875 50.4489 152.911 50.4969C153.103 50.7529 153.32 51.0589 153.562 51.4149C153.812 51.7649 153.94 51.9439 153.946 51.9519L155.107 53.4999L153.091 59.4369L159.445 59.2839L160.615 60.844C160.621 60.852 160.742 61.005 160.978 61.303C161.222 61.595 161.428 61.853 161.596 62.077C161.644 62.141 161.639 62.176 161.581 62.182C161.545 62.184 161.518 62.173 161.5 62.149C161.224 61.831 160.984 61.636 160.78 61.564C160.576 61.492 160.314 61.526 159.994 61.666C159.688 61.8079 159.225 62.0989 158.605 62.5389L154.417 65.6799C153.821 66.1519 153.408 66.5179 153.178 66.7779C152.962 67.0399 152.86 67.2789 152.872 67.4949C152.884 67.7109 153.004 67.9959 153.232 68.3499Z" fill="#FDF3EE"/>
<path d="M158.723 80.8992C158.735 80.9267 158.734 80.949 158.72 80.9662C158.71 80.9925 158.693 81.0051 158.671 81.0039C158.649 81.0028 158.629 80.9839 158.613 80.9472C158.497 80.6814 158.373 80.3703 158.239 80.014C158.1 79.6709 158.029 79.4947 158.025 79.4856L157.155 77.492C157.151 77.4828 157.069 77.3061 156.908 76.9618C156.741 76.6307 156.6 76.3322 156.484 76.0664C156.472 76.0389 156.471 76.012 156.482 75.9856C156.496 75.9685 156.514 75.9605 156.537 75.9616C156.563 75.972 156.582 75.9909 156.594 76.0184C156.79 76.3914 156.978 76.6363 157.16 76.7534C157.342 76.8704 157.601 76.8996 157.935 76.8409C158.279 76.7783 158.803 76.6042 159.507 76.3187L164.209 74.2675L157.441 71.6561C156.761 71.9743 156.286 72.236 156.016 72.4413C155.745 72.6466 155.591 72.8557 155.553 73.0687C155.515 73.2816 155.564 73.582 155.701 73.9698C155.725 74.0248 155.718 74.0603 155.682 74.0763C155.645 74.0923 155.615 74.0728 155.591 74.0178C155.475 73.752 155.352 73.4455 155.222 73.0984C155.084 72.7553 155.012 72.5791 155.008 72.5699L154.132 70.5626C154.128 70.5534 154.048 70.3813 153.891 70.0462C153.725 69.715 153.583 69.4165 153.467 69.1507C153.443 69.0957 153.45 69.0602 153.486 69.0443C153.523 69.0283 153.553 69.0478 153.577 69.1028C153.769 69.4666 153.956 69.707 154.138 69.824C154.32 69.941 154.578 69.9702 154.912 69.9115C155.256 69.8489 155.78 69.6748 156.485 69.3893L161.297 67.2901C161.985 66.9679 162.465 66.7042 162.735 66.4989C163.015 66.2896 163.174 66.0785 163.212 65.8656C163.25 65.6526 163.201 65.3522 163.064 64.9644C163.04 64.9094 163.046 64.8739 163.083 64.8579C163.12 64.8419 163.15 64.8614 163.174 64.9164C163.29 65.1822 163.413 65.4887 163.542 65.8359C163.681 66.179 163.753 66.3551 163.757 66.3643L164.632 68.3716C164.636 68.3808 164.717 68.5529 164.874 68.8881C165.04 69.2192 165.181 69.5177 165.297 69.7835C165.321 69.8385 165.315 69.874 165.278 69.89C165.242 69.906 165.211 69.8865 165.187 69.8315C164.996 69.4677 164.809 69.2273 164.627 69.1103C164.445 68.9933 164.182 68.9661 163.839 69.0287C163.504 69.0873 162.985 69.2594 162.28 69.5449L157.702 71.5421L164.457 74.1596C165.094 73.8705 165.547 73.6188 165.813 73.4043C166.08 73.1899 166.225 72.9736 166.25 72.7555C166.288 72.5425 166.232 72.2507 166.081 71.8801C166.069 71.8526 166.068 71.8256 166.078 71.7993C166.093 71.7822 166.111 71.7742 166.133 71.7753C166.16 71.7857 166.179 71.8046 166.191 71.8321C166.307 72.0979 166.43 72.4044 166.559 72.7515C166.702 73.1038 166.775 73.2845 166.779 73.2937L167.649 75.2873C167.653 75.2964 167.734 75.4686 167.891 75.8037C168.061 76.144 168.204 76.4471 168.32 76.7129C168.352 76.7862 168.339 76.8191 168.281 76.8116C168.25 76.8145 168.226 76.7975 168.21 76.7609C168.019 76.3971 167.832 76.1567 167.65 76.0397C167.468 75.9227 167.205 75.8955 166.862 75.9581C166.527 76.0167 166.008 76.1888 165.303 76.4743L160.491 78.5735C159.802 78.8957 159.318 79.1614 159.039 79.3707C158.768 79.576 158.614 79.7851 158.576 79.9981C158.538 80.211 158.587 80.5114 158.723 80.8992Z" fill="#FDF3EE"/>
<path d="M164.445 89.4643L163.375 84.0796L163.566 84.0416L164.636 89.4263L164.445 89.4643Z" fill="#FDF3EE"/>
<circle opacity="0.4" cx="100" cy="100" r="4" fill="#FDF1EC"/>
</svg>
