<svg width="38" height="23" viewBox="0 0 38 23" fill="none" xmlns="http://www.w3.org/2000/svg">
<path d="M24.2457 0.447716C23.9293 0.740396 23.752 1.13415 23.752 1.54428C23.752 1.95441 23.9293 2.34816 24.2457 2.64084L32.2718 9.93844H1.71663C1.26135 9.93844 0.824722 10.1026 0.502791 10.3949C0.18086 10.6872 0 11.0836 0 11.4969C0 11.9103 0.18086 12.3067 0.502791 12.5989C0.824722 12.8912 1.26135 13.0554 1.71663 13.0554H32.2506L24.2246 20.353C23.911 20.6471 23.7356 21.0403 23.7356 21.4496C23.7356 21.8589 23.911 22.2521 24.2246 22.5461C24.5451 22.8368 24.9795 23 25.4324 23C25.8854 23 26.3198 22.8368 26.6403 22.5461L37.5108 12.5976C37.6592 12.4535 37.7796 12.2875 37.8671 12.1069C37.9568 11.9173 38.002 11.7129 37.9999 11.5065C38.0015 11.0969 37.8258 10.7031 37.5108 10.41L26.6403 0.461423C26.4848 0.31655 26.2992 0.201162 26.0942 0.121956C25.8892 0.0427498 25.6689 0.0013056 25.4461 3.03549e-05C25.2234 -0.00124489 25.0025 0.0376727 24.7965 0.114526C24.5904 0.191378 24.4032 0.304634 24.2457 0.447716Z" fill="url(#paint0_linear_1_977)"/>
<defs>
<linearGradient id="paint0_linear_1_977" x1="19" y1="0" x2="19" y2="23" gradientUnits="userSpaceOnUse">
<stop stop-color="#FFD250"/>
<stop offset="1" stop-color="#D4A240"/>
</linearGradient>
</defs>
</svg>
