<svg cache-id="d127c7acae944c5ca1e1649b7fdaeb63" id="eOa6cjYp2Ve1" xmlns="http://www.w3.org/2000/svg" xmlns:xlink="http://www.w3.org/1999/xlink" viewBox="0 0 1588 171" shape-rendering="geometricPrecision" text-rendering="geometricPrecision"><style><![CDATA[#eOa6cjYp2Ve2_to {animation: eOa6cjYp2Ve2_to__to 4000ms linear 1 normal forwards}@keyframes eOa6cjYp2Ve2_to__to { 0% {transform: translate(444.041992px,81.114502px)} 9.5% {transform: translate(444.041992px,81.114502px);animation-timing-function: cubic-bezier(0.42,0,0.58,1)} 59.5% {transform: translate(444.041992px,251.861122px)} 100% {transform: translate(444.041992px,251.861122px)}} #eOa6cjYp2Ve2 {animation: eOa6cjYp2Ve2_c_o 4000ms linear 1 normal forwards}@keyframes eOa6cjYp2Ve2_c_o { 0% {opacity: 1} 9.5% {opacity: 1} 59.5% {opacity: 0} 100% {opacity: 0}} #eOa6cjYp2Ve3_to {animation: eOa6cjYp2Ve3_to__to 4000ms linear 1 normal forwards}@keyframes eOa6cjYp2Ve3_to__to { 0% {transform: translate(444.041992px,-89.632645px)} 9.5% {transform: translate(444.041992px,-89.632645px);animation-timing-function: cubic-bezier(0.42,0,0.58,1)} 59.5% {transform: translate(444.041992px,81.113973px)} 100% {transform: translate(444.041992px,81.113973px)}} #eOa6cjYp2Ve3 {animation: eOa6cjYp2Ve3_c_o 4000ms linear 1 normal forwards}@keyframes eOa6cjYp2Ve3_c_o { 0% {opacity: 0} 9.5% {opacity: 0} 59.75% {opacity: 1} 100% {opacity: 1}} #eOa6cjYp2Ve4_to {animation: eOa6cjYp2Ve4_to__to 4000ms linear 1 normal forwards}@keyframes eOa6cjYp2Ve4_to__to { 0% {transform: translate(605.33902px,82.384501px)} 15% {transform: translate(605.33902px,82.384501px);animation-timing-function: cubic-bezier(0.42,0,0.58,1)} 65% {transform: translate(605.33902px,253.131121px)} 100% {transform: translate(605.33902px,253.131121px)}} #eOa6cjYp2Ve4 {animation: eOa6cjYp2Ve4_c_o 4000ms linear 1 normal forwards}@keyframes eOa6cjYp2Ve4_c_o { 0% {opacity: 1} 15% {opacity: 1} 65% {opacity: 0} 100% {opacity: 0}} #eOa6cjYp2Ve5_to {animation: eOa6cjYp2Ve5_to__to 4000ms linear 1 normal forwards}@keyframes eOa6cjYp2Ve5_to__to { 0% {transform: translate(605.33902px,-88.362646px)} 15% {transform: translate(605.33902px,-88.362646px);animation-timing-function: cubic-bezier(0.42,0,0.58,1)} 65% {transform: translate(605.33902px,82.383972px)} 100% {transform: translate(605.33902px,82.383972px)}} #eOa6cjYp2Ve5 {animation: eOa6cjYp2Ve5_c_o 4000ms linear 1 normal forwards}@keyframes eOa6cjYp2Ve5_c_o { 0% {opacity: 0} 15% {opacity: 0} 65.25% {opacity: 1} 100% {opacity: 1}} #eOa6cjYp2Ve6_to {animation: eOa6cjYp2Ve6_to__to 4000ms linear 1 normal forwards}@keyframes eOa6cjYp2Ve6_to__to { 0% {transform: translate(777.38501px,85.330498px)} 20.25% {transform: translate(777.38501px,85.330498px);animation-timing-function: cubic-bezier(0.42,0,0.58,1)} 70.25% {transform: translate(777.38501px,256.077116px)} 100% {transform: translate(777.38501px,256.077116px)}} #eOa6cjYp2Ve6 {animation: eOa6cjYp2Ve6_c_o 4000ms linear 1 normal forwards}@keyframes eOa6cjYp2Ve6_c_o { 0% {opacity: 1} 20.25% {opacity: 1} 70.25% {opacity: 0} 100% {opacity: 0}} #eOa6cjYp2Ve7_to {animation: eOa6cjYp2Ve7_to__to 4000ms linear 1 normal forwards}@keyframes eOa6cjYp2Ve7_to__to { 0% {transform: translate(777.38501px,-85.416649px)} 20.25% {transform: translate(777.38501px,-85.416649px);animation-timing-function: cubic-bezier(0.42,0,0.58,1)} 70.25% {transform: translate(777.38501px,85.329969px)} 100% {transform: translate(777.38501px,85.329969px)}} #eOa6cjYp2Ve7 {animation: eOa6cjYp2Ve7_c_o 4000ms linear 1 normal forwards}@keyframes eOa6cjYp2Ve7_c_o { 0% {opacity: 0} 20.25% {opacity: 0} 70.5% {opacity: 1} 100% {opacity: 1}} #eOa6cjYp2Ve8_to {animation: eOa6cjYp2Ve8_to__to 4000ms linear 1 normal forwards}@keyframes eOa6cjYp2Ve8_to__to { 0% {transform: translate(958.465027px,-84.552147px)} 20.25% {transform: translate(958.465027px,-84.552147px);animation-timing-function: cubic-bezier(0.42,0,0.58,1)} 70.25% {transform: translate(958.465027px,86.194471px)} 100% {transform: translate(958.465027px,86.194471px)}} #eOa6cjYp2Ve8 {animation: eOa6cjYp2Ve8_c_o 4000ms linear 1 normal forwards}@keyframes eOa6cjYp2Ve8_c_o { 0% {opacity: 0} 20.25% {opacity: 0} 70.5% {opacity: 1} 100% {opacity: 1}} #eOa6cjYp2Ve9_to {animation: eOa6cjYp2Ve9_to__to 4000ms linear 1 normal forwards}@keyframes eOa6cjYp2Ve9_to__to { 0% {transform: translate(958.465027px,86.195px)} 20.25% {transform: translate(958.465027px,86.195px);animation-timing-function: cubic-bezier(0.42,0,0.58,1)} 70.25% {transform: translate(958.465027px,256.94162px)} 100% {transform: translate(958.465027px,256.94162px)}} #eOa6cjYp2Ve9 {animation: eOa6cjYp2Ve9_c_o 4000ms linear 1 normal forwards}@keyframes eOa6cjYp2Ve9_c_o { 0% {opacity: 1} 20.25% {opacity: 1} 70.25% {opacity: 0} 100% {opacity: 0}} #eOa6cjYp2Ve10_to {animation: eOa6cjYp2Ve10_to__to 4000ms linear 1 normal forwards}@keyframes eOa6cjYp2Ve10_to__to { 0% {transform: translate(1125.330017px,87.222px)} 27.5% {transform: translate(1125.330017px,87.222px);animation-timing-function: cubic-bezier(0.42,0,0.58,1)} 77.5% {transform: translate(1125.330017px,257.968619px)} 100% {transform: translate(1125.330017px,257.968619px)}} #eOa6cjYp2Ve10 {animation: eOa6cjYp2Ve10_c_o 4000ms linear 1 normal forwards}@keyframes eOa6cjYp2Ve10_c_o { 0% {opacity: 1} 27.5% {opacity: 1} 77.5% {opacity: 0} 100% {opacity: 0}} #eOa6cjYp2Ve11_to {animation: eOa6cjYp2Ve11_to__to 4000ms linear 1 normal forwards}@keyframes eOa6cjYp2Ve11_to__to { 0% {transform: translate(1125.330017px,-83.525147px)} 27.5% {transform: translate(1125.330017px,-83.525147px);animation-timing-function: cubic-bezier(0.42,0,0.58,1)} 77.25% {transform: translate(1125.330017px,87.221471px)} 100% {transform: translate(1125.330017px,87.221471px)}} #eOa6cjYp2Ve11 {animation: eOa6cjYp2Ve11_c_o 4000ms linear 1 normal forwards}@keyframes eOa6cjYp2Ve11_c_o { 0% {opacity: 0} 27.5% {opacity: 0} 77.75% {opacity: 1} 100% {opacity: 1}} #eOa6cjYp2Ve12_to {animation: eOa6cjYp2Ve12_to__to 4000ms linear 1 normal forwards}@keyframes eOa6cjYp2Ve12_to__to { 0% {transform: translate(1281.869995px,86.384872px)} 34.75% {transform: translate(1281.869995px,86.384872px);animation-timing-function: cubic-bezier(0.42,0,0.58,1)} 84.75% {transform: translate(1281.869995px,257.131491px)} 100% {transform: translate(1281.869995px,257.131491px)}} #eOa6cjYp2Ve12 {animation: eOa6cjYp2Ve12_c_o 4000ms linear 1 normal forwards}@keyframes eOa6cjYp2Ve12_c_o { 0% {opacity: 1} 34.75% {opacity: 1} 84.75% {opacity: 0} 100% {opacity: 0}} #eOa6cjYp2Ve13_to {animation: eOa6cjYp2Ve13_to__to 4000ms linear 1 normal forwards}@keyframes eOa6cjYp2Ve13_to__to { 0% {transform: translate(1281.869995px,-84.362275px)} 34.75% {transform: translate(1281.869995px,-84.362275px);animation-timing-function: cubic-bezier(0.42,0,0.58,1)} 84.75% {transform: translate(1281.869995px,86.384343px)} 100% {transform: translate(1281.869995px,86.384343px)}} #eOa6cjYp2Ve13 {animation: eOa6cjYp2Ve13_c_o 4000ms linear 1 normal forwards}@keyframes eOa6cjYp2Ve13_c_o { 0% {opacity: 0} 34.75% {opacity: 0} 85% {opacity: 1} 100% {opacity: 1}} #eOa6cjYp2Ve14_to {animation: eOa6cjYp2Ve14_to__to 4000ms linear 1 normal forwards}@keyframes eOa6cjYp2Ve14_to__to { 0% {transform: translate(270.384995px,86.330498px)} 4.5% {transform: translate(270.384995px,86.330498px);animation-timing-function: cubic-bezier(0.42,0,0.58,1)} 54.5% {transform: translate(270.384995px,257.077116px)} 100% {transform: translate(270.384995px,257.077116px)}} #eOa6cjYp2Ve14 {animation: eOa6cjYp2Ve14_c_o 4000ms linear 1 normal forwards}@keyframes eOa6cjYp2Ve14_c_o { 0% {opacity: 1} 4.5% {opacity: 1} 54.5% {opacity: 0} 100% {opacity: 0}} #eOa6cjYp2Ve15_to {animation: eOa6cjYp2Ve15_to__to 4000ms linear 1 normal forwards}@keyframes eOa6cjYp2Ve15_to__to { 0% {transform: translate(270.384995px,-84.416649px)} 4.75% {transform: translate(270.384995px,-84.416649px);animation-timing-function: cubic-bezier(0.42,0,0.58,1)} 54.75% {transform: translate(270.384995px,86.329969px)} 100% {transform: translate(270.384995px,86.329969px)}} #eOa6cjYp2Ve15 {animation: eOa6cjYp2Ve15_c_o 4000ms linear 1 normal forwards}@keyframes eOa6cjYp2Ve15_c_o { 0% {opacity: 0} 4.75% {opacity: 0} 55% {opacity: 1} 100% {opacity: 1}} #eOa6cjYp2Ve16_to {animation: eOa6cjYp2Ve16_to__to 4000ms linear 1 normal forwards}@keyframes eOa6cjYp2Ve16_to__to { 0% {transform: translate(86.385002px,86.330498px);animation-timing-function: cubic-bezier(0.42,0,0.58,1)} 50% {transform: translate(86.385002px,256.120719px)} 100% {transform: translate(86.385002px,256.120719px)}} #eOa6cjYp2Ve16 {animation: eOa6cjYp2Ve16_c_o 4000ms linear 1 normal forwards}@keyframes eOa6cjYp2Ve16_c_o { 0% {opacity: 1} 50% {opacity: 0} 100% {opacity: 0}} #eOa6cjYp2Ve17_to {animation: eOa6cjYp2Ve17_to__to 4000ms linear 1 normal forwards}@keyframes eOa6cjYp2Ve17_to__to { 0% {transform: translate(86.385002px,-84.416649px);animation-timing-function: cubic-bezier(0.42,0,0.58,1)} 50% {transform: translate(86.385002px,85.373571px)} 100% {transform: translate(86.385002px,85.373571px)}} #eOa6cjYp2Ve17 {animation: eOa6cjYp2Ve17_c_o 4000ms linear 1 normal forwards}@keyframes eOa6cjYp2Ve17_c_o { 0% {opacity: 0} 50% {opacity: 1} 100% {opacity: 1}} #eOa6cjYp2Ve18_to {animation: eOa6cjYp2Ve18_to__to 4000ms linear 1 normal forwards}@keyframes eOa6cjYp2Ve18_to__to { 0% {transform: translate(1551.070007px,45.59795px)} 48.25% {transform: translate(1551.070007px,45.59795px);animation-timing-function: cubic-bezier(0.42,0,0.58,1)} 98.25% {transform: translate(1551.070007px,216.344569px)} 100% {transform: translate(1551.070007px,216.344569px)}} #eOa6cjYp2Ve18 {animation: eOa6cjYp2Ve18_c_o 4000ms linear 1 normal forwards}@keyframes eOa6cjYp2Ve18_c_o { 0% {opacity: 1} 48.25% {opacity: 1} 98.25% {opacity: 0} 100% {opacity: 0}} #eOa6cjYp2Ve19_to {animation: eOa6cjYp2Ve19_to__to 4000ms linear 1 normal forwards}@keyframes eOa6cjYp2Ve19_to__to { 0% {transform: translate(1551.070007px,-125.149197px)} 48.25% {transform: translate(1551.070007px,-125.149197px);animation-timing-function: cubic-bezier(0.42,0,0.58,1)} 98.25% {transform: translate(1551.070007px,45.597422px)} 100% {transform: translate(1551.070007px,45.597422px)}} #eOa6cjYp2Ve19 {animation: eOa6cjYp2Ve19_c_o 4000ms linear 1 normal forwards}@keyframes eOa6cjYp2Ve19_c_o { 0% {opacity: 0} 48.25% {opacity: 0} 98.5% {opacity: 1} 100% {opacity: 1}} #eOa6cjYp2Ve20_to {animation: eOa6cjYp2Ve20_to__to 4000ms linear 1 normal forwards}@keyframes eOa6cjYp2Ve20_to__to { 0% {transform: translate(1434.76001px,86.330498px)} 40.25% {transform: translate(1434.76001px,86.330498px);animation-timing-function: cubic-bezier(0.42,0,0.58,1)} 90.25% {transform: translate(1434.76001px,257.077116px)} 100% {transform: translate(1434.76001px,257.077116px)}} #eOa6cjYp2Ve20 {animation: eOa6cjYp2Ve20_c_o 4000ms linear 1 normal forwards}@keyframes eOa6cjYp2Ve20_c_o { 0% {opacity: 1} 40.25% {opacity: 1} 90.25% {opacity: 0} 100% {opacity: 0}} #eOa6cjYp2Ve21_to {animation: eOa6cjYp2Ve21_to__to 4000ms linear 1 normal forwards}@keyframes eOa6cjYp2Ve21_to__to { 0% {transform: translate(1434.76001px,-84.416649px)} 40.25% {transform: translate(1434.76001px,-84.416649px);animation-timing-function: cubic-bezier(0.42,0,0.58,1)} 90.25% {transform: translate(1434.76001px,86.329969px)} 100% {transform: translate(1434.76001px,86.329969px)}} #eOa6cjYp2Ve21 {animation: eOa6cjYp2Ve21_c_o 4000ms linear 1 normal forwards}@keyframes eOa6cjYp2Ve21_c_o { 0% {opacity: 0} 40.25% {opacity: 0} 90.5% {opacity: 1} 100% {opacity: 1}}]]></style><g id="eOa6cjYp2Ve2_to" transform="translate(444.041992,81.114502)"><path id="eOa6cjYp2Ve2" d="M445.195,162.229C431.789,162.229,419.175,159.13,407.354,152.931C395.534,146.732,386.019,137.939,378.812,126.55C371.604,115.018,368,101.756,368,86.7635C368,71.0506,371.388,57.1396,378.163,45.0306C385.082,32.7773,394.453,23.2631,406.273,16.4878C418.094,9.71247,431.14,6.32482,445.411,6.32482C452.475,6.32482,460.404,7.26183,469.197,9.13585C474.387,10.0008,477.63,10.4332,478.928,10.4332C483.396,10.4332,486.712,7.11767,488.874,0.486523C489.018,0.054054,489.235,-0.0901,489.523,0.054062C489.955,0.054062,490.172,0.198216,490.172,0.486523L507.038,65.1402C507.038,65.5727,506.75,65.861,506.173,66.0051C505.741,66.0051,505.452,65.7168,505.308,65.1402C500.551,51.8779,494.568,41.0663,487.361,32.7053C480.153,24.2001,472.729,18.1456,465.089,14.5417C457.448,10.7936,450.241,8.91961,443.465,8.91961C433.807,8.91961,424.869,11.7306,416.652,17.3527C408.436,22.8306,401.877,30.7592,396.975,41.1384C392.074,51.5175,389.623,63.5545,389.623,77.2493C389.623,91.9531,392.578,104.999,398.489,116.387C404.399,127.776,412.544,136.641,422.923,142.984C433.302,149.183,444.979,152.282,457.953,152.282C470.927,152.282,482.459,148.39,492.55,140.606C502.641,132.677,511.074,120.856,517.85,105.143C518.138,104.855,518.498,104.711,518.931,104.711C519.363,104.711,519.652,104.927,519.796,105.36C520.084,105.648,520.156,106.008,520.012,106.441C512.083,123.884,502.065,137.578,489.955,147.525C477.991,157.328,463.07,162.229,445.195,162.229Z" transform="translate(-444.041992,-81.114502)" fill="rgb(181,90,43)" stroke="none" stroke-width="1"/></g><g id="eOa6cjYp2Ve3_to" transform="translate(444.041992,-89.632645)"><path id="eOa6cjYp2Ve3" d="M445.195,162.229C431.789,162.229,419.175,159.13,407.354,152.931C395.534,146.732,386.019,137.939,378.812,126.55C371.604,115.018,368,101.756,368,86.7635C368,71.0506,371.388,57.1396,378.163,45.0306C385.082,32.7773,394.453,23.2631,406.273,16.4878C418.094,9.71247,431.14,6.32482,445.411,6.32482C452.475,6.32482,460.404,7.26183,469.197,9.13585C474.387,10.0008,477.63,10.4332,478.928,10.4332C483.396,10.4332,486.712,7.11767,488.874,0.486523C489.018,0.054054,489.235,-0.0901,489.523,0.054062C489.955,0.054062,490.172,0.198216,490.172,0.486523L507.038,65.1402C507.038,65.5727,506.75,65.861,506.173,66.0051C505.741,66.0051,505.452,65.7168,505.308,65.1402C500.551,51.8779,494.568,41.0663,487.361,32.7053C480.153,24.2001,472.729,18.1456,465.089,14.5417C457.448,10.7936,450.241,8.91961,443.465,8.91961C433.807,8.91961,424.869,11.7306,416.652,17.3527C408.436,22.8306,401.877,30.7592,396.975,41.1384C392.074,51.5175,389.623,63.5545,389.623,77.2493C389.623,91.9531,392.578,104.999,398.489,116.387C404.399,127.776,412.544,136.641,422.923,142.984C433.302,149.183,444.979,152.282,457.953,152.282C470.927,152.282,482.459,148.39,492.55,140.606C502.641,132.677,511.074,120.856,517.85,105.143C518.138,104.855,518.498,104.711,518.931,104.711C519.363,104.711,519.652,104.927,519.796,105.36C520.084,105.648,520.156,106.008,520.012,106.441C512.083,123.884,502.065,137.578,489.955,147.525C477.991,157.328,463.07,162.229,445.195,162.229Z" transform="translate(-444.041992,-81.114502)" opacity="0" fill="rgb(181,90,43)" stroke="none" stroke-width="1"/></g><g id="eOa6cjYp2Ve4_to" transform="translate(605.33902,82.384501)"><path id="eOa6cjYp2Ve4" d="M598.537,162.121C594.789,162.121,591.906,162.193,589.887,162.337C583.256,162.625,575.328,162.769,566.102,162.769C564.949,162.769,564.372,162.481,564.372,161.904C564.372,161.328,564.949,161.039,566.102,161.039C575.039,161.039,581.454,160.391,585.347,159.093C589.383,157.652,592.122,154.697,593.563,150.228C595.149,145.759,595.942,138.335,595.942,127.956L595.942,13.136L584.914,13.136C576.697,13.136,569.49,14.938,563.291,18.5418C557.092,22.1457,551.47,28.1282,546.425,36.4892C541.379,44.706,536.694,55.8781,532.369,70.0053C532.081,70.4378,531.721,70.654,531.288,70.654C531,70.5099,530.928,70.1495,531.072,69.5728L544.695,2.54058C544.839,1.96396,545.199,1.96396,545.776,2.54058C547.938,6.00031,551.182,8.23472,555.506,9.24381C559.975,10.2529,566.967,10.7574,576.481,10.7574L633.999,10.7574C643.369,10.7574,650.289,10.2529,654.757,9.24381C659.37,8.23472,662.686,6.00031,664.704,2.54058C665.425,1.81981,665.857,1.81981,666.002,2.54058L679.624,69.5728C679.768,70.1495,679.624,70.5099,679.192,70.654C678.903,70.654,678.615,70.4378,678.327,70.0053C674.002,55.8781,669.245,44.706,664.055,36.4892C659.01,28.1282,653.388,22.1457,647.189,18.5418C640.991,14.938,633.783,13.136,625.566,13.136L614.754,13.136L614.754,127.956C614.754,138.335,615.475,145.759,616.917,150.228C618.502,154.697,621.241,157.652,625.133,159.093C629.17,160.391,635.657,161.039,644.594,161.039C645.604,161.039,646.108,161.328,646.108,161.904C646.108,162.481,645.604,162.769,644.594,162.769C635.369,162.769,627.44,162.625,620.809,162.337C618.791,162.193,615.908,162.121,612.16,162.121L598.537,162.121Z" transform="translate(-605.33902,-82.384501)" fill="rgb(181,90,43)" stroke="none" stroke-width="1"/></g><g id="eOa6cjYp2Ve5_to" transform="translate(605.33902,-88.362646)"><path id="eOa6cjYp2Ve5" d="M598.537,162.121C594.789,162.121,591.906,162.193,589.887,162.337C583.256,162.625,575.328,162.769,566.102,162.769C564.949,162.769,564.372,162.481,564.372,161.904C564.372,161.328,564.949,161.039,566.102,161.039C575.039,161.039,581.454,160.391,585.347,159.093C589.383,157.652,592.122,154.697,593.563,150.228C595.149,145.759,595.942,138.335,595.942,127.956L595.942,13.136L584.914,13.136C576.697,13.136,569.49,14.938,563.291,18.5418C557.092,22.1457,551.47,28.1282,546.425,36.4892C541.379,44.706,536.694,55.8781,532.369,70.0053C532.081,70.4378,531.721,70.654,531.288,70.654C531,70.5099,530.928,70.1495,531.072,69.5728L544.695,2.54058C544.839,1.96396,545.199,1.96396,545.776,2.54058C547.938,6.00031,551.182,8.23472,555.506,9.24381C559.975,10.2529,566.967,10.7574,576.481,10.7574L633.999,10.7574C643.369,10.7574,650.289,10.2529,654.757,9.24381C659.37,8.23472,662.686,6.00031,664.704,2.54058C665.425,1.81981,665.857,1.81981,666.002,2.54058L679.624,69.5728C679.768,70.1495,679.624,70.5099,679.192,70.654C678.903,70.654,678.615,70.4378,678.327,70.0053C674.002,55.8781,669.245,44.706,664.055,36.4892C659.01,28.1282,653.388,22.1457,647.189,18.5418C640.991,14.938,633.783,13.136,625.566,13.136L614.754,13.136L614.754,127.956C614.754,138.335,615.475,145.759,616.917,150.228C618.502,154.697,621.241,157.652,625.133,159.093C629.17,160.391,635.657,161.039,644.594,161.039C645.604,161.039,646.108,161.328,646.108,161.904C646.108,162.481,645.604,162.769,644.594,162.769C635.369,162.769,627.44,162.625,620.809,162.337C618.791,162.193,615.908,162.121,612.16,162.121L598.537,162.121Z" transform="translate(-605.33902,-82.384501)" opacity="0" fill="rgb(181,90,43)" stroke="none" stroke-width="1"/></g><g id="eOa6cjYp2Ve6_to" transform="translate(777.38501,85.330498)"><path id="eOa6cjYp2Ve6" d="M862.689,160.147C863.41,160.147,863.77,160.435,863.77,161.012C863.77,161.444,863.41,161.661,862.689,161.661C856.346,161.661,850.724,161.516,845.823,161.228C844.381,161.084,842.363,161.012,839.768,161.012L824.632,161.012C822.037,161.012,820.019,161.084,818.577,161.228C813.676,161.516,808.054,161.661,801.711,161.661C800.991,161.661,800.63,161.444,800.63,161.012C800.63,160.435,800.991,160.147,801.711,160.147C808.054,160.003,812.595,159.282,815.334,157.985C818.073,156.687,819.947,153.804,820.956,149.335C822.109,144.866,822.686,137.587,822.686,127.496L822.686,42.5161L731.868,132.253C732.012,140.758,732.661,146.957,733.814,150.849C735.111,154.597,737.13,157.048,739.869,158.201C742.608,159.354,746.932,160.003,752.843,160.147C753.563,160.147,753.924,160.435,753.924,161.012C754.068,161.444,753.708,161.661,752.843,161.661C746.356,161.661,740.806,161.516,736.193,161.228C734.751,161.084,732.733,161.012,730.138,161.012L715.002,161.012C712.407,161.012,710.389,161.084,708.947,161.228C704.046,161.516,698.424,161.661,692.081,161.661C691.36,161.661,691,161.444,691,161.012C691,160.435,691.36,160.147,692.081,160.147C698.424,160.003,702.965,159.282,705.704,157.985C708.443,156.687,710.317,153.804,711.326,149.335C712.479,144.866,713.056,137.587,713.056,127.496L713.056,43.1648C713.056,33.074,712.479,25.7941,711.326,21.3253C710.317,16.8565,708.443,13.9734,705.704,12.676C702.965,11.3786,698.424,10.6578,692.081,10.5136C691.36,10.5136,691,10.2974,691,9.86492C691,9.28831,691.36,9,692.081,9C698.424,9,704.046,9.14415,708.947,9.43246C710.389,9.57662,712.407,9.64869,715.002,9.64869L730.138,9.64869C732.733,9.64869,734.751,9.57662,736.193,9.43246C740.806,9.14415,746.356,9,752.843,9C753.708,9,754.068,9.28831,753.924,9.86492C753.924,10.2974,753.563,10.5136,752.843,10.5136C746.5,10.6578,741.959,11.3786,739.22,12.676C736.481,13.9734,734.535,16.8565,733.382,21.3253C732.373,25.7941,731.868,33.074,731.868,43.1648L731.868,128.793L822.686,38.8402C822.542,30.1909,821.821,23.9201,820.524,20.0279C819.37,16.1357,817.424,13.613,814.685,12.4597C812.091,11.3065,807.766,10.6578,801.711,10.5136C800.991,10.5136,800.63,10.2974,800.63,9.86492C800.63,9.28831,800.991,9,801.711,9C808.054,9,813.676,9.14415,818.577,9.43246C820.019,9.57662,822.037,9.64869,824.632,9.64869L839.768,9.64869C842.363,9.64869,844.381,9.57662,845.823,9.43246C850.724,9.14415,856.346,9,862.689,9C863.41,9,863.77,9.28831,863.77,9.86492C863.77,10.2974,863.41,10.5136,862.689,10.5136C856.346,10.6578,851.805,11.3786,849.066,12.676C846.327,13.9734,844.381,16.8565,843.228,21.3253C842.075,25.7941,841.498,33.074,841.498,43.1648L841.498,127.496C841.498,137.587,842.075,144.866,843.228,149.335C844.381,153.804,846.327,156.687,849.066,157.985C851.805,159.282,856.346,160.003,862.689,160.147Z" transform="translate(-777.38501,-85.330498)" fill="rgb(181,90,43)" stroke="none" stroke-width="1"/></g><g id="eOa6cjYp2Ve7_to" transform="translate(777.38501,-85.416649)"><path id="eOa6cjYp2Ve7" d="M862.689,160.147C863.41,160.147,863.77,160.435,863.77,161.012C863.77,161.444,863.41,161.661,862.689,161.661C856.346,161.661,850.724,161.516,845.823,161.228C844.381,161.084,842.363,161.012,839.768,161.012L824.632,161.012C822.037,161.012,820.019,161.084,818.577,161.228C813.676,161.516,808.054,161.661,801.711,161.661C800.991,161.661,800.63,161.444,800.63,161.012C800.63,160.435,800.991,160.147,801.711,160.147C808.054,160.003,812.595,159.282,815.334,157.985C818.073,156.687,819.947,153.804,820.956,149.335C822.109,144.866,822.686,137.587,822.686,127.496L822.686,42.5161L731.868,132.253C732.012,140.758,732.661,146.957,733.814,150.849C735.111,154.597,737.13,157.048,739.869,158.201C742.608,159.354,746.932,160.003,752.843,160.147C753.563,160.147,753.924,160.435,753.924,161.012C754.068,161.444,753.708,161.661,752.843,161.661C746.356,161.661,740.806,161.516,736.193,161.228C734.751,161.084,732.733,161.012,730.138,161.012L715.002,161.012C712.407,161.012,710.389,161.084,708.947,161.228C704.046,161.516,698.424,161.661,692.081,161.661C691.36,161.661,691,161.444,691,161.012C691,160.435,691.36,160.147,692.081,160.147C698.424,160.003,702.965,159.282,705.704,157.985C708.443,156.687,710.317,153.804,711.326,149.335C712.479,144.866,713.056,137.587,713.056,127.496L713.056,43.1648C713.056,33.074,712.479,25.7941,711.326,21.3253C710.317,16.8565,708.443,13.9734,705.704,12.676C702.965,11.3786,698.424,10.6578,692.081,10.5136C691.36,10.5136,691,10.2974,691,9.86492C691,9.28831,691.36,9,692.081,9C698.424,9,704.046,9.14415,708.947,9.43246C710.389,9.57662,712.407,9.64869,715.002,9.64869L730.138,9.64869C732.733,9.64869,734.751,9.57662,736.193,9.43246C740.806,9.14415,746.356,9,752.843,9C753.708,9,754.068,9.28831,753.924,9.86492C753.924,10.2974,753.563,10.5136,752.843,10.5136C746.5,10.6578,741.959,11.3786,739.22,12.676C736.481,13.9734,734.535,16.8565,733.382,21.3253C732.373,25.7941,731.868,33.074,731.868,43.1648L731.868,128.793L822.686,38.8402C822.542,30.1909,821.821,23.9201,820.524,20.0279C819.37,16.1357,817.424,13.613,814.685,12.4597C812.091,11.3065,807.766,10.6578,801.711,10.5136C800.991,10.5136,800.63,10.2974,800.63,9.86492C800.63,9.28831,800.991,9,801.711,9C808.054,9,813.676,9.14415,818.577,9.43246C820.019,9.57662,822.037,9.64869,824.632,9.64869L839.768,9.64869C842.363,9.64869,844.381,9.57662,845.823,9.43246C850.724,9.14415,856.346,9,862.689,9C863.41,9,863.77,9.28831,863.77,9.86492C863.77,10.2974,863.41,10.5136,862.689,10.5136C856.346,10.6578,851.805,11.3786,849.066,12.676C846.327,13.9734,844.381,16.8565,843.228,21.3253C842.075,25.7941,841.498,33.074,841.498,43.1648L841.498,127.496C841.498,137.587,842.075,144.866,843.228,149.335C844.381,153.804,846.327,156.687,849.066,157.985C851.805,159.282,856.346,160.003,862.689,160.147Z" transform="translate(-777.38501,-85.330498)" opacity="0" fill="rgb(181,90,43)" stroke="none" stroke-width="1"/></g><g id="eOa6cjYp2Ve8_to" transform="translate(958.465027,-84.552147)"><path id="eOa6cjYp2Ve8" d="M1040.85,160.147C1041.57,160.147,1041.93,160.435,1041.93,161.012C1041.93,161.444,1041.57,161.661,1040.85,161.661C1034.51,161.661,1028.89,161.516,1023.98,161.228C1022.54,161.084,1020.52,161.012,1017.93,161.012L1002.79,161.012C1000.34,161.012,998.397,161.084,996.956,161.228C992.343,161.516,986.721,161.661,980.089,161.661C979.369,161.661,979.008,161.444,979.008,161.012C979.008,160.435,979.369,160.147,980.089,160.147C986.432,160.003,990.973,159.282,993.712,157.985C996.451,156.687,998.325,153.804,999.334,149.335C1000.49,144.866,1001.06,137.587,1001.06,127.496L1001.06,12.0273L931.653,12.0273C931.509,19.3792,930.86,30.4792,929.707,45.3272L928.842,56.355L927.545,75.3836C926.391,92.5381,924.301,106.809,921.274,118.198C918.391,129.442,914.499,139.533,909.597,148.47C904.264,158.417,896.479,163.39,886.244,163.39C882.784,163.39,880.046,162.526,878.027,160.796C876.009,159.066,875,156.903,875,154.309C875,150.993,876.37,148.254,879.109,146.092C881.992,143.929,885.307,142.848,889.055,142.848C895.11,142.848,901.308,144.506,907.651,147.822C912.408,139.172,916.156,129.154,918.895,117.765C921.778,106.377,923.797,92.3939,924.95,75.816L926.247,55.9226C926.391,53.1836,926.752,48.931,927.328,43.1648C927.473,41.0025,927.545,37.9752,927.545,34.083C927.545,27.0194,926.752,21.8298,925.166,18.5143C923.58,15.1987,920.986,13.1084,917.382,12.2435C913.778,11.2344,908.228,10.6578,900.732,10.5136C899.723,10.5136,899.218,10.2974,899.218,9.86492C899.218,9.28831,899.723,9,900.732,9C909.381,9,916.733,9.14415,922.788,9.43246C924.662,9.57662,927.329,9.64869,930.788,9.64869L1017.93,9.64869C1020.52,9.64869,1022.54,9.57662,1023.98,9.43246C1028.89,9.14415,1034.51,9,1040.85,9C1041.57,9,1041.93,9.28831,1041.93,9.86492C1041.93,10.2974,1041.57,10.5136,1040.85,10.5136C1034.51,10.6578,1029.97,11.3786,1027.23,12.676C1024.49,13.9734,1022.54,16.8565,1021.39,21.3253C1020.38,25.7941,1019.88,33.074,1019.88,43.1648L1019.88,127.496C1019.88,137.587,1020.38,144.866,1021.39,149.335C1022.54,153.804,1024.49,156.687,1027.23,157.985C1029.97,159.282,1034.51,160.003,1040.85,160.147Z" transform="translate(-958.465027,-86.195)" opacity="0" fill="rgb(181,90,43)" stroke="none" stroke-width="1"/></g><g id="eOa6cjYp2Ve9_to" transform="translate(958.465027,86.195)"><path id="eOa6cjYp2Ve9" d="M1040.85,160.147C1041.57,160.147,1041.93,160.435,1041.93,161.012C1041.93,161.444,1041.57,161.661,1040.85,161.661C1034.51,161.661,1028.89,161.516,1023.98,161.228C1022.54,161.084,1020.52,161.012,1017.93,161.012L1002.79,161.012C1000.34,161.012,998.397,161.084,996.956,161.228C992.343,161.516,986.721,161.661,980.089,161.661C979.369,161.661,979.008,161.444,979.008,161.012C979.008,160.435,979.369,160.147,980.089,160.147C986.432,160.003,990.973,159.282,993.712,157.985C996.451,156.687,998.325,153.804,999.334,149.335C1000.49,144.866,1001.06,137.587,1001.06,127.496L1001.06,12.0273L931.653,12.0273C931.509,19.3792,930.86,30.4792,929.707,45.3272L928.842,56.355L927.545,75.3836C926.391,92.5381,924.301,106.809,921.274,118.198C918.391,129.442,914.499,139.533,909.597,148.47C904.264,158.417,896.479,163.39,886.244,163.39C882.784,163.39,880.046,162.526,878.027,160.796C876.009,159.066,875,156.903,875,154.309C875,150.993,876.37,148.254,879.109,146.092C881.992,143.929,885.307,142.848,889.055,142.848C895.11,142.848,901.308,144.506,907.651,147.822C912.408,139.172,916.156,129.154,918.895,117.765C921.778,106.377,923.797,92.3939,924.95,75.816L926.247,55.9226C926.391,53.1836,926.752,48.931,927.328,43.1648C927.473,41.0025,927.545,37.9752,927.545,34.083C927.545,27.0194,926.752,21.8298,925.166,18.5143C923.58,15.1987,920.986,13.1084,917.382,12.2435C913.778,11.2344,908.228,10.6578,900.732,10.5136C899.723,10.5136,899.218,10.2974,899.218,9.86492C899.218,9.28831,899.723,9,900.732,9C909.381,9,916.733,9.14415,922.788,9.43246C924.662,9.57662,927.329,9.64869,930.788,9.64869L1017.93,9.64869C1020.52,9.64869,1022.54,9.57662,1023.98,9.43246C1028.89,9.14415,1034.51,9,1040.85,9C1041.57,9,1041.93,9.28831,1041.93,9.86492C1041.93,10.2974,1041.57,10.5136,1040.85,10.5136C1034.51,10.6578,1029.97,11.3786,1027.23,12.676C1024.49,13.9734,1022.54,16.8565,1021.39,21.3253C1020.38,25.7941,1019.88,33.074,1019.88,43.1648L1019.88,127.496C1019.88,137.587,1020.38,144.866,1021.39,149.335C1022.54,153.804,1024.49,156.687,1027.23,157.985C1029.97,159.282,1034.51,160.003,1040.85,160.147Z" transform="translate(-958.465027,-86.195)" fill="rgb(181,90,43)" stroke="none" stroke-width="1"/></g><g id="eOa6cjYp2Ve10_to" transform="translate(1125.330017,87.222)"><path id="eOa6cjYp2Ve10" d="M1077,162.796C1074.41,162.796,1072.39,162.868,1070.95,163.012C1066.05,163.3,1060.42,163.444,1054.08,163.444C1053.36,163.444,1053,163.156,1053,162.579C1053,162.003,1053.36,161.714,1054.08,161.714C1060.42,161.714,1064.96,161.066,1067.7,159.768C1070.44,158.471,1072.32,155.588,1073.33,151.119C1074.48,146.65,1075.06,139.37,1075.06,129.28L1075.06,45.1648C1075.06,35.074,1074.48,27.7941,1073.33,23.3253C1072.32,18.8565,1070.44,15.9734,1067.7,14.676C1064.96,13.3786,1060.42,12.7299,1054.08,12.7299C1053.36,12.7299,1053,12.4415,1053,11.8649C1053,11.2883,1053.36,11,1054.08,11C1060.42,11,1066.05,11.1442,1070.95,11.4325C1072.39,11.5766,1074.41,11.6487,1077,11.6487L1092.14,11.6487C1094.59,11.6487,1096.53,11.5766,1097.98,11.4325C1102.59,11.1442,1108.21,11,1114.84,11C1115.56,11,1115.92,11.2883,1115.92,11.8649C1115.92,12.2974,1115.56,12.5136,1114.84,12.5136C1108.5,12.6578,1103.96,13.3786,1101.22,14.676C1098.48,15.9734,1096.53,18.8565,1095.38,23.3253C1094.37,27.7941,1093.87,35.074,1093.87,45.1648L1093.87,82.1407L1118.73,82.1407C1144.39,82.1407,1163.93,85.6725,1177.33,92.7361C1190.88,99.6556,1197.66,109.386,1197.66,121.928C1197.66,130.289,1194.99,137.568,1189.66,143.767C1184.47,149.966,1177.05,154.723,1167.39,158.039C1157.73,161.354,1146.56,163.012,1133.87,163.012L1077,162.796ZM1125.44,160.417C1135.24,160.417,1143.96,158.831,1151.6,155.66C1159.39,152.344,1165.37,147.803,1169.55,142.037C1173.87,136.127,1176.04,129.496,1176.04,122.144C1176.04,111.188,1172.22,102.971,1164.58,97.4932C1157.08,92.0153,1148.21,88.4835,1137.98,86.8978C1127.74,85.3121,1116.36,84.5193,1103.81,84.5193L1093.87,84.5193L1093.87,123.874C1093.87,135.694,1093.94,143.695,1094.08,147.876C1094.37,152.056,1094.95,156.237,1095.81,160.417L1125.44,160.417Z" transform="translate(-1125.330017,-87.222)" fill="rgb(181,90,43)" stroke="none" stroke-width="1"/></g><g id="eOa6cjYp2Ve11_to" transform="translate(1125.330017,-83.525147)"><path id="eOa6cjYp2Ve11" d="M1077,162.796C1074.41,162.796,1072.39,162.868,1070.95,163.012C1066.05,163.3,1060.42,163.444,1054.08,163.444C1053.36,163.444,1053,163.156,1053,162.579C1053,162.003,1053.36,161.714,1054.08,161.714C1060.42,161.714,1064.96,161.066,1067.7,159.768C1070.44,158.471,1072.32,155.588,1073.33,151.119C1074.48,146.65,1075.06,139.37,1075.06,129.28L1075.06,45.1648C1075.06,35.074,1074.48,27.7941,1073.33,23.3253C1072.32,18.8565,1070.44,15.9734,1067.7,14.676C1064.96,13.3786,1060.42,12.7299,1054.08,12.7299C1053.36,12.7299,1053,12.4415,1053,11.8649C1053,11.2883,1053.36,11,1054.08,11C1060.42,11,1066.05,11.1442,1070.95,11.4325C1072.39,11.5766,1074.41,11.6487,1077,11.6487L1092.14,11.6487C1094.59,11.6487,1096.53,11.5766,1097.98,11.4325C1102.59,11.1442,1108.21,11,1114.84,11C1115.56,11,1115.92,11.2883,1115.92,11.8649C1115.92,12.2974,1115.56,12.5136,1114.84,12.5136C1108.5,12.6578,1103.96,13.3786,1101.22,14.676C1098.48,15.9734,1096.53,18.8565,1095.38,23.3253C1094.37,27.7941,1093.87,35.074,1093.87,45.1648L1093.87,82.1407L1118.73,82.1407C1144.39,82.1407,1163.93,85.6725,1177.33,92.7361C1190.88,99.6556,1197.66,109.386,1197.66,121.928C1197.66,130.289,1194.99,137.568,1189.66,143.767C1184.47,149.966,1177.05,154.723,1167.39,158.039C1157.73,161.354,1146.56,163.012,1133.87,163.012L1077,162.796ZM1125.44,160.417C1135.24,160.417,1143.96,158.831,1151.6,155.66C1159.39,152.344,1165.37,147.803,1169.55,142.037C1173.87,136.127,1176.04,129.496,1176.04,122.144C1176.04,111.188,1172.22,102.971,1164.58,97.4932C1157.08,92.0153,1148.21,88.4835,1137.98,86.8978C1127.74,85.3121,1116.36,84.5193,1103.81,84.5193L1093.87,84.5193L1093.87,123.874C1093.87,135.694,1093.94,143.695,1094.08,147.876C1094.37,152.056,1094.95,156.237,1095.81,160.417L1125.44,160.417Z" transform="translate(-1125.330017,-87.222)" opacity="0" fill="rgb(181,90,43)" stroke="none" stroke-width="1"/></g><g id="eOa6cjYp2Ve12_to" transform="translate(1281.869995,86.384872)"><path id="eOa6cjYp2Ve12" d="M1353.01,103.63C1353.16,103.197,1353.44,103.053,1353.88,103.197C1354.45,103.197,1354.74,103.341,1354.74,103.63L1339.82,170.229C1339.68,170.95,1339.24,170.95,1338.52,170.229C1336.65,167.779,1334.05,165.761,1330.74,164.175C1327.42,162.733,1321.73,162.012,1313.66,162.012L1233,162.012C1230.41,162.012,1228.39,162.085,1226.95,162.229C1222.05,162.517,1216.42,162.661,1210.08,162.661C1209.36,162.661,1209,162.445,1209,162.012C1209,161.436,1209.36,161.148,1210.08,161.148C1216.42,161.003,1220.96,160.283,1223.7,158.985C1226.44,157.688,1228.32,154.805,1229.33,150.336C1230.48,145.867,1231.06,138.587,1231.06,128.496L1231.06,44.1655C1231.06,34.0746,1230.48,26.7947,1229.33,22.3259C1228.32,17.8571,1226.44,14.974,1223.7,13.6766C1220.96,12.3792,1216.42,11.6584,1210.08,11.5142C1209.36,11.5142,1209,11.298,1209,10.8655C1209,10.2889,1209.36,10.0006,1210.08,10.0006C1216.42,10.0006,1222.05,10.1448,1226.95,10.4331C1228.39,10.5772,1230.41,10.6493,1233,10.6493L1303.49,10.6493C1311.71,10.6493,1317.48,9.92854,1320.79,8.48699C1324.25,7.04543,1326.85,5.02726,1328.58,2.43246C1328.87,2.14415,1329.08,2,1329.23,2C1329.51,2,1329.66,2.14415,1329.66,2.43246L1343.93,65.5725C1343.93,66.005,1343.64,66.2933,1343.06,66.4375C1342.63,66.4375,1342.34,66.1492,1342.2,65.5725C1337.59,52.1661,1332.47,41.6427,1326.85,34.0025C1321.22,26.3623,1314.95,20.9564,1308.03,17.785C1301.12,14.6136,1292.97,13.0279,1283.6,13.0279L1249.87,13.0279L1249.87,83.0874L1281.01,83.0874C1288.5,83.0874,1294.05,81.2855,1297.66,77.6816C1301.4,74.0777,1303.28,68.5998,1303.28,61.2479C1303.28,60.5271,1303.49,60.1667,1303.93,60.1667C1304.5,60.1667,1304.79,60.5271,1304.79,61.2479L1304.79,107.738C1304.79,108.315,1304.5,108.603,1303.93,108.603C1303.49,108.603,1303.28,108.315,1303.28,107.738C1303.28,99.6653,1301.48,93.9711,1297.87,90.6556C1294.41,87.34,1288.79,85.6822,1281.01,85.6822L1249.87,85.6822L1249.87,159.634L1287.93,159.634C1299.03,159.634,1308.32,158.192,1315.82,155.309C1323.32,152.426,1330.09,146.948,1336.15,138.876C1342.2,130.803,1347.82,119.054,1353.01,103.63Z" transform="translate(-1281.869995,-86.384872)" fill="rgb(181,90,43)" stroke="none" stroke-width="1"/></g><g id="eOa6cjYp2Ve13_to" transform="translate(1281.869995,-84.362275)"><path id="eOa6cjYp2Ve13" d="M1353.01,103.63C1353.16,103.197,1353.44,103.053,1353.88,103.197C1354.45,103.197,1354.74,103.341,1354.74,103.63L1339.82,170.229C1339.68,170.95,1339.24,170.95,1338.52,170.229C1336.65,167.779,1334.05,165.761,1330.74,164.175C1327.42,162.733,1321.73,162.012,1313.66,162.012L1233,162.012C1230.41,162.012,1228.39,162.085,1226.95,162.229C1222.05,162.517,1216.42,162.661,1210.08,162.661C1209.36,162.661,1209,162.445,1209,162.012C1209,161.436,1209.36,161.148,1210.08,161.148C1216.42,161.003,1220.96,160.283,1223.7,158.985C1226.44,157.688,1228.32,154.805,1229.33,150.336C1230.48,145.867,1231.06,138.587,1231.06,128.496L1231.06,44.1655C1231.06,34.0746,1230.48,26.7947,1229.33,22.3259C1228.32,17.8571,1226.44,14.974,1223.7,13.6766C1220.96,12.3792,1216.42,11.6584,1210.08,11.5142C1209.36,11.5142,1209,11.298,1209,10.8655C1209,10.2889,1209.36,10.0006,1210.08,10.0006C1216.42,10.0006,1222.05,10.1448,1226.95,10.4331C1228.39,10.5772,1230.41,10.6493,1233,10.6493L1303.49,10.6493C1311.71,10.6493,1317.48,9.92854,1320.79,8.48699C1324.25,7.04543,1326.85,5.02726,1328.58,2.43246C1328.87,2.14415,1329.08,2,1329.23,2C1329.51,2,1329.66,2.14415,1329.66,2.43246L1343.93,65.5725C1343.93,66.005,1343.64,66.2933,1343.06,66.4375C1342.63,66.4375,1342.34,66.1492,1342.2,65.5725C1337.59,52.1661,1332.47,41.6427,1326.85,34.0025C1321.22,26.3623,1314.95,20.9564,1308.03,17.785C1301.12,14.6136,1292.97,13.0279,1283.6,13.0279L1249.87,13.0279L1249.87,83.0874L1281.01,83.0874C1288.5,83.0874,1294.05,81.2855,1297.66,77.6816C1301.4,74.0777,1303.28,68.5998,1303.28,61.2479C1303.28,60.5271,1303.49,60.1667,1303.93,60.1667C1304.5,60.1667,1304.79,60.5271,1304.79,61.2479L1304.79,107.738C1304.79,108.315,1304.5,108.603,1303.93,108.603C1303.49,108.603,1303.28,108.315,1303.28,107.738C1303.28,99.6653,1301.48,93.9711,1297.87,90.6556C1294.41,87.34,1288.79,85.6822,1281.01,85.6822L1249.87,85.6822L1249.87,159.634L1287.93,159.634C1299.03,159.634,1308.32,158.192,1315.82,155.309C1323.32,152.426,1330.09,146.948,1336.15,138.876C1342.2,130.803,1347.82,119.054,1353.01,103.63Z" transform="translate(-1281.869995,-86.384872)" opacity="0" fill="rgb(181,90,43)" stroke="none" stroke-width="1"/></g><g id="eOa6cjYp2Ve14_to" transform="translate(270.384995,86.330498)"><path id="eOa6cjYp2Ve14" d="M355.689,161.147C356.41,161.147,356.77,161.435,356.77,162.012C356.77,162.444,356.41,162.661,355.689,162.661C349.346,162.661,343.724,162.516,338.823,162.228C337.381,162.084,335.363,162.012,332.768,162.012L317.632,162.012C315.037,162.012,313.019,162.084,311.578,162.228C306.676,162.516,301.054,162.661,294.711,162.661C293.991,162.661,293.63,162.444,293.63,162.012C293.63,161.435,293.991,161.147,294.711,161.147C301.054,161.003,305.595,160.282,308.334,158.985C311.073,157.687,312.947,154.804,313.956,150.335C315.109,145.866,315.686,138.587,315.686,128.496L315.686,84.168L271.358,84.3842L224.868,84.168L224.868,128.496C224.868,138.587,225.373,145.866,226.382,150.335C227.535,154.804,229.481,157.687,232.22,158.985C234.959,160.282,239.5,161.003,245.843,161.147C246.563,161.147,246.924,161.435,246.924,162.012C247.068,162.444,246.708,162.661,245.843,162.661C239.356,162.661,233.806,162.516,229.193,162.228C227.751,162.084,225.733,162.012,223.138,162.012L208.002,162.012C205.407,162.012,203.389,162.084,201.947,162.228C197.046,162.516,191.424,162.661,185.081,162.661C184.36,162.661,184,162.444,184,162.012C184,161.435,184.36,161.147,185.081,161.147C191.424,161.003,195.965,160.282,198.704,158.985C201.443,157.687,203.317,154.804,204.326,150.335C205.479,145.866,206.056,138.587,206.056,128.496L206.056,44.1648C206.056,34.074,205.479,26.7941,204.326,22.3253C203.317,17.8565,201.443,14.9734,198.704,13.676C195.965,12.3786,191.424,11.6578,185.081,11.5136C184.36,11.5136,184,11.2974,184,10.8649C184,10.2883,184.36,10,185.081,10C191.424,10,197.046,10.1442,201.947,10.4325C203.389,10.5766,205.407,10.6487,208.002,10.6487L223.138,10.6487C225.733,10.6487,227.751,10.5766,229.193,10.4325C233.806,10.1442,239.356,10,245.843,10C246.708,10,247.068,10.2883,246.924,10.8649C246.924,11.2974,246.563,11.5136,245.843,11.5136C239.5,11.6578,234.959,12.3786,232.22,13.676C229.481,14.9734,227.535,17.8565,226.382,22.3253C225.373,26.7941,224.868,34.074,224.868,44.1648L224.868,82.2218L271.142,82.0056L315.686,82.2218L315.686,44.1648C315.686,34.074,315.109,26.7941,313.956,22.3253C312.947,17.8565,311.073,14.9734,308.334,13.676C305.595,12.3786,301.054,11.6578,294.711,11.5136C293.991,11.5136,293.63,11.2974,293.63,10.8649C293.63,10.2883,293.991,10,294.711,10C301.054,10,306.676,10.1442,311.578,10.4325C313.019,10.5766,315.037,10.6487,317.632,10.6487L332.768,10.6487C335.363,10.6487,337.381,10.5766,338.823,10.4325C343.724,10.1442,349.346,10,355.689,10C356.41,10,356.77,10.2883,356.77,10.8649C356.77,11.2974,356.41,11.5136,355.689,11.5136C349.346,11.6578,344.805,12.3786,342.066,13.676C339.327,14.9734,337.381,17.8565,336.228,22.3253C335.075,26.7941,334.498,34.074,334.498,44.1648L334.498,128.496C334.498,138.587,335.075,145.866,336.228,150.335C337.381,154.804,339.327,157.687,342.066,158.985C344.805,160.282,349.346,161.003,355.689,161.147Z" transform="translate(-270.384995,-86.330498)" fill="rgb(181,90,43)" stroke="none" stroke-width="1"/></g><g id="eOa6cjYp2Ve15_to" transform="translate(270.384995,-84.416649)"><path id="eOa6cjYp2Ve15" d="M355.689,161.147C356.41,161.147,356.77,161.435,356.77,162.012C356.77,162.444,356.41,162.661,355.689,162.661C349.346,162.661,343.724,162.516,338.823,162.228C337.381,162.084,335.363,162.012,332.768,162.012L317.632,162.012C315.037,162.012,313.019,162.084,311.578,162.228C306.676,162.516,301.054,162.661,294.711,162.661C293.991,162.661,293.63,162.444,293.63,162.012C293.63,161.435,293.991,161.147,294.711,161.147C301.054,161.003,305.595,160.282,308.334,158.985C311.073,157.687,312.947,154.804,313.956,150.335C315.109,145.866,315.686,138.587,315.686,128.496L315.686,84.168L271.358,84.3842L224.868,84.168L224.868,128.496C224.868,138.587,225.373,145.866,226.382,150.335C227.535,154.804,229.481,157.687,232.22,158.985C234.959,160.282,239.5,161.003,245.843,161.147C246.563,161.147,246.924,161.435,246.924,162.012C247.068,162.444,246.708,162.661,245.843,162.661C239.356,162.661,233.806,162.516,229.193,162.228C227.751,162.084,225.733,162.012,223.138,162.012L208.002,162.012C205.407,162.012,203.389,162.084,201.947,162.228C197.046,162.516,191.424,162.661,185.081,162.661C184.36,162.661,184,162.444,184,162.012C184,161.435,184.36,161.147,185.081,161.147C191.424,161.003,195.965,160.282,198.704,158.985C201.443,157.687,203.317,154.804,204.326,150.335C205.479,145.866,206.056,138.587,206.056,128.496L206.056,44.1648C206.056,34.074,205.479,26.7941,204.326,22.3253C203.317,17.8565,201.443,14.9734,198.704,13.676C195.965,12.3786,191.424,11.6578,185.081,11.5136C184.36,11.5136,184,11.2974,184,10.8649C184,10.2883,184.36,10,185.081,10C191.424,10,197.046,10.1442,201.947,10.4325C203.389,10.5766,205.407,10.6487,208.002,10.6487L223.138,10.6487C225.733,10.6487,227.751,10.5766,229.193,10.4325C233.806,10.1442,239.356,10,245.843,10C246.708,10,247.068,10.2883,246.924,10.8649C246.924,11.2974,246.563,11.5136,245.843,11.5136C239.5,11.6578,234.959,12.3786,232.22,13.676C229.481,14.9734,227.535,17.8565,226.382,22.3253C225.373,26.7941,224.868,34.074,224.868,44.1648L224.868,82.2218L271.142,82.0056L315.686,82.2218L315.686,44.1648C315.686,34.074,315.109,26.7941,313.956,22.3253C312.947,17.8565,311.073,14.9734,308.334,13.676C305.595,12.3786,301.054,11.6578,294.711,11.5136C293.991,11.5136,293.63,11.2974,293.63,10.8649C293.63,10.2883,293.991,10,294.711,10C301.054,10,306.676,10.1442,311.578,10.4325C313.019,10.5766,315.037,10.6487,317.632,10.6487L332.768,10.6487C335.363,10.6487,337.381,10.5766,338.823,10.4325C343.724,10.1442,349.346,10,355.689,10C356.41,10,356.77,10.2883,356.77,10.8649C356.77,11.2974,356.41,11.5136,355.689,11.5136C349.346,11.6578,344.805,12.3786,342.066,13.676C339.327,14.9734,337.381,17.8565,336.228,22.3253C335.075,26.7941,334.498,34.074,334.498,44.1648L334.498,128.496C334.498,138.587,335.075,145.866,336.228,150.335C337.381,154.804,339.327,157.687,342.066,158.985C344.805,160.282,349.346,161.003,355.689,161.147Z" transform="translate(-270.384995,-86.330498)" opacity="0" fill="rgb(181,90,43)" stroke="none" stroke-width="1"/></g><g id="eOa6cjYp2Ve16_to" transform="translate(86.385002,86.330498)"><path id="eOa6cjYp2Ve16" d="M171.689,161.147C172.41,161.147,172.77,161.435,172.77,162.012C172.77,162.444,172.41,162.661,171.689,162.661C165.346,162.661,159.724,162.516,154.823,162.228C153.381,162.084,151.363,162.012,148.768,162.012L133.632,162.012C131.037,162.012,129.019,162.084,127.578,162.228C122.676,162.516,117.054,162.661,110.711,162.661C109.991,162.661,109.63,162.444,109.63,162.012C109.63,161.435,109.991,161.147,110.711,161.147C117.054,161.003,121.595,160.282,124.334,158.985C127.073,157.687,128.947,154.804,129.956,150.335C131.109,145.866,131.686,138.587,131.686,128.496L131.686,43.5161L40.8681,133.253C41.0122,141.758,41.6609,147.957,42.8142,151.849C44.1116,155.597,46.1297,158.048,48.8687,159.201C51.6076,160.354,55.9323,161.003,61.8427,161.147C62.5634,161.147,62.9238,161.435,62.9238,162.012C63.068,162.444,62.7076,162.661,61.8427,162.661C55.3557,162.661,49.8057,162.516,45.1927,162.228C43.7512,162.084,41.733,162.012,39.1382,162.012L24.0019,162.012C21.4071,162.012,19.3889,162.084,17.9473,162.228C13.0461,162.516,7.424,162.661,1.08117,162.661C0.360388,162.661,0,162.444,0,162.012C0,161.435,0.360388,161.147,1.08117,161.147C7.424,161.003,11.9649,160.282,14.7039,158.985C17.4428,157.687,19.3168,154.804,20.3259,150.335C21.4792,145.866,22.0558,138.587,22.0558,128.496L22.0558,44.1648C22.0558,34.074,21.4792,26.7941,20.3259,22.3253C19.3168,17.8565,17.4428,14.9734,14.7039,13.676C11.9649,12.3786,7.424,11.6578,1.08117,11.5136C0.360388,11.5136,0,11.2974,0,10.8649C0,10.2883,0.360388,10,1.08117,10C7.424,10,13.0461,10.1442,17.9473,10.4325C19.3889,10.5766,21.4071,10.6487,24.0019,10.6487L39.1382,10.6487C41.733,10.6487,43.7512,10.5766,45.1927,10.4325C49.8057,10.1442,55.3557,10,61.8427,10C62.7076,10,63.068,10.2883,62.9238,10.8649C62.9238,11.2974,62.5634,11.5136,61.8427,11.5136C55.4998,11.6578,50.9589,12.3786,48.22,13.676C45.481,14.9734,43.5349,17.8565,42.3817,22.3253C41.3726,26.7941,40.8681,34.074,40.8681,44.1648L40.8681,129.793L131.686,39.8402C131.542,31.1909,130.821,24.9201,129.524,21.0279C128.37,17.1357,126.424,14.613,123.685,13.4597C121.091,12.3065,116.766,11.6578,110.711,11.5136C109.991,11.5136,109.63,11.2974,109.63,10.8649C109.63,10.2883,109.991,10,110.711,10C117.054,10,122.676,10.1442,127.578,10.4325C129.019,10.5766,131.037,10.6487,133.632,10.6487L148.768,10.6487C151.363,10.6487,153.381,10.5766,154.823,10.4325C159.724,10.1442,165.346,10,171.689,10C172.41,10,172.77,10.2883,172.77,10.8649C172.77,11.2974,172.41,11.5136,171.689,11.5136C165.346,11.6578,160.805,12.3786,158.066,13.676C155.327,14.9734,153.381,17.8565,152.228,22.3253C151.075,26.7941,150.498,34.074,150.498,44.1648L150.498,128.496C150.498,138.587,151.075,145.866,152.228,150.335C153.381,154.804,155.327,157.687,158.066,158.985C160.805,160.282,165.346,161.003,171.689,161.147Z" transform="translate(-86.385002,-86.330498)" fill="rgb(181,90,43)" stroke="none" stroke-width="1"/></g><g id="eOa6cjYp2Ve17_to" transform="translate(86.385002,-84.416649)"><path id="eOa6cjYp2Ve17" d="M171.689,161.147C172.41,161.147,172.77,161.435,172.77,162.012C172.77,162.444,172.41,162.661,171.689,162.661C165.346,162.661,159.724,162.516,154.823,162.228C153.381,162.084,151.363,162.012,148.768,162.012L133.632,162.012C131.037,162.012,129.019,162.084,127.578,162.228C122.676,162.516,117.054,162.661,110.711,162.661C109.991,162.661,109.63,162.444,109.63,162.012C109.63,161.435,109.991,161.147,110.711,161.147C117.054,161.003,121.595,160.282,124.334,158.985C127.073,157.687,128.947,154.804,129.956,150.335C131.109,145.866,131.686,138.587,131.686,128.496L131.686,43.5161L40.8681,133.253C41.0122,141.758,41.6609,147.957,42.8142,151.849C44.1116,155.597,46.1297,158.048,48.8687,159.201C51.6076,160.354,55.9323,161.003,61.8427,161.147C62.5634,161.147,62.9238,161.435,62.9238,162.012C63.068,162.444,62.7076,162.661,61.8427,162.661C55.3557,162.661,49.8057,162.516,45.1927,162.228C43.7512,162.084,41.733,162.012,39.1382,162.012L24.0019,162.012C21.4071,162.012,19.3889,162.084,17.9473,162.228C13.0461,162.516,7.424,162.661,1.08117,162.661C0.360388,162.661,0,162.444,0,162.012C0,161.435,0.360388,161.147,1.08117,161.147C7.424,161.003,11.9649,160.282,14.7039,158.985C17.4428,157.687,19.3168,154.804,20.3259,150.335C21.4792,145.866,22.0558,138.587,22.0558,128.496L22.0558,44.1648C22.0558,34.074,21.4792,26.7941,20.3259,22.3253C19.3168,17.8565,17.4428,14.9734,14.7039,13.676C11.9649,12.3786,7.424,11.6578,1.08117,11.5136C0.360388,11.5136,0,11.2974,0,10.8649C0,10.2883,0.360388,10,1.08117,10C7.424,10,13.0461,10.1442,17.9473,10.4325C19.3889,10.5766,21.4071,10.6487,24.0019,10.6487L39.1382,10.6487C41.733,10.6487,43.7512,10.5766,45.1927,10.4325C49.8057,10.1442,55.3557,10,61.8427,10C62.7076,10,63.068,10.2883,62.9238,10.8649C62.9238,11.2974,62.5634,11.5136,61.8427,11.5136C55.4998,11.6578,50.9589,12.3786,48.22,13.676C45.481,14.9734,43.5349,17.8565,42.3817,22.3253C41.3726,26.7941,40.8681,34.074,40.8681,44.1648L40.8681,129.793L131.686,39.8402C131.542,31.1909,130.821,24.9201,129.524,21.0279C128.37,17.1357,126.424,14.613,123.685,13.4597C121.091,12.3065,116.766,11.6578,110.711,11.5136C109.991,11.5136,109.63,11.2974,109.63,10.8649C109.63,10.2883,109.991,10,110.711,10C117.054,10,122.676,10.1442,127.578,10.4325C129.019,10.5766,131.037,10.6487,133.632,10.6487L148.768,10.6487C151.363,10.6487,153.381,10.5766,154.823,10.4325C159.724,10.1442,165.346,10,171.689,10C172.41,10,172.77,10.2883,172.77,10.8649C172.77,11.2974,172.41,11.5136,171.689,11.5136C165.346,11.6578,160.805,12.3786,158.066,13.676C155.327,14.9734,153.381,17.8565,152.228,22.3253C151.075,26.7941,150.498,34.074,150.498,44.1648L150.498,128.496C150.498,138.587,151.075,145.866,152.228,150.335C153.381,154.804,155.327,157.687,158.066,158.985C160.805,160.282,165.346,161.003,171.689,161.147Z" transform="translate(-86.385002,-86.330498)" opacity="0" fill="rgb(181,90,43)" stroke="none" stroke-width="1"/></g><g id="eOa6cjYp2Ve18_to" transform="translate(1551.070007,45.59795)"><path id="eOa6cjYp2Ve18" d="M1586.67,45.598C1586.67,65.2582,1570.73,81.1959,1551.07,81.1959C1531.41,81.1959,1515.47,65.2582,1515.47,45.598C1515.47,25.9378,1531.41,10,1551.07,10C1570.73,10,1586.67,25.9378,1586.67,45.598ZM1587.67,45.598C1587.67,65.8105,1571.28,82.1959,1551.07,82.1959C1530.86,82.1959,1514.47,65.8105,1514.47,45.598C1514.47,25.3855,1530.86,9,1551.07,9C1571.28,9,1587.67,25.3855,1587.67,45.598ZM1541.22,41.9494C1541.22,40.5839,1540.88,40.5156,1539.01,40.5156C1537.1,40.5156,1536.24,41.4032,1535.85,43.7246C1535.83,43.7928,1535.58,43.7928,1535.58,43.7018C1535.69,42.9508,1535.9,40.6294,1535.9,39.6053C1535.9,39.4687,1536.17,39.446,1536.17,39.6053C1536.17,40.0604,1536.94,40.106,1537.37,40.106C1538.67,40.1515,1540.24,40.1742,1541.95,40.1742C1543.18,40.1742,1544.07,40.1516,1544.82,40.1324L1544.82,40.1324L1544.82,40.1324C1545.37,40.1182,1545.85,40.106,1546.34,40.106C1547.37,40.106,1547.91,40.0149,1548.07,39.537C1548.09,39.4232,1548.32,39.4232,1548.32,39.537C1548.23,40.4473,1548.12,42.9963,1548.12,43.7018C1548.12,43.7928,1547.87,43.7928,1547.84,43.7018C1547.75,41.3577,1546.96,40.5156,1544.93,40.5156C1543.02,40.5156,1542.72,40.6522,1542.72,41.9949L1542.72,52.4865C1542.72,53.8065,1543.02,54.0569,1544.93,54.0569C1545.02,54.0569,1545.02,54.33,1544.93,54.33C1544.56,54.33,1544.16,54.3207,1543.73,54.3105L1543.73,54.3105L1543.73,54.3105L1543.73,54.3105C1543.2,54.2981,1542.61,54.2845,1541.95,54.2845C1541.35,54.2845,1540.78,54.2976,1540.25,54.3098L1540.25,54.3098L1540.24,54.3098L1540.24,54.3098C1539.79,54.3203,1539.37,54.33,1538.99,54.33C1538.92,54.33,1538.92,54.0569,1538.99,54.0569C1540.88,54.0569,1541.22,53.8065,1541.22,52.4865L1541.22,41.9494ZM1565.66,52.4865C1565.7,53.8065,1565.95,54.0569,1567.62,54.0569C1567.71,54.0569,1567.71,54.33,1567.62,54.33C1567.28,54.33,1566.9,54.3203,1566.48,54.3099L1566.48,54.3099L1566.48,54.3099C1566,54.2977,1565.47,54.2845,1564.93,54.2845C1564.4,54.2845,1563.91,54.298,1563.47,54.3103C1563.1,54.3205,1562.76,54.33,1562.45,54.33C1562.38,54.33,1562.38,54.0569,1562.45,54.0569C1563.95,54.0569,1564.25,53.8065,1564.18,52.4865L1563.77,42.1542L1558.58,54.1707C1558.51,54.2845,1558.26,54.2845,1558.19,54.1707L1552.6,42.2225L1552.39,51.8493C1552.37,53.4196,1552.85,54.0569,1554.33,54.0569C1554.39,54.0569,1554.39,54.33,1554.33,54.33C1554,54.33,1553.68,54.3198,1553.34,54.309C1552.96,54.2971,1552.56,54.2845,1552.12,54.2845C1551.7,54.2845,1551.3,54.2974,1550.93,54.3095L1550.93,54.3095C1550.61,54.3201,1550.3,54.33,1550.02,54.33C1549.93,54.33,1549.93,54.0569,1550.02,54.0569C1551.3,54.0569,1551.84,53.4196,1551.87,51.8493L1552.05,41.2894C1551.59,40.6749,1550.98,40.3791,1550.18,40.3791C1550.11,40.3791,1550.11,40.106,1550.18,40.106C1550.45,40.106,1550.75,40.1192,1551.02,40.1314L1551.02,40.1314L1551.02,40.1314C1551.26,40.1418,1551.47,40.1515,1551.64,40.1515C1551.94,40.1515,1552.23,40.1346,1552.46,40.1213C1552.6,40.1129,1552.72,40.106,1552.8,40.106C1553.21,40.106,1553.37,40.288,1553.85,41.2894L1558.94,51.9859L1563.88,40.6749C1564.04,40.3108,1564.29,40.106,1564.57,40.106C1564.63,40.106,1564.71,40.1127,1564.82,40.1209L1564.82,40.1209L1564.82,40.121C1564.98,40.1342,1565.2,40.1515,1565.45,40.1515C1565.9,40.1515,1566.24,40.1379,1566.55,40.1256C1566.8,40.1154,1567.04,40.106,1567.3,40.106C1567.39,40.106,1567.39,40.3791,1567.3,40.3791C1565.84,40.3791,1565.16,40.6977,1565.2,41.9494L1565.66,52.4865Z" transform="translate(-1551.070007,-45.59795)" clip-rule="evenodd" fill="rgb(181,90,43)" fill-rule="evenodd" stroke="none" stroke-width="1"/></g><g id="eOa6cjYp2Ve19_to" transform="translate(1551.070007,-125.149197)"><path id="eOa6cjYp2Ve19" d="M1586.67,45.598C1586.67,65.2582,1570.73,81.1959,1551.07,81.1959C1531.41,81.1959,1515.47,65.2582,1515.47,45.598C1515.47,25.9378,1531.41,10,1551.07,10C1570.73,10,1586.67,25.9378,1586.67,45.598ZM1587.67,45.598C1587.67,65.8105,1571.28,82.1959,1551.07,82.1959C1530.86,82.1959,1514.47,65.8105,1514.47,45.598C1514.47,25.3855,1530.86,9,1551.07,9C1571.28,9,1587.67,25.3855,1587.67,45.598ZM1541.22,41.9494C1541.22,40.5839,1540.88,40.5156,1539.01,40.5156C1537.1,40.5156,1536.24,41.4032,1535.85,43.7246C1535.83,43.7928,1535.58,43.7928,1535.58,43.7018C1535.69,42.9508,1535.9,40.6294,1535.9,39.6053C1535.9,39.4687,1536.17,39.446,1536.17,39.6053C1536.17,40.0604,1536.94,40.106,1537.37,40.106C1538.67,40.1515,1540.24,40.1742,1541.95,40.1742C1543.18,40.1742,1544.07,40.1516,1544.82,40.1324L1544.82,40.1324L1544.82,40.1324C1545.37,40.1182,1545.85,40.106,1546.34,40.106C1547.37,40.106,1547.91,40.0149,1548.07,39.537C1548.09,39.4232,1548.32,39.4232,1548.32,39.537C1548.23,40.4473,1548.12,42.9963,1548.12,43.7018C1548.12,43.7928,1547.87,43.7928,1547.84,43.7018C1547.75,41.3577,1546.96,40.5156,1544.93,40.5156C1543.02,40.5156,1542.72,40.6522,1542.72,41.9949L1542.72,52.4865C1542.72,53.8065,1543.02,54.0569,1544.93,54.0569C1545.02,54.0569,1545.02,54.33,1544.93,54.33C1544.56,54.33,1544.16,54.3207,1543.73,54.3105L1543.73,54.3105L1543.73,54.3105L1543.73,54.3105C1543.2,54.2981,1542.61,54.2845,1541.95,54.2845C1541.35,54.2845,1540.78,54.2976,1540.25,54.3098L1540.25,54.3098L1540.24,54.3098L1540.24,54.3098C1539.79,54.3203,1539.37,54.33,1538.99,54.33C1538.92,54.33,1538.92,54.0569,1538.99,54.0569C1540.88,54.0569,1541.22,53.8065,1541.22,52.4865L1541.22,41.9494ZM1565.66,52.4865C1565.7,53.8065,1565.95,54.0569,1567.62,54.0569C1567.71,54.0569,1567.71,54.33,1567.62,54.33C1567.28,54.33,1566.9,54.3203,1566.48,54.3099L1566.48,54.3099L1566.48,54.3099C1566,54.2977,1565.47,54.2845,1564.93,54.2845C1564.4,54.2845,1563.91,54.298,1563.47,54.3103C1563.1,54.3205,1562.76,54.33,1562.45,54.33C1562.38,54.33,1562.38,54.0569,1562.45,54.0569C1563.95,54.0569,1564.25,53.8065,1564.18,52.4865L1563.77,42.1542L1558.58,54.1707C1558.51,54.2845,1558.26,54.2845,1558.19,54.1707L1552.6,42.2225L1552.39,51.8493C1552.37,53.4196,1552.85,54.0569,1554.33,54.0569C1554.39,54.0569,1554.39,54.33,1554.33,54.33C1554,54.33,1553.68,54.3198,1553.34,54.309C1552.96,54.2971,1552.56,54.2845,1552.12,54.2845C1551.7,54.2845,1551.3,54.2974,1550.93,54.3095L1550.93,54.3095C1550.61,54.3201,1550.3,54.33,1550.02,54.33C1549.93,54.33,1549.93,54.0569,1550.02,54.0569C1551.3,54.0569,1551.84,53.4196,1551.87,51.8493L1552.05,41.2894C1551.59,40.6749,1550.98,40.3791,1550.18,40.3791C1550.11,40.3791,1550.11,40.106,1550.18,40.106C1550.45,40.106,1550.75,40.1192,1551.02,40.1314L1551.02,40.1314L1551.02,40.1314C1551.26,40.1418,1551.47,40.1515,1551.64,40.1515C1551.94,40.1515,1552.23,40.1346,1552.46,40.1213C1552.6,40.1129,1552.72,40.106,1552.8,40.106C1553.21,40.106,1553.37,40.288,1553.85,41.2894L1558.94,51.9859L1563.88,40.6749C1564.04,40.3108,1564.29,40.106,1564.57,40.106C1564.63,40.106,1564.71,40.1127,1564.82,40.1209L1564.82,40.1209L1564.82,40.121C1564.98,40.1342,1565.2,40.1515,1565.45,40.1515C1565.9,40.1515,1566.24,40.1379,1566.55,40.1256C1566.8,40.1154,1567.04,40.106,1567.3,40.106C1567.39,40.106,1567.39,40.3791,1567.3,40.3791C1565.84,40.3791,1565.16,40.6977,1565.2,41.9494L1565.66,52.4865Z" transform="translate(-1551.070007,-45.59795)" opacity="0" clip-rule="evenodd" fill="rgb(181,90,43)" fill-rule="evenodd" stroke="none" stroke-width="1"/></g><g id="eOa6cjYp2Ve20_to" transform="translate(1434.76001,86.330498)"><path id="eOa6cjYp2Ve20" d="M1406.87,98.8718L1406.87,125.252C1406.87,136.352,1407.66,144.353,1409.25,149.254C1410.83,154.011,1413.64,157.183,1417.68,158.768C1421.72,160.21,1428.28,160.931,1437.36,160.931C1438.37,160.931,1438.87,161.219,1438.87,161.796C1438.87,162.372,1438.37,162.661,1437.36,162.661C1427.7,162.661,1419.55,162.516,1412.92,162.228C1410.9,162.084,1408.02,162.012,1404.27,162.012L1390,162.012C1387.41,162.012,1385.39,162.084,1383.95,162.228C1379.05,162.516,1373.42,162.661,1367.08,162.661C1366.36,162.661,1366,162.444,1366,162.012C1366,161.435,1366.36,161.147,1367.08,161.147C1373.42,161.003,1377.96,160.282,1380.7,158.985C1383.44,157.687,1385.32,154.804,1386.33,150.335C1387.48,145.866,1388.06,138.587,1388.06,128.496L1388.06,44.1648C1388.06,34.074,1387.48,26.7941,1386.33,22.3253C1385.32,17.8565,1383.44,14.9734,1380.7,13.676C1377.96,12.3786,1373.42,11.6578,1367.08,11.5136C1366.36,11.5136,1366,11.2974,1366,10.8649C1366,10.2883,1366.36,10,1367.08,10C1373.42,10,1379.05,10.1442,1383.95,10.4325C1385.39,10.5766,1387.41,10.6487,1390,10.6487L1433.46,10.6487C1448.02,10.6487,1460.57,12.4506,1471.09,16.0545C1481.61,19.6584,1489.61,24.7759,1495.09,31.4071C1500.71,38.0382,1503.52,45.8947,1503.52,54.9765C1503.52,68.6712,1497.61,79.4108,1485.79,87.1952C1474.12,94.9796,1457.83,98.8718,1436.92,98.8718L1406.87,98.8718ZM1408.81,13.0273C1408.24,15.3337,1407.73,18.0727,1407.3,21.2441C1407.01,24.4155,1406.87,29.9655,1406.87,37.8941L1406.87,96.4932L1429.36,96.4932C1445.93,96.4932,1458.84,92.7452,1468.06,85.2491C1477.29,77.753,1481.9,67.5901,1481.9,54.7603C1481.9,46.5434,1479.81,39.3356,1475.63,33.1369C1471.59,26.7941,1465.61,21.8928,1457.68,18.4331C1449.9,14.8292,1440.6,13.0273,1429.79,13.0273L1408.81,13.0273Z" transform="translate(-1434.76001,-86.330498)" fill="rgb(181,90,43)" stroke="none" stroke-width="1"/></g><g id="eOa6cjYp2Ve21_to" transform="translate(1434.76001,-84.416649)"><path id="eOa6cjYp2Ve21" d="M1406.87,98.8718L1406.87,125.252C1406.87,136.352,1407.66,144.353,1409.25,149.254C1410.83,154.011,1413.64,157.183,1417.68,158.768C1421.72,160.21,1428.28,160.931,1437.36,160.931C1438.37,160.931,1438.87,161.219,1438.87,161.796C1438.87,162.372,1438.37,162.661,1437.36,162.661C1427.7,162.661,1419.55,162.516,1412.92,162.228C1410.9,162.084,1408.02,162.012,1404.27,162.012L1390,162.012C1387.41,162.012,1385.39,162.084,1383.95,162.228C1379.05,162.516,1373.42,162.661,1367.08,162.661C1366.36,162.661,1366,162.444,1366,162.012C1366,161.435,1366.36,161.147,1367.08,161.147C1373.42,161.003,1377.96,160.282,1380.7,158.985C1383.44,157.687,1385.32,154.804,1386.33,150.335C1387.48,145.866,1388.06,138.587,1388.06,128.496L1388.06,44.1648C1388.06,34.074,1387.48,26.7941,1386.33,22.3253C1385.32,17.8565,1383.44,14.9734,1380.7,13.676C1377.96,12.3786,1373.42,11.6578,1367.08,11.5136C1366.36,11.5136,1366,11.2974,1366,10.8649C1366,10.2883,1366.36,10,1367.08,10C1373.42,10,1379.05,10.1442,1383.95,10.4325C1385.39,10.5766,1387.41,10.6487,1390,10.6487L1433.46,10.6487C1448.02,10.6487,1460.57,12.4506,1471.09,16.0545C1481.61,19.6584,1489.61,24.7759,1495.09,31.4071C1500.71,38.0382,1503.52,45.8947,1503.52,54.9765C1503.52,68.6712,1497.61,79.4108,1485.79,87.1952C1474.12,94.9796,1457.83,98.8718,1436.92,98.8718L1406.87,98.8718ZM1408.81,13.0273C1408.24,15.3337,1407.73,18.0727,1407.3,21.2441C1407.01,24.4155,1406.87,29.9655,1406.87,37.8941L1406.87,96.4932L1429.36,96.4932C1445.93,96.4932,1458.84,92.7452,1468.06,85.2491C1477.29,77.753,1481.9,67.5901,1481.9,54.7603C1481.9,46.5434,1479.81,39.3356,1475.63,33.1369C1471.59,26.7941,1465.61,21.8928,1457.68,18.4331C1449.9,14.8292,1440.6,13.0273,1429.79,13.0273L1408.81,13.0273Z" transform="translate(-1434.76001,-86.330498)" opacity="0" fill="rgb(181,90,43)" stroke="none" stroke-width="1"/></g></svg>