<svg width="200" height="200" viewBox="0 0 200 200" fill="none" xmlns="http://www.w3.org/2000/svg">
<circle cx="100" cy="100" r="99.5" stroke="#B55A2B"/>
<circle opacity="0.4" cx="100" cy="100" r="4" fill="#B55A2B"/>
<path d="M114.816 35.5114C114.878 35.5186 114.906 35.548 114.9 35.5996C114.895 35.641 114.862 35.6581 114.8 35.6509C114.521 35.6188 114.186 35.5699 113.796 35.5041C113.405 35.4486 113.204 35.4203 113.193 35.4191L110.001 35.0519C109.99 35.0507 109.788 35.0327 109.395 34.9979C109 34.9734 108.663 34.9451 108.384 34.9131C108.322 34.9059 108.293 34.8817 108.298 34.8404C108.304 34.7887 108.338 34.7664 108.4 34.7736C108.982 34.8091 109.386 34.6619 109.612 34.332C109.839 33.9917 110.031 33.2338 110.186 32.0583L111.059 24.4172L106.797 23.9271L105.924 31.5681C105.81 32.7484 105.825 33.5301 105.97 33.9131C106.116 34.2858 106.476 34.521 107.051 34.6185C107.113 34.6256 107.141 34.655 107.135 34.7067C107.131 34.748 107.097 34.7651 107.035 34.758C106.756 34.7259 106.422 34.677 106.032 34.6111C105.64 34.5557 105.439 34.5273 105.429 34.5261L102.236 34.159C102.226 34.1578 102.024 34.1398 101.63 34.105C101.235 34.0805 100.898 34.0522 100.619 34.0201C100.557 34.013 100.529 33.9888 100.533 33.9474C100.539 33.8958 100.573 33.8735 100.635 33.8806C101.217 33.9162 101.621 33.769 101.848 33.4391C102.075 33.0988 102.266 32.3409 102.421 31.1653L102.981 26.2676C103.094 25.0976 103.073 24.3205 102.918 23.9363C102.773 23.5533 102.419 23.3136 101.854 23.2172C101.792 23.2101 101.763 23.1859 101.768 23.1445C101.774 23.0929 101.808 23.0706 101.87 23.0777C102.149 23.1098 102.483 23.1588 102.874 23.2246C103.265 23.2801 103.466 23.3084 103.476 23.3096L114.433 24.5697C114.444 24.5709 114.646 24.5889 115.039 24.6237C115.434 24.6482 115.771 24.6765 116.05 24.7086C116.112 24.7157 116.14 24.7451 116.134 24.7967C116.13 24.8381 116.096 24.8552 116.034 24.848C115.463 24.8137 115.058 24.966 114.82 25.3051C114.593 25.6454 114.402 26.3981 114.248 27.5633L113.688 32.4611C113.574 33.6414 113.59 34.423 113.734 34.8061C113.88 35.1788 114.241 35.4139 114.816 35.5114Z" fill="#B55A2B"/>
<path d="M126.897 38.3545C125.347 38.9366 123.649 38.9051 121.803 38.2601C119.958 37.615 118.612 36.5828 117.766 35.1635C116.934 33.7378 116.793 32.2401 117.345 30.6703C117.897 29.1006 118.943 28.0229 120.483 27.4374C122.027 26.842 123.726 26.8686 125.582 27.5171C127.437 28.1656 128.781 29.2027 129.614 30.6284C130.46 32.0477 130.606 33.5422 130.054 35.112C129.506 36.6719 128.453 37.7528 126.897 38.3545ZM122.343 38.1842C124.173 38.7468 125.521 37.5651 126.384 34.639C126.777 33.3332 126.936 31.973 126.86 30.5584C126.823 29.8182 126.644 29.1828 126.323 28.6522C126.016 28.1151 125.589 27.7621 125.042 27.593C124.515 27.4308 124 27.4216 123.498 27.5654C122.483 27.8497 121.645 29.0553 120.985 31.1823C120.606 32.4488 120.441 33.8122 120.489 35.2725C120.53 36.0028 120.711 36.6333 121.031 37.164C121.355 37.6848 121.792 38.0249 122.343 38.1842Z" fill="#B55A2B"/>
<path d="M139.698 46.8995L139.722 46.8596C139.544 47.1526 139.359 47.4661 139.167 47.8C138.784 48.4679 138.477 48.9928 138.244 49.3746C138.206 49.4368 138.17 49.4758 138.136 49.4916C138.102 49.5075 138.08 49.494 138.069 49.4512C138.068 49.4138 138.086 49.364 138.124 49.3018C138.633 48.4066 138.821 47.7181 138.689 47.2365C138.556 46.7548 137.998 46.1918 137.015 45.5473L131.464 42.1845C130.754 41.7908 130.185 41.5554 129.757 41.4785C129.332 41.4157 128.964 41.4905 128.652 41.7027C128.343 41.9291 127.996 42.3389 127.61 42.932C127.572 42.9941 127.532 43.0304 127.489 43.0409C127.455 43.0568 127.437 43.046 127.436 43.0086C127.434 42.9711 127.452 42.9214 127.49 42.8592C127.923 42.1488 128.244 41.632 128.453 41.3089C128.535 41.1757 128.621 41.0336 128.713 40.8827C128.809 40.746 128.881 40.6377 128.93 40.5577C128.987 40.4832 129.027 40.4282 129.049 40.3927L129.024 40.4326L130.345 41.2329C130.958 41.4462 131.867 40.6955 133.07 38.9807L135.171 35.9851L135.576 35.41C136.2 34.4262 136.491 33.7089 136.45 33.258C136.422 32.8036 136.07 32.3529 135.392 31.9059C135.348 31.879 135.322 31.8512 135.315 31.8227C135.308 31.7942 135.319 31.7764 135.347 31.7694C135.382 31.7536 135.421 31.7591 135.465 31.786C135.759 31.9639 136.158 32.218 136.663 32.5483C136.916 32.7135 137.158 32.8661 137.389 33.0062L143.646 36.7974C143.655 36.8028 143.831 36.9035 144.175 37.0994C144.524 37.2864 144.818 37.4527 145.058 37.5982C145.112 37.6305 145.125 37.6689 145.098 37.7133C145.076 37.7488 145.039 37.7504 144.985 37.718C144.48 37.4483 144.048 37.4176 143.689 37.626C143.34 37.8398 142.85 38.443 142.221 39.4356L138.217 46.0022L139.698 46.8995ZM130.705 41.4512L135.202 44.1753L140.643 35.2512L137.374 33.2707L135.538 35.8614L133.311 39.0353C132.963 39.5057 132.68 39.881 132.46 40.1614C132.246 40.4328 131.966 40.7129 131.619 41.0015C131.283 41.2724 130.979 41.4223 130.705 41.4512Z" fill="#B55A2B"/>
<path d="M148.393 49.4083L146.807 47.9528L146.183 48.629C145.591 49.3001 145.201 49.8454 145.012 50.2647C144.823 50.6841 144.783 51.0569 144.892 51.383C145.009 51.7162 145.294 52.1049 145.748 52.5491C145.794 52.5913 145.814 52.6309 145.808 52.6679C145.817 52.7043 145.803 52.7195 145.766 52.7137C145.729 52.7226 145.688 52.7059 145.642 52.6637C145.351 52.3965 144.959 52.0233 144.468 51.5439C144.222 51.3042 143.988 51.0824 143.766 50.8785L141.467 48.769C141.459 48.762 141.306 48.6287 141.008 48.3691C140.703 48.1172 140.447 47.8963 140.24 47.7065C140.194 47.6643 140.185 47.6279 140.213 47.5974C140.248 47.5592 140.289 47.5612 140.335 47.6033C140.785 47.9742 141.199 48.093 141.577 47.9598C141.962 47.8189 142.564 47.32 143.384 46.463L146.728 42.8413C147.51 41.9639 147.952 41.3246 148.053 40.9236C148.162 40.5296 148.017 40.1278 147.616 39.7181C147.57 39.6759 147.561 39.6396 147.59 39.609C147.625 39.5708 147.666 39.5728 147.712 39.615C147.918 39.8048 148.16 40.041 148.437 40.3235C148.722 40.5983 148.867 40.7393 148.875 40.7463L152.76 44.3113C153.963 45.4152 154.698 46.5202 154.965 47.6261C155.247 48.7315 155.049 49.6509 154.372 50.3844C153.687 51.1256 152.803 51.4083 151.72 51.2327C150.651 51.0712 149.543 50.463 148.393 49.4083ZM151.463 43.439L151.303 43.2914C150.81 43.6865 150.409 44.0522 150.098 44.3884L146.966 47.7809L147.46 48.2344C148.096 48.818 148.803 49.0717 149.581 48.9954C150.36 48.9191 151.056 48.5485 151.67 47.8838C152.269 47.2343 152.559 46.4911 152.539 45.6542C152.527 44.8243 152.168 44.0859 151.463 43.439Z" fill="#B55A2B"/>
<path d="M157.42 64.8774C155.823 64.4648 154.456 63.4674 153.319 61.8854C152.183 60.3034 151.676 58.6921 151.799 57.0514C151.936 55.4132 152.679 54.1125 154.029 53.1494C155.378 52.1863 156.848 51.9068 158.44 52.3111C160.04 52.7093 161.411 53.7036 162.553 55.2941C163.696 56.8845 164.198 58.4988 164.061 60.1371C163.939 61.7777 163.203 63.0795 161.853 64.0427C160.512 64.9998 159.035 65.278 157.42 64.8774ZM153.803 62.1322C154.974 63.6385 156.75 63.4466 159.13 61.5567C160.198 60.7176 161.107 59.7001 161.855 58.504C162.248 57.8796 162.466 57.2594 162.509 56.6436C162.566 56.0301 162.419 55.498 162.07 55.0472C161.733 54.6133 161.318 54.3111 160.826 54.1406C159.835 53.7913 158.461 54.2944 156.705 55.6499C155.67 56.4648 154.755 57.4812 153.958 58.6989C153.573 59.3174 153.36 59.9345 153.317 60.5504C153.283 61.1602 153.445 61.6875 153.803 62.1322Z" fill="#B55A2B"/>
<path d="M165.064 70.1487L165.464 71.0464C166.26 72.8325 166.649 74.3206 166.633 75.5107C166.63 76.706 166.248 77.4721 165.488 77.8088C163.681 78.6085 162.071 77.4218 160.657 74.2487L158.487 69.375C158.483 69.3655 158.395 69.1823 158.225 68.8255C158.045 68.4729 157.898 68.1684 157.784 67.9119C157.759 67.8549 157.765 67.818 157.803 67.8011C157.85 67.7801 157.887 67.7981 157.912 67.8551C158.178 68.3744 158.51 68.6481 158.91 68.676C159.319 68.6997 160.07 68.4811 161.162 68.0203L165.656 66.0315C166.722 65.5369 167.381 65.1256 167.634 64.7978C167.89 64.4795 167.917 64.0528 167.713 63.5176C167.687 63.4606 167.693 63.4237 167.732 63.4069C167.779 63.3858 167.816 63.4038 167.841 63.4608C167.955 63.7173 168.083 64.0303 168.225 64.3997C168.376 64.7649 168.454 64.9523 168.458 64.9618L169.913 68.1904L171.075 70.7982C171.295 71.2922 171.55 71.6855 171.839 71.9781C172.133 72.2802 172.415 72.4282 172.686 72.4222C172.793 72.4319 172.807 72.4651 172.73 72.522L168.063 76.0377C168.034 76.0504 168.012 76.0377 167.995 75.9997C167.982 75.9712 167.988 75.9459 168.012 75.9237C169.036 74.8224 169.696 73.5577 169.994 72.1295C170.297 70.6876 170.234 69.4869 169.807 68.5273L169.737 68.3706L169.723 68.3769L169.672 68.2629C169.159 68.3878 168.422 68.6629 167.461 69.088L165.064 70.1487ZM160.129 72.4867L160.224 72.7004C160.639 73.6315 161.168 74.2445 161.812 74.5397C162.455 74.8348 163.153 74.8161 163.904 74.4835C164.703 74.13 165.183 73.6104 165.345 72.9248C165.506 72.2392 165.382 71.4357 164.971 70.5141L164.851 70.2434L162.097 71.4619C161.089 71.908 160.433 72.2496 160.129 72.4867Z" fill="#B55A2B"/>
<path d="M166.102 93.7829C166.115 93.844 166.095 93.8798 166.044 93.8902C166.004 93.8985 165.977 93.8721 165.964 93.8109C165.908 93.5359 165.85 93.2027 165.791 92.8114C165.722 92.4222 165.686 92.2225 165.684 92.2123L165.038 89.0643C165.036 89.0541 164.99 88.8565 164.901 88.4714C164.801 88.0884 164.723 87.7594 164.666 87.4843C164.654 87.4232 164.668 87.3885 164.709 87.3802C164.76 87.3698 164.791 87.3952 164.804 87.4563C164.952 88.0206 165.217 88.3591 165.601 88.4718C165.996 88.5825 166.776 88.5296 167.942 88.3131L170.387 87.8144C170.302 87.3967 170.222 87.0361 170.149 86.7325L169.943 85.7239L169.751 84.7917C169.703 84.5044 169.628 84.1111 169.525 83.6119L167.079 84.1106C165.922 84.3679 165.184 84.6245 164.865 84.8806C164.556 85.1347 164.445 85.55 164.531 86.1268C164.544 86.1879 164.524 86.2237 164.473 86.2341C164.433 86.2424 164.406 86.216 164.394 86.1548C164.337 85.8798 164.279 85.5466 164.22 85.1553C164.151 84.7661 164.115 84.5664 164.113 84.5562L163.467 81.4082C163.465 81.398 163.419 81.2004 163.33 80.8153C163.23 80.4323 163.152 80.1033 163.095 79.8283C163.083 79.7671 163.097 79.7324 163.138 79.7241C163.189 79.7137 163.22 79.7391 163.233 79.8002C163.381 80.3645 163.646 80.703 164.031 80.8157C164.425 80.9264 165.205 80.8735 166.371 80.657L171.201 79.6721C172.348 79.4169 173.08 79.1562 173.397 78.8899C173.716 78.6338 173.834 78.2224 173.749 77.6559C173.737 77.5948 173.751 77.56 173.792 77.5517C173.843 77.5413 173.874 77.5667 173.887 77.6278C173.943 77.9029 174.001 78.2361 174.06 78.6274C174.129 79.0166 174.165 79.2163 174.167 79.2265L174.813 82.3745C174.815 82.3847 174.861 82.5823 174.951 82.9673C175.05 83.3503 175.129 83.6794 175.185 83.9544C175.198 84.0155 175.178 84.0513 175.127 84.0617C175.087 84.07 175.06 84.0436 175.047 83.9825C174.902 83.4284 174.631 83.0909 174.235 82.9701C173.84 82.8594 173.065 82.9113 171.91 83.1257L169.739 83.5683L169.959 84.638C170.031 84.9416 170.108 85.2869 170.187 85.674C170.264 86.051 170.328 86.3882 170.379 86.6857L170.601 87.7707L172.772 87.3282C173.919 87.073 174.651 86.8123 174.968 86.546C175.287 86.2899 175.405 85.8785 175.32 85.312C175.308 85.2508 175.322 85.2161 175.363 85.2078C175.414 85.1974 175.445 85.2228 175.458 85.2839C175.514 85.559 175.572 85.8922 175.631 86.2835C175.7 86.6727 175.736 86.8724 175.738 86.8826L176.384 90.0306C176.386 90.0408 176.432 90.2384 176.522 90.6234C176.621 91.0064 176.7 91.3354 176.756 91.6105C176.769 91.6716 176.749 91.7074 176.698 91.7178C176.658 91.7261 176.631 91.6997 176.618 91.6386C176.473 91.0845 176.202 90.747 175.806 90.6262C175.411 90.5155 174.636 90.5674 173.481 90.7818L168.65 91.7667C167.493 92.024 166.755 92.2806 166.436 92.5367C166.127 92.7908 166.016 93.2061 166.102 93.7829Z" fill="#B55A2B"/>
<path d="M170.461 106.803C170.512 106.824 170.522 106.856 170.49 106.897L170.459 106.912L165.004 105.607C164.911 105.584 164.911 105.548 165.006 105.497C165.553 105.069 165.834 104.46 165.847 103.67L165.966 96.3234C165.966 96.313 165.965 96.1101 165.961 95.7148C165.946 95.3193 165.941 94.9812 165.946 94.7005C165.947 94.6381 165.968 94.6072 166.01 94.6079C166.062 94.6087 166.087 94.6403 166.086 94.7027C166.108 95.2856 166.294 95.6734 166.645 95.8663C167.006 96.0594 167.779 96.1759 168.964 96.2159L173.893 96.2956C175.068 96.2939 175.839 96.1971 176.206 96.0054C176.573 95.8242 176.777 95.4478 176.818 94.8764C176.819 94.814 176.84 94.7831 176.882 94.7838C176.934 94.7847 176.959 94.8163 176.958 94.8787C176.953 95.1594 176.938 95.4972 176.91 95.892C176.894 96.287 176.885 96.4897 176.885 96.5001L176.783 102.739C176.774 103.28 176.84 103.744 176.979 104.131C177.118 104.529 177.312 104.781 177.56 104.889C177.652 104.943 177.652 104.979 177.558 104.998L171.843 106.232C171.812 106.232 171.796 106.211 171.797 106.169C171.798 106.138 171.814 106.117 171.845 106.107C173.238 105.537 174.37 104.666 175.242 103.494C176.125 102.313 176.574 101.196 176.591 100.146L176.596 99.8655L171.495 99.7829L171.483 100.532C171.471 101.301 171.649 101.881 172.017 102.272C172.384 102.684 172.792 102.893 173.239 102.9C173.301 102.901 173.332 102.923 173.332 102.964C173.331 103.006 173.299 103.026 173.237 103.025L169.4 102.963C169.369 102.963 169.343 102.952 169.322 102.931C169.312 102.91 169.313 102.889 169.323 102.868C169.344 102.848 169.371 102.838 169.402 102.838C169.911 102.846 170.341 102.645 170.691 102.235C171.051 101.835 171.237 101.266 171.249 100.528L171.262 99.7791L166.145 99.6963L166.141 99.9615C166.129 100.721 166.428 101.833 167.038 103.299C167.359 104.033 167.816 104.726 168.409 105.381C169.012 106.036 169.696 106.509 170.461 106.803Z" fill="#B55A2B"/>
<path d="M167.896 120.12C167.943 120.151 167.946 120.183 167.908 120.218L167.874 120.227L162.751 117.946C162.663 117.907 162.671 117.872 162.773 117.839C163.39 117.519 163.778 116.971 163.936 116.197L165.405 108.998C165.407 108.988 165.443 108.788 165.511 108.399C165.57 108.007 165.628 107.674 165.684 107.399C165.696 107.338 165.723 107.311 165.764 107.32C165.815 107.33 165.834 107.366 165.821 107.427C165.735 108.004 165.847 108.419 166.156 108.673C166.475 108.928 167.214 109.184 168.372 109.44L173.203 110.42C174.359 110.633 175.135 110.679 175.531 110.558C175.925 110.447 176.195 110.114 176.34 109.56C176.352 109.499 176.379 109.472 176.42 109.481C176.471 109.491 176.49 109.527 176.478 109.588C176.421 109.863 176.344 110.192 176.244 110.575C176.155 110.96 176.109 111.158 176.107 111.168L174.859 117.282C174.751 117.812 174.73 118.28 174.796 118.686C174.859 119.102 175.003 119.386 175.227 119.538C175.308 119.607 175.301 119.643 175.205 119.645L169.36 119.812C169.329 119.806 169.318 119.782 169.326 119.742C169.333 119.711 169.352 119.694 169.385 119.69C170.859 119.384 172.132 118.735 173.205 117.743C174.29 116.742 174.938 115.728 175.148 114.698L175.204 114.423L170.205 113.409L170.055 114.143C169.901 114.897 169.969 115.5 170.259 115.951C170.545 116.423 170.907 116.703 171.345 116.792C171.406 116.805 171.433 116.831 171.424 116.872C171.416 116.913 171.381 116.927 171.32 116.915L167.559 116.152C167.529 116.146 167.505 116.13 167.489 116.106C167.483 116.083 167.487 116.063 167.501 116.045C167.526 116.028 167.554 116.023 167.584 116.03C168.084 116.131 168.543 116.012 168.963 115.672C169.39 115.345 169.678 114.82 169.826 114.097L169.975 113.363L164.961 112.346L164.908 112.606C164.756 113.35 164.845 114.498 165.176 116.05C165.356 116.83 165.678 117.595 166.14 118.347C166.612 119.101 167.198 119.692 167.896 120.12Z" fill="#B55A2B"/>
<path d="M162.875 130.755L165.19 125.536L165.404 125.63L163.089 130.85L162.875 130.755Z" fill="#B55A2B"/>
<path d="M148.295 145.432C148.257 145.482 148.218 145.491 148.176 145.46C148.143 145.435 148.145 145.398 148.182 145.348C148.351 145.124 148.563 144.86 148.817 144.557C149.063 144.247 149.189 144.088 149.195 144.08L151.127 141.512C151.133 141.503 151.251 141.338 151.48 141.016C151.701 140.688 151.896 140.412 152.065 140.187C152.103 140.137 152.138 140.125 152.171 140.15C152.213 140.181 152.215 140.222 152.177 140.271C151.852 140.755 151.775 141.178 151.946 141.539C152.125 141.907 152.683 142.454 153.62 143.181L159.779 147.786L162.359 144.358L156.199 139.753C155.237 139.059 154.554 138.678 154.15 138.61C153.754 138.548 153.369 138.74 152.993 139.187C152.956 139.237 152.916 139.246 152.875 139.215C152.841 139.19 152.843 139.153 152.881 139.103C153.05 138.878 153.261 138.615 153.516 138.311C153.762 138.002 153.888 137.843 153.894 137.834L155.826 135.266C155.832 135.258 155.95 135.093 156.179 134.771C156.4 134.443 156.595 134.166 156.764 133.942C156.801 133.892 156.837 133.88 156.87 133.904C156.912 133.936 156.914 133.976 156.876 134.026C156.551 134.51 156.474 134.933 156.645 135.294C156.824 135.662 157.382 136.209 158.319 136.935L162.267 139.887C163.22 140.574 163.902 140.948 164.313 141.008C164.717 141.076 165.103 140.891 165.472 140.453C165.51 140.403 165.545 140.39 165.578 140.415C165.62 140.446 165.622 140.487 165.585 140.537C165.416 140.761 165.204 141.025 164.95 141.328C164.704 141.638 164.578 141.797 164.572 141.805L157.941 150.619C157.935 150.627 157.817 150.792 157.588 151.114C157.367 151.442 157.172 151.719 157.003 151.943C156.966 151.993 156.926 152.002 156.884 151.971C156.851 151.946 156.853 151.909 156.891 151.859C157.21 151.383 157.283 150.957 157.11 150.582C156.931 150.214 156.377 149.67 155.448 148.95L151.5 145.998C150.538 145.305 149.855 144.924 149.451 144.855C149.055 144.793 148.67 144.986 148.295 145.432Z" fill="#B55A2B"/>
<path d="M139.672 154.349C139.946 152.72 140.828 151.272 142.316 150.003C143.804 148.735 145.376 148.091 147.032 148.073C148.687 148.07 150.057 148.7 151.14 149.963C152.224 151.226 152.632 152.668 152.365 154.29C152.105 155.919 151.227 157.371 149.731 158.647C148.235 159.922 146.66 160.561 145.005 160.565C143.348 160.583 141.978 159.961 140.895 158.698C139.818 157.443 139.41 155.993 139.672 154.349ZM142.11 150.507C140.701 151.803 141.048 153.558 143.151 155.769C144.086 156.763 145.186 157.581 146.451 158.225C147.111 158.564 147.752 158.728 148.374 158.718C148.994 158.722 149.515 158.53 149.937 158.144C150.343 157.77 150.61 157.331 150.738 156.825C151.002 155.807 150.378 154.481 148.865 152.845C147.958 151.883 146.858 151.057 145.568 150.368C144.914 150.037 144.276 149.876 143.655 149.887C143.04 149.905 142.525 150.112 142.11 150.507Z" fill="#B55A2B"/>
<path d="M125.756 160.939L125.778 160.98C125.615 160.678 125.438 160.36 125.246 160.027C124.862 159.359 124.563 158.829 124.351 158.435C124.316 158.371 124.301 158.321 124.304 158.283C124.308 158.246 124.331 158.234 124.373 158.247C124.406 158.264 124.44 158.305 124.475 158.369C124.991 159.26 125.492 159.771 125.975 159.901C126.459 160.03 127.229 159.836 128.284 159.316L134.002 156.247C134.702 155.836 135.194 155.466 135.477 155.137C135.746 154.804 135.868 154.449 135.842 154.073C135.802 153.693 135.623 153.187 135.306 152.555C135.271 152.491 135.26 152.438 135.273 152.396C135.276 152.359 135.295 152.349 135.328 152.366C135.361 152.384 135.395 152.425 135.429 152.489C135.825 153.221 136.109 153.759 136.283 154.102C136.357 154.24 136.436 154.386 136.52 154.541C136.59 154.693 136.647 154.81 136.692 154.892C136.727 154.979 136.755 155.041 136.775 155.078L136.752 155.037L135.392 155.767C134.897 156.186 135.087 157.347 135.961 159.25L137.49 162.573L137.782 163.213C138.317 164.247 138.79 164.861 139.202 165.053C139.609 165.26 140.177 165.185 140.907 164.829C140.952 164.804 140.989 164.796 141.018 164.804C141.046 164.813 141.056 164.831 141.047 164.859C141.044 164.897 141.019 164.928 140.973 164.952C140.671 165.114 140.249 165.329 139.708 165.596C139.437 165.73 139.182 165.86 138.944 165.988L132.498 169.448C132.489 169.453 132.312 169.554 131.969 169.75C131.631 169.955 131.338 170.124 131.091 170.257C131.036 170.286 130.996 170.278 130.971 170.232C130.951 170.196 130.969 170.163 131.024 170.133C131.513 169.835 131.758 169.479 131.759 169.066C131.751 168.657 131.477 167.931 130.937 166.887L127.282 160.12L125.756 160.939ZM135.02 155.966L130.388 158.453L135.356 167.649L138.723 165.841L137.411 162.952L135.792 159.43C135.561 158.893 135.38 158.459 135.248 158.128C135.122 157.806 135.021 157.423 134.947 156.979C134.883 156.554 134.907 156.216 135.02 155.966Z" fill="#B55A2B"/>
<path d="M119.174 167.138L121.235 166.516L120.968 165.636C120.688 164.786 120.416 164.173 120.149 163.797C119.883 163.421 119.581 163.197 119.244 163.125C118.897 163.056 118.417 163.103 117.804 163.266C117.744 163.284 117.7 163.281 117.671 163.257C117.635 163.246 117.629 163.226 117.652 163.197C117.663 163.162 117.699 163.135 117.758 163.117C118.137 163.002 118.658 162.856 119.321 162.678C119.652 162.589 119.963 162.501 120.251 162.414L123.238 161.513C123.248 161.51 123.441 161.446 123.816 161.322C124.189 161.188 124.509 161.081 124.778 161C124.838 160.982 124.874 160.993 124.886 161.033C124.901 161.082 124.879 161.116 124.819 161.134C124.27 161.332 123.958 161.627 123.881 162.02C123.808 162.422 123.933 163.194 124.257 164.334L125.689 169.051C126.05 170.17 126.378 170.875 126.673 171.166C126.958 171.46 127.379 171.54 127.935 171.405C127.995 171.387 128.031 171.397 128.043 171.437C128.058 171.487 128.036 171.521 127.976 171.539C127.707 171.62 127.381 171.708 126.996 171.802C126.615 171.906 126.419 171.96 126.409 171.963L121.361 173.485C119.798 173.956 118.471 174.025 117.381 173.691C116.283 173.37 115.59 172.732 115.3 171.777C115.007 170.811 115.211 169.908 115.912 169.067C116.593 168.231 117.681 167.588 119.174 167.138ZM122.772 172.815L122.981 172.752C122.889 172.128 122.777 171.597 122.644 171.159L121.303 166.74L120.661 166.934C119.835 167.183 119.257 167.661 118.928 168.369C118.599 169.076 118.566 169.863 118.829 170.729C119.086 171.575 119.581 172.202 120.313 172.611C121.036 173.023 121.856 173.091 122.772 172.815Z" fill="#B55A2B"/>
<path d="M101.148 167.158C102.321 165.983 103.885 165.308 105.841 165.133C107.796 164.957 109.456 165.343 110.82 166.29C112.176 167.248 112.928 168.559 113.078 170.223C113.229 171.887 112.722 173.306 111.56 174.48C110.398 175.664 108.834 176.344 106.869 176.521C104.903 176.697 103.243 176.306 101.888 175.348C100.523 174.401 99.7655 173.095 99.6153 171.431C99.466 169.778 99.977 168.353 101.148 167.158ZM105.38 165.426C103.472 165.67 102.734 167.309 103.166 170.342C103.351 171.699 103.773 173.008 104.432 174.27C104.775 174.931 105.204 175.438 105.718 175.79C106.222 176.154 106.76 176.3 107.33 176.228C107.879 176.157 108.353 175.952 108.753 175.612C109.561 174.932 109.824 173.482 109.54 171.264C109.358 169.949 108.94 168.634 108.287 167.319C107.945 166.669 107.517 166.167 107.003 165.815C106.49 165.473 105.949 165.343 105.38 165.426Z" fill="#B55A2B"/>
<path d="M92.7719 170.881L91.7955 170.769C89.8531 170.546 88.3732 170.125 87.356 169.506C86.3272 168.895 85.8605 168.177 85.956 167.351C86.1828 165.388 88.0217 164.604 91.4726 165L96.773 165.609C96.7833 165.61 96.9854 165.628 97.3792 165.663C97.7742 165.687 98.1112 165.716 98.3902 165.748C98.4522 165.755 98.4808 165.779 98.476 165.82C98.47 165.872 98.4361 165.894 98.3741 165.887C97.7919 165.852 97.3875 165.999 97.161 166.329C96.9332 166.669 96.7409 167.427 96.5842 168.602L96.0202 173.484C95.906 174.654 95.9262 175.431 96.0807 175.815C96.2249 176.198 96.5793 176.437 97.144 176.533C97.206 176.541 97.2346 176.565 97.2299 176.606C97.2239 176.658 97.1899 176.68 97.1279 176.673C96.849 176.641 96.5144 176.592 96.1241 176.526C95.7327 176.471 95.5318 176.443 95.5215 176.441L92.0016 176.053L89.1654 175.727C88.6282 175.666 88.16 175.685 87.761 175.786C87.3517 175.885 87.081 176.053 86.9491 176.289C86.8867 176.376 86.8505 176.372 86.8406 176.277L86.1768 170.469C86.1803 170.438 86.2028 170.425 86.2441 170.43C86.2751 170.433 86.294 170.451 86.3007 170.484C86.7309 171.925 87.486 173.137 88.566 174.12C89.6551 175.114 90.7214 175.67 91.765 175.79L91.9355 175.81L91.9373 175.794L92.0612 175.809C92.2139 175.303 92.3505 174.528 92.4711 173.485L92.7719 170.881ZM93.259 165.441L93.0266 165.414C92.014 165.298 91.2174 165.442 90.6368 165.847C90.0561 166.251 89.7186 166.861 89.6244 167.678C89.5241 168.545 89.7285 169.223 90.2374 169.711C90.7464 170.198 91.5021 170.5 92.5043 170.615L92.7987 170.649L93.1443 167.658C93.2708 166.563 93.3091 165.824 93.259 165.441Z" fill="#B55A2B"/>
<path d="M71.8103 159.885C71.751 159.865 71.7297 159.83 71.7464 159.781C71.7598 159.741 71.7961 159.731 71.8554 159.751C72.1222 159.841 72.4401 159.959 72.809 160.104C73.1812 160.24 73.3723 160.31 73.3822 160.313L76.436 161.339C76.4459 161.342 76.6403 161.402 77.0192 161.518C77.4015 161.624 77.726 161.722 77.9928 161.812C78.0521 161.832 78.0751 161.862 78.0618 161.901C78.0451 161.951 78.0071 161.965 77.9478 161.945C77.3843 161.789 76.9569 161.849 76.6655 162.125C76.3708 162.411 76.0234 163.114 75.6231 164.233L74.8222 166.604C75.2274 166.74 75.5799 166.853 75.8797 166.942L76.8581 167.271L77.7625 167.574C78.0358 167.677 78.4147 167.81 78.899 167.973L79.6999 165.602C80.0606 164.469 80.2104 163.7 80.1493 163.295C80.0849 162.899 79.781 162.594 79.2375 162.378C79.1782 162.359 79.1569 162.324 79.1736 162.275C79.187 162.235 79.2233 162.225 79.2826 162.245C79.5494 162.335 79.8673 162.452 80.2362 162.598C80.6084 162.734 80.7995 162.804 80.8093 162.807L83.8632 163.833C83.8731 163.836 84.0675 163.896 84.4464 164.012C84.8286 164.118 85.1532 164.216 85.42 164.306C85.4793 164.326 85.5023 164.356 85.4889 164.395C85.4723 164.445 85.4343 164.459 85.375 164.439C84.8115 164.283 84.3841 164.343 84.0927 164.619C83.798 164.905 83.4505 165.608 83.0503 166.727L81.4684 171.409C81.111 172.531 80.9678 173.297 81.0388 173.706C81.0999 174.111 81.3972 174.42 81.9308 174.632C81.9901 174.652 82.0131 174.682 81.9997 174.721C81.983 174.771 81.945 174.786 81.8857 174.766C81.6189 174.676 81.301 174.558 80.9321 174.412C80.5599 174.276 80.3689 174.207 80.359 174.203L77.3051 173.178C77.2952 173.175 77.1008 173.115 76.7219 172.999C76.3397 172.892 76.0151 172.794 75.7483 172.705C75.689 172.685 75.6677 172.65 75.6844 172.601C75.6977 172.561 75.7341 172.551 75.7934 172.571C76.3469 172.724 76.776 172.659 77.0806 172.377C77.3753 172.091 77.7211 171.393 78.118 170.284L78.8289 168.18L77.7911 167.831C77.4913 167.742 77.1536 167.634 76.7781 167.508C76.4124 167.385 76.0879 167.271 75.8046 167.164L74.7521 166.811L74.0412 168.915C73.6838 170.037 73.5407 170.803 73.6116 171.212C73.6727 171.617 73.97 171.926 74.5036 172.138C74.5629 172.158 74.5859 172.188 74.5725 172.227C74.5558 172.277 74.5178 172.292 74.4585 172.272C74.1917 172.182 73.8738 172.064 73.505 171.918C73.1327 171.782 72.9417 171.713 72.9318 171.709L69.8779 170.684C69.868 170.681 69.6736 170.621 69.2947 170.505C68.9125 170.398 68.588 170.3 68.3211 170.211C68.2618 170.191 68.2405 170.156 68.2572 170.107C68.2705 170.067 68.3069 170.058 68.3662 170.077C68.9198 170.23 69.3488 170.165 69.6534 169.883C69.9481 169.597 70.2939 168.899 70.6908 167.79L72.2727 163.108C72.6334 161.976 72.7832 161.206 72.7221 160.801C72.6577 160.406 72.3538 160.1 71.8103 159.885Z" fill="#B55A2B"/>
<path d="M58.273 157.005C58.228 157.038 58.1957 157.031 58.1761 156.983L58.179 156.948L62.0801 152.874C62.1468 152.804 62.1782 152.823 62.1741 152.931C62.2682 153.622 62.6554 154.173 63.3358 154.583L69.66 158.395C69.6689 158.4 69.8462 158.501 70.1918 158.697C70.5428 158.884 70.8391 159.051 71.0808 159.196C71.1345 159.229 71.1505 159.263 71.1289 159.298C71.1018 159.343 71.0613 159.349 71.0076 159.317C70.4901 159.042 70.0586 159.007 69.7132 159.214C69.3623 159.43 68.869 160.041 68.2332 161.049L65.6639 165.285C65.0693 166.306 64.7622 167.024 64.7425 167.439C64.714 167.849 64.9377 168.216 65.4138 168.539C65.4675 168.572 65.4835 168.606 65.4618 168.642C65.4347 168.686 65.3943 168.692 65.3406 168.66C65.0989 168.514 64.8134 168.33 64.4841 168.107C64.1493 167.893 63.9775 167.783 63.9685 167.778L58.5977 164.541C58.1322 164.26 57.6959 164.083 57.2888 164.008C56.8728 163.928 56.5549 163.968 56.3353 164.129C56.2418 164.182 56.2105 164.164 56.2413 164.072L58.0677 158.492C58.084 158.465 58.11 158.462 58.1458 158.484C58.1727 158.5 58.1824 158.524 58.1751 158.556C57.9644 160.053 58.1471 161.475 58.7231 162.822C59.3026 164.185 60.0444 165.138 60.9485 165.683L61.1902 165.829L63.8489 161.446L63.2044 161.057C62.542 160.658 61.9476 160.519 61.4213 160.641C60.8771 160.753 60.4884 161 60.2553 161.385C60.2228 161.438 60.1886 161.454 60.1528 161.433C60.117 161.411 60.1154 161.373 60.1479 161.32L62.148 158.022C62.1643 157.995 62.1868 157.979 62.2155 157.971C62.2389 157.973 62.2568 157.984 62.2693 158.004C62.2763 158.032 62.2717 158.06 62.2555 158.087C61.9899 158.525 61.9467 158.999 62.1258 159.51C62.2907 160.024 62.6908 160.473 63.3264 160.856L63.9709 161.244L66.6377 156.848L66.4095 156.71C65.756 156.316 64.6374 156.014 63.0535 155.804C62.2535 155.712 61.4187 155.758 60.5494 155.942C59.6746 156.135 58.9158 156.489 58.273 157.005Z" fill="#B55A2B"/>
<path d="M48.2147 147.913C48.1644 147.938 48.1343 147.924 48.1244 147.873L48.1338 147.84L52.7104 144.608C52.7887 144.552 52.8156 144.577 52.7913 144.681C52.7521 145.372 53.0253 145.983 53.611 146.511L59.0559 151.426C59.0636 151.433 59.2174 151.564 59.5172 151.821C59.8241 152.07 60.0815 152.288 60.2896 152.476C60.3358 152.518 60.345 152.554 60.3171 152.585C60.2822 152.623 60.2416 152.622 60.1954 152.58C59.7428 152.214 59.3286 152.098 58.9525 152.234C58.5695 152.378 57.9724 152.881 57.1613 153.743L53.8528 157.386C53.0794 158.268 52.6438 158.91 52.546 159.311C52.4404 159.706 52.5891 160.105 52.992 160.511C53.0382 160.553 53.0474 160.589 53.0195 160.62C52.9846 160.658 52.944 160.657 52.8978 160.615C52.6897 160.427 52.4462 160.193 52.1673 159.914C51.8814 159.642 51.7346 159.502 51.7269 159.495L47.1028 155.322C46.702 154.96 46.3102 154.704 45.9274 154.554C45.5368 154.398 45.2192 154.377 44.9746 154.492C44.8732 154.526 44.8463 154.502 44.8937 154.418L47.7326 149.324C47.7535 149.301 47.7794 149.303 47.8103 149.331C47.8334 149.352 47.8383 149.377 47.8251 149.407C47.336 150.826 47.2446 152.247 47.5508 153.67C47.8578 155.108 48.4005 156.178 49.1789 156.881L49.3869 157.068L52.8106 153.299L52.2557 152.798C51.6854 152.283 51.1321 152.036 50.5956 152.055C50.0438 152.06 49.6178 152.228 49.3176 152.559C49.2758 152.605 49.2394 152.614 49.2086 152.586C49.1778 152.558 49.1833 152.521 49.2252 152.475L51.8008 149.639C51.8217 149.616 51.8469 149.604 51.8763 149.603C51.8986 149.609 51.9141 149.623 51.9225 149.644C51.924 149.674 51.9142 149.7 51.8933 149.723C51.5512 150.099 51.4192 150.554 51.4971 151.085C51.5604 151.618 51.8656 152.131 52.4128 152.625L52.9677 153.126L56.4018 149.345L56.2053 149.168C55.6427 148.66 54.609 148.153 53.1043 147.648C52.3415 147.407 51.5187 147.294 50.6361 147.308C49.7464 147.331 48.9393 147.532 48.2147 147.913Z" fill="#B55A2B"/>
<path d="M41.5898 138.184L44.9082 142.804L44.7185 142.939L41.4 138.32L41.5898 138.184Z" fill="#B55A2B"/>
<path d="M36.275 118.203C36.2513 118.145 36.2634 118.106 36.3116 118.087C36.3501 118.071 36.3812 118.092 36.405 118.15C36.5118 118.409 36.6309 118.726 36.762 119.099C36.9029 119.468 36.9752 119.658 36.9792 119.668L38.2024 122.639C38.2064 122.649 38.2884 122.834 38.4484 123.196C38.6181 123.554 38.7564 123.862 38.8633 124.122C38.887 124.18 38.8796 124.216 38.8411 124.232C38.793 124.252 38.7571 124.233 38.7333 124.175C38.4828 123.648 38.1582 123.365 37.7597 123.326C37.3515 123.291 36.5948 123.488 35.4895 123.917L28.3712 126.829L30.0042 130.796L37.1225 127.885C38.2119 127.416 38.8894 127.027 39.1551 126.716C39.4111 126.409 39.4427 125.98 39.2499 125.43C39.2262 125.372 39.2384 125.334 39.2865 125.314C39.325 125.298 39.3561 125.319 39.3799 125.377C39.4868 125.637 39.6058 125.953 39.737 126.326C39.8778 126.696 39.9501 126.885 39.9541 126.895L41.1773 129.867C41.1813 129.876 41.2633 130.062 41.4233 130.423C41.593 130.781 41.7313 131.089 41.8382 131.349C41.8619 131.407 41.8546 131.444 41.8161 131.459C41.7679 131.479 41.732 131.46 41.7082 131.402C41.4577 130.875 41.1331 130.592 40.7346 130.553C40.3264 130.518 39.5697 130.715 38.4645 131.145L33.9018 133.011C32.822 133.475 32.1513 133.868 31.8896 134.188C31.6239 134.499 31.5855 134.925 31.7744 135.466C31.7981 135.523 31.7907 135.56 31.7522 135.576C31.7041 135.596 31.6682 135.577 31.6444 135.519C31.5375 135.259 31.4185 134.943 31.2873 134.569C31.1465 134.2 31.0742 134.01 31.0702 134.001L26.8721 123.802C26.8681 123.792 26.7861 123.607 26.6261 123.245C26.4564 122.888 26.3181 122.579 26.2112 122.319C26.1875 122.262 26.1996 122.223 26.2478 122.203C26.2863 122.187 26.3174 122.208 26.3412 122.266C26.5878 122.783 26.9171 123.064 27.3292 123.109C27.7374 123.145 28.4893 122.949 29.5849 122.524L34.1476 120.657C35.237 120.189 35.9145 119.8 36.1802 119.489C36.4362 119.182 36.4678 118.753 36.275 118.203Z" fill="#B55A2B"/>
<path d="M32.9561 106.26C34.2129 107.337 35.0034 108.839 35.3278 110.767C35.6522 112.695 35.3964 114.372 34.5607 115.798C33.7129 117.216 32.4684 118.062 30.8272 118.336C29.1859 118.611 27.7378 118.215 26.4828 117.149C25.2175 116.084 24.4218 114.583 24.0957 112.645C23.7696 110.706 24.0304 109.028 24.8782 107.611C25.714 106.185 26.9525 105.334 28.5937 105.06C30.2247 104.787 31.6788 105.187 32.9561 106.26ZM35.0014 110.331C34.6121 108.456 32.9277 107.847 29.9481 108.503C28.6147 108.789 27.3466 109.307 26.1439 110.056C25.5134 110.446 25.043 110.91 24.7326 111.447C24.4102 111.975 24.3067 112.52 24.4221 113.08C24.534 113.62 24.7741 114.076 25.1423 114.447C25.8805 115.198 27.3402 115.35 29.5216 114.901C30.8139 114.622 32.088 114.108 33.3437 113.36C33.9639 112.972 34.4292 112.509 34.7396 111.972C35.0398 111.437 35.127 110.89 35.0014 110.331Z" fill="#B55A2B"/>
<path d="M34.2733 90.9685L34.2265 90.9667C34.5694 90.9802 34.9334 90.9893 35.3183 90.9941C36.0881 91.0036 36.6965 91.0171 37.1433 91.0347C37.2161 91.0376 37.2676 91.05 37.2979 91.072C37.3283 91.0941 37.3273 91.12 37.2948 91.15C37.2628 91.1695 37.2105 91.1779 37.1377 91.175C36.1077 91.1657 35.4139 91.3361 35.0565 91.6863C34.699 92.0365 34.4761 92.7979 34.3877 93.9705L34.129 100.455C34.1279 101.267 34.1972 101.878 34.3369 102.29C34.4874 102.691 34.731 102.977 35.0677 103.146C35.4153 103.305 35.9419 103.409 36.6478 103.458C36.7205 103.461 36.7718 103.479 36.8018 103.511C36.8321 103.533 36.8313 103.554 36.7993 103.573C36.7673 103.593 36.7149 103.601 36.6422 103.598C35.8108 103.566 35.2031 103.536 34.819 103.511C34.6631 103.505 34.4968 103.498 34.3202 103.491C34.1543 103.474 34.0246 103.464 33.9311 103.46C33.838 103.446 33.7707 103.438 33.7291 103.437L33.7759 103.439L33.8374 101.895C33.7276 101.256 32.631 100.828 30.5476 100.611L26.9094 100.233L26.2098 100.159C25.0467 100.092 24.2779 100.187 23.9034 100.442C23.519 100.688 23.295 101.215 23.2315 102.024C23.2294 102.076 23.2175 102.112 23.1959 102.132C23.1743 102.152 23.1535 102.151 23.1336 102.129C23.1032 102.107 23.0891 102.07 23.0912 102.019C23.1048 101.676 23.1341 101.203 23.1789 100.601C23.2013 100.3 23.2179 100.015 23.2287 99.7446L23.5203 92.434C23.5207 92.4236 23.5236 92.2208 23.529 91.8255C23.5239 91.4298 23.527 91.0916 23.5382 90.811C23.5407 90.7487 23.5679 90.7185 23.6199 90.7206C23.6615 90.7222 23.681 90.7542 23.6785 90.8166C23.6869 91.3893 23.869 91.7816 24.2248 91.9934C24.5811 92.1948 25.346 92.329 26.5194 92.396L34.2043 92.6987L34.2733 90.9685ZM33.8542 101.475L34.0637 96.2215L23.6198 95.8101L23.4675 99.6291L26.6231 99.972L30.479 100.374C31.0589 100.449 31.5246 100.514 31.8763 100.569C32.2176 100.624 32.5984 100.733 33.0186 100.895C33.4181 101.057 33.6966 101.25 33.8542 101.475Z" fill="#B55A2B"/>
<path d="M32.3183 82.1882L31.8001 84.2761L32.6931 84.4963C33.5658 84.6902 34.2316 84.7687 34.6904 84.7321C35.1492 84.6954 35.4956 84.5507 35.7297 84.298C35.9662 84.0353 36.1709 83.5987 36.3438 82.9884C36.3588 82.9279 36.384 82.8913 36.4192 82.8786C36.4469 82.8533 36.4671 82.8583 36.4798 82.8935C36.5051 82.9212 36.5102 82.9653 36.4952 83.0258C36.4 83.4091 36.2598 83.931 36.0744 84.5918C35.9817 84.9221 35.899 85.2335 35.8264 85.526L35.0754 88.5519C35.0729 88.562 35.0291 88.7599 34.9441 89.1457C34.8691 89.5339 34.7979 89.8642 34.7303 90.1365C34.7152 90.197 34.6876 90.2223 34.6472 90.2124C34.5967 90.1999 34.579 90.1635 34.5941 90.1029C34.704 89.5306 34.6099 89.1114 34.3119 88.8452C34.0039 88.5766 33.2772 88.2903 32.132 87.9865L27.3494 86.8068C26.2042 86.5458 25.4313 86.4675 25.0306 86.5721C24.6324 86.6665 24.3493 86.9874 24.1814 87.5347C24.1663 87.5952 24.1386 87.6205 24.0983 87.6105C24.0478 87.5981 24.0301 87.5616 24.0451 87.5011C24.1127 87.2287 24.2042 86.9034 24.3195 86.5251C24.4247 86.1443 24.4786 85.9489 24.4811 85.9388L25.7503 80.8251C26.1433 79.2416 26.7615 78.0668 27.6048 77.3008C28.4405 76.5222 29.3426 76.2523 30.3113 76.4912C31.29 76.7326 31.9618 77.3693 32.3267 78.4012C32.6966 79.413 32.6938 80.6753 32.3183 82.1882ZM25.6056 82.3789L25.553 82.5907C26.1359 82.8308 26.6493 83.0056 27.0932 83.1151L31.5731 84.2201L31.7346 83.5695C31.9423 82.7324 31.8263 81.992 31.3864 81.3483C30.9466 80.7046 30.2877 80.2745 29.4099 80.058C28.5523 79.8465 27.7608 79.9509 27.0354 80.3714C26.3125 80.7818 25.8359 81.451 25.6056 82.3789Z" fill="#B55A2B"/>
<path d="M41.5005 66.8145C41.9088 68.4108 41.6915 70.0882 40.8486 71.8469C40.0057 73.6055 38.8332 74.828 37.3309 75.5143C35.8238 76.1867 34.321 76.1661 32.8225 75.4524C31.324 74.7387 30.3684 73.5884 29.9556 72.0015C29.5335 70.4102 29.7461 68.7305 30.5935 66.9625C31.4408 65.1945 32.6181 63.9743 34.1252 63.3018C35.6275 62.6156 37.1278 62.6293 38.6263 63.343C40.1154 64.0522 41.0735 65.2094 41.5005 66.8145ZM40.8323 71.3048C41.5917 69.5524 40.5658 68.0928 37.7544 66.9262C36.5007 66.398 35.1672 66.0961 33.754 66.0205C33.0148 65.9787 32.3642 66.0881 31.8021 66.3489C31.235 66.5959 30.8376 66.9811 30.6098 67.5046C30.3909 68.0093 30.3253 68.5181 30.4131 69.031C30.5842 70.0661 31.6897 71.0236 33.7298 71.9033C34.9461 72.4136 36.282 72.7225 37.7376 72.8297C38.4674 72.8671 39.1133 72.7554 39.6755 72.4946C40.2282 72.2293 40.6138 71.8327 40.8323 71.3048Z" fill="#B55A2B"/>
<path d="M42.4662 57.6231L43.0619 56.8414C44.2469 55.2862 45.3662 54.2292 46.4197 53.6702C47.4712 53.0967 48.3286 53.0611 48.9919 53.5633C50.5672 54.7562 50.3023 56.7341 48.197 59.497L44.9634 63.7406C44.9571 63.7489 44.8384 63.9134 44.6071 64.234C44.3842 64.5609 44.1876 64.836 44.0174 65.0594C43.9796 65.109 43.9441 65.1213 43.911 65.0961C43.8695 65.0647 43.8677 65.0242 43.9055 64.9746C44.2336 64.4925 44.3134 64.0703 44.145 63.7079C43.9683 63.3393 43.4136 62.7889 42.481 62.0566L38.5634 59.0901C37.6139 58.3973 36.9342 58.0195 36.5242 57.957C36.1206 57.8861 35.733 58.0688 35.3614 58.5049C35.3236 58.5545 35.2881 58.5668 35.2549 58.5417C35.2135 58.5103 35.2117 58.4698 35.2495 58.4201C35.4197 58.1968 35.6328 57.9342 35.8889 57.6324C36.1367 57.3244 36.2638 57.1662 36.2701 57.1579L38.4039 54.3318L40.1341 52.0611C40.4619 51.631 40.6844 51.2189 40.8015 50.8249C40.925 50.4227 40.9187 50.1049 40.7827 49.8715C40.7396 49.7736 40.7617 49.7447 40.8489 49.7846L46.192 52.1672C46.2169 52.1861 46.2167 52.212 46.1915 52.2451C46.1726 52.2699 46.1476 52.2771 46.1164 52.2665C44.6544 51.903 43.2241 51.9354 41.8257 52.3636C40.4127 52.7938 39.3878 53.4267 38.7512 54.2622L38.6472 54.3986L38.6596 54.4081L38.584 54.5073C38.9418 54.8957 39.5394 55.4069 40.3769 56.041L42.4662 57.6231ZM46.9042 60.8075L47.046 60.6214C47.6638 59.8107 47.9468 59.0532 47.8952 58.3488C47.8435 57.6444 47.4902 57.0442 46.8352 56.5482C46.1387 56.0208 45.4503 55.8518 44.77 56.0411C44.0897 56.2304 43.4438 56.7262 42.8324 57.5286L42.6528 57.7644L45.0531 59.5819C45.932 60.2474 46.549 60.656 46.9042 60.8075Z" fill="#B55A2B"/>
<path d="M62.685 45.3277C62.7324 45.2872 62.7731 45.2867 62.807 45.3261C62.8341 45.3577 62.8239 45.3937 62.7765 45.4342C62.5629 45.6165 62.2991 45.8281 61.985 46.069C61.6777 46.3177 61.52 46.4454 61.5121 46.4522L59.0682 48.5389C59.0603 48.5456 58.9094 48.6813 58.6157 48.9458C58.3287 49.2182 58.0784 49.4455 57.8648 49.6279C57.8174 49.6684 57.7801 49.6729 57.753 49.6413C57.7191 49.6019 57.7259 49.5619 57.7733 49.5214C58.1959 49.1195 58.3632 48.7237 58.2751 48.334C58.1803 47.9363 57.7544 47.2811 56.9976 46.3683L55.371 44.4752C55.0467 44.752 54.7693 44.9957 54.5388 45.2062L53.7558 45.8747L53.0321 46.4926C52.8039 46.6738 52.496 46.9299 52.1084 47.2608L53.735 49.154C54.5235 50.0397 55.1075 50.5599 55.4871 50.7144C55.8599 50.8611 56.2779 50.7571 56.7412 50.4026C56.7886 50.3621 56.8293 50.3616 56.8632 50.401C56.8903 50.4326 56.8801 50.4686 56.8327 50.5091C56.6191 50.6915 56.3553 50.903 56.0412 51.1439C55.7339 51.3926 55.5762 51.5204 55.5683 51.5271L53.1244 53.6138C53.1165 53.6206 52.9656 53.7562 52.6719 54.0207C52.3849 54.2931 52.1346 54.5204 51.921 54.7028C51.8736 54.7433 51.8363 54.7478 51.8092 54.7162C51.7753 54.6768 51.7821 54.6368 51.8295 54.5963C52.2521 54.1944 52.4194 53.7986 52.3313 53.4089C52.2365 53.0112 51.8106 52.356 51.0538 51.4433L47.8413 47.7042C47.0596 46.8263 46.475 46.3135 46.0875 46.1657C45.7079 46.0112 45.2905 46.1078 44.8351 46.4556C44.7877 46.4961 44.7504 46.5006 44.7233 46.469C44.6894 46.4296 44.6962 46.3896 44.7436 46.3491C44.9572 46.1667 45.221 45.9552 45.5351 45.7143C45.8424 45.4656 46.0001 45.3378 46.008 45.3311L48.4519 43.2444C48.4598 43.2376 48.6107 43.102 48.9045 42.8375C49.1915 42.5651 49.4417 42.3378 49.6553 42.1554C49.7027 42.1149 49.7434 42.1144 49.7773 42.1538C49.8044 42.1854 49.7942 42.2214 49.7468 42.2619C49.3321 42.657 49.1682 43.0567 49.2552 43.4611C49.35 43.8588 49.7725 44.51 50.5225 45.4149L51.9661 47.0951L52.7966 46.3861C53.0271 46.1756 53.2926 45.942 53.5932 45.6854C53.8858 45.4356 54.1502 45.2167 54.3863 45.0287L55.2287 44.3095L53.7851 42.6293C53.0034 41.7514 52.4188 41.2386 52.0313 41.0908C51.6517 40.9363 51.2343 41.0329 50.7789 41.3806C50.7315 41.4212 50.6942 41.4256 50.6671 41.3941C50.6332 41.3546 50.64 41.3147 50.6874 41.2742C50.901 41.0918 51.1648 40.8802 51.4789 40.6394C51.7863 40.3907 51.9439 40.2629 51.9518 40.2562L54.3957 38.1695C54.4036 38.1627 54.5545 38.0271 54.8483 37.7626C55.1353 37.4902 55.3855 37.2628 55.5991 37.0805C55.6465 37.04 55.6872 37.0394 55.7211 37.0789C55.7482 37.1104 55.738 37.1465 55.6906 37.187C55.2759 37.5821 55.112 37.9818 55.199 38.3862C55.2938 38.7839 55.7163 39.4351 56.4663 40.34L59.6789 44.0791C60.4673 44.9648 61.0513 45.485 61.4309 45.6395C61.8037 45.7861 62.2217 45.6822 62.685 45.3277Z" fill="#B55A2B"/>
<path d="M71.9536 35.1857C71.9471 35.1301 71.9696 35.1062 72.0211 35.1138L72.0497 35.1338L73.5958 40.5224C73.6223 40.6145 73.5902 40.6318 73.4998 40.5743C72.8571 40.307 72.1881 40.3613 71.4928 40.7371L65.0292 44.2312C65.02 44.2362 64.8441 44.3372 64.5014 44.5343C64.1637 44.7405 63.8713 44.9103 63.6243 45.0439C63.5694 45.0735 63.532 45.0701 63.5122 45.0336C63.4873 44.9879 63.5023 44.9502 63.5572 44.9205C64.0547 44.6162 64.3012 44.2642 64.2969 43.8645C64.2877 43.4558 64.0089 42.7257 63.4607 41.6743L61.105 37.344C60.5252 36.3215 60.0614 35.6974 59.7136 35.4716C59.375 35.2409 58.9466 35.2478 58.4285 35.4924C58.3736 35.5221 58.3362 35.5187 58.3164 35.4821C58.2915 35.4364 58.3065 35.3988 58.3614 35.3691C58.6084 35.2356 58.9108 35.084 59.2683 34.9143C59.621 34.7355 59.8019 34.6436 59.811 34.6387L65.3003 31.6713C65.776 31.4141 66.1484 31.1301 66.4173 30.8192C66.6954 30.5034 66.8205 30.2111 66.7927 29.9424C66.7937 29.8354 66.8258 29.8181 66.8888 29.8904L70.7762 34.2617C70.7911 34.2891 70.7802 34.3127 70.7436 34.3325C70.7162 34.3473 70.6904 34.3435 70.6664 34.321C69.4839 33.3879 68.1675 32.8286 66.717 32.6433C65.2524 32.4538 64.0581 32.6088 63.1341 33.1083L62.887 33.2418L65.3247 37.7229L65.9834 37.3669C66.6604 37.0009 67.0787 36.5619 67.2383 36.0501C67.4162 35.5283 67.3983 35.071 67.1846 34.6782C67.1548 34.6233 67.1582 34.586 67.1948 34.5663C67.2313 34.5465 67.2646 34.564 67.2944 34.6188L69.1282 37.9899C69.1431 38.0173 69.1464 38.0451 69.138 38.0733C69.1247 38.0923 69.1064 38.1022 69.0831 38.1029C69.0549 38.0946 69.0333 38.0767 69.0184 38.0493C68.7749 37.6016 68.3882 37.326 67.8582 37.2223C67.3324 37.1046 66.7448 37.2213 66.0952 37.5724L65.4365 37.9285L67.8816 42.4233L68.1149 42.2972C68.7827 41.9361 69.6055 41.1308 70.5832 39.8811C71.0646 39.2426 71.4447 38.5051 71.7237 37.6685C71.9977 36.8229 72.0744 35.9953 71.9536 35.1857Z" fill="#B55A2B"/>
<path d="M84.8834 31.0743C84.8875 31.0186 84.914 30.9994 84.963 31.0166L84.9872 31.0416L85.4782 36.6059C85.4866 36.701 85.452 36.7119 85.3745 36.6386C84.7967 36.2556 84.1323 36.1824 83.3812 36.4188L76.399 38.6168C76.3891 38.62 76.1979 38.6856 75.8255 38.8137C75.4562 38.9516 75.1382 39.0626 74.8713 39.1466C74.812 39.1653 74.7761 39.1549 74.7636 39.1154C74.748 39.066 74.7698 39.032 74.8291 39.0133C75.3731 38.8094 75.6809 38.5116 75.7524 38.1198C75.8208 37.7181 75.6865 36.9511 75.3496 35.8189L73.8665 31.1371C73.4932 30.0272 73.1579 29.329 72.8606 29.0424C72.5732 28.7527 72.153 28.6786 71.6001 28.82C71.5408 28.8387 71.5049 28.8283 71.4923 28.7888C71.4767 28.7394 71.4985 28.7054 71.5578 28.6867C71.8247 28.6027 72.149 28.5115 72.5308 28.413C72.9095 28.3046 73.1037 28.2489 73.1136 28.2458L79.0433 26.3791C79.5572 26.2174 79.9751 26.0098 80.2969 25.7564C80.6287 25.4999 80.8064 25.2375 80.8302 24.9694C80.8514 24.8649 80.886 24.854 80.9339 24.9367L83.9071 29.9478C83.9164 29.9774 83.9014 29.9985 83.8618 30.0109C83.8322 30.0203 83.8077 30.0117 83.7885 29.9851C82.809 28.8488 81.6277 28.053 80.2445 27.5977C78.8482 27.1357 77.651 27.0618 76.6529 27.376L76.386 27.46L77.9208 32.3048L78.6323 32.0808C79.3637 31.8506 79.8558 31.5001 80.1089 31.0294C80.3816 30.5525 80.4508 30.1017 80.3162 29.677C80.2975 29.6177 80.3078 29.5819 80.3474 29.5694C80.3869 29.557 80.416 29.5804 80.4348 29.6396L81.5894 33.2843C81.5988 33.314 81.5967 33.3418 81.5832 33.3677C81.5666 33.3838 81.5468 33.3901 81.5239 33.3864C81.4979 33.3729 81.4802 33.3513 81.4708 33.3217C81.3175 32.8377 80.9915 32.4949 80.493 32.2934C80.0012 32.0789 79.4044 32.0821 78.7027 32.303L77.9912 32.527L79.5306 37.3866L79.7826 37.3073C80.504 37.0802 81.4611 36.4476 82.6539 35.4095C83.2455 34.8757 83.757 34.2259 84.1883 33.4601C84.6164 32.6844 84.8481 31.8892 84.8834 31.0743Z" fill="#B55A2B"/>
<path d="M96.7206 30.2593L91.0328 30.7583L91.0123 30.5252L96.7 30.0262L96.7206 30.2593Z" fill="#B55A2B"/>
</svg>
