<svg width="24" height="24" viewBox="0 0 24 24" fill="none" xmlns="http://www.w3.org/2000/svg">
<path d="M21 16L18 16C17.4696 16 16.9609 16.2107 16.5858 16.5858C16.2107 16.9609 16 17.4696 16 18L16 21" stroke="#FDF3EE" stroke-linecap="round" stroke-linejoin="round"/>
<path d="M3 8L6 8C6.53043 8 7.03914 7.78929 7.41421 7.41421C7.78929 7.03914 8 6.53043 8 6L8 3" stroke="#FDF3EE" stroke-linecap="round" stroke-linejoin="round"/>
<path d="M16 3L16 6C16 6.53043 16.2107 7.03914 16.5858 7.41421C16.9609 7.78929 17.4696 8 18 8L21 8" stroke="#FDF3EE" stroke-linecap="round" stroke-linejoin="round"/>
<path d="M8 21L8 18C8 17.4696 7.78929 16.9609 7.41421 16.5858C7.03914 16.2107 6.53043 16 6 16L3 16" stroke="#FDF3EE" stroke-linecap="round" stroke-linejoin="round"/>
</svg>
